<?xml version="1.0" encoding="UTF-8"?>
<svg width="75.66px" height="74.91px" viewBox="0 0 77.5 74.91" version="1.1" xmlns="http://www.w3.org/2000/svg">
    <g stroke="none" stroke-width="1" fill="none" fill-rule="evenodd">
        <g transform="translate(-35, -696)">
            <g transform="translate(36.5007, 696)">
                <g transform="translate(-2, 0)">
                    <path d="M43.7645257,0 L6.04171615,0 C4.36605054,0 2.9945514,1.37149914 2.9945514,3.04716475 L2.9945514,59.0256295 C2.9945514,60.7014617 4.36588387,62.0729609 6.04171615,62.0729609 L43.7645257,62.0729609 C45.4405247,62.0729609 46.8118571,60.7016284 46.8118571,59.0256295 L46.8118571,3.04733141 C46.8118571,1.37133247 45.4401913,0 43.7645257,0 Z"
                          fill="#8AC9FE"></path>
                    <path d="M42.6663597,0 L40.0031947,0 L40.0031947,62.0731275 L42.6663597,62.0731275 L42.6663597,0 L42.6663597,0 Z M37.1891965,0 L34.5260315,0 L34.5260315,62.0731275 L37.1891965,62.0731275 L37.1891965,0 L37.1891965,0 Z M31.7120333,0 L29.0488683,0 L29.0488683,62.0729609 L31.7120333,62.0729609 L31.7120333,0 L31.7120333,0 Z M26.2347034,0 L23.5715384,0 L23.5715384,62.0729609 L26.2347034,62.0729609 L26.2347034,0 L26.2347034,0 Z M20.7575402,0 L18.0943752,0 L18.0943752,62.0731275 L20.7575402,62.0731275 L20.7575402,0 L20.7575402,0 Z M15.280377,0 L12.617212,0 L12.617212,62.0731275 L15.280377,62.0731275 L15.280377,0 L15.280377,0 Z M9.80321378,0 L7.13988212,0 L7.13988212,62.0729609 L9.80304711,62.0729609 L9.80321378,0 Z"
                          fill="#60B7FF"></path>
                    <rect fill="#D8ECFE" x="2.99438474" y="6.27532938"
                          width="43.8174724" height="49.5226355"></rect>
                    <circle stroke="#8AC9FE" cx="24.9043197" cy="31.04"
                            r="17.11"></circle>
                    <path d="M26.2347034,43.9694723 C26.2352034,44.7048052 25.6393705,45.3014714 24.9040376,45.3019718 C24.1687047,45.3024714 23.5720384,44.7066385 23.5715384,43.9713056 L23.5715384,42.766473 L22.6372057,43.7659724 C22.134706,44.3026387 21.2923732,44.3303054 20.7557069,43.8279724 C20.2190405,43.3254727 20.1913739,42.4831399 20.6937069,41.9464736 L23.5715384,38.8681422 L23.5715384,33.342979 L18.7865415,36.1056439 L17.5595422,40.1369747 C17.3460424,40.8403076 16.6025428,41.237474 15.8992099,41.0239741 C15.1957104,40.8104743 14.798544,40.0669747 15.0122105,39.3636419 L15.4105436,38.0546427 L14.3670442,38.6571423 C13.729878,39.0243087 12.9155452,38.8056422 12.5483787,38.1684759 C12.1812123,37.5313097 12.3998788,36.7169769 13.0370451,36.3498104 L14.0827111,35.7461441 L12.7477119,35.4361443 C12.033379,35.2703111 11.588546,34.5564782 11.7543792,33.8419787 C11.9203791,33.1274791 12.6340453,32.6828127 13.3483782,32.848646 L17.4510423,33.801312 L22.2383726,31.0374804 L17.449709,28.2726488 L13.3517115,29.2243149 C12.637212,29.3919815 11.9222124,28.9486484 11.7545459,28.2341489 C11.5868793,27.519816 12.0302124,26.8046498 12.7447119,26.6369832 L14.0797111,26.3269834 L13.0357117,25.7241505 C12.3980455,25.355984 12.1795456,24.5406512 12.547712,23.9029849 C12.9158785,23.2653187 13.7312113,23.0468188 14.3688776,23.4149852 L15.4128769,24.0178182 L15.0138772,22.706819 C14.8018773,22.0043195 15.1995437,21.2628199 15.9020433,21.0506534 C16.6045428,20.8386535 17.3460424,21.2363199 17.5582089,21.9388195 L18.7832081,25.9636503 L23.5718718,28.7283152 L23.5718718,23.2004854 L20.6955402,20.1238207 C20.1945406,19.5879877 20.2228739,18.7476549 20.7587069,18.2466552 C21.2945399,17.7456555 22.1348727,17.7739888 22.6358724,18.3098218 L23.5718718,19.3109878 L23.5718718,18.1036553 C23.5713718,17.3683224 24.1672047,16.7716561 24.9025376,16.7711558 C25.6378705,16.7706561 26.2345368,17.3664891 26.2350368,18.1018219 L26.2350368,19.3066545 L27.1695362,18.3071551 C27.6720359,17.7704888 28.5143687,17.7428222 29.051035,18.2451552 C29.5877013,18.7476549 29.615368,19.5899877 29.1130349,20.126654 L26.2352034,23.2049854 L26.2352034,28.7301486 L31.0202004,25.9674836 L32.2471996,21.9361528 C32.4606995,21.23282 33.2040324,20.8354869 33.9075319,21.0491534 C34.6108648,21.2626533 35.0080312,22.0061528 34.7945314,22.7094857 L34.3960316,24.0184849 L35.439531,23.4161519 C36.0766972,23.0489855 36.8908634,23.267652 37.2581965,23.9048183 C37.6253629,24.5419845 37.4066964,25.3563174 36.7695301,25.7234838 L35.7240308,26.3271501 L37.0590299,26.6371499 C37.7733628,26.8029831 38.2181959,27.516816 38.0523626,28.2313155 C37.8865294,28.9458151 37.1726965,29.3904815 36.458197,29.2246482 L32.3556996,28.2721488 L27.5685359,31.0359804 L32.3571996,33.8006454 L36.455197,32.849146 C37.1696965,32.6814794 37.8846961,33.1249791 38.0523626,33.839312 C38.2200292,34.5538116 37.7765295,35.2688111 37.0621966,35.4364777 L35.7273641,35.7464775 L36.7713634,36.3493104 C37.4090297,36.7174769 37.6275296,37.5328097 37.2593631,38.1704759 C36.8911967,38.8081422 36.0758639,39.0266421 35.4381976,38.6584756 L34.3940316,38.0556427 L34.7930314,39.3668085 C35.0050312,40.0693081 34.6075315,40.8108076 33.9050319,41.0229741 C33.2025324,41.234974 32.4610328,40.8374743 32.2488663,40.134808 L31.0238671,36.1099772 L26.2352034,33.3453123 L26.2352034,38.8731422 L29.1113683,41.9498069 C29.6122013,42.4854732 29.5840346,43.3259727 29.0482016,43.8269724 C28.5125353,44.3278054 27.6720359,44.2996387 27.1710362,43.7638058 L26.2350368,42.7626397 L26.2350368,43.9694723 L26.2347034,43.9694723 Z"
                          fill="#41A8FC"></path>
                </g>
                <g
                        transform="translate(63.086, 52) rotate(10) translate(-63.086, -52)translate(23, 12)">
                    <path d="M43.7645257,0 L6.04171615,0 C4.36605054,0 2.9945514,1.37149914 2.9945514,3.04716475 L2.9945514,59.0256295 C2.9945514,60.7014617 4.36588387,62.0729609 6.04171615,62.0729609 L43.7645257,62.0729609 C45.4405247,62.0729609 46.8118571,60.7016284 46.8118571,59.0256295 L46.8118571,3.04733141 C46.8118571,1.37133247 45.4401913,0 43.7645257,0 Z"
                          fill="#8AC9FE"></path>
                    <path d="M42.6663597,0 L40.0031947,0 L40.0031947,62.0731275 L42.6663597,62.0731275 L42.6663597,0 L42.6663597,0 Z M37.1891965,0 L34.5260315,0 L34.5260315,62.0731275 L37.1891965,62.0731275 L37.1891965,0 L37.1891965,0 Z M31.7120333,0 L29.0488683,0 L29.0488683,62.0729609 L31.7120333,62.0729609 L31.7120333,0 L31.7120333,0 Z M26.2347034,0 L23.5715384,0 L23.5715384,62.0729609 L26.2347034,62.0729609 L26.2347034,0 L26.2347034,0 Z M20.7575402,0 L18.0943752,0 L18.0943752,62.0731275 L20.7575402,62.0731275 L20.7575402,0 L20.7575402,0 Z M15.280377,0 L12.617212,0 L12.617212,62.0731275 L15.280377,62.0731275 L15.280377,0 L15.280377,0 Z M9.80321378,0 L7.13988212,0 L7.13988212,62.0729609 L9.80304711,62.0729609 L9.80321378,0 Z"
                          fill="#60B7FF"></path>
                    <rect fill="#D8ECFE" x="2.99438474" y="6.27532938"
                          width="43.8174724" height="49.5226355"></rect>
                    <circle stroke="#8AC9FE" cx="24.9043197" cy="31.04"
                            r="17.11"></circle>
                    <path d="M26.2347034,43.9694723 C26.2352034,44.7048052 25.6393705,45.3014714 24.9040376,45.3019718 C24.1687047,45.3024714 23.5720384,44.7066385 23.5715384,43.9713056 L23.5715384,42.766473 L22.6372057,43.7659724 C22.134706,44.3026387 21.2923732,44.3303054 20.7557069,43.8279724 C20.2190405,43.3254727 20.1913739,42.4831399 20.6937069,41.9464736 L23.5715384,38.8681422 L23.5715384,33.342979 L18.7865415,36.1056439 L17.5595422,40.1369747 C17.3460424,40.8403076 16.6025428,41.237474 15.8992099,41.0239741 C15.1957104,40.8104743 14.798544,40.0669747 15.0122105,39.3636419 L15.4105436,38.0546427 L14.3670442,38.6571423 C13.729878,39.0243087 12.9155452,38.8056422 12.5483787,38.1684759 C12.1812123,37.5313097 12.3998788,36.7169769 13.0370451,36.3498104 L14.0827111,35.7461441 L12.7477119,35.4361443 C12.033379,35.2703111 11.588546,34.5564782 11.7543792,33.8419787 C11.9203791,33.1274791 12.6340453,32.6828127 13.3483782,32.848646 L17.4510423,33.801312 L22.2383726,31.0374804 L17.449709,28.2726488 L13.3517115,29.2243149 C12.637212,29.3919815 11.9222124,28.9486484 11.7545459,28.2341489 C11.5868793,27.519816 12.0302124,26.8046498 12.7447119,26.6369832 L14.0797111,26.3269834 L13.0357117,25.7241505 C12.3980455,25.355984 12.1795456,24.5406512 12.547712,23.9029849 C12.9158785,23.2653187 13.7312113,23.0468188 14.3688776,23.4149852 L15.4128769,24.0178182 L15.0138772,22.706819 C14.8018773,22.0043195 15.1995437,21.2628199 15.9020433,21.0506534 C16.6045428,20.8386535 17.3460424,21.2363199 17.5582089,21.9388195 L18.7832081,25.9636503 L23.5718718,28.7283152 L23.5718718,23.2004854 L20.6955402,20.1238207 C20.1945406,19.5879877 20.2228739,18.7476549 20.7587069,18.2466552 C21.2945399,17.7456555 22.1348727,17.7739888 22.6358724,18.3098218 L23.5718718,19.3109878 L23.5718718,18.1036553 C23.5713718,17.3683224 24.1672047,16.7716561 24.9025376,16.7711558 C25.6378705,16.7706561 26.2345368,17.3664891 26.2350368,18.1018219 L26.2350368,19.3066545 L27.1695362,18.3071551 C27.6720359,17.7704888 28.5143687,17.7428222 29.051035,18.2451552 C29.5877013,18.7476549 29.615368,19.5899877 29.1130349,20.126654 L26.2352034,23.2049854 L26.2352034,28.7301486 L31.0202004,25.9674836 L32.2471996,21.9361528 C32.4606995,21.23282 33.2040324,20.8354869 33.9075319,21.0491534 C34.6108648,21.2626533 35.0080312,22.0061528 34.7945314,22.7094857 L34.3960316,24.0184849 L35.439531,23.4161519 C36.0766972,23.0489855 36.8908634,23.267652 37.2581965,23.9048183 C37.6253629,24.5419845 37.4066964,25.3563174 36.7695301,25.7234838 L35.7240308,26.3271501 L37.0590299,26.6371499 C37.7733628,26.8029831 38.2181959,27.516816 38.0523626,28.2313155 C37.8865294,28.9458151 37.1726965,29.3904815 36.458197,29.2246482 L32.3556996,28.2721488 L27.5685359,31.0359804 L32.3571996,33.8006454 L36.455197,32.849146 C37.1696965,32.6814794 37.8846961,33.1249791 38.0523626,33.839312 C38.2200292,34.5538116 37.7765295,35.2688111 37.0621966,35.4364777 L35.7273641,35.7464775 L36.7713634,36.3493104 C37.4090297,36.7174769 37.6275296,37.5328097 37.2593631,38.1704759 C36.8911967,38.8081422 36.0758639,39.0266421 35.4381976,38.6584756 L34.3940316,38.0556427 L34.7930314,39.3668085 C35.0050312,40.0693081 34.6075315,40.8108076 33.9050319,41.0229741 C33.2025324,41.234974 32.4610328,40.8374743 32.2488663,40.134808 L31.0238671,36.1099772 L26.2352034,33.3453123 L26.2352034,38.8731422 L29.1113683,41.9498069 C29.6122013,42.4854732 29.5840346,43.3259727 29.0482016,43.8269724 C28.5125353,44.3278054 27.6720359,44.2996387 27.1710362,43.7638058 L26.2350368,42.7626397 L26.2350368,43.9694723 L26.2347034,43.9694723 Z"
                          fill="#41A8FC"></path>
                </g>
            </g>
        </g>
    </g>
</svg>