<?xml version="1.0" encoding="UTF-8"?>
<svg width="30px" height="30px" viewBox="0 0 30 30" version="1.1" xmlns="http://www.w3.org/2000/svg" xmlns:xlink="http://www.w3.org/1999/xlink">
    <title>Artboard</title>
    <defs>
        <polygon id="path-1" points="0 0 30 0 30 30 0 30"></polygon>
        <path d="M15,0 C6.71567003,0 0,6.71567016 0,15 C0,23.28433 6.71567003,30 15,30 C23.28433,30 30,23.28433 30,15 C30,6.71567016 23.28433,0 15,0 Z" id="path-3"></path>
        <polygon id="path-5" points="0 0 21.526657 0 21.526657 18.6527649 0 18.6527649"></polygon>
    </defs>
    <g id="Artboard" stroke="none" stroke-width="1" fill="none" fill-rule="evenodd">
        <g id="2" transform="translate(-0, 0)">
            <g id="Clipped">
                <mask id="mask-2" fill="white">
                    <use xlink:href="#path-1"></use>
                </mask>
                <g id="Path"></g>
                <g mask="url(#mask-2)">
                    <mask id="mask-4" fill="white">
                        <use xlink:href="#path-3"></use>
                    </mask>
                    <g id="Path"></g>
                    <polygon id="Path" fill="#008C8C" fill-rule="nonzero" mask="url(#mask-4)" points="0 0 30 0 30 30 0 30"></polygon>
                </g>
            </g>
            <g id="Clipped" transform="translate(4.2555, 4.1295)">
                <mask id="mask-6" fill="white">
                    <use xlink:href="#path-5"></use>
                </mask>
                <g id="Path"></g>
                <path d="M10.7439807,0.00644936103 C10.5648895,0.00644936103 10.3857983,0.126008795 10.3857983,0.364631597 L10.3857983,1.43917856 C10.3857983,1.91642416 11.1021629,1.91642416 11.1021629,1.43917856 L11.1021629,0.364631597 C11.1021629,0.126008795 10.9230718,0.00644936103 10.7439807,0.00644936103 Z M5.06068921,1.53988623 C5.02695459,1.53591745 4.99321997,1.53790184 4.95998142,1.54335894 C4.74169857,1.58255067 4.55516596,1.81968514 4.70449124,2.0791441 L5.24126865,3.00982276 C5.48038752,3.42356803 6.10150143,3.06588173 5.86238256,2.6516404 L5.32560514,1.72096186 C5.2581359,1.60537108 5.15941262,1.54931211 5.06068921,1.53988623 Z M16.4277682,1.53988623 C16.3285487,1.54931211 16.2318097,1.60537108 16.1643404,1.72096186 L15.6275631,2.6516404 C15.3884441,3.06588173 16.009558,3.42356803 16.248677,3.00982276 L16.7854543,2.0791441 C16.9347797,1.81968514 16.7462626,1.58255067 16.528476,1.54335894 C16.4947413,1.53790184 16.4610067,1.53591745 16.4277682,1.53988623 Z M0.846838111,5.73290118 C0.507507512,5.69569384 0.277814526,6.19724831 0.63996554,6.40660147 L1.5706442,6.94337875 C1.98488554,7.18249775 2.34306777,6.56138384 1.92882656,6.32226485 L0.998147776,5.7849915 C0.945561519,5.75522553 0.895455716,5.73835828 0.846838111,5.73290118 Z M20.6411231,5.73290118 C20.5925056,5.73835828 20.5423998,5.75522553 20.4903095,5.7849915 L19.5591347,6.32226485 C19.1453896,6.56138384 19.5035718,7.18249775 19.917317,6.94337875 L20.8479958,6.40660147 C21.2101468,6.19724831 20.9804537,5.69569384 20.6411231,5.73290118 Z M7.52083609,6.09505232 C6.41305057,6.09505232 5.41688706,6.81290524 4.83694927,7.93011639 C4.65587376,7.89687796 4.48025523,7.88546769 4.2976914,7.88546769 C3.65028437,7.88546769 3.02917046,8.08886754 2.47354141,8.4991401 C1.38956869,9.29934512 0.746130441,10.7171915 0.716364471,12.2466597 C0.298650552,12.3900318 0,12.783933 0,13.257706 C0,13.7498346 0.326432004,14.1586189 0.77043918,14.2871081 L1.43818617,17.6223707 C1.48680378,17.8738921 1.58552706,18.113011 1.76263391,18.3050007 C1.93974064,18.4969904 2.19721521,18.6294483 2.50529164,18.6294483 L5.37223836,18.6294483 C5.68726022,18.6294483 5.93729329,18.4935177 6.11440002,18.3010319 C6.29001843,18.1110266 6.38874183,17.8724038 6.43884764,17.6258433 L6.79355729,16.2104776 C6.83076462,15.9530031 6.93891378,15.7699431 7.16066934,15.764486 L7.52083609,15.764486 C7.60467651,15.764486 7.67214575,15.7922675 7.73515015,15.861225 C7.79865062,15.9286943 7.85669398,16.0477576 7.88844421,16.2010517 L8.24464205,17.6258433 C8.29474798,17.8724038 8.39545565,18.1110266 8.57107418,18.3010319 C8.76107938,18.5084006 9.01508123,18.6294483 9.31174752,18.6294483 L12.1767099,18.6294483 C12.473376,18.6294483 12.7268818,18.5084006 12.9168871,18.3010319 C13.0925055,18.1110266 13.1932133,17.8724038 13.2433191,17.6258433 L13.6000132,16.2010517 C13.6312673,16.0477576 13.6893107,15.9286943 13.7528112,15.861225 C13.8163116,15.7922675 13.8832848,15.764486 13.9671252,15.764486 L14.327292,15.764486 C14.5490474,15.7699431 14.6571967,15.9530031 14.6949001,16.2104776 L15.0491135,17.6258433 C15.0992193,17.8724038 15.1984388,18.1110266 15.3735613,18.3010319 C15.550668,18.4935177 15.8007011,18.6294483 16.116219,18.6294483 L18.9831657,18.6294483 C19.2907461,18.6294483 19.5462363,18.4969904 19.7253274,18.3050007 C19.9024341,18.113011 20.0011575,17.8738921 20.049775,17.6223707 L20.7195065,14.2871081 C21.1615293,14.1586189 21.4879613,13.7498346 21.4879613,13.257706 C21.4879613,12.783933 21.1898068,12.3900318 20.7715967,12.2466597 C20.7418309,10.7171915 20.0983926,9.29934512 19.014916,8.4991401 C18.4587908,8.08886754 17.8356926,7.88546769 17.1902698,7.88546769 C17.007706,7.88546769 16.8320875,7.89687796 16.6515081,7.93011639 C16.0710741,6.81290524 15.0754067,6.09505232 13.9671252,6.09505232 C12.8593398,6.09505232 11.8631763,6.81290524 11.281254,7.93011639 C11.1021629,7.89687796 10.9285289,7.88546769 10.745965,7.88546769 L10.7419963,7.88546769 C10.5594324,7.88546769 10.3857983,7.89687796 10.2067072,7.93011639 C9.62478499,6.81290524 8.62862148,6.09505232 7.52083609,6.09505232 Z M7.52083609,6.81092072 C8.28581817,6.81092072 9.02797983,7.29064691 9.5111786,8.15038374 C9.30777874,8.24166566 9.10834767,8.36122509 8.91983054,8.4991401 C8.29325966,8.96199891 7.81948664,9.62577725 7.52083609,10.4036579 C7.22218541,9.62577725 6.74841239,8.96199891 6.12184139,8.4991401 C5.93332451,8.36122509 5.73389331,8.24166566 5.53247784,8.15038374 C6.01567661,7.29064691 6.75585389,6.81092072 7.52083609,6.81092072 Z M13.9671252,6.81092072 C14.7321074,6.81092072 15.4722846,7.29064691 15.9554835,8.15038374 C15.7540679,8.24166566 15.5546368,8.36122509 15.3661198,8.4991401 C14.7395488,8.96199891 14.2657758,9.62577725 13.9671252,10.4036579 C13.6689707,9.62577725 13.1951977,8.96199891 12.5681306,8.4991401 C12.3801097,8.36122509 12.1801826,8.24166566 11.9767826,8.15038374 C12.4599814,7.29064691 13.2026392,6.81092072 13.9671252,6.81092072 Z M4.2976914,8.60183228 C4.77692152,8.60183228 5.25664758,8.74917317 5.69867036,9.0756053 C6.5455086,9.70019179 7.11602064,10.8699894 7.16265373,12.1831592 C5.2581359,12.1831592 3.3372469,12.1831592 1.4327292,12.1831592 C1.47936229,10.8699894 2.04987419,9.70019179 2.89671243,9.0756053 C3.33873522,8.74917317 3.8184614,8.60183228 4.2976914,8.60183228 Z M10.7439807,8.60183228 C11.225195,8.60183228 11.7029368,8.74917317 12.1449596,9.0756053 C12.9917977,9.70019179 13.5623098,10.8699894 13.608943,12.1831592 C11.6414208,12.1831592 9.70862542,12.1831592 7.87901833,12.1831592 C7.92565154,10.8699894 8.49616345,9.70019179 9.34300169,9.0756053 C9.78552054,8.74917317 10.2627661,8.60183228 10.7439807,8.60183228 Z M17.1902698,8.60183228 C17.669996,8.60183228 18.1492261,8.74917317 18.5912487,9.0756053 C19.438087,9.70019179 20.0090951,10.8699894 20.0557282,12.1831592 C18.1512104,12.1831592 16.2298253,12.1831592 14.3253075,12.1831592 C14.3719407,10.8699894 14.9429488,9.70019179 15.7897869,9.0756053 C16.2318097,8.74917317 16.7110398,8.60183228 17.1902698,8.60183228 Z M1.07256244,12.8995238 C7.71679445,12.8995238 14.241467,12.8995238 20.4153989,12.8995238 C20.6187987,12.8995238 20.7715967,13.069189 20.7715967,13.257706 C20.7715967,13.445727 20.6187987,13.6158884 20.4153989,13.6158884 L18.2648167,13.6158884 C18.0445495,13.6158884 17.9086188,13.7929951 17.9066344,13.9701019 C17.90465,14.1511775 18.0465339,14.3317568 18.2648167,14.3317568 L19.9773449,14.3317568 L19.3448207,17.4879283 C19.3185276,17.6298121 19.2609803,17.7473873 19.1994642,17.8143605 C19.1359637,17.8833179 19.0724633,17.9130837 18.9811813,17.9130837 L16.116219,17.9130837 C16.0303942,17.9130837 15.9649093,17.8853023 15.9014089,17.8183292 C15.8081426,17.7042268 15.7709352,17.5717688 15.7466265,17.4690767 L15.3958856,16.0666094 C15.3175022,15.508996 14.9166555,15.046137 14.327292,15.046137 L13.9671252,15.046137 C13.6387087,15.046137 13.4040547,15.1845482 13.2269479,15.3785223 C13.0513294,15.5685276 12.9506217,15.8036777 12.9005158,16.049742 L12.5438219,17.4765181 C12.5125677,17.6278279 12.4545244,17.7488755 12.3910239,17.8183292 C12.3483595,17.8649623 12.2774175,17.9130837 12.1767099,17.9130837 L9.31174752,17.9130837 C9.21054366,17.9130837 9.1400979,17.8649623 9.09693739,17.8183292 C9.03343693,17.7488755 8.97588964,17.6278279 8.9441394,17.4765181 L8.58794143,16.049742 C8.53733956,15.8036777 8.43663177,15.5685276 8.26150943,15.3785223 C8.0844027,15.1845482 7.84925248,15.046137 7.52083609,15.046137 L7.16066934,15.046137 C6.57130566,15.046137 6.17045899,15.508996 6.09207567,16.0666094 L5.7413348,17.4690767 C5.71702593,17.5717688 5.67981873,17.7042268 5.58655242,17.8183292 C5.52305196,17.8853023 5.45806317,17.9130837 5.37223836,17.9130837 L2.50677997,17.9130837 C2.41549805,17.9130837 2.35199759,17.8833179 2.28899319,17.8143605 C2.22698105,17.7473873 2.16943376,17.6298121 2.14314063,17.4879283 L1.51111252,14.3317568 L3.22314456,14.3317568 C3.44142741,14.3317568 3.58331119,14.1511775 3.5813268,13.9701019 C3.57934241,13.7929951 3.4434118,13.6158884 3.22314456,13.6158884 L1.07256244,13.6158884 C0.869162588,13.6158884 0.716364471,13.445727 0.716364471,13.257706 C0.716364471,13.069189 0.869162588,12.8995238 1.07256244,12.8995238" id="Shape" fill="#FFFFFF" fill-rule="nonzero" mask="url(#mask-6)"></path>
            </g>
        </g>
    </g>
</svg>