<?xml version="1.0" encoding="UTF-8"?>
<svg width="67px" height="96px" viewBox="0 0 67 96" version="1.1" xmlns="http://www.w3.org/2000/svg" xmlns:xlink="http://www.w3.org/1999/xlink">
    <title>logo</title>
    <g id="logo" stroke="none" fill="none" fill-rule="evenodd" stroke-width="1">
        <g id="Group">
            <path d="M0.978516,49.4651 C0.978516,31.3648 15.6482,16.6951 33.7485,16.6951 C51.8488,16.6951 66.5185,31.3648 66.5185,49.4651 L0.978516,49.4651 Z" id="Path" fill="#FF8C14" fill-rule="nonzero"></path>
            <path d="M44.8432,30.107 C45.8393,30.107 46.6468,29.2995 46.6468,28.3034 C46.6468,27.3073 45.8393,26.4998 44.8432,26.4998 C43.8471,26.4998 43.0396,27.3073 43.0396,28.3034 C43.0396,29.2995 43.8471,30.107 44.8432,30.107 Z" id="Path" fill="#8C3C00" fill-rule="nonzero"></path>
            <path d="M53.6205,38.167 C54.6166,38.167 55.4241,37.3595 55.4241,36.3634 C55.4241,35.3673 54.6166,34.5598 53.6205,34.5598 C52.6244,34.5598 51.8169,35.3673 51.8169,36.3634 C51.8169,37.3595 52.6244,38.167 53.6205,38.167 Z" id="Path" fill="#8C3C00" fill-rule="nonzero"></path>
            <path d="M43.6923,40.1365 C44.6884,40.1365 45.4959,39.329 45.4959,38.3329 C45.4959,37.3368 44.6884,36.5293 43.6923,36.5293 C42.6962,36.5293 41.8887,37.3368 41.8887,38.3329 C41.8887,39.329 42.6962,40.1365 43.6923,40.1365 Z" id="Path" fill="#8C3C00" fill-rule="nonzero"></path>
            <path d="M12.0303,92.0078 L19.6943,95.2189 L25.5654,81.2022 C28.1825,81.8765 30.9227,82.2351 33.7485,82.2351 C51.8167,82.2351 66.5185,67.5333 66.5185,49.4651 L58.2123,49.4651 C58.2123,62.952 47.2408,73.9289 33.7485,73.9289 C20.2562,73.9289 9.28475,62.9574 9.28475,49.4651 L0.978516,49.4651 C0.978516,61.7692 7.7969,72.5052 17.8532,78.1087 L12.0303,92.0078 Z" id="Path" fill="#FFFFFF" fill-rule="nonzero"></path>
            <path d="M47.2997,0.237793 C40.8559,0.237793 35.2578,3.82895 32.3784,9.11668 C34.5941,11.1825 36.2693,13.821 37.1363,16.8128 C44.6344,15.1323 50.2646,8.50121 50.3931,0.526798 C49.3923,0.33948 48.3593,0.243145 47.2997,0.243145 L47.2997,0.237793 Z" id="Path" fill="#00641E" fill-rule="nonzero"></path>
            <path d="M20.8129,4.56226 C19.5391,4.56226 18.2975,4.70676 17.0986,4.97436 C19.1484,12.055 25.6778,17.2357 33.4221,17.2357 C34.6959,17.2357 35.9375,17.0912 37.1363,16.8236 C35.0865,9.74295 28.5572,4.56226 20.8129,4.56226 Z" id="Path" fill="#00961E" fill-rule="nonzero"></path>
        </g>
    </g>
</svg>