<?xml version="1.0" encoding="UTF-8"?>
<svg width="100px" height="100px" viewBox="0 0 100 100" version="1.1" xmlns="http://www.w3.org/2000/svg" xmlns:xlink="http://www.w3.org/1999/xlink">
    <title>Artboard</title>
    <defs>
        <polygon id="path-1" points="0 0 100 0 100 100 0 100"></polygon>
    </defs>
    <g id="Artboard" stroke="none" stroke-width="1" fill="none" fill-rule="evenodd">
        <g id="1" transform="translate(-0.0313, -0.0313)">
            <g id="Clipped">
                <mask id="mask-2" fill="white">
                    <use xlink:href="#path-1"></use>
                </mask>
                <g id="Path"></g>
                <path d="M100.010417,50.0057873 C100.010417,50.8240741 99.9907407,51.6412039 99.9502317,52.459491 C99.9097224,53.2766204 99.8495372,54.0925926 99.7696761,54.9062501 C99.6898151,55.7210649 99.5891206,56.533565 99.4687502,57.3425926 C99.3495372,58.1516204 99.209491,58.9583336 99.0497686,59.7604169 C98.8900465,60.5636575 98.7106483,61.3622687 98.5115742,62.1550927 C98.3136575,62.9490744 98.0949076,63.7384261 97.8576391,64.5208335 C97.619213,65.3043982 97.3634261,66.0810187 97.0879633,66.8518519 C96.8113428,67.621528 96.5173612,68.3854169 96.2037037,69.1412039 C95.8912039,69.8969908 95.5590279,70.6458335 95.209491,71.3854169 C94.8599538,72.1250003 94.4918984,72.8553241 94.1064818,73.5775464 C93.7199076,74.2997686 93.3171298,75.0115742 92.8958335,75.712963 C92.4756945,76.4155093 92.0381947,77.1064818 91.5833333,77.787037 C91.1284723,78.4675929 90.6574074,79.1365742 90.170139,79.7928243 C89.6828705,80.4502317 89.1793982,81.0960649 88.6597224,81.7280095 C88.1412039,82.3611111 87.6064818,82.9803241 87.0567132,83.5868056 C86.5069446,84.1932871 85.9432871,84.7858797 85.3645834,85.3645834 C84.7858797,85.9432871 84.1932871,86.5069446 83.5868056,87.0567132 C82.9803241,87.6064818 82.3611111,88.1412039 81.7280095,88.6597224 C81.0960649,89.1793982 80.4502317,89.6828705 79.7928243,90.170139 C79.1365742,90.6574074 78.4675929,91.1284723 77.787037,91.5833333 C77.1064818,92.0381947 76.4155093,92.4756945 75.712963,92.8958335 C75.0115742,93.3171298 74.2997686,93.7199076 73.5775464,94.1064818 C72.8553241,94.4918984 72.1250003,94.8599538 71.3854169,95.209491 C70.6458335,95.5590279 69.8969908,95.8912039 69.1412039,96.2037037 C68.3854169,96.5173612 67.621528,96.8113428 66.8518519,97.0879633 C66.0810187,97.3634261 65.3043982,97.619213 64.5208335,97.8576391 C63.7384261,98.0949076 62.9490744,98.3136575 62.1550927,98.5115742 C61.3622687,98.7106483 60.5636575,98.8900465 59.7604169,99.0497686 C58.9583336,99.209491 58.1516204,99.3495372 57.3425926,99.4687502 C56.533565,99.5891206 55.7210649,99.6898151 54.9062501,99.7696761 C54.0925926,99.8495372 53.2766204,99.9097224 52.459491,99.9502317 C51.6412039,99.9907407 50.8240741,100.010417 50.0057873,100.010417 C49.1875001,100.010417 48.369213,99.9907407 47.5520836,99.9502317 C46.7337964,99.9097224 45.9178243,99.8495372 45.1041668,99.7696761 C44.289352,99.6898151 43.4780095,99.5891206 42.6678243,99.4687502 C41.8587964,99.3495372 41.0520836,99.209491 40.25,99.0497686 C39.4467594,98.8900465 38.6493058,98.7106483 37.8553241,98.5115742 C37.0613428,98.3136575 36.2731484,98.0949076 35.4895834,97.8576391 C34.7060187,97.619213 33.9293982,97.3634261 33.158565,97.0879633 C32.3888889,96.8113428 31.6250003,96.5173612 30.869213,96.2037037 C30.1134261,95.8912039 29.3645834,95.5590279 28.6250003,95.209491 C27.8854169,94.8599538 27.1550927,94.4918984 26.4328705,94.1064818 C25.7118056,93.7199076 25,93.3171298 24.2974539,92.8958335 C23.5960649,92.4756945 22.9039354,92.0381947 22.2233799,91.5833333 C21.5439816,91.1284723 20.8750003,90.6574074 20.2175929,90.170139 C19.5601855,89.6828705 18.9155093,89.1793982 18.2824077,88.6597224 C17.6493058,88.1412039 17.0300927,87.6064818 16.4236113,87.0567132 C15.8171298,86.5069446 15.2245372,85.9432871 14.6458335,85.3645834 C14.0671298,84.7858797 13.5034723,84.1932871 12.9537037,83.5868056 C12.4039354,82.9803241 11.8703704,82.3611111 11.3506945,81.7280095 C10.832176,81.0960649 10.328704,80.4502317 9.84027793,79.7928243 C9.35300948,79.1365742 8.88194459,78.4675929 8.42708356,77.787037 C7.97337985,77.1064818 7.53472237,76.4155093 7.11458341,75.712963 C6.69328711,75.0115742 6.29050933,74.2997686 5.90509274,73.5775464 C5.51851852,72.8553241 5.15162044,72.1250003 4.80092622,71.3854169 C4.45138904,70.6458335 4.11921304,69.8969908 3.80671319,69.1412039 C3.4930557,68.3854169 3.19907437,67.621528 2.92361126,66.8518519 C2.64699081,66.0810187 2.39120385,65.3043982 2.15277807,64.5208335 C1.91550933,63.7384261 1.69791674,62.9490744 1.49884267,62.1550927 C1.29976859,61.3622687 1.12037037,60.5636575 0.960648296,59.7604169 C0.800926222,58.9583336 0.660879704,58.1516204 0.541666963,57.3425926 C0.421296593,56.533565 0.320602074,55.7210649 0.240740741,54.9062501 C0.160879704,54.0925926 0.100694519,53.2766204 0.0601854815,52.459491 C0.0196761481,51.6412039 0,50.8240741 0,50.0057873 C0,49.1875001 0.0196761481,48.369213 0.0601854815,47.5520836 C0.100694519,46.7337964 0.160879704,45.9178243 0.240740741,45.1041668 C0.320602074,44.289352 0.421296593,43.4780095 0.541666963,42.6678243 C0.660879704,41.8587964 0.800926222,41.0520836 0.960648296,40.25 C1.12037037,39.4467594 1.29976859,38.6493058 1.49884267,37.8553241 C1.69791674,37.0613428 1.91550933,36.2731484 2.15277807,35.4895834 C2.39120385,34.7060187 2.64699081,33.9293982 2.92361126,33.158565 C3.19907437,32.3888889 3.4930557,31.6250003 3.80671319,30.869213 C4.11921304,30.1134261 4.45138904,29.3645834 4.80092622,28.6250003 C5.15162044,27.8854169 5.51851852,27.1550927 5.90509274,26.4328705 C6.29050933,25.7118056 6.69328711,25 7.11458341,24.2974539 C7.53472237,23.5960649 7.97337985,22.9039354 8.42708356,22.2233799 C8.88194459,21.5439816 9.35300948,20.8750003 9.84027793,20.2175929 C10.328704,19.5601855 10.832176,18.9155093 11.3506945,18.2824077 C11.8703704,17.6493058 12.4039354,17.0300927 12.9537037,16.4236113 C13.5034723,15.8171298 14.0671298,15.2245372 14.6458335,14.6458335 C15.2245372,14.0671298 15.8171298,13.5034723 16.4236113,12.9537037 C17.0300927,12.4039354 17.6493058,11.8703704 18.2824077,11.3506945 C18.9155093,10.832176 19.5601855,10.328704 20.2175929,9.84027793 C20.8750003,9.35300948 21.5439816,8.88194459 22.2233799,8.42708356 C22.9039354,7.97337985 23.5960649,7.53472237 24.2974539,7.11458341 C25,6.69328711 25.7118056,6.29050933 26.4328705,5.90509274 C27.1550927,5.51851852 27.8854169,5.15162044 28.6250003,4.80092622 C29.3645834,4.45138904 30.1134261,4.11921304 30.869213,3.80671319 C31.6250003,3.4930557 32.3888889,3.19907437 33.158565,2.92361126 C33.9293982,2.64699081 34.7060187,2.39120385 35.4895834,2.15277807 C36.2731484,1.91550933 37.0613428,1.69791674 37.8553241,1.49884267 C38.6493058,1.29976859 39.4467594,1.12037037 40.25,0.960648296 C41.0520836,0.800926222 41.8587964,0.660879704 42.6678243,0.541666963 C43.4780095,0.421296593 44.289352,0.320602074 45.1041668,0.240740741 C45.9178243,0.160879704 46.7337964,0.100694519 47.5520836,0.0601854815 C48.369213,0.0196761481 49.1875001,0 50.0057873,0 C50.8240741,0 51.6412039,0.0196761481 52.459491,0.0601854815 C53.2766204,0.100694519 54.0925926,0.160879704 54.9062501,0.240740741 C55.7210649,0.320602074 56.533565,0.421296593 57.3425926,0.541666963 C58.1516204,0.660879704 58.9583336,0.800926222 59.7604169,0.960648296 C60.5636575,1.12037037 61.3622687,1.29976859 62.1550927,1.49884267 C62.9490744,1.69791674 63.7384261,1.91550933 64.5208335,2.15277807 C65.3043982,2.39120385 66.0810187,2.64699081 66.8518519,2.92361126 C67.621528,3.19907437 68.3854169,3.4930557 69.1412039,3.80671319 C69.8969908,4.11921304 70.6458335,4.45138904 71.3854169,4.80092622 C72.1250003,5.15162044 72.8553241,5.51851852 73.5775464,5.90509274 C74.2997686,6.29050933 75.0115742,6.69328711 75.712963,7.11458341 C76.4155093,7.53472237 77.1064818,7.97337985 77.787037,8.42708356 C78.4675929,8.88194459 79.1365742,9.35300948 79.7928243,9.84027793 C80.4502317,10.328704 81.0960649,10.832176 81.7280095,11.3506945 C82.3611111,11.8703704 82.9803241,12.4039354 83.5868056,12.9537037 C84.1932871,13.5034723 84.7858797,14.0671298 85.3645834,14.6458335 C85.9432871,15.2245372 86.5069446,15.8171298 87.0567132,16.4236113 C87.6064818,17.0300927 88.1412039,17.6493058 88.6597224,18.2824077 C89.1793982,18.9155093 89.6828705,19.5601855 90.170139,20.2175929 C90.6574074,20.8750003 91.1284723,21.5439816 91.5833333,22.2233799 C92.0381947,22.9039354 92.4756945,23.5960649 92.8958335,24.2974539 C93.3171298,25 93.7199076,25.7118056 94.1064818,26.4328705 C94.4918984,27.1550927 94.8599538,27.8854169 95.209491,28.6250003 C95.5590279,29.3645834 95.8912039,30.1134261 96.2037037,30.869213 C96.5173612,31.6250003 96.8113428,32.3888889 97.0879633,33.158565 C97.3634261,33.9293982 97.619213,34.7060187 97.8576391,35.4895834 C98.0949076,36.2731484 98.3136575,37.0613428 98.5115742,37.8553241 C98.7106483,38.6493058 98.8900465,39.4467594 99.0497686,40.25 C99.209491,41.0520836 99.3495372,41.8587964 99.4687502,42.6678243 C99.5891206,43.4780095 99.6898151,44.289352 99.7696761,45.1041668 C99.8495372,45.9178243 99.9097224,46.7337964 99.9502317,47.5520836 C99.9907407,48.369213 100.010417,49.1875001 100.010417,50.0057873 Z" id="Path" fill="#FFB300" fill-rule="nonzero" mask="url(#mask-2)"></path>
            </g>
            <path d="M97.1111111,50.0057873 C97.1111111,50.7766204 97.0925926,51.5462963 97.0543982,52.3171298 C97.0173612,53.0868056 96.9606483,53.8553241 96.8854169,54.6226853 C96.8090279,55.3900465 96.7152779,56.1550927 96.6018519,56.9178243 C96.4884261,57.6793982 96.3564818,58.4386575 96.2060187,59.1956021 C96.0567132,59.951389 95.8877316,60.7037037 95.7002317,61.451389 C95.5127316,62.1990744 95.3067132,62.9421298 95.0833333,63.6793982 C94.8599538,64.4178243 94.6180557,65.1493058 94.3576391,65.8750003 C94.0983799,66.6006945 93.8206021,67.3194447 93.5254631,68.0324077 C93.2303241,68.744213 92.9189816,69.4490744 92.5891206,70.1458335 C92.2592593,70.8425926 91.9131947,71.5312501 91.5497686,72.2106483 C91.1863428,72.8912039 90.8055556,73.5613428 90.4097224,74.2233799 C90.0138892,74.8842596 89.6006945,75.5347224 89.1724539,76.1759259 C88.744213,76.8171298 88.3009262,77.4467594 87.8414353,78.0659724 C87.3819446,78.6851852 86.908565,79.2928243 86.4189816,79.8888889 C85.9293982,80.4849538 85.4270836,81.0682871 84.908565,81.6400465 C84.3912039,82.2118056 83.8599538,82.7696761 83.3148148,83.3148148 C82.7696761,83.8599538 82.2118056,84.3912039 81.6400465,84.908565 C81.0682871,85.4270836 80.4849538,85.9293982 79.8888889,86.4189816 C79.2928243,86.908565 78.6851852,87.3819446 78.0659724,87.8414353 C77.4467594,88.3009262 76.8171298,88.744213 76.1759259,89.1724539 C75.5347224,89.6006945 74.8842596,90.0138892 74.2233799,90.4097224 C73.5613428,90.8055556 72.8912039,91.1863428 72.2106483,91.5497686 C71.5312501,91.9131947 70.8425926,92.2592593 70.1458335,92.5891206 C69.4490744,92.9189816 68.744213,93.2303241 68.0324077,93.5254631 C67.3194447,93.8206021 66.6006945,94.0983799 65.8750003,94.3576391 C65.1493058,94.6180557 64.4178243,94.8599538 63.6793982,95.0833333 C62.9421298,95.3067132 62.1990744,95.5127316 61.451389,95.7002317 C60.7037037,95.8877316 59.951389,96.0555556 59.1956021,96.2060187 C58.4386575,96.3564818 57.6793982,96.4884261 56.9178243,96.6018519 C56.1550927,96.7152779 55.3900465,96.8090279 54.6226853,96.8854169 C53.8553241,96.9606483 53.0868056,97.0173612 52.3171298,97.0543982 C51.5462963,97.0925926 50.7766204,97.1111111 50.0057873,97.1111111 C49.2349538,97.1111111 48.4641206,97.0925926 47.6944444,97.0543982 C46.9236113,97.0173612 46.1550927,96.9606483 45.3877316,96.8854169 C44.6203704,96.8090279 43.8564818,96.7152779 43.0937502,96.6018519 C42.3310187,96.4884261 41.5717594,96.3564818 40.8148148,96.2060187 C40.0590279,96.0555556 39.3067132,95.8877316 38.5590279,95.7002317 C37.8113428,95.5127316 37.0682871,95.3067132 36.3310187,95.0833333 C35.5937502,94.8599538 34.8611111,94.6180557 34.1354169,94.3576391 C33.4097224,94.0983799 32.6909724,93.8206021 31.9780095,93.5254631 C31.2662039,93.2303241 30.5613428,92.9189816 29.8645834,92.5891206 C29.1678243,92.2592593 28.4791668,91.9131947 27.7997686,91.5497686 C27.119213,91.1863428 26.4490744,90.8055556 25.7881947,90.4097224 C25.1261576,90.0138892 24.4756945,89.6006945 23.834491,89.1724539 C23.1932871,88.744213 22.5636575,88.3009262 21.9444444,87.8414353 C21.3252317,87.3819446 20.7175929,86.908565 20.121528,86.4189816 C19.5254631,85.9293982 18.9421298,85.4270836 18.3703704,84.908565 C17.7997686,84.3912039 17.2407407,83.8599538 16.6956021,83.3148148 C16.1504631,82.7696761 15.619213,82.2118056 15.1018519,81.6400465 C14.584491,81.0682871 14.0810187,80.4849538 13.5914353,79.8888889 C13.1030095,79.2928243 12.6284723,78.6851852 12.1689816,78.0659724 C11.709491,77.4467594 11.2662039,76.8171298 10.8379633,76.1759259 C10.4097224,75.5347224 9.99768533,74.8842596 9.60069452,74.2233799 C9.20486133,73.5613428 8.82407407,72.8912039 8.46180563,72.2106483 C8.09837985,71.5312501 7.75115763,70.8425926 7.42129659,70.1458335 C7.09259259,69.4490744 6.78009274,68.744213 6.48495378,68.0324077 C6.18981511,67.3194447 5.91203733,66.6006945 5.65277807,65.8750003 C5.39236119,65.1493058 5.15162044,64.4178243 4.92708356,63.6793982 C4.7037037,62.9421298 4.49768533,62.1990744 4.31018548,61.451389 C4.12384267,60.7037037 3.95486133,59.951389 3.80439822,59.1956021 C3.65393541,58.4386575 3.52199081,57.6793982 3.40856504,56.9178243 C3.29513896,56.1550927 3.20138904,55.3900465 3.12615763,54.6226853 C3.04976859,53.8553241 2.9930557,53.0868056 2.95601867,52.3171298 C2.9178243,51.5462963 2.89930578,50.7766204 2.89930578,50.0057873 C2.89930578,49.2349538 2.9178243,48.4641206 2.95601867,47.6944444 C2.9930557,46.9236113 3.04976859,46.1550927 3.12615763,45.3877316 C3.20138904,44.6203704 3.29513896,43.8564818 3.40856504,43.0937502 C3.52199081,42.3310187 3.65393541,41.5717594 3.80439822,40.8148148 C3.95486133,40.0590279 4.12384267,39.3067132 4.31018548,38.5590279 C4.49768533,37.8113428 4.7037037,37.0682871 4.92708356,36.3310187 C5.15162044,35.5937502 5.39236119,34.8611111 5.65277807,34.1354169 C5.91203733,33.4097224 6.18981511,32.6909724 6.48495378,31.9780095 C6.78009274,31.2662039 7.09259259,30.5613428 7.42129659,29.8645834 C7.75115763,29.1678243 8.09837985,28.4791668 8.46180563,27.7997686 C8.82407407,27.119213 9.20486133,26.4490744 9.60069452,25.7881947 C9.99768533,25.1261576 10.4097224,24.4756945 10.8379633,23.834491 C11.2662039,23.1932871 11.709491,22.5636575 12.1689816,21.9444444 C12.6284723,21.3252317 13.1030095,20.7175929 13.5914353,20.121528 C14.0810187,19.5254631 14.584491,18.9421298 15.1018519,18.3703704 C15.619213,17.7997686 16.1504631,17.2407407 16.6956021,16.6956021 C17.2407407,16.1504631 17.7997686,15.619213 18.3703704,15.1018519 C18.9421298,14.584491 19.5254631,14.0810187 20.121528,13.5914353 C20.7175929,13.1030095 21.3252317,12.6284723 21.9444444,12.1689816 C22.5636575,11.709491 23.1932871,11.2662039 23.834491,10.8379633 C24.4756945,10.4097224 25.1261576,9.99768533 25.7881947,9.60069452 C26.4490744,9.20486133 27.119213,8.82407407 27.7997686,8.46180563 C28.4791668,8.09837985 29.1678243,7.75115763 29.8645834,7.42129659 C30.5613428,7.09259259 31.2662039,6.78009274 31.9780095,6.48495378 C32.6909724,6.18981511 33.4097224,5.91203733 34.1354169,5.65277807 C34.8611111,5.39236119 35.5937502,5.15162044 36.3310187,4.92708356 C37.0682871,4.7037037 37.8113428,4.49768533 38.5590279,4.31018548 C39.3067132,4.12384267 40.0590279,3.95486133 40.8148148,3.80439822 C41.5717594,3.65393541 42.3310187,3.52199081 43.0937502,3.40856504 C43.8564818,3.29513896 44.6203704,3.20138904 45.3877316,3.12615763 C46.1550927,3.04976859 46.9236113,2.9930557 47.6944444,2.95601867 C48.4641206,2.9178243 49.2349538,2.89930578 50.0057873,2.89930578 C50.7766204,2.89930578 51.5462963,2.9178243 52.3171298,2.95601867 C53.0868056,2.9930557 53.8553241,3.04976859 54.6226853,3.12615763 C55.3900465,3.20138904 56.1550927,3.29513896 56.9178243,3.40856504 C57.6793982,3.52199081 58.4386575,3.65393541 59.1956021,3.80439822 C59.951389,3.95486133 60.7037037,4.12384267 61.451389,4.31018548 C62.1990744,4.49768533 62.9421298,4.7037037 63.6793982,4.92708356 C64.4178243,5.15162044 65.1493058,5.39236119 65.8750003,5.65277807 C66.6006945,5.91203733 67.3194447,6.18981511 68.0324077,6.48495378 C68.744213,6.78009274 69.4490744,7.09259259 70.1458335,7.42129659 C70.8425926,7.75115763 71.5312501,8.09837985 72.2106483,8.46180563 C72.8912039,8.82407407 73.5613428,9.20486133 74.2233799,9.60069452 C74.8842596,9.99768533 75.5347224,10.4097224 76.1759259,10.8379633 C76.8171298,11.2662039 77.4467594,11.709491 78.0659724,12.1689816 C78.6851852,12.6284723 79.2928243,13.1030095 79.8888889,13.5914353 C80.4849538,14.0810187 81.0682871,14.584491 81.6400465,15.1018519 C82.2118056,15.619213 82.7696761,16.1504631 83.3148148,16.6956021 C83.8599538,17.2407407 84.3912039,17.7997686 84.908565,18.3703704 C85.4270836,18.9421298 85.9293982,19.5254631 86.4189816,20.121528 C86.908565,20.7175929 87.3819446,21.3252317 87.8414353,21.9444444 C88.3009262,22.5636575 88.744213,23.1932871 89.1724539,23.834491 C89.6006945,24.4756945 90.0138892,25.1261576 90.4097224,25.7881947 C90.8055556,26.4490744 91.1863428,27.119213 91.5497686,27.7997686 C91.9131947,28.4791668 92.2592593,29.1678243 92.5891206,29.8645834 C92.9189816,30.5613428 93.2303241,31.2662039 93.5254631,31.9780095 C93.8206021,32.6909724 94.0983799,33.4097224 94.3576391,34.1354169 C94.6180557,34.8611111 94.8599538,35.5937502 95.0833333,36.3310187 C95.3067132,37.0682871 95.5127316,37.8113428 95.7002317,38.5590279 C95.8877316,39.3067132 96.0567132,40.0590279 96.2060187,40.8148148 C96.3564818,41.5717594 96.4884261,42.3310187 96.6018519,43.0937502 C96.7152779,43.8564818 96.8090279,44.6203704 96.8854169,45.3877316 C96.9606483,46.1550927 97.0173612,46.9236113 97.0543982,47.6944444 C97.0925926,48.4641206 97.1111111,49.2349538 97.1111111,50.0057873 Z" id="Path" fill="#FFE080" fill-rule="nonzero"></path>
            <path d="M89.8645834,50.0057873 C89.8645834,50.6574074 89.8483799,51.3090279 89.8159724,51.9606483 C89.7847224,52.6122687 89.7361114,53.2627316 89.6724539,53.9120373 C89.6087964,54.5613428 89.5289354,55.2083336 89.4328705,55.8541668 C89.3379633,56.4988427 89.2256945,57.1412039 89.0983799,57.7812501 C88.9710649,58.4212966 88.828704,59.0578705 88.670139,59.6898151 C88.5115742,60.3229167 88.3379633,60.951389 88.1481481,61.576389 C87.9583336,62.2002317 87.7546299,62.8194447 87.5347224,63.4340279 C87.3148148,64.0474539 87.0798613,64.6562501 86.8298613,65.2592593 C86.5810187,65.8611111 86.3159724,66.457176 86.0381947,67.0474539 C85.7592593,67.6365742 85.4652779,68.2199076 85.158565,68.795139 C84.8506945,69.3703704 84.5289354,69.9375001 84.1932871,70.496528 C83.8587964,71.0567132 83.5092593,71.6076391 83.1469908,72.1504631 C82.7847224,72.6921298 82.408565,73.2256945 82.0208335,73.75 C81.6319446,74.2731484 81.2303241,74.787037 80.8171298,75.291667 C80.4027781,75.7962963 79.9768521,76.289352 79.539352,76.7731484 C79.1006945,77.2569446 78.6516204,77.7291668 78.1898151,78.1898151 C77.7291668,78.6516204 77.2569446,79.1006945 76.7731484,79.539352 C76.289352,79.9768521 75.7962963,80.4027781 75.291667,80.8171298 C74.787037,81.2303241 74.2731484,81.6319446 73.75,82.0208335 C73.2256945,82.408565 72.6921298,82.7847224 72.1504631,83.1469908 C71.6076391,83.5092593 71.0567132,83.8587964 70.496528,84.1932871 C69.9375001,84.5289354 69.3703704,84.8506945 68.795139,85.158565 C68.2199076,85.4652779 67.6365742,85.7592593 67.0474539,86.0381947 C66.457176,86.3159724 65.8611111,86.5810187 65.2592593,86.8298613 C64.6562501,87.0798613 64.0474539,87.3148148 63.4340279,87.5347224 C62.8194447,87.7546299 62.2002317,87.9583336 61.576389,88.1481481 C60.951389,88.3379633 60.3229167,88.5115742 59.6898151,88.670139 C59.0578705,88.828704 58.4212966,88.9710649 57.7812501,89.0983799 C57.1412039,89.2256945 56.4988427,89.3379633 55.8541668,89.4328705 C55.2083336,89.5289354 54.5613428,89.6087964 53.9120373,89.6724539 C53.2627316,89.7361114 52.6122687,89.7847224 51.9606483,89.8159724 C51.3090279,89.8483799 50.6574074,89.8645834 50.0057873,89.8645834 C49.3530095,89.8645834 48.701389,89.8483799 48.0497686,89.8159724 C47.3981481,89.7847224 46.7476853,89.7361114 46.0983799,89.6724539 C45.4490744,89.6087964 44.8020836,89.5289354 44.1562501,89.4328705 C43.5115742,89.3379633 42.869213,89.2256945 42.2291668,89.0983799 C41.5891206,88.9710649 40.9525464,88.828704 40.3206021,88.670139 C39.6875001,88.5115742 39.0590279,88.3379633 38.4351852,88.1481481 C37.8101855,87.9583336 37.1909724,87.7546299 36.5775464,87.5347224 C35.962963,87.3148148 35.3541668,87.0798613 34.752315,86.8298613 C34.1493058,86.5810187 33.5532409,86.3159724 32.962963,86.0381947 C32.3738427,85.7592593 31.791667,85.4652779 31.2152779,85.158565 C30.6400465,84.8506945 30.0729167,84.5289354 29.5138892,84.1932871 C28.9537037,83.8587964 28.4027781,83.5092593 27.8611111,83.1469908 C27.3182871,82.7847224 26.7847224,82.408565 26.2615742,82.0208335 C25.7372687,81.6319446 25.2233799,81.2303241 24.7187502,80.8171298 C24.2141206,80.4027781 23.7210649,79.9768521 23.2372687,79.539352 C22.7546299,79.1006945 22.2824077,78.6516204 21.8206021,78.1898151 C21.3587964,77.7291668 20.9097224,77.2569446 20.4710649,76.7731484 C20.033565,76.289352 19.6076391,75.7962963 19.1932871,75.291667 C18.7800927,74.787037 18.3784723,74.2731484 17.9895834,73.75 C17.6018519,73.2256945 17.2256945,72.6921298 16.8634261,72.1504631 C16.5011576,71.6076391 16.1527781,71.0567132 15.8171298,70.496528 C15.4814815,69.9375001 15.1597224,69.3703704 14.8530095,68.795139 C14.545139,68.2199076 14.252315,67.6365742 13.9733799,67.0474539 C13.6944444,66.457176 13.4293982,65.8611111 13.1805559,65.2592593 C12.9305559,64.6562501 12.6956021,64.0474539 12.4756945,63.4340279 C12.2557873,62.8194447 12.0520836,62.2002317 11.8622687,61.576389 C11.6736113,60.951389 11.4988427,60.3229167 11.3402779,59.6898151 C11.1817132,59.0578705 11.039352,58.4212966 10.9120373,57.7812501 C10.7847224,57.1412039 10.6736113,56.4988427 10.5775464,55.8541668 C10.4814815,55.2083336 10.4016204,54.5613428 10.3379633,53.9120373 C10.2743058,53.2627316 10.2256945,52.6122687 10.1944444,51.9606483 C10.1620373,51.3090279 10.1458335,50.6574074 10.1458335,50.0057873 C10.1458335,49.3530095 10.1620373,48.701389 10.1944444,48.0497686 C10.2256945,47.3981481 10.2743058,46.7476853 10.3379633,46.0983799 C10.4016204,45.4490744 10.4814815,44.8020836 10.5775464,44.1562501 C10.6736113,43.5115742 10.7847224,42.869213 10.9120373,42.2291668 C11.039352,41.5891206 11.1817132,40.9525464 11.3402779,40.3206021 C11.4988427,39.6875001 11.6736113,39.0590279 11.8622687,38.4351852 C12.0520836,37.8101855 12.2557873,37.1909724 12.4756945,36.5775464 C12.6956021,35.962963 12.9305559,35.3541668 13.1805559,34.752315 C13.4293982,34.1493058 13.6944444,33.5532409 13.9733799,32.962963 C14.252315,32.3738427 14.545139,31.791667 14.8530095,31.2152779 C15.1597224,30.6400465 15.4814815,30.0729167 15.8171298,29.5138892 C16.1527781,28.9537037 16.5011576,28.4027781 16.8634261,27.8611111 C17.2256945,27.3182871 17.6018519,26.7847224 17.9895834,26.2615742 C18.3784723,25.7372687 18.7800927,25.2233799 19.1932871,24.7187502 C19.6076391,24.2141206 20.033565,23.7210649 20.4710649,23.2372687 C20.9097224,22.7546299 21.3587964,22.2824077 21.8206021,21.8206021 C22.2824077,21.3587964 22.7546299,20.9097224 23.2372687,20.4710649 C23.7210649,20.033565 24.2141206,19.6076391 24.7187502,19.1932871 C25.2233799,18.7800927 25.7372687,18.3784723 26.2615742,17.9895834 C26.7847224,17.6018519 27.3182871,17.2256945 27.8611111,16.8634261 C28.4027781,16.5011576 28.9537037,16.1527781 29.5138892,15.8171298 C30.0729167,15.4814815 30.6400465,15.1597224 31.2152779,14.8530095 C31.791667,14.545139 32.3738427,14.252315 32.962963,13.9733799 C33.5532409,13.6944444 34.1493058,13.4293982 34.752315,13.1805559 C35.3541668,12.9305559 35.962963,12.6956021 36.5775464,12.4756945 C37.1909724,12.2557873 37.8101855,12.0520836 38.4351852,11.8622687 C39.0590279,11.6736113 39.6875001,11.4988427 40.3206021,11.3402779 C40.9525464,11.1817132 41.5891206,11.039352 42.2291668,10.9120373 C42.869213,10.7847224 43.5115742,10.6736113 44.1562501,10.5775464 C44.8020836,10.4814815 45.4490744,10.4016204 46.0983799,10.3379633 C46.7476853,10.2743058 47.3981481,10.2256945 48.0497686,10.1944444 C48.701389,10.1620373 49.3530095,10.1458335 50.0057873,10.1458335 C50.6574074,10.1458335 51.3090279,10.1620373 51.9606483,10.1944444 C52.6122687,10.2256945 53.2627316,10.2743058 53.9120373,10.3379633 C54.5613428,10.4016204 55.2083336,10.4814815 55.8541668,10.5775464 C56.4988427,10.6736113 57.1412039,10.7847224 57.7812501,10.9120373 C58.4212966,11.039352 59.0578705,11.1817132 59.6898151,11.3402779 C60.3229167,11.4988427 60.951389,11.6736113 61.576389,11.8622687 C62.2002317,12.0520836 62.8194447,12.2557873 63.4340279,12.4756945 C64.0474539,12.6956021 64.6562501,12.9305559 65.2592593,13.1805559 C65.8611111,13.4293982 66.457176,13.6944444 67.0474539,13.9733799 C67.6365742,14.252315 68.2199076,14.545139 68.795139,14.8530095 C69.3703704,15.1597224 69.9375001,15.4814815 70.496528,15.8171298 C71.0567132,16.1527781 71.6076391,16.5011576 72.1504631,16.8634261 C72.6921298,17.2256945 73.2256945,17.6018519 73.75,17.9895834 C74.2731484,18.3784723 74.787037,18.7800927 75.291667,19.1932871 C75.7962963,19.6076391 76.289352,20.033565 76.7731484,20.4710649 C77.2569446,20.9097224 77.7291668,21.3587964 78.1898151,21.8206021 C78.6516204,22.2824077 79.1006945,22.7546299 79.539352,23.2372687 C79.9768521,23.7210649 80.4027781,24.2141206 80.8171298,24.7187502 C81.2303241,25.2233799 81.6319446,25.7372687 82.0208335,26.2615742 C82.408565,26.7847224 82.7847224,27.3182871 83.1469908,27.8611111 C83.5092593,28.4027781 83.8587964,28.9537037 84.1932871,29.5138892 C84.5289354,30.0729167 84.8506945,30.6400465 85.158565,31.2152779 C85.4652779,31.791667 85.7592593,32.3738427 86.0381947,32.962963 C86.3159724,33.5532409 86.5810187,34.1493058 86.8298613,34.752315 C87.0798613,35.3541668 87.3148148,35.962963 87.5347224,36.5775464 C87.7546299,37.1909724 87.9583336,37.8101855 88.1481481,38.4351852 C88.3379633,39.0590279 88.5115742,39.6875001 88.670139,40.3206021 C88.828704,40.9525464 88.9710649,41.5891206 89.0983799,42.2291668 C89.2256945,42.869213 89.3379633,43.5115742 89.4328705,44.1562501 C89.5289354,44.8020836 89.6087964,45.4490744 89.6724539,46.0983799 C89.7361114,46.7476853 89.7847224,47.3981481 89.8159724,48.0497686 C89.8483799,48.701389 89.8645834,49.3530095 89.8645834,50.0057873 Z" id="Path" fill="#E85D03" fill-rule="nonzero"></path>
            <path d="M50.1435188,25.6631947 C35.9675929,25.6631947 24.4722222,37.1574074 24.4722222,51.3333333 L75.8148148,51.3333333 C75.8148148,37.1574074 64.3206021,25.6631947 50.1435188,25.6631947 Z M59.1076391,43.3981481 C58.6712966,44.0439816 57.7939816,44.2199076 57.1481481,43.783565 C56.502315,43.3472225 56.3252317,42.4699076 56.7615742,41.8240741 C57.1979167,41.1782409 58.0752317,41.0011576 58.7222222,41.4375001 C59.3680557,41.8750003 59.5439816,42.7511576 59.1076391,43.3981481 Z M60.0104169,35.541667 C59.5740741,36.1875001 58.6967594,36.3645834 58.0497686,35.9282409 C57.4039354,35.4918984 57.2314815,34.6145834 57.664352,33.9675929 C58.1006945,33.3217594 58.9780095,33.1458335 59.6238427,33.582176 C60.2708335,34.0185185 60.4467594,34.8958335 60.0104169,35.541667 Z M66.8842596,41.8530095 C66.4479167,42.5 65.5706021,42.6759259 64.9247686,42.2395834 C64.2777778,41.8032409 64.1064818,40.9259259 64.5381947,40.2800927 C64.9710649,39.6331019 65.8518519,39.457176 66.4976853,39.8935188 C67.1446761,40.3298613 67.3159724,41.207176 66.8842596,41.8530095 Z" id="Shape" fill="#FFE080" fill-rule="nonzero"></path>
            <path d="M37.6921298,73.6316537 L33.1307873,84.6331783 L39.1319446,87.1736113 L43.7314815,76.0750073 C45.7789354,76.6095274 47.9282409,76.8925774 50.1400465,76.8925774 C64.295139,76.8925774 75.8101855,65.2559444 75.8101855,50.951389 L69.3020836,50.951389 C69.3020836,61.6300963 60.707176,70.315757 50.1400465,70.315757 C39.5729167,70.315757 30.9780095,61.6300963 30.9780095,50.951389 L24.4687502,50.951389 C24.4687502,60.6920545 29.8113428,69.1917439 37.6886575,73.6281447 L37.6921298,73.6316537 Z" id="Path" fill="#FFE080" fill-rule="nonzero"></path>
            <path d="M60.7569446,12.7708335 C55.7083336,12.7708335 51.3229167,15.582176 49.0648148,19.7245372 C50.8032409,21.3402779 52.1122687,23.408565 52.791667,25.7511576 C58.6666667,24.4328705 63.0740741,19.2418984 63.1782409,12.9930557 C62.3935188,12.8506945 61.5833333,12.7708335 60.7569446,12.7708335 Z" id="Path" fill="#FFE080" fill-rule="nonzero"></path>
            <path d="M40.0092593,16.1574074 C39.0104169,16.1574074 38.0358797,16.2708335 37.1006945,16.4803241 C38.7083336,22.0289354 43.8240741,26.0868056 49.8877316,26.0868056 C50.8865742,26.0868056 51.8599538,25.9733799 52.7962963,25.7638892 C51.1886575,20.2152779 46.0729167,16.1574074 40.0092593,16.1574074 Z" id="Path" fill="#FFE080" fill-rule="nonzero"></path>
        </g>
    </g>
</svg>