<svg fill="none" viewBox="0 0 127 81">
  <path fill="#FFBE00" d="M96 42c0-2-2-2-3-2a2 2 0 0 1 3 2Z"/>
  <path fill="#FFBE00" d="m85 53 1-5h-1c-1 1-3 0-3-1l-1-2 6-11 3-1-3 1-1-2 29-10c2-1 3-3 2-5s-3-3-5-3L84 25l-1-2 24-9c2 0 3-3 2-5 0-2-3-3-5-2l-24 9v-2l18-6c2-1 3-4 2-6s-3-3-5-2L77 7 0 36v39l74-27 1 2c1 4 5 7 10 6v-3Z"/>
  <path fill="#FF6E78" d="M124 48a12 12 0 0 0-16-1l-1 1-2-2-1-1c-1 3-3 6-6 7a4 4 0 1 1-3-7c1-1 2-2 1-3a12 12 0 0 0-10 6 4 4 0 0 1 2 8h-3l2 5 16 19a1 1 0 0 0 1 0l19-15a12 12 0 0 0 1-17Z"/>
  <path fill="#FF6E78" d="M90 51c0-2-2-3-4-3a12 12 0 0 0-1 8h3c2-1 3-3 2-5Z"/>
  <path fill="#FF6E78" d="M93 50c-1-2 0-4 2-5 1-1 2-2 1-3 1 1 0 2-1 3a4 4 0 1 0-2 5Z"/>
  <path fill="#FFBE00" d="m93 40-12 5 12-5Zm11-1v6-6Zm-17-5-6 11 12-5a2 2 0 0 1 3 2h2l6 3a10 10 0 0 0-13-12h-1l-3 1Zm11 18c3-1 5-4 6-7-1 3-3 6-6 7Z"/>
  <path fill="#FFBE00" d="M104 45a12 12 0 0 0-8-3c1 1 0 2-1 3a4 4 0 0 0 3 7c3-1 5-4 6-7Z"/>
</svg>
