<svg fill="none" xmlns="http://www.w3.org/2000/svg" viewBox="0 0 127 81"><path d="M96.259 41.694a2.455 2.455 0 0 0-3.16-1.429h-.003a2.46 2.46 0 0 1 3.28 1.912h.01a2.5 2.5 0 0 0-.127-.483" fill="#ffbe00"/><path d="M84.724 52.732a11.7 11.7 0 0 1 1.414-4.524c-.35.03-.703.105-1.052.235a2.45 2.45 0 0 1-3.158-1.43l-.862-2.288h.01l5.9-10.61 3.334-1.257-.01.003-3.333 1.256-.636-1.688 28.404-10.712c2.118-.8 3.218-3.079 2.459-5.094s-3.093-3.002-5.209-2.205L83.581 25.13l-.644-1.703 23.916-9.018c2.118-.798 3.218-3.077 2.457-5.094-.759-2.015-3.091-3.002-5.21-2.205l-23.915 9.018-.644-1.705 18.161-6.85c2.119-.797 3.219-3.078 2.457-5.093h.003C99.402.467 97.068-.522 94.95.277l-18.164 6.85-.019.007L0 36.09v39.207L73.66 47.52l.861 2.288c1.655 4.386 5.978 6.994 10.43 6.682a11.8 11.8 0 0 1-.227-3.759" fill="#ffbe00"/><path d="M124.346 48.373a11.64 11.64 0 0 0-7.906-4.243 11.65 11.65 0 0 0-8.591 2.588l-1.311 1.072-1.071-1.312q-.662-.803-1.434-1.467c-.788 3.21-3.091 5.997-6.41 7.248q-.004 0-.007.002a3.957 3.957 0 1 1-2.79-7.404 2.455 2.455 0 0 0 1.555-2.68c-2.7 0-5.293.917-7.409 2.649a11.7 11.7 0 0 0-2.831 3.382 3.96 3.96 0 0 1 4.049 2.543 3.957 3.957 0 0 1-2.306 5.099c-.963.362-1.948.571-2.927.639a11.7 11.7 0 0 0 2.36 4.834L102.76 80.21a.743.743 0 0 0 1.05.103l18.886-15.443a11.64 11.64 0 0 0 4.244-7.906 11.64 11.64 0 0 0-2.591-8.59z" fill="#ff6e78"/><path d="M90.188 50.75a3.96 3.96 0 0 0-4.05-2.542 11.77 11.77 0 0 0-1.186 8.283 10.4 10.4 0 0 0 2.928-.639 3.954 3.954 0 0 0 2.305-5.099zm2.336-.796a3.957 3.957 0 0 1 2.306-5.1 2.456 2.456 0 0 0 1.556-2.677h-.01a2.455 2.455 0 0 1-1.556 2.68 3.957 3.957 0 1 0 2.791 7.404 3.956 3.956 0 0 1-5.092-2.31z" fill="#ff6e78"/><path d="M93.099 40.265h-.008L81.076 44.72zm10.557-1.362c.764 2.025.848 4.143.37 6.103l.007.005a10.3 10.3 0 0 0-.367-6.11c-1.955-5.185-7.645-7.89-12.864-6.216 5.217-1.669 10.899 1.038 12.854 6.218" fill="#ffbe00"/><path d="M86.974 34.115 81.073 44.72l12.016-4.455h.01a2.452 2.452 0 0 1 3.287 1.91q.584 0 1.172.06a11.64 11.64 0 0 1 6.465 2.769 10.3 10.3 0 0 0-.369-6.103c-1.953-5.18-7.638-7.887-12.854-6.218q-.25.079-.497.173l-3.334 1.256zm10.642 18.147.007-.003c3.321-1.251 5.622-4.037 6.41-7.248l-.007-.005c-.786 3.216-3.089 6.004-6.413 7.258z" fill="#ffbe00"/><path d="M104.026 45.006a11.63 11.63 0 0 0-6.465-2.77c-.392-.037-.783-.06-1.173-.06a2.46 2.46 0 0 1-1.556 2.679 3.958 3.958 0 0 0 2.786 7.41 10.37 10.37 0 0 0 6.413-7.259z" fill="#ffbe00"/></svg>