<svg width="1012" height="1012" viewBox="0 0 1012 1012" fill="none" xmlns="http://www.w3.org/2000/svg">
  <path d="M370.561 888.415c-5.5-1.9-10.7-3.5-11.6-3.5-2.7 0-15.9-7-15.9-8.4 0-.9-2.1-1.5-6.1-2-7.5-.7-8.8-2.2-8.9-9.2 0-5.1 1-8 7.1-21 1.6-3.4 2.9-6.5 2.9-6.8 0-2.4 7.2-15.6 8.5-15.6 1.1 0 1.5-1.1 1.5-4.2 0-2.3.4-5.5.9-7.2 3.3-11.2 4.5-14.6 5.1-14.6.4 0 1-1 1.3-2.2.8-3.6 4.1-11.5 9-21.9 6.3-13.1 6.5-14.2 3-15.9-1.5-.8-5-2.9-7.7-4.7-2.6-1.8-5.2-3.3-5.7-3.3s-.9-.4-.9-1c0-.5-1.1-2.6-2.5-4.6-2.9-4.3-3.2-8.9-.8-13.9 1.6-3.3 1.9-3.5 6.8-3.5 3.9 0 5.6.5 7 2 1 1.1 3.3 2.3 5.2 2.6 1.9.4 3.7 1.4 4 2.3s1.1 3 1.9 4.8c.8 1.7 1.4 3.9 1.5 5 0 1 .3 1.3.6.6.2-.7 1.2-1.3 2.1-1.3 1 0 3.5-1.4 5.6-3 3.2-2.5 4.9-3 9.2-3h5.3l3.2 6.6c2.5 5.4 3 7.5 2.6 10.9-.5 3.6-.3 4.6 1.9 6.6l2.6 2.4 3.5-3.9c4.7-5.2 11.1-6.1 18-2.6 4.4 2.2 4.5 2.3 4.1 6.6-.3 4.3-.2 4.4 2.5 4.4 1.6 0 4.1.7 5.6 1.6 2.5 1.5 3 1.5 5.9 0 3.5-1.8 8.8-2.1 9.7-.5.9 1.3 5.4-2.7 6.6-5.8 1.3-3.5 8.1-3.2 13.8.6 3.9 2.6 5 2.9 9.7 2.4 6.1-.7 7.9.3 8.8 4.7l.6 3h28v-2.8c0-2 1.2-4.1 3.5-6.5 3.2-3.3 4.2-3.7 8.4-3.7 2.9 0 6.9.9 9.7 2.2 2.7 1.2 7.6 2.5 10.9 2.8 3.3.4 6.8 1 7.8 1.4 1.1.6 1.7.4 1.7-.5 0-.8 2.2-3.8 4.9-6.7 6.5-7 9.4-7.1 17.9-.4 5.2 4 6.1 5.2 6.2 7.9.1 7.2-4.5 11.3-16.2 14.4-10.3 2.8-12.9 3.6-16.3 4.7-6.8 2.3-34.7 6.2-44.7 6.2-3.9 0-7-.5-7.4-1.1-.5-.8-3.6-1-10.3-.6-12.3.8-45.9-1-53.3-2.9-8.7-2.1-10.1-1.9-11.7 1.9-.7 1.7-2.8 6.4-4.6 10.2-1.8 3.9-3.6 8.6-4 10.5s-2 5.9-3.7 8.8c-1.6 3-4.2 9.3-5.7 14-2 6.3-3.4 9-5 9.7-1.5.7-2.1 1.9-2.1 4.2 0 3.2-3.2 13-5.5 16.8-.7 1.1-1.6 3.3-2 5-.8 3.7-6.3 15.4-8.3 17.8-.8.9-2.8 1.7-4.4 1.7-2.3 0-2.8.4-2.8 2.5 0 2.3-.4 2.5-4.2 2.5-2.4-.1-8.8-1.6-14.3-3.5m-37.1-157.7c-14.7-12.3-18.4-16.2-18.4-19.5 0-3.1.2-3.3 3.4-3.3 1.9 0 3.8-.4 4.1-1 .9-1.5 14.8-1.2 16.9.3 1.4 1 2 3.3 2.5 8.3.4 3.8 1.2 7.9 1.9 9.1s1.2 4 1.2 6.2c0 4-.1 4.1-3.3 4.1-2.3 0-4.6-1.2-8.3-4.2" fill="#060303"/>
  <path d="M528.561 779.015c.6-2.7.4-2.9-3.7-3.5-2.4-.3-8.7-.6-14.1-.5-9.5.1-9.8.2-8.2 1.9 1.6 1.8 1.6 1.8-.7 1.3-4.8-1-6.8-2.6-7.4-5.9-.8-4.5-2.8-6-5.8-4.6-3.1 1.4-8.2.2-13.4-3.3-4.1-2.7-7.2-2.8-7.2-.2 0 .7-1.1 2.4-2.5 3.7s-2.5 3.4-2.5 4.7c0 3-.4 2.9-4.9-.6l-3.6-2.9-3.5 1.9c-4.6 2.4-7.6 2.4-10.7-.1-2.9-2.3-5.4-2.5-7.1-.8-.9.9-1.2.5-1.2-2 0-1.8-.5-3.2-1-3.2-.7 0-.7-.6 0-1.9 1.4-2.7 1.5-2.7-3.2-5.1-5.4-2.8-7.6-2.1-13.8 4.4l-5.1 5.4-4.2-4.5c-3.1-3.4-4.7-4.4-6.4-4-3.1.6-3-1.4.5-5.1 5-5.5 5.5-6.2 3.8-6.2s-5.5-6.6-6.7-11.5c-.5-2.4-.7-2.5-.8-.7-.1 1.4-.7 2.2-1.9 2.2-1 0-3.6 1.3-5.8 3-2.1 1.6-4.7 3-5.6 3-1 0-1.8.4-1.8.9 0 1.2-4.4 2.2-6.4 1.5-.8-.3-1.2-1.2-1-1.9.3-.8-.1-2.9-.9-4.7s-1.7-4-2-4.9-2.1-1.9-4-2.3c-1.9-.3-4.2-1.5-5.2-2.6-2.8-3.1-5.9-2.5-7.8 1.5-1.5 3.2-1.6 3.8-.2 6.3 2.7 4.7 4 6.6 5.5 8 1.3 1.1.8 1.3-3.3.9-9.4-.9-12.7-7.2-12.7-24.2 0-7.8-.2-8.5-2-8.5-1.1 0-2-.7-2-1.5 0-3.7-10.4-4.9-13.5-1.5-1.4 1.5-2.2 1.7-3.7.9-3.1-1.6-3.2-.4-.2 2 3.3 2.6 1.3 2.8-4.2.5-4.6-1.9-9.3-7-9.4-10.1 0-1.7-.6-2.3-2.1-2.3-1.9 0-12.9-10.4-12.9-12.1 0-.4-.7-1.2-1.5-1.9-.8-.6-3.2-4.5-5.4-8.5-2.3-4.1-5.4-9.3-7-11.7-2.6-3.9-5.8-9.7-13.9-25-1.7-3.2-3.3-7.2-3.7-9-.6-2.6-2.6-7.7-7.4-19.3-4.8-11.3-6.1-15.4-7.6-23.1-2.6-14.4-3.6-19.7-4.5-23.9-.5-2.2-.9-11.6-1-20.8v-16.8l10.3.7c16.8 1.1 27.7 5.7 29.2 12.4.3 1.6 1.3 3.4 2.1 4.1 1 .8 1.4 3.6 1.4 10.9 0 6.7.5 10.7 1.5 12.6.8 1.6 1.5 3.8 1.5 4.9.1 1.1.7 3.1 1.5 4.5 1.6 2.9 2 11.6.5 12.5-1.9 1.1-1 2.5 1.5 2.5 3.3 0 7.3 2.1 10.5 5.5 2.1 2.2 2.5 3.5 2.3 8.3 0 3.1-.1 7-.2 8.7 0 3.1 3.3 8.8 8.1 13.6 1.6 1.5 2.8 3 2.8 3.4 0 .3 1.2 1.7 2.6 3 1.9 1.8 2.7 3.7 3.1 7.9.7 6.7 2.5 8.6 8.7 9.3 3.9.5 4.6.9 5.5 3.6 1.7 4.7 1.4 13.6-.4 14.4-1.2.4-.8 1.1 1.7 2.8 3.9 2.6 12.1 6.5 14 6.5 2.7.1 5.8 3.8 5.8 6.9s2.1 4.3 3.5 2.1c.8-1.4 19.1-1.3 21.8.1 4.3 2.2 6.7 5.2 6.7 8.3s5.4 12.1 7.9 13.1c.7.3 2 0 2.7-.6.8-.7 2.9-.9 5.1-.5 2.1.3 7.9 1 13 1.5 10.2 1 15.9 3.5 16.9 7.7.4 1.5 1.3 2.4 2.6 2.4 1.1 0 3.4 1.1 5.2 2.5 2.5 1.9 4.5 2.5 8.2 2.5 3.8 0 5.9.7 9.4 3.1 2.4 1.6 4.7 3.5 5.1 4.1.5.8 1.5.8 3.7-.1 1.7-.7 5.1-1.1 7.6-1 3.6.2 5.1-.2 6.9-1.9 2.7-2.5 8.2-3 9-.8.3.8 1.8 2.2 3.2 3.2 2.4 1.5 2.7 1.5 4.4 0 .9-.9 2.7-1.6 3.8-1.6 1.2 0 3.2-1.2 4.5-2.7 3.6-4.1 6.2-5.3 12-5.3 3.1-.1 6.1-.7 7.2-1.5 2.1-1.6 9-2 14.5-.9 3 .6 3.1.8 3.1 6 0 4.7-1.1 8.7-4.1 14.7-.5.9-.5 1.7-.1 1.7 1.7 0 7.2-3.1 7.2-4.1 0-.5.6-.9 1.3-.9 2 0 12.7-10.2 14.5-14 1.4-2.9 2.3-3.5 5.5-3.8 2.7-.2 3.7.1 3.7 1.2 0 .8 1.4 2.6 3.2 4.1 2.9 2.5 3.2 2.5 4.2.8.5-1 .9-3.5.7-5.5-.2-2.6.2-3.8 1.1-3.8 1.2 0 3.8-1.1 13.1-5.6 4.3-2.1 7.4-1.7 11.3 1.3 3.5 2.6 3.6 2.6 6.7.8 5.3-3 18.7-16.8 18.7-19.2 0-1.5 1.2-2.7 4.3-4.2 2.4-1.2 4.9-2.1 5.6-2.1.6 0 2.9-.8 4.9-1.9 2-1 5.4-2.7 7.5-3.6 2-1 3.7-2.2 3.7-2.7 0-2.1 4.2-4.8 7.5-4.8 1.9 0 3.5-.4 3.5-.9s2.4-2.1 5.3-3.6c9.5-4.7 11.6-6.6 11.7-10.3 0-2.4 1.1-4.4 4.1-7.7 2.3-2.5 4.9-4.5 5.8-4.5 1.8-.1 4.1-2.9 6.2-7.8.8-1.7 1.7-3.2 2.1-3.2.5 0 .8-1.2.8-2.6s.9-3.7 2-5.1 2-3.4 2-4.4c0-1.1.4-1.9 1-1.9.5 0 1.6-2.1 2.3-4.7 1.1-3.7 1.9-4.9 3.6-5.1 1.3-.2 4.1-2.2 6.3-4.4l4-4-1.1-5.6c-1.6-8.2-1.4-9.7 2.4-18.2 2-4.5 3.5-9.4 3.5-11.5 0-2.9 1-5.1 4.2-9.2 3.9-5.1 4.1-5.8 4.4-13.1.1-4.2.5-10.1.9-13 .8-6.4.8-6.4 17-6l11.9.3.9 4.5c1 5.3.2 32.6-1.2 45.9-.7 5.7-1.7 10.1-2.6 11.1-.8.9-1.5 2.1-1.5 2.7s-1.1 2.7-2.5 4.7c-1.4 2.1-3 5.9-3.6 8.4-8.3 37-32.7 78.1-65.6 110.6-12.8 12.7-13.9 13.5-31.2 23.4-9.8 5.6-18.3 10.2-18.8 10.2s-1.9.9-3 2c-3.5 3.2-14.9 10.6-21.1 13.5-3.1 1.6-6.5 3.2-7.4 3.7-1 .4-2.7.8-3.7.8-1.1 0-2.3.5-2.6 1-.3.6-1.7 1-3 1s-2.7.5-3 1c-.7 1.1-10.5 1.4-10.5.3 0-.5 1.3-1.7 2.9-2.8 2.5-1.6 5.8-6.3 4.9-7-.2-.1-2.9-2.2-6.1-4.8-3.2-2.5-6.4-4.4-7.1-4.1-1.8.7-9.6 9.9-9.6 11.3 0 2-5.1 2.5-8 .7-3.2-1.8-8.5-2.1-9.5-.5-.5.7-1.2.6-2.3-.4-2.3-1.9-11-5.7-13.3-5.7-1 0-3.4 1.6-5.3 3.6-3.9 4-3.8 4.9 1 10.7 3.6 4.3 3.1 5.7-1.7 5.7-4 0-4-.1-3.4-2.9m-72.6-23.7c1-.9-3.5-.3-4.9.6-1.1.8-.7.9 1.5.4 1.7-.4 3.2-.8 3.4-1m-59.8-30.9c-.6-3.5-.9-4.1-1-2-.1 3 .9 7.8 1.5 7.3.2-.2-.1-2.6-.5-5.3" fill="#1A0F06"/>
  <path d="M539.061 741.815c0-1.7.9-4.4 2.1-6 2.4-3.4 1.8-6.9-1.3-6.9-1.3 0-1.8-.5-1.5-1.4.5-1.1-.5-1.7-3.8-2.1-3.6-.6-5.1-.3-8.8 1.9-3.9 2.3-4.8 2.5-7.1 1.5-3.1-1.5-6.8 0-10.4 4.4-1.3 1.5-3.3 2.7-4.4 2.7-1 0-3.4 1.1-5.2 2.5s-3.7 2.5-4.3 2.5c-.5 0-2.8-1.7-5.1-3.8l-4.2-3.8-3.2 3.3c-3.5 3.6-5 4-6.7 1.9-2.1-2.5-6-2.5-9.7 0-4.2 2.9-6.4 3.1-6.4.6 0-3-7.6-7.3-13.8-7.7-3.8-.3-6.4-1.2-8.6-2.9l-3.3-2.5-2.6 2.7c-3.2 3.1-4 2.7-2.7-1.7 1.2-4.2.5-5.6-3.7-8.2-2.5-1.6-5.9-2.3-12.7-2.8-5.1-.4-9.7-1.1-10.4-1.5s-1.5 0-1.9 1.1c-.9 2.4-2.3 3.3-5.2 3.3-1.6 0-2.1-.4-1.8-1.4.4-.9-.1-1.7-1.1-2.1-2.7-.9-8.2-9.8-8.2-13.1 0-3.1-2.5-6.2-6.5-8.1-2.6-1.3-14.5-1.5-16-.3-.6.5-3 1.2-5.3 1.6l-4.2.7v-3.8c0-3.9-2.9-7.4-6.2-7.5-2.8 0-10.2-7-11.1-10.4-.5-1.7-1.7-6.2-2.8-9.9-1.9-6.4-2.2-6.8-4.7-6.6-3.3.2-7.3-1.3-9.2-3.6-.8-.9-1.5-3.9-1.6-6.6-.1-3.9-.7-5.5-2.8-7.4-1.4-1.3-2.6-2.9-2.6-3.4 0-.6-.7-1.4-1.5-1.8-.8-.5-3.4-3.4-5.7-6.6-4.6-6.1-4.7-6.4-3.7-20.5.2-4.2-7.2-10.2-12.6-10.2-2.2 0-2.5-.4-2.5-3.5 0-1.9.5-4.4 1.2-5.5 1-1.5.9-2.6-.5-5.5-.9-2-1.7-4.3-1.7-5.3 0-.9-.8-3-1.7-4.7-1.3-2.3-1.7-5.3-1.6-12.5.1-6.7-.2-9.9-1.2-11-.7-.8-1.7-2.7-2-4.3-.4-1.5-2-3.8-3.6-5.1-3.8-3.2-14.8-6.6-20.6-6.4-2.6.1-5.8-.2-7-.6l-2.3-.7v12c0 11.1-.2 12.1-1.9 12.1-1.5 0-1.9-1.1-2.4-6.7-1.1-11.2-.8-18.8.7-20.9 1.4-1.8 2.7-1.9 34.8-1.5 21.3.2 33.8.7 34.6 1.4q1.35 1.05 1.2 8.1c-.3 15.3 2.4 30.4 8.2 46.6 10.6 30 13.3 35.6 20.4 43.2 2.4 2.6 4.4 5.6 4.4 6.6 0 1.1.7 2.5 1.6 3.3.8.7 2.4 2.9 3.4 4.8 1.8 3.6 23.2 25.1 32.5 32.7 2.8 2.2 7.9 6 11.5 8.4 8.7 5.8 12 8.9 12 11.6 0 1.6.7 2.3 2.8 2.7 6.4 1.2 13.9 3.5 17.1 5.1 1.9 1 6.1 2.7 9.5 3.8 3.3 1.1 7.2 2.8 8.6 3.8 1.4.9 5.3 2.2 8.8 2.9 3.4.7 8.2 1.9 10.5 2.8 2.4.9 9.5 1.9 16.7 2.4 6.9.4 15.9 1.1 20 1.4 5.3.5 9.8.2 15.2-.9 10.2-2.1 16.2-2 22.6.4 4.4 1.7 5.2 1.8 5.2.5 0-.8.5-1.5 1.2-1.5.6 0 4-1.4 7.5-3 3.5-1.7 10.7-4.1 16-5.5 16.3-4.1 35.6-12.8 42.8-19.2 2.1-1.9 7.3-5.9 11.6-8.9s8.8-6.9 10.1-8.7c1.2-1.8 3.8-4.5 5.8-6.1 9-7.5 21.4-21.7 29.6-33.9 10-14.9 20.4-32.5 20.4-34.4 0-.8.4-2.1.9-3.1.6-.9 2.2-4.8 3.6-8.7 1.4-3.8 3.5-9.4 4.6-12.3 2.7-6.8 3.8-14.5 4.6-30.8l.5-13.1 10.6-.7c5.8-.3 21-.6 33.9-.6 26.5 0 25-.5 23.8 8.5-.8 6.6-3.1 7.5-4 1.8-1.1-6.6-.7-6.3-11.2-6.3-5.4 0-10.3.4-10.9.8-2 1.2-3.5 16.6-2.2 21.3.7 2.3 0 3.7-4 8.9-3.7 4.7-4.7 6.8-4.4 8.9.2 1.7-1.1 6.1-3.8 11.9-2.2 5.1-3.8 9.7-3.4 10.4.4.6.8 2.2 1 3.5.1 1.2.5 4 .9 6.1.6 3.6.3 4.2-4.1 8.8-2.7 2.7-5.7 4.9-6.8 4.9-1.4 0-2.2 1.2-3.3 4.8-.7 2.6-1.8 4.7-2.3 4.7-.6 0-1 .8-1 1.9 0 1-.9 3-2 4.4s-2 3.7-2 5.1-.3 2.6-.8 2.6c-.4 0-1.3 1.5-2.1 3.3-2.1 4.8-4.4 7.6-6.2 7.7-.9 0-3.5 2-5.8 4.5-3 3.3-4.1 5.3-4.1 7.7 0 3.5-.9 4.3-11.3 10-2.7 1.5-5.5 3.5-6.1 4.4-.9 1.2-2 1.5-3.9 1-2-.5-3.2-.1-4.7 1.4-1.1 1.1-2 2.4-2 2.8 0 .5-1.7 1.7-3.7 2.7-2.1.9-5.5 2.6-7.5 3.6-2 1.1-4.3 1.9-4.9 1.9-.7 0-3.2.9-5.6 2.1-3.1 1.5-4.3 2.7-4.3 4.2 0 2.8-13.7 16.4-20.2 20.2l-4.8 2.7-4.7-3.4c-5.3-3.7-4-3.8-14.3 1.1-2.5 1.1-5.1 2.1-5.7 2.1-.9 0-1 .7-.3 2.6 1.4 3.6 1.4 3.6-2.4 7.7l-3.5 3.8-4.5-4.2c-2.5-2.4-4.6-5-4.6-5.8-.1-2-4 2.4-4 4.4 0 1.6-12 12.5-13.7 12.5-.7 0-1.3.5-1.3 1 0 .6-2 1-4.5 1-4.4 0-4.5-.1-4.5-3.1m-94.7-473.6c-7.4-5.9-8.3-7.1-8.3-10 0-3.1.2-3.3 3.3-3.3 1.7 0 11 2.5 20.5 5.6l17.2 5.6v6.5l-10.7 1.1c-6 .7-11.5 1.2-12.3 1.2s-5.2-3-9.7-6.7" fill="#2B1C0A"/>
  <path d="M365.061 862.915c0-.5.6-1 1.3-1 1 0 9.1-14.8 14.7-27 .4-.8 2.1-1.6 3.7-1.8 4.6-.5 4.9 2.1.9 6.6-1.8 2-4.5 6.2-5.9 9.2-3.8 8-14.7 18.4-14.7 14m-31-15.3c0-6.6 9-28.7 11.6-28.7.9 0 1.4-1.2 1.4-3.1 0-1.8.5-4.9 1.2-7 .9-3.1 1.6-3.9 3.4-3.9 2.1 0 2.2.3 1.7 3.8-.3 2-1 4.5-1.4 5.4-1.4 2.7-1 5.2 1.1 7.1 1.1.9 2.3 3 2.6 4.5.8 4.1 3.7 7.4 5.7 6.6.9-.3 1.7-1.4 1.7-2.4 0-1.1.5-2.2 1-2.5.6-.3 1-1.5 1-2.6 0-1 .5-1.9 1-1.9 1.4 0 1.3 7.3-.2 10.7-4.2 9.8-9.5 8.3-14.4-3.9-1-2.7-2.2-4.8-2.7-4.8-.7 0-7.7 14.1-7.7 15.6s-5.3 11.4-6.1 11.4c-.5 0-.9-1.9-.9-4.3m72.9-8.5c-1-1.1-2-2.8-2.3-3.9-.3-1-2.8-5.4-5.6-9.8-6.7-10.6-7.4-13.1-5.9-20.2 1-5.2 1.3-5.5 2.2-3.5 1.2 2.7 1.6 2.7 7.8.5 4.9-1.8 5.3-2.3 8.4-10.3.9-2.5 2.1-5.2 2.6-6s1.3-2.4 1.8-3.5 3.8-5.3 7.5-9.4c3.6-4 6.6-7.7 6.6-8.1 0-.5 1.7-2.6 3.8-4.8 4.2-4.6 13.9-8.2 21.7-8.2h4.6l-.6-6.8c-.8-7.6-.6-8 7.9-12.6 5.2-2.9 7.6-2.8 7.6.2 0 2.4-1.4 3.6-6.3 5.3-5.1 1.8-5.6 2.6-5 8.7.5 4.7.8 5.3 3.4 6 4.5 1.1 2.1 3-7 5.4-7 1.8-9.2 1.9-13.9 1.1-5.5-1-5.6-1-8.4 2.1-1.5 1.7-2.8 3.8-2.8 4.8 0 2.2-8.1 13.7-11.9 16.9-1.6 1.3-3.8 4.7-4.9 7.5-3.2 8-6.3 11.9-11.3 14.3-2.6 1.1-5.4 2.1-6.3 2.1s-1.9.7-2.2 1.5c-.5 1.3 6.1 20.5 9.3 26.8 2 3.9 1.4 6.5-.8 3.9m92.9-44.7c-.4-.4-6.7-.8-14.1-.9-10.8-.3-14.9-.8-21-2.7-5.8-1.8-7.7-2.8-7.7-4.1 0-2.1 4.7-2.3 23-.9 6.3.5 15.3.6 19.9.3l8.4-.7-6.6-5c-3.6-2.7-6.8-5.8-7-6.7-.3-1.1.6-2.7 2.5-4.3 2.4-2.1 4-2.5 8.6-2.4l5.7.1-5.3 1.3c-3 .7-6.1 2-7 2.9-1.6 1.6-1.5 1.8.8 3.7 1.4 1.1 4.8 3.5 7.5 5.3 2.8 1.8 5.9 4.3 6.9 5.5 1.1 1.1 2.5 2.1 3.3 2.1.7 0 1.3.7 1.3 1.5s-.5 1.5-1.2 1.5c-.6 0-1.9.7-2.8 1.5-1.8 1.6-14 3.2-15.2 2m-119.1-9.2c-.4-.3-.7-4.1-.7-8.4 0-7.2.2-8 3.3-12 3.5-4.6 4.1-5 10.9-7.8 2.6-1.1 5.4-3 6.2-4.3 1.4-2.1 1.3-2.8-1.5-8.5-1.7-3.6-3.7-6.3-4.5-6.3-2.6 0-9.4-4-9.4-5.5 0-1.6.8-1.8 5.2-1.5 2.6.1 2.7.1 1.7-3.5-1.1-4-.4-9.2 1.6-11.5.7-.8 1.6-3.9 2-6.9s1.8-6.9 3.1-8.9c1.3-1.9 2.4-3.8 2.4-4.2 0-.5-1.6-2.2-3.5-3.9s-3.5-3.3-3.5-3.6c0-1.6 7.7-.2 10.4 1.8 1.7 1.3 3.8 2.7 4.6 3 6.9 3.2 9.5 5.4 9.8 8 .3 2.4 0 2.8-1.5 2.3-1-.3-3.6-.9-5.8-1.4s-4.6-1.1-5.4-1.3-2.4 1.5-3.9 4.1c-2.4 4.2-2.6 5.5-2.7 18s.1 13.8 2.3 17.8l2.5 4.4 4.1-4.1c3.8-3.7 4.4-4 6.1-2.7 1.7 1.2 1.8 1.7.6 3.9-2.3 4.3-12.6 13.9-20.1 18.7-5.8 3.7-8 6.4-8 9.9 0 3-4 15.1-5 15.1-.4 0-1-.3-1.3-.7m179.3-1.3c0-1.2 3.4-3.1 7.5-4.1 11.5-3 22.4-6.4 25.7-8 1-.5 2.7-.9 3.7-.9 1.1 0 2.3-.4 2.6-1 .3-.5 1.5-1 2.6-1 1 0 2.7-.4 3.7-.8.9-.5 4.3-2.1 7.4-3.7 6.2-2.9 17.6-10.3 21.1-13.5 1.1-1.1 2.5-2 3-2s7.5-3.8 15.6-8.4c21-12 19.1-11.2 19.1-7.6 0 2.6-.7 3.5-4.6 5.8-2.5 1.5-7.4 4.8-10.8 7.5-3.3 2.6-8.3 6.4-11.1 8.5-2.7 2.2-6.8 4.5-9 5.3s-8 3.5-13 6c-4.9 2.6-11.9 5.6-15.5 6.8s-7.3 2.7-8.4 3.2c-8.5 4.8-39.6 11-39.6 7.9m-28-30.7c0-3.7 1-7.9 3-12.8 3.4-8.4 4.1-12.2 2.8-15.6-.3-.7-3.1-2.3-6.2-3.3-5.9-2-7.1-3.9-3.3-5.1 4-1.2 19-3.6 26-4.2 5.7-.4 6.7-.3 6.7 1.1 0 .9-.4 1.6-1 1.6-.5 0-3.9 1.4-7.3 3-3.5 1.7-7 3-7.7 3-.9 0-1 .9-.5 3.3 1.8 9 1.7 11.6-.6 14.8l-2.3 3.2 4.1-.6c2.3-.4 5-1 6-1.4 1.6-.6 1.6-.5.4 1-.7.9-1.9 1.7-2.6 1.7-.8 0-1.5.5-1.7 1-.2.6-2.8 2.3-5.8 3.8s-6 3.8-6.6 5c-2.3 4.7-3.4 4.9-3.4.5m-193.2-16.1c-2.3-1.3-2.8-2.4-2.8-5.5v-3.8l3 2.1c3.3 2.3 3.8 1.4 1.6-2.8-.7-1.5-1.6-5.7-1.8-9.4-.5-6.1-.3-7.2 2-10.8 4.5-6.8 5.2-5.5 4.6 8.8-.3 8.8 0 14.3.9 18l1.4 5.2h-3.1c-1.7 0-4.3-.8-5.8-1.8m120.4-18.2c-3-1.1-8.1-2.5-11.5-3.1-3.4-.7-7.4-2-8.9-3.1-1.4-1-3.1-1.8-3.7-1.8s-1.1-.7-1.1-1.5c0-2.2 5.8-1.9 12 .5 2.8 1.1 7.2 2 9.9 2s7.5.8 10.7 1.9c3.3 1 8.9 2.2 12.7 2.5 5.7.7 6.7 1 6.7 2.7 0 1.8-.8 1.9-10.7 1.8-7.9 0-12.2-.6-16.1-1.9m-154.5-14.8c-2-2.2-2.4-8.3-.5-6.4 2.4 2.4 3.1 1.1 2.6-5.5-.7-8.2-2-11.2-6.1-13.8-4.6-2.9-11-12.4-9.6-14.2 1.7-2 2.4-1.7 7 2.7 3.4 3.2 4.6 3.8 7 3.3 2.8-.5 2.9-.4 2.9 3.1 0 2 .9 6.2 2 9.3 2.2 6.4 2.5 12.4.9 17.2-.8 2.4-.8 3.5.1 4.6 1.1 1.3.8 1.5-1.7 1.5-1.7 0-3.7-.8-4.6-1.8m32.8-22.3c-3.3-1.8-8-4.2-10.5-5.5-5.8-2.9-12.5-9.7-11.7-11.8.9-2.3 5-1.9 7.5.7 5.3 5.7 8.2 6 8.2.8 0-2.4.3-2.8 1.9-2.4 1.4.3 2.3 2 3.2 5.6.9 3.9 2.1 6 4.9 8.4 3.8 3.3 5.8 7.3 3.7 7.3-.7 0-3.9-1.4-7.2-3.1m-57.2-7.1c-6.6-10-16.3-25.5-16.3-26.1 0-.2-2.3-4.4-5.1-9.3-2.9-4.9-5.8-11.6-6.6-14.9-.7-3.3-1.9-8-2.4-10.5-.6-2.5-1.3-7.4-1.6-10.9-.6-8.1 1-7.9 4.5.5 1.3 3.2 2.8 6.8 3.3 7.9 4.7 11.3 6.8 16.7 7.4 19.3.4 1.8 2 5.8 3.7 9 8.1 15.3 11.3 21.1 13.9 25 1.6 2.4 4.8 7.7 7 11.8l4.1 7.4h-2.9c-2.5 0-3.6-1.2-9-9.2m455.4-24c9.5-19.6 14.7-33.2 16.3-42.3.9-5.6 1.8-7.7 6.1-15 1.6-2.7 3.2-5.8 3.5-6.7.8-2.2 3-2.3 3.8-.2 1.2 3.1.5 8-2.3 15.9-1.6 4.4-3.6 10.3-4.5 13-1 2.8-5.7 12.9-10.6 22.5-8.3 16.4-9.1 17.5-11.9 17.8l-3 .3z" fill="#281A1D"/>
  <path d="M546.061 263.715c.1-4.1 2.9-7.6 6.8-8.4 1.6-.3 5.1-2.3 7.8-4.5 2.7-2.1 7-5.3 9.6-7.1s4.8-3.5 4.8-3.8-1.3-1.4-3-2.3c-1.6-1-3-2.3-3-2.8 0-.6-1.6-1.7-3.5-2.5-2.9-1.2-3.5-2-3.5-4.3 0-2-1.3-4.3-4.2-7.6l-4.3-4.6-3.4 2.5c-4.7 3.5-10.1 3.5-14.7 0l-3.4-2.7-4.2 2.9c-2.3 1.6-5.4 4.1-6.9 5.7-2 2-3.7 2.7-6.4 2.7-3.2 0-5-1.1-13.1-8.1-8.8-7.6-9.4-8.4-9.4-11.9 0-4.3 4.9-13.8 10.9-21 2-2.5 5.3-6.7 7.3-9.5 5-6.8 13.7-15.1 23.3-22.1 11.8-8.6 21.7-13 37.3-16.4 5-1.1 13.1-2.9 18-3.9 20-4.4 50.2-3.1 51.6 2.2 1.2 4.4.5 16.5-1.5 27.2-1.1 6.1-2.3 12.6-2.6 14.5-1.7 10.5-11.2 31.6-16.9 37.6-2 2.1-5.5 6.2-7.6 8.9-9.5 12-22.4 24-31.9 29.7-11.6 6.9-25.5 12.8-30.3 12.8-3.4 0-3.6-.2-3.6-3.2" fill="#055C21"/>
  <path d="M468.061 1006.81c-31.5-2.5-68.5-8.995-96.3-16.895-20.4-5.8-45.5-14.3-58.6-20-5.2-2.2-10.1-4-10.8-4-1.8 0-32.9-15.6-46.9-23.6-13.3-7.5-42.5-26-43.9-27.8-.5-.6-5.5-4.6-11-8.8-5.5-4.1-14.4-11.2-19.8-15.7-5.3-4.4-10-8.1-10.3-8.1-1.4 0-25.3-23.2-34.3-33.2-11.6-13-12.9-14.5-27.1-32.3-6.1-7.7-12.1-15.1-13.2-16.5-4.4-5.1-20.6-29.9-28.4-43.5-9.1-15.7-25.4-47.4-25.4-49.4 0-.7-1.4-4.4-3-8.1-13.1-29.9-26.1-73.9-32-108.8-6.1-36.3-8.6-85.3-6.1-119 4.2-54 15.5-103.1 35-151.7 2.9-7.1 5.9-14.8 6.7-17 5.5-16.2 38.9-73.7 52.2-90.1 7.7-9.4 24.2-30.1 29.7-37.2 6.3-8.2 43.9-46.2 45.7-46.2.6 0 3.8-2.4 7.2-5.3 3.4-3 12-9.8 19.1-15.2 7.2-5.4 13.5-10.4 14-11 1.8-2.1 32.4-21.9 44.5-28.8 13.9-7.8 45.6-23.7 47.4-23.7.8 0 4.4-1.3 8.2-3 48.4-20.8 101.7-33.5 160.8-38.1 21.4-1.7 69.3-.6 91.1 2 27.6 3.4 56.3 8.6 71.5 13.1 33.8 9.9 42.8 13 67.5 22.9 3.9 1.6 8.6 3.3 10.5 3.9 13.8 4.5 81 43.3 89.9 51.9.7.8 5 4.2 9.5 7.6 4.4 3.4 12.5 9.8 18 14.2 5.4 4.4 10.9 8.7 12.2 9.6 4.6 3 27.4 25.1 36.2 34.9 10.9 12.3 27 31.9 33.5 40.8 2.7 3.7 5.2 6.9 5.6 7.2 1.6 1.1 16.3 23.3 24.8 37.5 8.7 14.4 28.3 52 28.3 54.2 0 .5 3.4 9.4 7.5 19.7 16.2 40.6 26.899 83.9 32.199 130.8 2.2 19.4 2.5 78.7.5 97.8-5.4 51.1-16.499 96.2-35.099 142.1-2.8 6.9-5.1 13-5.1 13.4 0 2-20 40.2-28.3 53.9-9 15.2-21.4 34.1-23.9 36.7-.8.8-5.9 7.3-11.5 14.4-5.5 7.2-12.3 15.5-15 18.5-2.8 3-5.2 6-5.4 6.7-.8 2.2-21.1 23.3-31.8 33.1-12.5 11.2-31.7 26.9-44 35.9-4.6 3.5-8.7 6.7-9 7.1-4 5.7-75 46.7-89.1 51.4-1.9.6-11.8 4.4-22 8.4-47 18.2-90.8 28.395-142.5 32.895-18.3 1.6-61.5 1.8-79.5.4m60-107.395c0-.9 1-2 2.3-2.5 2.2-.9 2.2-.9 0-.9-1.2-.1-2.3-.6-2.5-1.2-.2-.7-1.3-.5-3.1.4-2.6 1.3-2.6 1.5-.7 2 1.1.3 2 1.2 2 2.1s.5 1.6 1 1.6c.6 0 1-.7 1-1.5m-277.5-4c3-2.9 3.1-4.5.5-7.3-2.7-2.9-4.6-2.8-7.5.4-2.3 2.4-2.3 2.8-1 5.4s2.7 3.7 4.8 3.9c.4.1 1.9-1 3.2-2.4m132.4-15.1c-3.9-11-3.4-13.4 1.1-5.5 4.4 7.9 6.4 9.8 8.5 8.1 1.8-1.5 8-14.3 9.1-18.6.4-1.6 1.7-4.9 3-7.4 4.2-8.5 5-12.6 3.1-16.6-2.6-5.4-2.2-7.5.7-3.9 2.2 2.6 2.6 2.8 3.9 1.5.7-.8 2.4-4.9 3.7-9s3.7-9.9 5.3-12.8 3.5-7.5 4.2-10.2c1.7-6.5 6.7-16.9 8.2-16.9.6-.1 2.1 1.5 3.3 3.4l2.2 3.5 2.8-2c3.9-2.7 9.4-2.6 14.6.5 3.8 2.2 4.8 2.4 8.6 1.6 6.9-1.5 25.8-1.3 28.2.2 1.2.8 4.5 1.7 7.5 2 3 .4 5.8 1 6.3 1.5s3.1.7 5.7.4c2.6-.2 5.7.1 6.8.6 3.4 1.8 9.3-.6 10-4 .9-4.6 2.4-5.2 12.1-4.3 4.8.4 10.1.7 11.7.6 1.7 0 6.6-.3 11-.5l8-.3 5.5-5.3c6.3-6.1 11.9-7.6 16.4-4.6 1.4.9 3.6 1.6 4.9 1.6 1.2 0 2.8.5 3.5 1.2.8.8 1.5.8 2.6-.2.9-.7 3.1-1 5.2-.8s6.2-.4 9.2-1.4 6.6-1.8 7.9-1.8c1.2 0 2.3-.4 2.3-.9s1.6-1.6 3.6-2.6c3.4-1.6 3.5-1.7 2-4-2.1-3.2-2-8.8.2-10.8.9-.8 4.7-1.8 8.4-2.2 9.8-1.1 13.9-2.7 15.9-6.5 1-1.7 3.5-4.1 5.6-5.1 2.1-1.1 5-3.3 6.5-5 2.3-2.3 3.6-2.9 7.1-2.9 5 0 6.9-1.6 11.2-9.7 1.5-2.9 3.8-5.9 5-6.7s4.3-3.6 6.9-6.2l4.7-4.7 6.1.6c8.6.8 9.5 0 9-7.8l-.4-6.3 4.3-3.1c2.4-1.7 5.2-3.8 6.1-4.7 1.5-1.4 3.3-1.6 12-1.1 10.9.6 12.8 1.5 12.8 6.4 0 1.5.6 2.3 1.8 2.3.9 0 2.8 1.8 4.2 4 2.9 4.8 6.6 5.5 7.6 1.5.6-2.3 1-2.5 7.1-2.5 5.7 0 6.8.3 9.2 2.8 1.5 1.5 3.2 3.5 3.8 4.6 1 1.7 1.4 1.5 5.3-2.4l4.2-4.2 9.7.3c9.5.4 9.8.3 13.2-2.5 4.7-4 9-5.6 15.1-5.6 4.4-.1 5-.3 3.7-1.3-.9-.7-2.9-2.2-4.5-3.5-1.6-1.2-5.1-3.8-7.7-5.6l-4.8-3.4-4.5 4.8c-5.6 6-12.1 9.2-17.8 8.8-3.9-.3-4.1-.4-4.4-3.9-.3-3.4-.6-3.7-4-4.3-2.2-.3-4.2-1.4-5-2.7-1.2-1.9-1.5-2-3.1-.5-2.2 2-8 2.1-10.7.2-1.1-.8-4-1.6-6.5-1.8-3.9-.3-4.6-.7-5.8-3.5-.8-1.8-2.4-3.4-3.8-3.7-2-.6-2.3-1.3-2.3-5 0-4.1-.3-4.5-4-6.5-2.2-1.2-4.6-2.1-5.2-2.1-2.7 0-4.8-3.4-4.8-7.5 0-4 .2-4.4 3.9-5.8 2.2-.9 4.2-2.1 4.6-2.6.3-.6 2.1-1.8 4-2.7 3.4-1.6 3.5-1.8 3.5-7.5 0-3.2.4-6 .9-6.3s1.2-1.8 1.6-3.3c1-4.3 3.4-6.3 7.5-6.3 2 0 4.1.5 4.8 1.2.9.9 1.2.7 1.2-1 0-1.2 1.6-4.2 3.5-6.8 4-5.3 4.2-5.8 1.6-7.6-4.9-3.5-6.5-12.4-3.4-19.4 1-2.4 1.6-6 1.4-9.2-.1-3.3.3-6 1.1-6.9.8-1 1.2-3.7 1-7.2-.3-5.3-.1-5.8 3.7-9.9l4.1-4.2-1.2-6.3c-1.7-9.8-1.6-18.2.4-20.3 1-1.2 1.8-4.5 2.2-8.4 1-11.2.7-15.3-1.4-18.2-1.1-1.5-2-3.8-2-5.1 0-1.4-.7-3-1.5-3.7-2.1-1.7-1.9-8.6.3-10.8.9-.9 2.8-3.2 4-5 1.3-1.7 3-3.2 3.8-3.2s1.4-.5 1.4-1.1c0-1.3-5.3-9.1-7.3-10.8-1-.8-1.8-4.1-2.2-9.9-.7-7.6-1.1-9.1-3.6-12-1.6-1.8-2.9-3.6-2.9-4.1s-1.4-2.6-3.1-4.7c-2.8-3.5-3.1-4.4-2.6-9.1.4-4.2.2-5.4-1.4-6.9-2.3-2.1-2.6-8.2-.4-11 1.6-2.1 2-7.4.5-7.4-.5 0-2.8-1.8-5.2-4s-5.1-4-6.1-4-2.5-.6-3.3-1.4c-1.7-1.8-1.9-7.6-.2-7.6.7 0 2.4-1.2 4-2.7l2.7-2.6-2.4-2.9c-1.4-1.6-2.5-3.8-2.5-4.9 0-1-.4-1.9-1-1.9-.5 0-1-1.2-1-2.7 0-4.1-5.8-8.5-9.9-7.7-4.4.9-8.1-.3-8.1-2.6 0-1-.5-2.2-1-2.5-2.1-1.3-5-8.5-5-12.4 0-3.4-.3-3.8-2-3.4-1.1.3-3.9.2-6.3-.1-4.1-.6-4.5-1-5.6-4.6-1.1-3.8-1.4-4-5.1-4-6.6 0-8.8-1.6-9.5-7.1-.4-2.6-.4-5.7 0-6.8.3-1.1 0-2.9-.6-3.9-1.1-1.7-2-1.9-6.4-1.5-3.9.4-6.2 0-9.8-1.6-4.4-2-4.7-2.4-5.3-7-.6-4.4-1-5.1-3.8-6.1-1.7-.6-3.9-1.6-4.8-2.1-1-.5-2.5-.9-3.3-.9-2.8 0-5.5-3.8-5.5-7.8 0-2.1.5-4.3 1.1-4.9.8-.8.6-1.8-.6-3.6-2.2-3.5-4-3.9-6.1-1.6-1.4 1.5-3.1 1.9-8.6 1.9-6.4 0-6.8-.1-6.8-2.2-.1-1.3-.9-3.9-1.9-5.7-1.8-3.4-2.1-3.5-7-3.2-4.6.2-5.4-.1-8.8-3.3-2.8-2.6-4.1-3.2-5-2.4-.7.6-2.8.7-5 .4-2.1-.4-6.2-1-9-1.3-5.3-.5-5.3-.5-5.3-3.9 0-1.9.3-3.4.8-3.4.4 0 1.5-1.9 2.5-4.2 1.9-4.2 1.3-5.7-2.1-5.8-1.2 0 7.4-11.1 14.2-18.4 5.7-6 15.2-27.2 16.9-37.6.3-1.9 1.5-8.4 2.6-14.5 2.1-11.2 2.5-17.3 1.5-21.2-1.4-5-30-6.2-47.4-2-3.6.9-10.8 2.5-16 3.7-15.8 3.4-25.6 7.7-37.5 16.4-9.6 7-18.3 15.3-23.3 22.1-2 2.8-5.3 7-7.3 9.5-2.1 2.5-5.4 7.4-7.4 11-2.9 5.2-3.5 6.8-2.6 8.2 1 1.6.7 1.8-2.1 1.8-2.4 0-5.1-1.4-9.5-4.8-14.4-11-19.4-14.2-29.6-19-12.8-6.1-21.1-8.7-36.1-11.3-16.3-2.8-34.1-2.3-43.2 1.1l-2.2.9 1.8 4.8c1 2.6 3.2 7.5 4.9 10.8s3.1 6.8 3.1 7.8c0 2.3 2.4 7 4.5 8.7.9.8 2.5 3 3.5 4.9 1 2 4.8 6.6 8.4 10.3 8 8.2 8.5 10.9 3.1 16.1-1.9 1.9-3.5 3.9-3.5 4.4 0 1.6-2.6 2.3-8.1 2.3-4.7 0-4.9.1-4.9 2.8 0 3.6-2.5 5.9-7.2 6.6-2.1.3-5.4.8-7.3 1.1-3.4.6-3.5.8-3.5 4.8 0 4.1-.2 4.4-4.7 6.6-5.5 2.7-19.5 4.2-20.7 2.2-.5-.7-2 0-4.6 2-3.4 2.8-4.5 3.1-8.5 2.7-4.2-.5-4.5-.4-4.5 1.8 0 1.2-.4 2.5-.9 2.8s-1.9 2.5-3.1 4.8c-1.2 2.4-2.8 4.7-3.6 5.1s-1.4 1.6-1.4 2.5c0 2.4-8.9 10.8-12.2 11.6-1.4.3-4.1 2.4-5.8 4.6s-3.8 4-4.6 4c-.9 0-3.7 2.3-6.5 5.2-4.3 4.5-4.9 5.6-4.9 9.4 0 3.9-.3 4.4-2.9 5.1-1.5.4-4.5 2.2-6.5 4-3.3 3-3.6 3.7-3.6 8.6 0 4.1-.5 5.8-2 7.2-1.1 1-2 3-2 4.4s-.9 3.7-2 5.1-2 3.7-2 5.1c0 1.5-.6 3.2-1.4 3.9-.8.6-1.6 2.8-1.8 4.8-.2 2.7-.9 4-2.6 4.7-1.3.6-2.5 2-2.8 3.2s-1.2 2.7-2 3.4c-.8.6-1.4 2.7-1.4 4.5 0 3.2-.2 3.4-3.4 3.4-3 0-3.6.4-4.6 3.4-1 3.1-.6 7.6.9 10.1 1.1 1.9 3 10 3.1 13.3 0 3.1-.1 3.2-4.3 3.2-3.8 0-4.7.5-8 4.4-2 2.5-3.7 5-3.7 5.7s-1.2 2.5-2.7 4.1c-2.2 2.3-2.6 3.6-2.5 7.5.2 5.4-1 10.4-3.4 14.1-.9 1.3-1.7 4.6-1.8 7.3q-.15 4.8-2.4 7.8c-1.8 2.4-2 3.5-1.2 5 1.2 2.3 1.3 8.3.2 9.6-.4.6-1.3 2.6-2 4.6-1 2.9-1 4.1.1 6 2.6 5 4.2 6.9 5.6 6.9.8 0 2.3.7 3.3 1.7 2.6 2.3 2.5 11.6-.2 16.6-1.1 2-2 5-2 6.5 0 2-1.2 3.9-4.2 6.7-3.5 3.4-3.9 4-2.2 4.3 1 .2 2.9 1.5 4.1 2.9 1.2 1.5 3.7 3.1 5.5 3.7 3 1 3.3 1.5 3.6 5.4.2 2.3.8 4.2 1.4 4.2.7 0 .8 2.4.3 7.3-.5 5.3-1.3 8-3.1 10.3-2.1 2.9-2.3 3.9-1.7 9.8.3 4 .2 7.6-.5 8.9-.5 1.2-1.3 3-1.6 4-.4 1.3-1.7 1.7-6 1.7-4.8 0-5.8-.4-8.7-3.3l-3.2-3.3-4.3 4.3c-5.1 5.2-14 9.6-18.6 9.1-2.9-.3-3.3-.7-3.6-3.5l-.3-3.3h-5.9c-5.3 0-5.9.2-6.2 2.3-.3 1.9-1 2.2-4.9 2.5-4.1.3-5-.1-9.3-3.9-3-2.7-5.7-6.2-7.2-9.8-1.4-3-2.6-5.7-2.9-5.9-.4-.4-5 1.6-17.6 7.6l-5.7 2.6 6.3 1.6c7.2 1.8 12.3 5.3 14.9 10.1 1.8 3.4 1.8 3.4 9.4 3.5 9.2.2 14.2 2.1 17.3 6.6 1.2 1.8 2.4 3.5 2.5 3.6.1.2 2.4-1.1 5.1-2.9 4-2.8 5.9-3.4 11.3-3.7 4.3-.3 7.8.1 10 1 3.3 1.4 3.6 1.3 6-.9 2.2-2.1 3.4-2.3 12.3-2.3 9.1 0 10.2.2 12.9 2.5 1.6 1.4 3.7 2.5 4.5 2.5 2.1 0 5.3 2.9 5.3 4.8 0 .8 1.3 3.1 2.9 5.1 2.6 3.3 3.2 5.1 4.7 13.8.3 1.7 1.9 4.4 3.5 5.9s2.9 3.6 2.9 4.6c0 1.4.8 1.8 3.4 1.8 2.9 0 3.9.7 7.4 5.4 3 3.9 4.9 5.5 7.3 6 5.1 1 5.9 2.2 5.9 9 0 4.3.6 7 2 9.4 2.2 3.6 2.6 9.8.9 13.6-.9 2-.8 2.9.7 5 2.7 3.6 7.6 4.9 18.2 4.9 8.8-.1 9.2 0 9.2 2.1 0 1.2 2 4.4 4.5 7.3 4.9 5.6 5.9 10.1 3 13.9-2.2 2.9-1.8 4.2 1.8 6 2.1 1.2 5.2 1.6 9.3 1.5 5.8-.2 6.3 0 9.8 3.3 2.4 2.4 4.6 3.6 6.5 3.6 1.6 0 3.4.7 4.1 1.5 1 1.2 2.5 1.4 7.1.9l5.9-.7v3.7c0 2.1-.5 4.6-1 5.7-.8 1.4-.6 2.5.6 4.4l1.7 2.6 3.9-3.8c2.2-2.1 4.4-4.8 4.9-6 1-2.8 2.6-2.9 5.9-.4 2.4 1.9 2.4 2.1 1.2 6.6-.7 2.6-3.3 9-5.8 14.3-5 10.5-8.3 18.4-9.1 22-.3 1.2-.9 2.2-1.4 2.2s-.9.4-.9 1c0 .5-1.2 3.5-2.7 6.7-1.4 3.2-2.8 7.9-3.1 10.6-.3 2.8-.9 4.7-1.7 4.7-1.4 0-7.9 13.7-10.2 21.4-.8 2.8-2.8 8.5-4.4 12.7-3.2 8.2-3.5 10.6-1.6 13 2.1 2.7 6.5 2.9 12.3.3 2.9-1.3 8.1-3 11.6-3.8s7.7-2.2 9.3-3c3.9-2 5.4-2 3.3 0-.8.8-6.4 3.9-12.4 6.8l-10.9 5.3 7.4 3.6c4.1 2 8.2 3.7 9 3.7.9 0 6.1 1.6 11.6 3.5s10.5 3.4 11.2 3.5c.7 0 .1-3.1-1.8-8.6m312.1-11.5c0-1 .8-2.3 1.8-2.8 1.5-.9 1.5-1-.5-1.1-1.8 0-2.3-.6-2.3-2.4 0-1.4-.4-2.7-.9-3-1-.7-2.1 1.7-2.1 4.5 0 1-.4 1.9-1 1.9-.5 0-.7.6-.5 1.3 2.6 7.4 2.6 7.3 4.1 5.3.8-1.1 1.4-2.8 1.4-3.7m101.1-46.1c.7-1.3.5-2.5-.7-4.3-2.3-3.5-4.9-4-8.4-1.5-4 2.9-3.9 6.1.2 9.4l3.3 2.5 2.3-2.2c1.3-1.2 2.8-3 3.3-3.9m-586.1-63.3 2.4-2.6-2.5-2.5-2.5-2.5-2.7 2.1c-3.2 2.6-3.3 3.4-.7 6s3.2 2.5 6-.5m700-191c2.6-3.1-1.6-7-4.5-4.1-1.2 1.2-1.4 2-.5 3.6 1.3 2.4 3.3 2.6 5 .5m-838.3-27.7c3-2.9 2.9-6.2-.3-8.3-2.4-1.6-2.7-1.6-4.7.2-3.5 2.9-3.6 3.4-1.5 6.9 2.3 4 3.4 4.2 6.5 1.2m96.8-75.4c1.2-1.2 1.3-1.9.4-3-1.5-1.8-3.3-1.8-4.9.1-1.1 1.3-1 1.8.6 3 2.4 1.8 2 1.8 3.9-.1m740.8-80.2c1.5-1.6 1.5-1.9-.3-3-1.6-1-2.4-1-4 0-1.8 1.1-1.8 1.4-.3 3 .9 1 1.9 1.8 2.3 1.8s1.4-.8 2.3-1.8m-99.8-63.9c3.7.6 4.9.3 6.5-1.3 1.1-1.1 3.1-2 4.4-2s3.7-.3 5.4-.6l3.1-.6-4.2-4.6c-9.3-10-13.6-14.2-14.6-14.2-.6 0-2.5 1.3-4.3 2.8-5.2 4.5-9.6 6.2-16 6.2h-5.8v-3.9c0-4 0-4-3.4-3.4-1.9.3-4.8.1-6.5-.5-2.3-.8-3.1-.7-3.5.4-.7 1.8-7.2 1.9-10.8.2-2.8-1.4-8.4-9.6-9.7-14.4-.7-2.5-1.2-2.9-3.7-2.6-4.7.5-12.1 3.1-20.6 7.3-1 .5-2.5.9-3.3.9-1.3 0-1.3.3-.3 2 .8 1.2 2.4 2 3.9 2s3.2.6 3.8 1.4c.6.7 3.8 1.7 7.2 2 5.6.7 6.1.9 7.6 4.2 1.6 3.2 1.9 3.4 6.9 3.4 2.8 0 6.7.7 8.6 1.5 4.1 1.6 9.5 7.4 10.4 11 .5 1.9 1.1 2.4 2.8 2 5.9-1.3 14.3-2.5 17.3-2.5 3.4 0 8.1 2.3 9.6 4.8.7 1.1 1.2 1 2.8-.4 1.4-1.3 2.9-1.5 6.4-1.1m-548.5-32.8c0-1.7 4.4-6.1 7.7-7.9 1.8-.9 5.5-1.6 8.6-1.6h5.4l1.2-4.2c1.4-4.7 8-12.4 12-13.9 1.4-.6 2-1.3 1.5-1.8-1.1-1-9.7-3.7-14.6-4.5-3.3-.6-3.8-.4-3.8 1.2 0 3.1-4.7 11.8-8.8 16.1-3.1 3.3-4.6 4.1-7.5 4.1-2.4 0-4-.6-4.9-1.9-1-1.4-1.8-1.7-2.8-1-.8.5-3.2.9-5.2.9-3.8 0-3.8 0-3.8 4.1v4.2l-6.9-.6c-7.9-.7-12-2.4-17.2-7.4-3.6-3.4-3.8-3.4-5.3-1.7-.9 1.1-4 4.5-6.9 7.8-8.6 9.7-8.7 9.1.9 8.8 7.1-.3 9.1 0 12.8 1.9 4.3 2.1 4.6 2.1 8.5.5 5.5-2.1 15.4-2 21.1.4 4.5 1.8 4.5 1.8 6.2-.3 1-1.2 1.8-2.6 1.8-3.2m608.3-41.7c2.4-3.3 1.5-6.3-2.5-8.8-3.4-2-5.4-1.7-8 1.5-2.5 2.9-2.2 5.3 1.1 8.6 3.4 3.3 6.2 3 9.4-1.3m-663.9-59.3c1.2-3.2.6-5.4-2.1-7.5-6.2-4.9-13.5 2.5-8.5 8.6.9 1.2 2.4 2.4 3.2 2.6 2 .7 6.6-1.7 7.4-3.7m517.5-80c.4-.5.2-2-.4-3.3l-1.3-2.3-.6 2.5c-.3 1.4-.3 3.8.1 5.4.6 2.3.8 2.4 1.1.7.2-1.1.7-2.4 1.1-3m-225.4-52.5-1.8-2-2.4 2.2-2.4 2.3 2.2 1.8c2.2 1.7 2.3 1.7 4.3-.2 1.9-2 1.9-2.1.1-4.1" fill="#2D213D"/>
  <path d="M526.161 265.715c-.7-3.5-2.5-10.1-4-14.8-1.6-4.7-3.4-10.7-4-13.5-.7-3.1-2.1-5.8-3.6-7-2.9-2.4-3.6-7.9-.9-6.8 1 .4 2.3-.2 3.3-1.4 2.8-3.6 12.7-10.3 15-10.3 1.3 0 4 1.4 6.1 3s4.2 3 4.7 3 2.8-1.4 5.1-3.1c4.4-3.2 6.8-3.3 10.6 0 3.7 3.2 7.4 9.1 6.9 11.1-.4 1.4.3 2.2 3.1 3.4 2 .8 3.6 1.9 3.6 2.4s1.8 2.2 4.1 3.6c3 2 4 3.3 3.6 4.7-.3 1.1 0 1.9.6 1.9.7 0-.7.9-3 2.1-2.3 1.1-6.1 3.7-8.5 5.8-6.3 5.4-9.9 7.8-13.3 8.5-1.6.4-3.8 1.8-4.8 3.2-2 2.7-1.9 2.8 1.7 1.4 3.4-1.2 3.3 0-.1 3.3-4.3 4-9.4 5.7-17.6 5.7h-7.3zm34.9-6.3c3.3-1.9 4.9-1.9 2.4 0-1 .8-2.6 1.4-3.4 1.4-.9 0-.4-.6 1-1.4m-158.8-25.2c.2-.5-2.6-3.7-6-7.3-3.5-3.6-7.2-8.1-8.2-10.1-1-1.9-2.6-4.1-3.5-4.9-2.1-1.7-4.5-6.4-4.5-8.7 0-1-1.4-4.5-3.1-7.8-5.5-10.9-8.3-18.7-7.2-20.4 1.2-1.9 7.4-3.8 15.4-4.7 5.3-.6 5.9-.5 5.9 1.2 0 3.1-4.3 8.3-8.2 9.9-3.7 1.5-3.8 1.6-3.8 7 0 4.1.4 5.5 1.4 5.5.8 0 2.8 2.8 4.5 6.3s4.5 7.9 6.2 9.8c1.6 1.9 4.5 5.7 6.4 8.4 1.8 2.8 4.2 5.9 5.4 6.9 2.6 2.3 3 9.6.6 9.6-.8 0-1.4-.3-1.3-.7" fill="#1D6024"/>
  <path d="M689.261 876.615c-.6-.6-1.4-2.5-1.7-4-.4-1.5-1.6-3.2-2.6-3.8-2.8-1.4-2.4-4.7.6-5.5 1.7-.4 2.5-1.3 2.5-2.8 0-2.8 1-4.2 3.8-5 2.8-.9 5.2.8 5.2 3.8 0 1.6.9 2.4 3.3 3.1 4.1 1.3 4.7 5.6.8 6.5-1.6.4-2.7 1.5-3.2 3.3-.4 1.6-1.3 3.5-2 4.3-1.4 1.7-5.3 1.8-6.7.1m-172.1-72.6c-.8-.5-3.6-.7-6.3-.4-3 .4-5.3.1-6.2-.6-.8-.6-3.8-1.4-6.7-1.8-3-.3-6.3-1.2-7.4-1.9-2.8-1.8-21.7-1-26.6 1.1-3.5 1.6-3.6 1.6-8.8-1.9-2.9-2-5.7-3.6-6.2-3.6s-2.6 1.1-4.7 2.5c-4.6 3-7.4 2.5-10.2-2-2.5-4-2.5-4.5.1-10.2l2-4.5 4.7.6c6.2.9 20.3 4.3 27.5 6.7 4.2 1.4 9.8 2.1 20 2.5 19.7.7 21.8.6 23.7-1.1 1-.9 3.6-1.5 6.6-1.5 5.1 0 24.3-2.3 32.9-4 2.8-.5 10.3-1.9 16.9-3.1 11.4-2.1 24.4-5.6 28.2-7.8 1.1-.5 4.8-2 8.4-3.2s10.6-4.2 15.5-6.8c5-2.5 10.8-5.2 13-6 3.8-1.3 7.8-4.1 19-13.1 2.8-2.2 7-5.2 9.5-6.7 2.5-1.4 5.6-3.6 7-4.9 29.1-26.3 36.7-34.9 52.9-59.4 4.9-7.4 10.2-15.3 11.8-17.5 3.7-5.1 19.7-36.5 21.7-42.5.8-2.5 2.6-7.8 4.1-11.8 1.9-5.4 2.7-10 3.1-17.5.2-5.6.9-12.9 1.4-16.2s1-12.5 1.1-20.5c.2-13.1 0-14.5-1.5-14.8-1.4-.3-1.6-1-1.1-3 2.5-9.7.8-28.6-4.2-47.9-1.6-6.3-1.2-16.6.8-17.8 1.9-1.3.8-5.4-2.1-7.8-1.6-1.4-3-3.3-3-4.1 0-.9-.4-1.6-.8-1.6-1.4 0-3.2-6.5-3.2-11.8 0-4.7-.4-5.5-4.4-9.6-2.4-2.5-4.6-5.8-4.9-7.4-.3-1.7-2-5.1-3.7-7.8-1.6-2.6-3-5.7-3-6.9 0-3.4-3.9-9.5-11.4-17.7-3.9-4.4-7.9-9.7-8.9-12-1.9-4.5-11.2-14.1-37.2-38.2-15.6-14.6-26.6-23.2-39.8-31.2-7.2-4.4-13.6-10.2-14.3-13.1-.6-2.4-1.7-2.8-8.9-3.7-2.2-.3-6.7-1-10-1.5s-8.9-1.4-12.5-1.9c-11.2-1.7-11.6-2.1-12.5-9.6l-.7-6.5-2.4 1.6c-3.4 2.2-10.3 1.1-17.1-2.7-2.9-1.7-6.4-3-7.8-3-5 0-2.3-2.6 6.3-5.8 14.7-5.7 28.4-14.4 38.1-24.4 4.7-4.9 9.1-8.8 9.9-8.8 2.1 0 7.2 3.3 7.2 4.6 0 .6-.7 1.7-1.5 2.4-.9.7-2.3 2.9-3.2 4.9s-2.2 3.9-2.7 4.3c-.6.4 1.1.8 3.7.8 2.7 0 5.7.5 6.7 1 1.3.7 2.1.7 2.5 0 1.4-2.3 7-1 10.7 2.5 3.7 3.6 5.6 4.2 7.4 2.6.5-.5 2.2-.7 3.7-.4 2.9.6 6.7 6.3 6.7 10 0 3 6.9 2.4 10.9-1 1.8-1.5 3.6-2.7 4-2.7 1 0 8.1 6.8 8.2 7.8 0 .4.2 1.6.4 2.7s-.3 3-1.1 4.3c-1.8 2.7-.5 5.8 2.8 6.7 2.6.7 4.5 1.5 10.1 3.9 2.9 1.2 3.7 2.1 3.6 3.9-.5 5.6 0 6.6 4.7 8.7 3.7 1.8 5.1 1.9 7.6 1.1 4.4-1.5 7.3-.4 9.4 3.5 1.4 2.6 1.6 4 .9 6.1-2.4 6.6 1.5 11.6 7 9.1 3.2-1.4 5.1.1 6.6 5.2 1.2 4 4.3 5.5 8.2 4.1 2.8-1.1 7.7-.1 7.7 1.5 0 .8-.5 2.3-1.2 3.3-.9 1.6-.8 2.7.6 6 1.1 2.2 2.7 4.8 3.7 5.7s1.5 2.2 1.3 2.9c-.7 1.6 1.9 2.6 3.7 1.4 2.8-1.7 6.1-.8 10.5 2.8 3.4 2.9 4.4 4.3 4.1 6-.2 1.3 0 2.3.4 2.3.5 0 .9.9.9 2s1.6 3.7 3.5 5.9c1.9 2.1 3.5 4.3 3.5 4.8 0 1.4-7.4 8.3-8.9 8.3-.9 0-.8.4.3 1.5.8.8 2.3 1.5 3.3 1.5s3.7 1.8 6.1 4 4.7 3.8 5.1 3.5c.5-.2 1.1 2 1.5 5 .5 4.8.3 6-1.6 8.5l-2.2 3 2.7 2.8c2.9 3 3.4 6 1.6 9.4-.9 1.7-.7 2.6 1 4.7 1.1 1.4 2.8 4 3.7 5.6.9 1.7 2.8 4.2 4.2 5.7 1.8 2 2.5 3.8 2.5 7-.1 2.4.4 4.8.9 5.5s.7 2.5.3 4.1c-.4 2-.1 3.3 1.1 4.3.9.7 3.3 3.8 5.3 6.9 3.2 4.8 3.6 5.9 2.7 8.3-.5 1.5-1.5 2.7-2.2 2.7s-2.3 1.5-3.6 3.2c-1.2 1.8-3.1 4.1-4 5-2.2 2.2-2.2 3.2-.3 4.8.8.7 1.5 2.3 1.5 3.7 0 1.3.9 3.6 2 5.1 1.7 2.2 2.1 4.3 2.1 10.2-.1 15.7-.5 19.7-2.5 21.9-2.2 2.4-2.3 5.8-.7 14.1.6 3 1.3 6.5 1.5 7.7s.7 2.6 1 3.2c.4.5-.2 1.6-1.2 2.3s-3.4 3-5.2 5.1c-3.2 3.7-3.3 3.9-2 7.8 1.2 3.7 1.2 4.2-.9 7-2 2.7-2.1 3.4-1.1 6 1.1 2.5.9 3.7-1.5 9.4-2.8 6.4-2.8 6.5-1.1 10.4 1 2.1 2.9 4.5 4.3 5.2 1.7.9 2.3 1.9 1.9 3.4-.3 1.1-.6 2.8-.6 3.7s-1.6 3.7-3.5 6.2c-1.9 2.6-3.5 5.7-3.5 7 0 3.3-2.1 3.8-6 1.5-3-1.9-3.3-1.9-5.1-.3-1.1.9-1.9 2.1-1.9 2.7 0 .5-.7 2.4-1.6 4.3-1.5 3.2-1.5 4.9.1 9.9.5 1.7-.2 2.5-3.9 4.4-2.5 1.2-4.8 2.7-5.2 3.2-.3.5-2.3 1.7-4.5 2.6-2.1.8-3.9 2.1-3.9 2.8 0 1.4 3.2 4.5 4.6 4.5 1.9 0 10.4 4.5 10.9 5.8.3.7 0 2.2-.5 3.2-1.5 2.9-1.2 3.9 1.5 4.6 1.5.4 2.5 1.3 2.5 2.4 0 2.7 3.3 5 7.1 4.8 1.9 0 4.7.7 6.2 1.7 2.6 1.6 2.9 1.6 4.6.1 2.6-2.4 7.7-2.1 9.5.6 1.1 1.6 2.5 2.2 5.1 2.1 3-.1 3.5.2 3.5 2.3 0 2.8-2.8 3.8-9.5 3.2-4.3-.3-4.5-.2-4.5 2.4s-.3 2.8-4.3 2.8c-7.9 0-17.7-8.2-17.7-14.9 0-3.4-.6-3.7-3.5-1.7-1.1.7-6.5 3.7-12 6.6s-10.4 5.7-10.9 6.1c-.6.5-1.7.9-2.7.9-1.1 0-1.5.7-1.3 2.3.3 1.7-.6 2.8-4.4 5.2-4.3 2.7-4.7 3.3-4.4 6.5.6 8.1.5 9-1.9 10.9-2.8 2.4-4.7 2.5-10 1-3.7-1.2-3.8-1.1-8.5 3.5-2.6 2.6-5.7 5.4-6.9 6.2s-3.5 3.8-5 6.7c-1.5 2.8-3.9 6.4-5.3 7.9-2.2 2.4-3.1 2.7-6.3 2.2-3.3-.6-4.1-.2-6.6 2.4-1.5 1.7-4.5 4-6.6 5.1-2.1 1-4.6 3.4-5.6 5.1-2 3.8-6.2 5.5-16.1 6.5-4.8.5-7.4 1.3-8.5 2.5-1.6 1.8-1.6 2.1.3 4.7 2.8 4 1.9 7.9-2.4 9.9-1.9.9-3.4 2-3.4 2.5s-1.1.9-2.4.9-5.7 1.1-9.8 2.5c-8.1 2.8-10.8 3.1-10.8 1.3 0-.9-.3-.9-1.2 0-1.5 1.5-8.4 1.6-9.3.2-.3-.5-1.8-1-3.3-1s-3.6-.7-4.6-1.5c-2.8-2.1-4.7-1.2-11.1 5.2l-5.7 5.6-5.2-.7c-3.3-.4-7.5 0-12 1.1-5.1 1.2-7.3 1.4-8.6.5-1-.6-4.4-1.4-7.7-1.7-6.4-.8-7.5-.2-8.6 4.6-.5 1.9-1.7 2.9-4.5 3.7-4.7 1.4-9.2 1.5-11.1.3m-160.2-35.8c-.9-.2-3.1-2.2-4.9-4.4l-3.3-4.1 2.2-3.8c1.1-2.1 2.1-3.9 2.1-4.1s-2.6-.3-5.8-.1c-4.4.3-6.1 0-7.1-1.2-.8-.9-2.6-1.6-4.2-1.6-1.9 0-4.1-1.2-6.5-3.5-3.6-3.5-8.5-4.7-9.9-2.5-1.1 1.7-3.8 1.1-8.7-2-5.6-3.5-6.3-6.1-3-11.2l2.4-3.7-5.2-6c-3.3-3.8-5-6.6-4.7-7.6.8-1.9-.3-1.9-3 0-1.9 1.3-2.6 1.3-6.3 0-2.4-.8-5.5-1.5-7.1-1.5-9.3 0-14.6-8-10.7-16.5 1-2.1.8-3.2-1-6.4-1.6-2.8-2.2-5.6-2.2-9.9 0-6.6-.8-7.8-5.9-8.8-2.4-.5-4.3-2.1-7.3-6.1-3.8-5-4.4-5.4-7.7-5.1-3 .2-3.5 0-3.3-1.6.2-1.1-1.1-3.3-2.9-5.2s-3.4-4.6-3.6-6.1c-.8-7.1-1.8-10.1-4.4-13.4-1.6-2-2.9-4.3-2.9-5.1 0-1.9-3.2-4.8-5.3-4.8-.8 0-2.9-1.2-4.6-2.6-2.8-2.3-3.7-2.5-10.6-2.2-7.1.3-7.5.2-7.5-1.9 0-2.6 4.3-4.3 10.6-4.3h4.4l-4.5-4.1c-3.7-3.4-4.5-4.8-4.5-7.6 0-3.1.1-3.3 1.6-1.9 2.1 2.2 6.3 2.1 7-.1.3-1 1-2.6 1.6-3.7.7-1.3.6-3.8-.3-8.1l-1.2-6.2 3.1-3.9c3.7-4.8 4.8-12.1 1.9-13-1.3-.4-1.6-1.1-1.1-2.7 1.3-4.1.9-5.1-2.4-6.2-1.8-.7-4.3-2.3-5.5-3.7-1.2-1.5-3.7-2.9-5.4-3.3-1.8-.4-3.3-.9-3.3-1.2 0-1.1 5.4-7.8 8.1-10 1.9-1.6 2.5-2.9 2.2-4.7-.3-1.6.3-3.6 1.7-5.5 3.1-4.4 3.7-9.6 1.5-12.1-1-1.1-2.5-2-3.2-2-1.5 0-5.2-3.8-5.3-5.3 0-.5-1-2.3-2.2-3.9l-2.1-3.1 2.3-4.6c1.3-2.5 2.7-5.4 3.1-6.3.6-1.1.3-3-.8-5.3-1.4-2.8-1.4-3.8-.4-5.7.7-1.3 2.1-3.9 3.1-5.8 1.3-2.2 1.6-3.8 1-4.4-1.6-1.6-1.1-4 1.5-7.6 3.4-4.6 4.7-9.5 3.3-12.6-1.2-2.7-.1-6 3.6-10.2 1.1-1.2 2.1-2.9 2.2-3.7s2.1-3.7 4.5-6.5c4.1-4.9 4.5-5.1 8.1-4.5 4.3.8 4.3.7 2.4-4-.8-1.8-1.2-3.6-.9-3.9s.2-1.1-.4-1.8c-.5-.7-1.5-3.2-2.3-5.5-1.1-3.7-1-4.9.6-10.2 1.8-5.7 3.5-7.4 4.9-5.1 1.2 1.9 3.3 1.1 2.8-1.1-.3-1.2.2-3.1 1.4-4.7 1.1-1.5 2.3-3.6 2.7-4.7.3-1.1 1.6-2.5 2.8-3 1.9-.8 2.2-1.7 2-4.3-.3-2.5.2-3.8 1.7-4.9 1.2-.8 2.1-2.5 2.1-4.1 0-1.5.9-3.8 2-5.2s2-3.7 2-5.1.9-3.4 2-4.4c2.2-2 2.6-5.5.9-8.7-1-1.8-.5-2.6 3.8-6.3 2.6-2.4 6-4.6 7.6-4.9 2.8-.6 3.7-3.2 1.7-5.2-1.4-1.4 6.7-11.4 10.7-13.4 1.5-.8 4.9-3.6 7.6-6.3 2.6-2.6 5.2-4.5 5.8-4.1 1.4.8 10.9-8.5 10.9-10.8 0-.9.6-2.1 1.4-2.5s2.4-2.7 3.6-5.1c1.2-2.3 2.6-4.5 3.1-4.8s.9-1.6.9-2.9c0-2.8 3.9-4.1 7.1-2.4 1.8.9 2.7.6 5.7-1.8 5.2-4.1 7.1-4.6 10-2.7 3.1 2 9.1 1.4 15.5-1.7 4.1-2 4.4-2.4 3.6-4.6-.6-1.6-.5-3 .3-4.3 1.3-2 2.6-2.4 10.9-3.5 6-.8 8.7-3.5 7.1-7-1.1-2.4-1-2.5 2.6-2.7 10.4-.4 11.2-.6 11.2-1.9 0-.7 1.6-2.7 3.5-4.6 2.1-2 3.2-3.9 2.9-4.8-1.3-3.2 4.2-1.5 9.1 2.8 5 4.4 19.2 13.9 26.3 17.7 2 1 5.3 3.3 7.2 5l3.5 3-4.4-1.5c-2.4-.8-4.6-1.4-4.8-1.2-.6.7 15.9 13.2 17.3 13.1.8-.1 1.4.6 1.4 1.6 0 1.8-2.6 3-6.6 3-1.2 0-5 .9-8.4 2-8.5 2.7-12.1 2.6-15-.5-2.5-2.7-4.9-3.2-6.7-1.4-.5.5-2.5 1.8-4.4 2.7-2.8 1.4-3.5 2.3-3.7 5.5-.2 2-.8 3.7-1.3 3.7s-5.1 2-10.2 4.5c-5.1 2.4-11.1 5.1-13.5 5.9-2.3.8-5.7 2.7-7.6 4.1-4.3 3.3-8.6 3.2-12.6-.1l-3.1-2.7-3.5 3.4c-1.9 1.8-3.4 3.8-3.4 4.4s-1.3 2.6-3 4.5c-1.9 2.4-2.9 4.6-3 7-.1 3-.8 4-4.8 7-2.6 1.9-5.4 3.8-6.2 4.1-1.3.6-11.2 9.1-17.6 15.4-6.5 6.1-25.4 26.9-25.4 27.7 0 .9-5.5 8.5-7.1 9.8-5.5 4.6-33.9 60.4-33.9 66.7 0 .8-.6 2.9-1.3 4.6-5.9 13.9-11.4 48.3-10.5 66.4.4 9.2.3 10.2-1.3 10.6-1 .3-2.1 1.8-2.5 3.3-.9 3.5 2.1 30.1 4.1 36.8.8 2.7 1.5 6.4 1.5 8.2s.7 6.3 1.6 10.1c.9 3.7 2 9.1 2.5 11.8.9 5.2 1.8 9.8 4.2 20 .8 3.3 3.7 10 6.6 14.9 2.8 4.9 5.1 9 5.1 9.2 0 1.9 20.7 33.2 25 37.7 1.6 1.8 3 3.5 3 3.8 0 .4 1.9 2.6 4.3 5 2.3 2.4 7.2 7.6 10.8 11.4 3.6 3.9 11.6 11.5 17.7 16.9 6.2 5.4 11.2 10.4 11.2 11.1 0 .6 1.7 2 3.7 3.1 2.1 1 4.8 3.1 6 4.5 1.3 1.5 4.7 3.9 7.6 5.4 2.8 1.5 6.6 3.8 8.3 5.1s3.7 2.4 4.4 2.4c.9 0 1.1.9.6 3.3-.8 3.9-10.3 13.6-12.7 13" fill="#412D3F"/>
  <path d="M763.961 711.215c-.8-.2-2.6-2.1-4-4.2-2.2-3.6-2.6-3.8-6.5-3.3-4 .4-4.2.3-3.7-2.1.3-1.7 1.3-2.7 2.7-2.9l2.1-.3-2.2-2.2c-1.3-1.3-2.3-2.5-2.3-2.8s2-.5 4.4-.5c3.7 0 4.8.5 7 3.1 1.4 1.7 2.6 3.5 2.6 4s3.6.9 7.9.9c9.5 0 11.1.5 11.1 3.5 0 2.1-.3 2.2-4.4 1.8-4-.5-4.4-.3-5 2.1-.5 1.9-1.3 2.6-3 2.6-1.4 0-3 .2-3.8.4-.7.2-2 .2-2.9-.1m34.3-385c-.9-1-3-2.6-4.5-3.6-2.7-1.8-6.4-1.6-17.4.8-1.9.4-2.3.1-2.3-1.8 0-3.5 5.5-5.7 14.1-5.7 4.1 0 8.1.6 9.8 1.4 2.6 1.4 3.2 1.3 7.6-1 4-2 6.3-2.4 12.9-2.4 10.7 0 15.6 1.4 15.6 4.3 0 2-.5 2.2-6.5 2.4-5.6.3-7 .7-8.9 2.8-2.5 2.7-4.9 3.1-8.9 1.6-2-.8-2.9-.6-4.3 1-2.1 2.4-4.9 2.4-7.2.2m-57.7-22.7c-.6-.9-3.3-1.7-6.4-2-3-.4-6.1-1.2-6.9-1.8-.7-.7-2.5-1.2-3.9-1.3-3 0-7.1-6.1-6-8.9.9-2.3 6.1-1.5 15 2.1 7.9 3.2 9.9 5.3 9.5 9.9-.2 2.7-.5 3.1-1.3 2" fill="#412D3F"/>
  <path d="M447.561 260.515c-11.5-3.7-13.4-4.6-25.3-12.3-9.7-6.3-20.2-15-20.2-16.8 0-.7-.9-2-2.1-3.1-1.2-1-3.6-4.2-5.5-7s-4.6-6.4-6.1-8-4.1-5.6-5.8-8.9-3.8-7.1-4.7-8.5c-1.7-2.5-2.1-5.4-1.9-12.3.1-3.3.5-3.9 3.8-5.2 2.1-.9 4.9-3.1 6.2-5l2.4-3.5h11.1c11.9 0 28.8 2.5 40.4 5.9 9.7 2.9 28.8 12.2 35.5 17.3 3.2 2.4 8.5 6.3 11.9 8.8 5.3 3.9 17.9 14.4 29.6 24.6 1.7 1.6 3.2 3.3 3.2 3.9 0 .5.7 2.3 1.5 3.9.9 1.6 1.4 3.5 1.1 4.2s.6 4.4 1.9 8.1c2.7 7.9 2.3 8.4-5.3 6-2.6-.9-7.3-1.8-10.5-2.2-7.3-.8-10.7-3.4-10.7-8.2 0-2.5.8-4.1 2.7-5.7 3.9-3.3 3.1-4.2-10.2-10.9-2.2-1.1-5.7-3-7.7-4.3-2.1-1.3-4.7-2.4-5.9-2.4-2 0-2.1-.3-1.5-6.7.4-3.8.9-8.2 1.2-9.9.5-3 .5-3-3-2.6-7.3.9-10.3-.5-17.5-8l-6.9-7.1-8.4-.2c-5.7-.1-9.2-.6-11.3-1.8-1.6-.9-3.7-1.7-4.5-1.7s-4-.9-6.9-2l-5.4-1.9-3.9 2.1c-2.1 1.2-3.8 2.5-3.8 3 0 .4-1.7.8-3.9.8-2.1 0-5.2.3-6.9.6-3 .6-3.1.8-3.7 8-.4 4.1-1.1 7.7-1.6 8s-.9 1.2-.9 1.9c0 1.9 5.9 8.5 7.6 8.5.8 0 1.4 1 1.4 2.1 0 3.1 2.8 4.8 7.6 4.9 3.6 0 4.8.6 8.8 4.8 5.1 5.2 6 9 2.9 12.5-1.8 1.9-1.7 2 3.2 1.3 2.8-.3 6.7-.9 8.7-1.2 3.3-.5 4.1-.2 6.8 2.5 1.8 1.7 3.6 3.1 4.1 3.1s.9 2 .9 4.3c0 5.3 2.8 8.8 5 6.2.8-.9 3-1.5 6-1.5 5.8 0 8 2.1 7.9 7.6-.1 7.5-.2 7.5-11.4 4" fill="#0A8E26"/>
  <path d="m468.561 271.515-3-1.4 4.5-.2 4.5-.1-3.5-1.4c-1.9-.7-6.4-2.4-9.9-3.6l-6.3-2.2.6-3.6c.4-2.5.1-4-1.1-5.3-2.2-2.5-3.8-2.3-8 .9l-3.5 2.7-3.9-4.2c-3.6-3.8-3.8-4.3-2.7-6.8 1-2.2 1-2.7-.7-3.7-1-.5-2.8-2-3.9-3.2-1.5-1.6-2.7-2-4.1-1.5-1.1.4-5.4 1-9.6 1.4-6.3.5-7.8.4-8.9-.9-1.1-1.4-.8-2.1 2.3-5.3l3.7-3.7-4.6-4.8c-4-4.1-5.2-4.7-8.8-4.7-4.8 0-9.2-2.9-8.3-5.4.4-1 .1-1.6-.6-1.6-1.5 0-5.6-4.1-8.1-8.1-1.5-2.3-1.4-2.8.4-6.4 1.2-2.3 2.2-6.7 2.4-10.9l.5-6.9 6.7-.5c4.4-.2 7.3-1 8.5-2 1-1 3.3-2.5 5.3-3.6 3.4-1.8 3.5-1.8 10.9.8 4 1.4 8 2.6 8.8 2.6s2.8.8 4.4 1.7c2.2 1.2 5.1 1.6 11.1 1.5l8.1-.2 6.6 7c7.5 7.9 9.9 9.2 16 8.4 6.3-.7 7.1.2 5.7 7-.6 3.1-.8 6.5-.5 7.6.4 1.2.1 2.8-.7 3.7-1.1 1.4-1.1 1.6.3 1.1.9-.4 2.6 0 3.7.8 1.8 1.2 11.1 6.4 18.2 10 1.4.7 4 2.8 5.8 4.7l3.3 3.4-3.7 2.9c-2.1 1.6-4.3 3.2-4.8 3.6-.7.5-.1 1.6 1.5 3.2 1.8 1.7 4.2 2.6 8.5 3 13.6 1.6 15.1 2.9 17.4 14.9.9 4.2 1.9 6.7 2.7 6.7.7 0 1.3.4 1.3.9s-10.9 1.1-24.2 1.5c-13.4.3-27.2.8-30.8 1.1-4.5.4-7.4.1-9.5-.9" fill="#1F9227"/>
  <path d="M494.861 722.715c-3.7-.3-8.2-1.1-10-1.7-1.8-.5-6.7-1.5-10.8-2-4.1-.6-9.3-1.7-11.5-2.5-2.2-.9-6.3-1.5-9.2-1.6-2.8 0-7.5-.9-10.5-1.9-2.9-1.1-8-2.7-11.3-3.7-6.7-1.9-15-5.8-16.1-7.5-.3-.6-2.1-1.8-3.8-2.6-4-1.8-6.4-3.2-10.3-6-1.7-1.3-3.5-2.3-4-2.3-1.1 0-13.9-8.7-19.9-13.5-8.9-7.3-30.5-28.9-32.4-32.5-1-1.9-2.7-4.3-3.8-5.3-1.1-1.1-1.8-2.5-1.5-3.2.2-.8-1.6-3.6-4.1-6.2-7.1-7.7-9.7-13.2-20.4-43.3-5.8-16.2-8.8-32.8-8.4-46.6.1-5.4-.2-7.5-1.4-8.4-2.2-1.9 0-3 6.3-3 7 0 10.1 1.3 10.9 4.7 1 4.1 4.3 10.3 5.4 10.3 1.7 0 5 6.3 5 9.7 0 1.8-1.1 5.3-2.5 7.9-2.9 5.5-2.9 5.4-1 5.4 2.6 0 9 8.7 9.6 13.3 1.9 12 5.7 18.9 12.8 22.6 3 1.7 6.1 9.2 6.1 15 0 4.4.3 4.9 3.9 7.3 2.2 1.4 5.5 3.1 7.4 3.7 2 .7 3.7 2 4 3.1.3 1.3 1.4 2 2.8 2 1.5 0 4.3 2.3 8.7 7l6.4 7h5.9c5.5 0 6.1.3 10.4 4.2 2.5 2.4 4.5 5.1 4.5 6.2 0 1.3 2.4 4.4 6.2 7.9 5.8 5.3 6.5 5.7 11.2 5.7 4.2 0 5.7.6 10 3.9 5.6 4.2 11.5 5.6 23.4 5.2 5.3-.2 7.3.3 12.4 2.8 3.4 1.7 6.7 3.1 7.3 3.1.7 0 2.6.7 4.3 1.6 3.1 1.5 3.3 1.4 7.6-1.5 5.4-3.8 11.5-4.2 16.1-1.1 3.8 2.5 8 2.5 11.2 0 1.8-1.4 4.1-2 7.9-2 2.9 0 5.6-.4 5.9-1 .8-1.3 7.1-1.3 9.4 0 1.2.6 3.4.4 6.7-.5 2.7-.8 7.5-1.7 10.7-2.1 4.4-.4 6.3-1.1 7.5-2.7 4.8-6.2 11.1-11.4 14.3-11.9 2-.4 5.9-1.8 8.9-3.2s6-2.6 6.7-2.6c1.8 0 12.7-5.3 13.2-6.4.2-.5 1.8-2.5 3.6-4.5s3.8-4.6 4.4-5.9c1-2 1.9-2.3 5.9-2.1 7.2.3 14.8-2.6 16.8-6.4 2.5-4.9 4.4-12.7 4.4-18.4 0-4.8.3-5.4 4.7-9.7 3.9-3.8 5.3-4.6 8.4-4.6 3.4 0 3.9-.3 4.5-2.7.4-1.6 1.5-4 2.6-5.5 1-1.5 2.5-4.6 3.2-7s2.5-5.6 3.9-7.2c2-2.2 2.7-3.9 2.7-7.1 0-2.7.7-5.1 2-6.8 2.5-3.2 2.5-3.1-.5-7.5-2.8-4.2-3.3-9.8-1-12.8.9-1.2 1.4-4.2 1.5-7.9 0-5.6.2-6.2 2.9-7.8 3.9-2.3 17.1-2.4 20.6-.1 2.8 1.8 3.3 3.4 1.1 3.4-1.1 0-1.5 2.9-1.9 13.3-.8 17.1-1.8 23.9-5.1 32.3-1.5 3.8-3.6 9.4-4.7 12.4s-2.5 6.3-3 7.2c-.5 1-.9 2.3-.9 3.1 0 1.9-10.4 19.5-20.4 34.4-8.2 12.2-20.6 26.4-29.6 33.9-2 1.6-4.6 4.3-5.8 6.1-1.3 1.8-5.8 5.7-10.1 8.7s-9.5 7-11.6 8.9c-9.6 8.5-35.8 18.9-55 21.8-3.3.4-10 1.6-15 2.4-4.9.9-12.1 2-16 2.5-3.8.5-8.1 1.2-9.5 1.6-5.1 1.3-14.7 1.9-21.2 1.2m255.9-267.5c-3.6-10.9-8.3-23.9-10.6-28.9-3.1-6.9-4.1-10.4-4.1-14.3 0-2.8.4-5.1.9-5.1 1.3 0 6.1 7.7 6.8 11.1.3 1.6 2.5 5 4.9 7.5 4 4.1 4.4 4.9 4.4 9.6 0 5.3 1.8 11.8 3.2 11.8.4 0 .8.8.8 1.8 0 .9.9 2.3 2 3s2.9 2.7 4 4.4c1.9 3.1 1.9 3.1-1.1 10.3-.4 1.1-1.1 3.5-1.4 5.3-1.3 6.6-3.2 3.4-9.8-16.5m-403.3-134.8c1.3-1 1.7-2.1 1.2-4-.5-2.1.1-3.5 2.9-6.7 1.9-2.3 3.5-4.7 3.5-5.4 0-1.3 8.5-9.4 9.9-9.4.5 0 2.8 1.6 5.1 3.5 3.3 2.8 4.5 3.3 5.6 2.4s1.4-.7 1.4 1.4c0 2.7-2 4.5-16 14-6.4 4.3-9.3 5.7-12 5.7-3.2-.1-3.4-.2-1.6-1.5m285-13.8c-4.5-2.3-9.9-5-12-5.9-2.2-.9-8.4-3.7-13.9-6.2-5.5-2.4-11.9-5.1-14.2-5.8-3.3-1-4.3-1.8-4.3-3.3 0-2.3 1.1-2.3 18 .6 3.6.6 8.5 1.2 11 1.4 5.6.4 8 1.3 8 3.1 0 2.5 7.1 9.4 13 12.5 3.2 1.7 6.8 4.2 8.1 5.5l2.2 2.4h-3.9c-2.6-.1-6.6-1.5-12-4.3m-225.4-20.6c0-.6.7-1.1 1.6-1.1 1.2 0 1.5-.8 1.1-3.5-.4-3.2-.2-3.6 3.7-5.6 2.2-1.1 5.2-2.7 6.6-3.5 4-2.2 7.3-1.7 10.5 1.6 1.6 1.7 3.5 2.8 4.2 2.6.8-.3 1.3.2 1.3 1.5s-1 2.4-2.9 3c-1.7.6-4.7 1.9-6.7 3-4.5 2.3-19.4 3.8-19.4 2m169.7-2.7c-.3-.3-2-1-3.9-1.4-1.8-.5-9.1-2.4-16.3-4.3-7.1-2-15.1-3.8-17.7-4.2-3.8-.6-4.8-1.1-4.8-2.6 0-1.4.7-1.9 2.8-1.9 1.6 0 5.1-1.1 7.8-2.5 6.2-3.2 10.4-3.2 15.9 0 6.3 3.7 10 4.6 12.2 2.9 1-.7 3.2-1.4 5-1.4h3.1l.7 6.6c.5 4.1 1.3 6.8 2.1 7.1s1.4.9 1.4 1.4c0 1-7.3 1.3-8.3.3" fill="#5E3D40"/>
  <path d="M699.161 531.915c-3.4-1.6-4-3.4-1.5-4.4 2.4-.9 69.4-.7 69.4.2 0 .5-.6 1.6-1.2 2.5-1.1 1.5-4.1 1.7-23.8 1.8-12.4.1-26.4.5-31.2.8-6.6.5-9.3.3-11.7-.9m-164.1-110.2c-4.6-3.1-6.3-8.3-5.7-16.7.6-7.4 2.7-10.9 7.8-12.7 8.1-2.9 17.6-.7 20.4 4.7 2.2 4.2 2 18.7-.3 21.5-2.7 3.2-5.7 4.4-12.5 5-5.4.5-6.6.3-9.7-1.8m99.2-18.2c-9.3-3.3-9.8-25.1-.6-28.6 1.4-.6 5.9-1 10.1-1 12.4 0 15.3 2.9 15.3 15.6 0 8.3-1.4 11.5-6.1 14-3.4 1.7-14 1.7-18.7 0m-91.6-65.9c-2.8-2.2-3-2.9-3.4-11-.7-13.8 2.1-17.6 13.7-18.5 11.9-.8 16.1 3.3 16.1 15.8 0 11.7-4.5 16-16.7 16-5.6 0-7.3-.4-9.7-2.3" fill="#974707"/>
  <path d="M486.461 692.815c-2.7-1.4-5.4-2.4-6.1-2.2-.7.3-2.5-.4-4.1-1.5-4.9-3.5-10.8-5.5-13-4.3-1.3.7-3.9.6-8.8-.5-3.8-.8-7.9-1.2-9.2-.9-1.7.4-3.8-.6-8.2-4.1-5.6-4.4-6.2-4.6-10.3-4-4.3.7-4.5.6-11.1-5.7-3.9-3.7-6.6-7.1-6.6-8.3 0-1.1-2-3.9-4.5-6.2-4.3-3.9-4.9-4.2-10.4-4.2h-5.9l-6.2-6.7c-3.5-3.8-6.7-6.7-7.2-6.5-1.5.4-4.8-1.8-4.8-3.3 0-.7-1.6-1.9-3.6-2.5-5-1.7-10.7-5.7-11.7-8.3-.4-1.1-.5-3.3-.2-4.7.8-3.5-2.7-11.5-5.6-13.1-7.1-3.7-10.9-10.6-12.8-22.6-.6-4.5-7-13.3-9.6-13.3-2.9 0-2.7-4.5.4-10.4 3-5.4 3-5.8 1.6-8.6-.8-1.6-2.3-3.4-3.3-3.9-1.6-.9-3.2-3.9-6.2-11.8-.5-1.2-2.1-2.4-3.9-2.8-1.7-.4-3.1-1.3-3.1-2.1 0-1.2 3-1.4 17.3-1.4 15.6 0 17.6.2 19 1.8 1 1 1.7 3.1 1.7 4.7 0 3-3.7 15.4-5.2 17-1.2 1.4-1 2.5.7 2.5.8 0 1.5.5 1.5 1 0 .6.6 1 1.4 1 1.6 0 2.6 2.1 2.6 5.5 0 1.3 1.1 3.7 2.5 5.3 1.4 1.7 2.5 3.6 2.5 4.4 0 .7.9 3 2 5.1 1.1 2 2 4.3 2 4.9 0 1.7 5.8 5.5 9.6 6.3 2.6.5 3.8 1.7 6.3 6.4 1.7 3.3 3.1 7.3 3.1 9.1 0 1.7 1 5.4 2.1 8.1 2 4.5 2.8 5.3 8.4 7.8 3.4 1.6 6.5 3.3 6.9 3.9.3.6 2 1.4 3.7 1.7 4.4 1 12.9 9.4 12.9 12.7 0 2 .7 2.9 3 3.6 1.6.6 5.3 3.4 8 6.1 4.8 4.8 5.4 5.1 10.3 5.1 3.1 0 7 .9 9.7 2.1 8.5 4 14.4 5.6 18.8 5.1 3.4-.3 4.9.1 7.5 2 2.3 1.9 4.9 2.6 9.7 3 3.6.3 8.5 1.3 11 2.2 3.6 1.3 6.7 1.5 15 .9 6.2-.3 11.3-1.1 12.5-1.9 1.1-.8 2.8-1.4 3.8-1.4 1.1 0 4.1-1.2 6.7-2.6 4-2.2 5.6-2.5 10.1-2.1 3 .3 9.4.6 14.2.6 4.9 0 9.4.5 10.1 1.1 2.1 1.7 10.6-3.4 10.6-6.3 0-1.9 5.4-7.7 7.2-7.7.6 0 2.5-1.1 4.3-2.4 1.7-1.3 5.8-3.9 9.1-5.6 3.2-1.8 7.2-4.3 8.7-5.6 2-1.6 4.1-2.4 6.8-2.4 3.3 0 4.5-.6 7.7-4 2-2.3 5.8-6.2 8.5-8.7 2.9-2.9 5.1-6.1 5.7-8.5 1.1-4.1 6.5-10 12-13.3 3.2-1.9 3.4-2.3 3.4-7.9.1-3.8.5-6.1 1.4-6.4.6-.2 1.2-.9 1.2-1.5 0-.7 1.6-3 3.5-5.1 2.5-2.8 3.5-4.9 3.5-7.2 0-1.7.7-4.5 1.5-6 .8-1.6 1.5-3.8 1.5-4.9s.7-3.8 1.5-6 1.4-6.6 1.5-9.7c0-9.3 4.6-12.4 16.4-11.3 6.2.7 6.8.9 5.1 2.1-1.5 1.1-1.7 2.2-1.2 7.4.4 3.6.3 6-.3 6-.5 0-1.4.9-2 2.1-1 1.7-.6 2.9 2.4 7.5 2 2.9 3.6 5.7 3.6 6.1 0 .5-1.4 2.6-3 4.7-2.2 2.9-3 5-3 8.1 0 3.2-.7 4.9-2.7 7.1-1.4 1.6-3.2 4.8-3.9 7.2s-2.2 5.5-3.2 7c-1.1 1.5-2.2 3.9-2.6 5.5-.6 2.4-1.1 2.7-4.5 2.7-3.1 0-4.5.8-8.4 4.6-4.5 4.4-4.7 4.8-4.1 8.9.3 2.4.1 5.3-.5 6.4s-1.2 3.3-1.3 4.8-.9 3.9-1.8 5.3-1.9 3.2-2.3 4.1c-.3 1-3 2.5-5.9 3.4-2.9 1-6.1 2.4-7 3.3-1.6 1.3-2 1.3-4.5-.3-2.6-1.7-2.7-1.7-3.8 0-.5 1-2.6 3.7-4.6 6.1-2.1 2.3-3.9 4.6-4 5.1-.5 1-11.5 6.3-13.2 6.3-1.2 0-9.9 3.7-13.9 6-1 .5-2.4.7-3.2.4-1.4-.5-8.6 5.9-12.8 11.3-1.2 1.6-3.1 2.3-7.5 2.7-3.2.4-8.1 1.3-10.9 2.1-6 1.8-9.8 1.9-12.5.5-1.4-.8-2.5-.6-4.4.6-1.6 1.1-3.8 1.4-6.5 1.1-3-.3-4.7.1-6.4 1.4-3.5 2.8-12.5 2.6-17.6-.3-3.5-2.1-4-2.1-6.6-.8-1.5.8-4.2 2.9-6 4.5l-3.2 3zm246.6-280.6c-2.8-5.5-12.4-21.5-15.1-25.5-1.8-2.5-2.7-10.9-1.1-10.7.8.1 12.5 13.3 16.4 18.7 1.5 2 3 5.1 3.3 6.7.4 1.7 1 4.1 1.5 5.5.4 1.4 1.1 4.2 1.4 6.3.4 3.3.2 3.7-1.7 3.7-1.6 0-2.9-1.3-4.7-4.7" fill="#714A42"/>
  <path d="M491.661 672.415c-2.3-2.4-11.4-4.6-15.8-3.9-3.1.5-4.2.1-7.5-2.5-3.5-2.8-4.1-3-7-1.9-2.5.9-3.7.9-6.4-.4-1.9-.9-4.5-1.9-5.9-2.3s-4.3-1.7-6.5-2.8c-2.6-1.3-6.1-2.1-10-2.2-5.9-.1-6.1-.2-11.3-5.3-2.8-2.9-6.6-5.8-8.2-6.4-2.3-.7-3-1.6-3-3.6 0-3.3-8.5-11.7-12.9-12.7-1.7-.3-3.4-1.1-3.7-1.7-.4-.6-3.5-2.3-6.9-3.9-5.7-2.5-6.4-3.2-8.5-8.1-1.3-2.9-2.2-6.6-2.1-8.1.2-3.6-5.6-14.7-7.8-14.8-.9-.1-2.2-.1-2.8 0-.7.1-2.5-1-4-2.4s-3.1-2.5-3.5-2.5c-.5 0-.8-.7-.8-1.5s-.9-3.2-2-5.2c-1.1-2.1-2-4.4-2-5.1 0-.8-1.1-2.7-2.5-4.4-1.4-1.6-2.5-4-2.5-5.3 0-3.4-1-5.5-2.6-5.5-.8 0-1.4-.5-1.4-1.1s-.7-.9-1.5-.5c-1.2.4-1.5-.3-1.5-3.4 0-2.2.4-4.8 1-5.8.5-.9 1.9-4.4 3-7.7l2.1-6-2.6-2.2c-4.5-4-3.4-4.6 6.9-4 9.9.6 13.6 2 13.6 5.1 0 2 1.1 5.7 3.6 12.9.8 2 1.4 5.4 1.4 7.5 0 5.2 2 9 5.1 9.7 3.7.8 5.9 6.3 7 17.5.6 5.3 1.6 10.1 2.3 10.8.8.8 4.1 1.7 7.5 2.1 7.6.9 9.9 3 13.5 12 2.9 7.3 5.2 10 10.4 12.1 1.7.7 3.2 1.5 3.2 1.9s1.6 1.3 3.5 2 5.7 3 8.5 5.2c2.7 2.1 5.6 3.9 6.5 3.9 1.5 0 4.3 1.4 22 10.9 11 5.9 18.1 7.5 20.5 4.6 1.9-2.3 9.6-1.9 13.1.5 2.4 1.7 3.2 1.9 5 .9 1.2-.6 8.1-1.5 15.3-1.9 7.2-.5 15.6-1.4 18.6-2 3-.7 6.4-1.4 7.6-1.6 2.4-.4 8.4-5.9 8.4-7.7 0-.6 1.7-2.3 3.8-3.7 3.5-2.4 4.4-2.5 15-2.2 9.6.3 11.8 0 15-1.6 2-1.1 5.7-2.6 8.1-3.3 6.6-2 9.1-4.4 9.1-8.7 0-4.7 1-8.2 2.2-8.2.6 0 2.7-1.3 4.8-3 2.1-1.6 4.4-3 5.2-3s2.5-1.1 3.7-2.4c1.3-1.4 3.6-3 5.2-3.6 1.5-.7 3.5-2.3 4.4-3.6 1.4-2.2 1.4-2.7 0-4.6-2.2-3.2-1.9-8.4.7-11.9 1.5-2 2.2-4.2 2-6.7-.2-4.2 3.3-12 6.2-13.6 1.1-.6 3.1-2.4 4.6-4 2.6-2.9 2.7-3.3 2.2-11.7l-.5-8.8 3.9-.9c5.9-1.6 29-3.2 44.6-3.2 12.7 0 13.9.2 13.6 1.8-.3 1.4-1.7 1.8-7.3 2.2-4.5.3-8 1.2-9.7 2.4-2 1.3-3.9 1.7-6.5 1.3-4.2-.5-9.9 1.6-11.3 4.2-.5 1-.8 3.9-.8 6.7 0 2.7-.7 7.1-1.6 9.7-1 2.7-1.5 5.5-1.2 6.3.3.7.1 1.6-.5 1.9-.5.4-.7 1-.4 1.5.3.4-.2 1.3-1 2s-1.5 2.9-1.5 4.9c0 2.8-.8 4.7-3.5 7.7-1.9 2.1-3.5 4.4-3.5 5.1 0 .6-.5 1.3-1.1 1.5s-1.2 3-1.3 6.3c-.1 5.7-.3 6.1-3.5 8-5.6 3.2-10.9 9.2-12.1 13.3-.6 2.4-2.8 5.6-5.7 8.5-6.9 6.7-12 12.3-12.5 13.7-.3 1-.9 1-2.5.1-3.2-1.6-4.8-1.4-8 1.3-1.5 1.3-5.5 3.8-8.7 5.6-3.3 1.7-7.4 4.3-9.1 5.6-1.8 1.3-3.7 2.4-4.3 2.4-1.8 0-7.2 5.7-7.2 7.6 0 2-1.9 3.6-7.8 6.6-4.1 2.1-4.5 2.1-7.5.6-3.3-1.6-10.7-1.8-14-.3-1.2.5-3.1.2-5.3-.9-4.6-2.1-5.4-2-10.5.9-2.4 1.4-5.3 2.5-6.5 2.5-1.1 0-2.9.7-4 1.5s-4.3 1.5-7.9 1.6c-6.9.1-16.2 1.3-18.6 2.3-1 .4-2.3.1-3.3-.9m216.4-298.3c-4.1-5.3-12.1-14.5-17.8-20.3-9.4-9.7-10.3-10.9-10-14l.3-3.3 15 14.1c16.7 15.6 19.7 19 22 25.4.9 2.4 2.1 5.2 2.6 6.2.8 1.4.5 1.7-1.8 1.7s-4-1.6-10.3-9.8m-343-64.8c0-1.7 15.5-12.3 20.5-14.1 2.2-.7 8.2-3.4 13.4-5.9 5.1-2.5 11.9-5 15-5.6s7.9-2.1 10.6-3.3c12.4-5.5 28-9.1 44.3-10.1 8.8-.6 9.2-.6 9.2 1.4 0 1.7-.8 2.2-3.7 2.7-2.1.3-7.8 1.4-12.8 2.5-4.9 1.1-10.8 2.3-13 2.6-9.7 1.5-30.4 8.2-38.3 12.3-1.7 1-5.7 2.7-12.6 5.5-2.1.9-4.7 1.6-5.9 1.6-1.1 0-4.5 1.7-7.6 3.9-8.2 5.6-11.6 7.1-15.6 7.1-1.9 0-3.5-.3-3.5-.6" fill="#825340"/>
  <path d="M783.661 828.515c-5.1-4.8-4.7-11.3 1-15l2.7-1.8-.6 5.2c-.9 7.6.1 9 7 9h5.7l-2.9 3c-4 4.2-8.2 4.1-12.9-.4m-582-65.1c-3.7-3.4-3.7-9.5 0-12.4 8.8-6.9 18.9 5.1 10.3 12.3-3.8 3.3-6.9 3.3-10.3.1m7.2-7.4c-.7-.9-1.3-1.8-1.4-1.9-.1-.2-.8.6-1.4 1.8-1 1.8-.9 2.4.1 3.1.8.4 1.9.3 2.6-.3 1.1-.8 1.1-1.4.1-2.7m522.3-61.2c-1.2-3.5-.5-5.9 1.8-5.9.9 0 2.1-.4 2.7-.9 1.2-1.1 13.2.5 17.9 2.5 2.6 1.1 3.5 2 3.5 3.8 0 2.3-.2 2.4-3.2 1.5-1.8-.5-6.6-1.1-10.6-1.4-5.8-.5-7.3-.3-7.8.9-1.1 2.8-3.2 2.6-4.3-.5M62.16 542.315c-2.9-4.9-2.7-8.8.6-11.9 3.8-3.4 9-3.4 12.8.1 2.4 2.2 2.7 3 2.1 6.7-1 5.9-3.9 8.7-9.2 8.7-3.8 0-4.4-.4-6.3-3.6m8.8-7.1c-2.6-3-5.7-.7-3.9 2.8 1.1 2 1.2 2 3.1.3 1.4-1.3 1.6-2 .8-3.1m246.001-412.5c-.1-1.3-.1-2.7 0-3.2s-.4-1.3-1.1-1.7c-.9-.6-.7-.9.9-.9 2 0 2.1-.3 1.6-5.5-.5-5.1-.4-5.5 1.5-5.5 1.3 0 2.3 1 3.1 3 .7 2.3 1.6 3 3.5 3 2.6 0 4.7 2.5 3.9 4.7-.2.7-2 1.5-3.8 1.9-2.6.4-3.6 1.3-4.4 3.5-1.3 3.6-5 4.1-5.2.7" fill="#5F556A"/>
  <path d="M472.061 272.515c0-2.6 8.4-3.7 31.7-4.3 24.8-.6 28.6-.3 28.1 2.5-.4 2.4-7.2 3-36 3.1-19.6.1-23.8-.1-23.8-1.3" fill="#828E1F"/>
  <path d="M490.861 651.415c-4.2-2.8-6.1-3.1-7.7-1.1-1.8 2.1-8.7 2.6-13.9.9-5-1.5-14-5.9-25.7-12.4-3.8-2.1-7.8-3.9-8.8-3.9s-4-1.8-6.7-3.9c-2.8-2.2-6.6-4.5-8.5-5.2s-3.5-1.6-3.5-2-1.5-1.2-3.2-1.9c-5.2-2.1-7.5-4.8-10.4-12.1-3.4-8.6-6-11.2-11.9-11.5-2.5-.2-5.7-.9-7.2-1.6-3.1-1.5-4.1-4.9-4.7-15.3-.3-5.2-3.3-13.8-4.7-13.6-3.7.5-6.9-4-6.9-9.8 0-3.7-2.1-11.3-4.7-16.8-.9-1.8-1.3-3.8-1-4.6.3-.7-.5-2-1.6-2.8-1.8-1.1-7.6-1.4-28.1-1.6-14.2-.1-26.1-.5-26.4-.8s-9.8-.5-21.1-.5c-21.7 0-25.1-.4-25.1-2.6 0-.8.1-1.4.3-1.4.1 0 13.7-.5 30.2-1 25.1-.8 30.7-.7 34 .5 3.1 1.1 10.7 1.4 33.5 1.5 34.6 0 33.5-.3 34.2 8.8.2 3.7 1.1 6.9 2.5 8.8 1.1 1.6 2.4 4.4 2.7 6.1 1.3 5.7 4.1 10.3 7.5 12.1 2.5 1.3 3.9 3.3 5.7 7.7 4 9.9 5.7 12.6 8.6 14.1 1.9 1 2.8 2.2 2.8 4 0 1.3.7 2.7 1.5 3 .8.4 1.5 1.5 1.5 2.5 0 4 3.8 9.6 7.7 11.3 2.1 1 5.8 2.8 8.3 4.1 2.7 1.4 6.3 2.4 8.9 2.4 2.5.1 5.2.7 6 1.5.9.7 3.8 1.8 6.4 2.5 2.7.6 6.2 2.1 7.7 3.3 2.1 1.5 5.8 2.5 13.7 3.4 5.9.8 12.4 2 14.3 2.8 8.1 3.1 10.9 3.7 12.9 2.7 1.1-.6 4.5-1.1 7.6-1.1 4.9 0 6.2-.4 9.8-3.4 3.8-3 5.2-3.4 14.7-4.5 7.5-.9 11.3-.9 13.3-.2 2.5 1 2.9.8 4.7-2.1 1.1-1.8 2.2-4.4 2.5-5.9.3-1.4 1.8-3.6 3.2-4.9 2.3-2 3.3-2.2 8.7-1.7 4.7.4 6.5.2 7.9-1 .9-.9 2.7-2.1 4-2.7 1.3-.7 2.4-2.4 2.7-4.1.4-2.3 1.3-3.2 3.9-4.1 4.5-1.5 5.7-3.3 7.6-11.6 1.8-8 3.3-10.8 5.7-10.8 2.8 0 5.5-4.6 6.2-10.6.4-3.1 1.3-7.1 2-8.8.8-1.7 2.4-5.7 3.7-9 2.2-5.4 2.9-6.1 7.8-8.4 6.1-2.8 20.1-4.4 20.1-2.3 0 .6-.7 1.4-1.5 1.7-1.9.8-2 6.3-.1 10.8 1 2.5 1.1 3.7.2 5.3-1.6 2.9-5.9 7.6-8.2 8.9-1 .6-2.9 3.1-4 5.5-1.9 3.8-2 4.7-.9 6.9 1.2 2.2 1 2.8-2.1 6.6l-3.5 4.2 2.2 4.2c2.2 4.2 2.2 4.3.4 7.7-1.1 1.9-3.5 4.3-5.5 5.3-1.9 1-4.4 2.7-5.4 3.9-1.1 1.2-2.6 2.1-3.4 2.1s-3.1 1.4-5.2 3c-2.1 1.7-4.2 3-4.8 3-1.6 0-2.4 4.8-1.1 7.1.9 1.8.6 2.6-1.7 5-1.5 1.6-4.2 3.3-6.1 4-1.8.6-3.3 1.5-3.3 2.1s-.9.8-2 .5c-1.2-.3-3.9.5-6.3 1.8-3.7 2.1-5.2 2.3-12.7 1.9-4.7-.3-9.4-.5-10.6-.6-2.4 0-9.4 4.2-9.4 5.8 0 3.1-7.6 8.6-12.3 8.9-1.8.1-6.1.8-9.7 1.5-3.6.6-10.8 1.3-16.1 1.4-7.1.2-10.3.7-12.2 1.9-3.6 2.3-5.6 2.1-9.9-.8m-245.8-170c0-4.5 4.8-23.5 7.7-30.2.7-1.7 1.3-3.8 1.3-4.6 0-1.5 7.6-20 10.4-25.6.9-1.7 2.1-3.1 2.6-3.1 1.7 0 1.1 10-1 14.8-3.2 7.7-10.6 29-14.1 40.5-2.6 8.4-3.7 10.7-5.1 10.7-1.3 0-1.8-.8-1.8-2.5m37-92.3c0-.8 4.9-8.3 5.9-9.2 1.6-1.3 7.1-8.9 7.1-9.8 0-.8 18.9-21.6 25.4-27.7 7.5-7.3 16.1-14.6 18.6-15.9 2.9-1.4 3-1.4 3 1.1 0 2-3.5 6-15.3 17.7-16.3 16-23.8 24.5-32.7 36.9-4.9 6.9-5.7 7.7-8.7 7.7-1.8 0-3.3-.3-3.3-.8m386.5-55.3c-9.8-7.8-27.5-20.4-32.2-22.9-12.7-6.8-14.3-8.1-14.3-11.1 0-2.5.3-2.8 1.8-2 .9.5 6.8 3.4 12.9 6.5 15.1 7.4 24.5 13.9 35.6 24.6l9.2 8.9h-4c-3.1 0-5.1-.9-9-4" fill="#955F3D"/>
  <path d="M502.061 632.215c-2.5-.9-6.1-2.2-8-2.9-1.9-.8-8.4-2-14.3-2.8-7.9-.9-11.6-1.9-13.7-3.4-1.5-1.2-5-2.7-7.7-3.3-2.6-.7-5.5-1.8-6.4-2.5-.8-.8-3.5-1.4-6-1.5-2.6 0-6.2-1-8.9-2.4-2.5-1.3-6.2-3.1-8.3-4.1-3.9-1.7-7.7-7.3-7.7-11.3 0-1-.7-2.1-1.5-2.5-.8-.3-1.5-1.7-1.5-3 0-1.8-.9-3-2.8-4-2.9-1.5-4.6-4.2-8.6-14.1-1.8-4.4-3.2-6.4-5.7-7.7-3.4-1.8-6.2-6.4-7.5-12.1-.3-1.7-1.6-4.5-2.7-6.1-1.3-1.8-2.2-5.1-2.5-8.5-.2-3.1-.9-6.2-1.4-6.8-.8-1-.3-1.3 1.9-1.3 2.5 0 3.5.9 6.2 5 3.8 5.9 19.3 22.3 25 26.5 4 2.9 4.1 3.1 4.1 9.1 0 5.8.2 6.3 4.3 10.3 3.6 3.6 4.6 4.2 7.2 3.7 9-1.8 11.1-1.8 12.4-.2 1 1.1 3 1.6 7.1 1.6 5.9 0 11.7 1.9 15.8 5 1.2 1 4.5 2.4 7.2 3.1 2.8.7 5 1.9 5 2.6 0 1.4 6.2 4.3 9.4 4.3 1.1 0 4.9.9 8.4 2l6.3 2 4.2-2.8c3.5-2.2 5.4-2.7 11.3-2.8 7.4-.1 7.6-.2 18.8-7.7 5.8-3.8 6.3-3.9 15.2-4.1 8.2-.1 9.5-.4 13.1-2.9 2.2-1.5 5.3-2.7 7.1-2.7 2.3 0 4.1-1 6.7-3.6 4-4 5.5-7.1 5.5-11.3 0-1.6.7-3.4 1.5-4.1s1.5-1.8 1.5-2.4 3.9-5.1 8.7-10.1c7.9-8.3 17.3-20.9 17.3-23.4 0-3 4.4-3.3 30.7-2.6 21 .6 26.3 1 26.3 2.1 0 1.5-1.8 1.8-17.5 3.3-16.9 1.7-23.4 2.9-28.9 5.5-4.6 2.1-5.3 2.9-7.5 8.2-1.3 3.3-3 7.3-3.7 9.1-.8 1.7-1.6 5.5-1.7 8.3-.4 5.5-3.1 10.2-6.3 10.9-2.8.5-4.1 2.9-5.9 10.7-1.9 8.5-3.1 10.3-7.6 11.8-2.6.8-3.5 1.8-3.9 4-.3 1.6-1.4 3.4-2.5 4s-3.5 2.3-5.3 3.9c-3.4 2.8-5.6 3.4-6.7 1.8-.3-.5-1.9-1.2-3.5-1.6-3.8-.8-7 2.1-9.4 8.6-.9 2.6-2.5 5.4-3.6 6.4-1.7 1.6-2.3 1.6-6.2.3-3.4-1.1-6-1.2-12.5-.3-6.8.8-8.8 1.5-12.2 4.3-3.5 2.8-4.7 3.2-9.9 3.2-3.6 0-6.6.6-7.8 1.5-2.4 1.8-4.7 1.8-10.4-.2m-237.3-208.5c.7-4.5 10.7-25.5 15.6-32.4 1.7-2.4 3.7-4.4 4.4-4.4.8 0 1.6-.7 1.9-1.5 1-2.5 2.4-1.7 2.4 1.4 0 2.7-3.5 9.7-12.7 25.3-2.2 3.6-4.8 8.7-5.8 11.2-1.5 3.5-2.4 4.6-4.1 4.6-2 0-2.2-.4-1.7-4.2m265.8-148.3c-3.8-.7-7.8-1.4-8.7-1.4-1.1-.1-1.8-.9-1.8-2.1 0-1.6.7-2 3.8-2 2.1 0 4.2-.4 4.8-.9.5-.5 5-.1 10.4.9 15.9 2.9 20 4.1 20 5.6 0 1.8-18.5 1.8-28.5-.1" fill="#A66F41"/>
  <path d="m387.261 533.915-3.2-3h-29.5c-24.2 0-30.3-.3-34.1-1.6-3.2-1.1-6.1-1.3-9.6-.9l-5 .7.6-4.8c.4-2.7.9-13.4 1.1-23.9.3-10.4 1-24.2 1.6-30.5s1.1-15.6 1-20.6c-.2-8.3.1-10 3.3-18.2 1.9-5 4-11.9 4.7-15.4s2.2-8.4 3.5-10.9 2.6-7 3-10 1.5-7.1 2.5-9.1c1.1-2 2.6-5.9 3.5-8.5.8-2.6 3-7.7 4.8-11.3 1.9-3.6 3.9-8.3 4.6-10.5 2.4-7.9 9.2-22.5 12.3-26.7s5.3-8.9 6.2-13c.9-4 2.2-5.1 10.5-8.9 3.6-1.7 8-4.2 9.7-5.5l3.3-2.5v3.3c0 6.6-3.1 15.3-8 22.9-2.8 4.1-5 8.2-5 9.1 0 .8-1.8 4.2-4 7.4-2.2 3.3-4 6.5-4 7.2s-1.1 3.2-2.4 5.5c-1.4 2.3-2.8 6.5-3.2 9.2-1.2 8.7-9 26.6-12.4 28.7-1.1.7-2 2.1-2 3.1 0 1.1-1.1 3.2-2.5 4.9-2.2 2.6-2.4 3.6-1.9 8.3.5 3.9.1 7.1-1.4 12.2-1.1 3.7-2.3 8.8-2.7 11.3-1 7.3-2.6 14.2-4.1 18.3-.8 2-1.4 6.4-1.4 9.7 0 3.2-.4 7-1 8.4-.9 2.4-2.2 16.9-2.2 24.1.1 15.1 1 29.7 2 30.7.9.9 10.4 1.5 30.8 2 33.8.8 34.4 1 34.4 7.8 0 2.2-.1 4-.2 4-.2 0-1.8-1.4-3.6-3m-144.8-4.2c-1.2-1.9-.5-24.5 1.2-35.8 3-21.1 8.4-34.2 8.4-20.2 0 3.1-.5 7.5-1.1 9.7-.5 2.2-1.4 10.6-1.9 18.7s-1.4 16.6-2 18.9c-1 3.7-.9 4.5.4 5.5 2.2 1.6 2 3.1-.6 3.8-3.2.8-3.6.8-4.4-.6m417.6-1.8c0-1.9.7-2 11.4-2h11.4l.7-12.7c1.1-17.3-.7-47.5-3-52.8-1.7-3.9-2.7-9.3-4.4-24-.5-3.8-1.8-9.8-3-13.2-1.1-3.4-2.1-8.2-2.1-10.7 0-2.6-1.2-7.5-3-11.9-1.9-4.7-3-9.3-3-12.4 0-5.5-1.3-8.4-6.8-15.1-2.2-2.6-4.3-6.3-4.7-8.2-.9-4.2-15.5-33.4-20.2-40.4-1.8-2.6-3.3-5.5-3.3-6.2 0-.8-1.3-3.8-3-6.7-1.8-3.3-3-6.8-3-9v-3.7l4.3 2.7c2.3 1.5 6.7 3.9 9.7 5.5 3 1.5 6.7 3.8 8.1 5 3 2.7 6.6 10.2 9.8 20.8 3.4 11.1 4.2 13 7.6 17.4 4.5 6 6.6 9.5 7.5 12.5 2.4 7.3 4.2 11.1 7.4 16 2 2.9 3.6 6.3 3.6 7.5 0 2.5 4.4 17.6 5.9 20.5.7 1.1 1.4 5.8 1.7 10.3.5 6.3 1.6 10.7 4.5 18.3 3.7 9.4 3.9 10.8 3.9 20 0 5.5.4 11.6.9 13.5s1.9 7.1 3.1 11.4c2.4 8.5 2.3 10.1-.4 26.1-.8 5-1.8 12.3-2.2 16.3l-.7 7.2h-19.3c-18.7 0-19.4-.1-19.4-2m46 .2c0-1.7 1.4-1.9 17.8-2.6 9.7-.3 21.7-.9 26.6-1.3l8.9-.6-.7-6.1c-.3-3.4-1.1-12.8-1.6-21.1-.5-8.2-1.2-18.9-1.6-23.7-.6-7.8-.5-8.8 1-8.8.9 0 1.6.2 1.6.4s.9 3.9 2 8.2c4.8 18.6 7.3 36.8 6.8 49.6l-.3 7.3-30.2.3c-29 .2-30.3.1-30.3-1.6" fill="#DD7217"/>
  <path d="M394.061 515.615c-1.9-1-2.6-2.3-3.1-5.7-.3-2.5-1.4-6.5-2.3-9-2.2-5.9-3.1-14.8-1.7-18.2 1-2.6 1.5-2.8 6.3-2.8 2.9 0 5.8.4 6.4.8.7.4 2.3 3.4 3.7 6.7 1.9 4.7 2.6 8.6 3.1 17.8l.7 11.7h-5.3c-2.9 0-6.4-.6-7.8-1.3m143.6-90.4c-1.7-.3-4.8-2.4-7.7-5.3l-4.9-4.9v-7.4c0-6.6.3-7.9 2.9-11.3 4.4-6.2 7.6-7.9 15.1-7.9 9.1.1 11.4.9 15.1 5.7 2.9 3.6 3.4 5.1 3.7 10.9.6 9.1-1 13.2-6.5 17.4-4.7 3.6-8.4 4.2-17.7 2.8m12.9-6.6c3.9-2 5.4-5 5.5-10.5 0-6.7-1.9-10.5-6.6-12.7-3.1-1.5-4.2-1.5-8-.5-5.2 1.5-8 4.6-8.9 9.8-1.5 8.8 5 16.9 12.4 15.6 2-.4 4.5-1.1 5.6-1.7m88.8-9.7c-3.9-.9-8.1-4.1-10.5-8.1-2.3-3.7-2.5-11.9-.3-11.9.8 0 1.5.5 1.5 1.1 0 .5.9 2.9 1.9 5.3 1.6 3.4 2.7 4.5 5.9 5.4 10.7 3.2 18.2-1.4 18.2-11.2 0-5.7-1.4-8.8-5-10.9-3.5-2.1-11.5-2.2-15.2-.3-2.7 1.4-2.8 1.4-2.8-1.3 0-4.5 2.3-5.6 11.1-5.5 6.7.2 8.5.6 12.3 3 5.5 3.5 6.6 5.8 6.6 14 0 14.7-10.3 23.6-23.7 20.4m-46.6-33.7c-1.5-3.7-2.7-7.6-2.7-8.7 0-1-1.7-3.9-3.9-6.5-6.5-7.7-8.1-11.1-8.1-16.7 0-2.8-.7-7.1-1.5-9.4s-1.5-5.4-1.5-6.9c0-1.4-.7-3.5-1.5-4.5-1.4-1.8-1.5-1.6-1.5 2.8 0 5.6-1.8 9.4-6 13-2.9 2.4-3.9 2.6-12.1 2.6h-8.9v-2.9c0-2.6-.4-3-3.2-3.3-3.7-.4-4.5-2.2-4.7-10.8-.1-7.3 3-13.8 7.9-16.3 2.7-1.4 5.3-1.7 11.1-1.5l7.7.3-2.8-4c-1.5-2.2-4.5-7.6-6.6-11.9-2.2-4.3-5.1-9.2-6.6-10.9-1.6-1.6-2.8-3.5-2.8-4.3 0-2.1 11.1-1.8 20 .7 4.1 1.1 8.9 2.4 10.6 2.8 6.7 1.7 7.3 3.8 1.3 4.3l-4.1.3 4.2 6.3c2.3 3.4 4.8 8.4 5.5 11 1.6 5.7 5.7 15.7 8.4 20.3 1 1.9 3.1 7 4.6 11.4s3.8 10.3 5 13c4 8.5 6.4 18.6 6.7 27.5l.3 8.5-6 .3-6 .3zm-33.7-39.8c8.9-4.6 9.5-18.6.9-23.1-6.3-3.2-15.9.7-17.5 7.2-.4 1.4-.4 4.9-.1 7.7.5 4.1 1.3 5.7 3.4 7.4 3.3 2.7 9 3 13.3.8m-153.9 35.5c-2.7-2.3-4-7.2-4.1-14.7 0-4.2.9-7.2 4.4-14.5 2.4-5.1 5.6-13.1 7.1-17.8 1.4-4.6 3-8.9 3.6-9.6.5-.6 2-3.1 3.3-5.6s4.4-7.1 6.9-10.4c6-8 8.9-13.8 8.1-16.7-.5-2.1-.1-2.5 3.8-3.5 2.4-.7 7.2-1.7 10.8-2.2 3.6-.6 8.8-1.8 11.5-2.7 3.7-1.2 11.1-1.7 28.3-2 22.6-.5 23.2-.5 23.2 1.4 0 1.7-.9 2.1-6.1 2.7-3.4.3-12.1.6-19.3.6-12.4.1-24.8 1.8-26.6 3.6-.5.5-2 3.1-3.4 5.7s-4.3 6.9-6.4 9.5c-2.2 2.6-5.5 8.1-7.3 12.2s-4.8 9.8-6.7 12.6c-2.7 4.2-3.9 7.8-6.1 18.7-1.5 7.4-3.5 14.7-4.4 16.1s-2.6 4.9-3.8 7.8c-2.8 7.4-6.3 10.8-10.8 10.8-2.1-.1-4.6-.9-6-2" fill="#DD7217"/>
  <path d="M500.061 608.815c-3-1.1-7.1-2.1-9-2.3-4.8-.6-11-3.3-11-4.9 0-.7-2.2-1.9-4.9-2.6s-6.3-2.2-8-3.5c-4.8-3.6-10.6-5.2-13.6-3.8-2.1 1-3.2.9-5.5-.3-1.6-.8-3.1-1.9-3.5-2.5-.3-.5-1.5-.6-2.8-.1-1.2.4-4 1.1-6.3 1.4-3.5.6-4.6.3-7.6-2-6-4.7-7.3-7.2-7.1-13.2.2-4.1-.2-5.8-1.5-6.7-1.5-1.2-1.3-1.3 1.5-1.4 2 0 6 1.7 11 4.6 14.6 8.7 25.3 13.7 38 17.7 9.4 3.1 9.7 2.9 12.8-7 1.5-4.9 3.1-9.2 3.6-9.7 1.3-1.5 33.7-1.6 34.8-.2 1.3 1.5 6.1 14.9 6.1 16.9 0 .9.4 1.8.9 2.1 1 .6 10-1.8 14.8-4 1.8-.8 6.1-2.4 9.5-3.5 3.5-1.1 9.5-3.6 13.3-5.6 7.5-3.8 23.9-14.6 25-16.3.3-.5 2.3-1 4.3-1 3.3.1 3.5.2 2 1.4-1 .7-1.8 2-1.8 2.8 0 .9-.6 2.1-1.4 2.7-.7.6-1.6 3.1-1.8 5.5-.8 7-9 15.6-13.2 14-1.1-.4-3.4.5-6.2 2.5-4.2 3.1-6.8 3.7-13.4 3.2-7.3-.5-11.2 1.1-24.2 10-2.1 1.5-4.2 1.8-9.5 1.6-6.2-.2-7.2.1-11.6 3.1-5.4 3.6-6.1 3.7-13.7 1.1" fill="#BA8147"/>
  <path d="M787.161 712.515c-4.8-6.9-8.8-8.9-17.1-8.4-6.6.3-7 .2-7-1.8 0-2.4 3.1-3.4 10-3.4 6.8 0 10 1.2 15 5.7 3.8 3.4 5 4.1 5.7 2.9.4-.8 2.5-2.4 4.6-3.6 3.2-1.9 4.9-2.2 12.6-1.9 8 .4 9.2.2 11.3-1.7 3.9-3.7 8.9-5.6 15.5-6.2q6.3-.45 6.3-1.8c0-.9.7-.9 3.2.3 3.5 1.8 6.8 4.4 6.8 5.4 0 .4-4.7.9-10.4 1.1-9.7.3-10.7.5-14.8 3.3-2.4 1.7-4.7 4.1-5.3 5.3-1.1 2.6-3.2 2.8-7.1.7-1.6-.8-5.3-1.5-8.2-1.5-5 0-5.5.3-10.2 5-2.7 2.8-5.6 5-6.4 5s-2.9-2-4.5-4.4m-630.3-94.7c-4-2-10.5-2.7-15.3-1.5-2.8.7-3.2.4-6.5-4.5-4.4-6.7-10.3-9.9-19.5-10.6-9.6-.8-8.9-2.8 2.7-8.6 12.6-6.2 22.6-10.7 23.8-10.7.8 0 4 6.2 5.5 10.9.5 1.8.2 2.1-1.9 2.1-1.8 0-3-.9-4.1-2.9l-1.5-2.9-4.8 2c-2.7 1.2-6 2.9-7.3 3.9-2.3 1.7-2.3 1.8-.4 2.5 2.4.9 2.7 1.2 8.2 5.9 2.3 2 4.5 4.5 4.8 5.6.5 1.6 1.6 1.9 7.6 1.9 8.9 0 12.9 1.8 12.9 6 0 1.7-.1 3-.2 2.9zm19.2-11.1c0-3.3 0-3.3-4-3-2.2.2-5.4-.1-7-.8-2.6-1.1-3-1.8-3-5.1 0-4.6 2.1-5.2 4.6-1.3 2 2.9 5.5 3 9.3.2 3.1-2.4 4.1-1.5 4.1 3.7 0 2.4.4 4.6.8 4.9 2.6 1.6 19.2-9.8 19.2-13.1 0-1.7 2.2-2.2 4.5-1 1.1.5 4.4 3.5 7.3 6.6l5.2 5.6-3.7.3c-2.2.2-4.1-.2-4.8-1-3.2-4.1-4.4-4.2-7.8-1-5.1 4.8-11.4 7.6-18.4 8l-6.3.4zm653.3-288.1c-1.8-1.2-6.7-5.9-10.9-10.4-8.1-8.9-8.3-8.9-13.2-4.3-4.2 4-15.2 7-20.7 5.6-2.1-.5-2.5-1.2-2.5-4 0-3.3-.1-3.4-4.7-3.8-3.3-.3-5.1 0-5.6.9-.5.7-2.6 1.3-5.1 1.3-3.3 0-5.2-.7-8.2-3.1-4.1-3.1-9.4-11.2-9.4-14.1 0-2.6-1-2.7-8.5-.7-16.5 4.3-20.1.2-4-4.5 3.3-1 7.3-2.2 8.9-2.7 5.2-1.6 6.4-1.2 7.5 2.7.6 2 2.4 6 4.1 8.8 4.3 7.1 11 9.9 11 4.7 0-1 .7-2.4 1.6-3.2 1.3-1.1 1.9-.8 3.8 1.6 2.3 2.9 2.5 2.9 11.6 2.2 2.3-.2 2.5.1 2.3 4.1s0 4.2 2.6 4.2c3.7 0 8.5-2.5 14.2-7.2 2.5-2.1 5.2-3.8 6.1-3.8 2.3 0 26.8 25 26.8 27.2 0 1.6-4.6.6-7.7-1.5m-573-20.1c-1.1-2-10.6-5.6-14.6-5.6-1.8 0-5.7 1.2-8.6 2.6-5.2 2.6-5.4 2.6-8.3 1-6.5-3.9-8.5-4.6-13-4.6-2.7 0-7.5.9-10.9 2.1s-6.5 1.7-6.9 1.3c-1-1 4.8-9.1 12.6-17.8 2.7-3 6-6.9 7.4-8.6 1.3-1.6 3.1-3 4-3 1.3 0 12 9.4 12 10.6s-7.9.2-9-1.1c-2-2.4-3.3-1.7-8.2 4.8l-4.7 6.2 6.4.7c3.5.3 7.9 1.4 9.8 2.3 3.2 1.5 3.8 1.5 6.6.1 4.6-2.4 19.4-2.2 23.5.3l3.2 2 1.3-3.1c2.1-4.6 8.3-10.4 12.1-11.1 1.8-.4 4.9-.7 7-.7 3.3 0 3.9-.4 4.9-3 .8-2.5 1.5-3 4.2-3 2.4 0 2.9.3 2.1 1.3-.5.6-1.6 3.1-2.3 5.5l-1.2 4.2h-5.4c-8.9 0-13.5 3.2-18 12.8-2.4 5.2-4.5 6.5-6 3.8m602.4-45.7c-8.4-6.3-6.5-18.3 3.1-19.6 6.6-.9 13.2 4.4 13.2 10.4 0 3-3.6 8-7.1 9.7-4.2 2.1-5.8 2-9.2-.5m8.3-6.1c2.3-2.5 2.4-3.7.7-5.9-2.1-2.7-4.5-3-6.7-.7-2.5 2.7-2.5 4.3 0 6.8s3.4 2.5 6-.2m-671.3-52.2c-3.9-1.7-6-5.2-6-9.8 0-4.9 1.6-7.9 5-9.5 3.9-1.9 6.6-1.6 10.4 1 6.8 4.6 6.2 14-1.2 17.8-4.3 2.2-4.4 2.2-8.2.5m7.2-7.2c1.7-2.2 1.9-3 .9-4.3-3.1-3.9-5.9-4.1-8.1-.7-1.5 2.2-1.5 2.6.4 5 2.6 3.3 4.2 3.3 6.8 0" fill="#857D8E"/>
  <path d="M697.361 529.915c-2.5-1-2.8-2.9-1.4-9.3.5-2.3 1.5-8.2 2.1-13.2.7-4.9 1.6-10.7 2.1-12.8.8-3.2.5-5.6-1.5-13-4.1-14.6-4.7-18.3-4-25.6.6-6.5.4-7.6-3.4-17.3-3-7.9-4.1-12.2-4.6-18.6-.3-4.5-1-9.2-1.7-10.3-1.5-2.9-5.9-18-5.9-20.5 0-1.2-1.6-4.6-3.6-7.5-3.2-4.9-5-8.7-7.4-16-.9-3-3-6.5-7.5-12.5-3.4-4.4-4.1-5.9-7.8-17.9-1.4-4.4-4-11.3-5.7-15.4-1.6-4.1-2.8-7.6-2.5-7.9.6-.7 6.8 3.5 20.5 13.8 6.4 4.8 12 8.9 12.6 9.1 2.3.8 26.3 27 34.8 37.8 13.5 17.3 26.7 39.7 33.7 57.4 9.5 23.8 13.7 42.7 14.4 64.7.1 5.2.6 14.6 1 20.8.8 10.6.7 11.2-1.1 11.2-7.2.1-58.3 3-59.4 3.4-.8.3-2.5.1-3.7-.4m-453.9-1.4c-.6-1.7-.3-4.9 1.6-16.6.5-3 .9-9.3 1-14 0-4.7.7-11.4 1.5-15s1.4-8.1 1.5-10.1c0-3.3 1.4-7.8 9.8-31.9 6-17.3 23-49.1 35.3-66 12.2-16.8 42.9-47.3 58.2-57.8 12-8.2 13.2-8.2 10.1 0-2.9 7.8-4.6 11.3-7.1 14.6-3.1 4.1-9.9 18.8-12.3 26.7-.7 2.2-2.7 6.9-4.6 10.5-1.8 3.6-4 8.7-4.8 11.3-.9 2.6-2.4 6.5-3.5 8.5-1 2-2.1 6.1-2.5 9.1s-1.7 7.5-3 10-2.9 7.5-3.5 11c-.7 3.6-2.7 9.9-4.4 14-2.6 6.6-3.1 9-3.3 18.6-.5 17.4-1 27.1-1.7 28.1-.3.6-.8 11.2-1.2 23.7-.3 12.4-.8 23.3-1.1 24.2-.5 1.1-2.3 1.5-7.8 1.5-3.9 0-18.5.3-32.3.7-23.3.5-25.3.5-25.9-1.1" fill="#F88A1C"/>
  <path d="M640.161 528.115c-.5-1-2-4.7-3.2-8.1-2.3-6.9-2.1-13.2.8-16.3 1.4-1.6 1.4-2-.2-4.4-3.6-5.5.8-19 7.2-22.3 2.1-1 5.6-3.8 7.8-6l3.9-4.1-2.3-4.4c-2.1-3.7-2.3-5.2-1.8-10.4.4-3.3 1.6-7.6 2.7-9.4 1.2-2 2-5.1 2-7.9 0-2.6.7-6.3 1.6-8.4 2.8-6.9 2.3-10.6-2.4-16.3-4.5-5.3-5-6.6-2.9-7.9 2.6-1.5 6.7-9.9 6.7-13.6 0-5.2-1.6-7.9-6.4-11-6.3-4-13.6-4-17.7-.1-4.4 4.1-5.9 7.6-5.9 13.4 0 4.3-.3 5-2 5-1.5 0-2-.7-2-2.8 0-1.6-1.3-4.6-3-6.8-1.6-2.1-3.4-5.5-4-7.5-1.6-5.7-4.1-7.9-9.9-8.6-3.3-.4-5.1-1.1-5.1-1.9 0-2.3-4-14.6-6.5-19.9-1.3-2.7-3.5-8.6-5-13s-3.6-9.5-4.6-11.4c-2.7-4.6-6.8-14.6-8.4-20.3-.7-2.6-3.3-7.8-5.8-11.5-2.4-3.7-5.2-8.2-6.1-10l-1.6-3.2 6.7.6c7.4.6 26.8 7 36.8 12 3.3 1.7 7.6 3.6 9.6 4.2s4.3 1.9 5.2 2.9c2 2.2 8.7 15.1 8.7 16.7 0 .7 1.5 3.5 3.3 6.1 4.7 7 19.3 36.2 20.2 40.4.4 1.9 2.5 5.6 4.7 8.2 5.5 6.7 6.8 9.6 6.8 15.1 0 3.1 1.1 7.7 3 12.4 1.8 4.4 3 9.3 3 11.9 0 2.5 1 7.3 2.1 10.7 1.2 3.4 2.5 9.4 3 13.2 1.7 14.7 2.7 20.1 4.4 24 2.4 5.7 3.8 29.1 3.2 51.9-.4 10.3-.7 19-.9 19.1-.2.2-10.3.6-22.5.9-20.9.6-22.3.5-23.2-1.2" fill="#F88A1C"/>
  <path d="M329.061 527.615c-3-.5-6-1.3-6.7-1.8-.7-.7-1.2-5.5-1.3-13.7-.5-30.9-.2-37.2 1.7-45 .8-3.5 1.3-7.8 1-9.5-.3-1.8.3-5.7 1.3-8.7 2-6.1 3.6-13.2 4.5-20 .4-2.5 1.6-7.5 2.6-11.1 1.8-6 1.9-7 .5-10.8-1.4-4.2-1.4-4.2 2-8.7 1.9-2.4 3.4-5.2 3.4-6.2 0-.9.9-2.3 2-3 3.4-2.1 11.2-20 12.4-28.7.4-2.7 1.8-6.9 3.2-9.2 1.3-2.3 2.4-4.8 2.4-5.5s1.8-3.9 4-7.2c2.2-3.2 4-6.6 4-7.4 0-.9 2.2-5 5-9.2 3.3-5.1 5.5-9.8 6.7-14.4 1.4-6 2.1-7.1 5.4-9.2 2.1-1.3 4.7-2.4 5.8-2.4 1 0 3.6-.7 5.7-1.6 6.9-2.8 10.9-4.5 12.6-5.5 2.1-1.1 18-7.2 22.7-8.8 1.9-.6 4.8-1.1 6.5-1.1 3.7 0 6.4 1.4 4.7 2.4-.6.4-2.5 3.7-4.1 7.2-1.6 3.6-5 9.2-7.6 12.6-2.5 3.4-5.7 8.1-7 10.6s-2.8 5-3.3 5.6c-.6.7-2.2 5-3.6 9.6-1.5 4.7-4.7 12.8-7.2 18-4.1 8.7-4.4 9.8-3.8 14.7.5 4 1.3 6 3.3 7.8 1.5 1.4 2.9 2.5 3.3 2.5 1.5 0 6-6.1 7.8-10.8 1.2-2.9 2.9-6.4 3.8-7.8s2.9-8.7 4.4-16.1c2.2-10.9 3.4-14.5 6.1-18.7 1.9-2.8 4.9-8.5 6.7-12.6s5.1-9.6 7.3-12.2c2.1-2.6 5-6.9 6.4-9.5s2.9-5.2 3.4-5.7c1.8-1.9 14.3-3.5 27-3.6 7.4 0 18.8-.7 25.3-1.5 10.3-1.3 12.6-1.3 18.6 0 3.8.8 9.9 1.7 13.7 2.1 8.3.9 10.1 2.4 15.8 14 2.1 4.3 5.1 9.7 6.6 11.9 6.2 9.1 14 22.9 14 24.9 0 1.1.9 5 2.1 8.6 1.1 3.7 1.8 7.7 1.5 9.3-.7 3.5.9 6.6 6.8 14 2.5 3 4.6 6.4 4.6 7.4s1.2 4.8 2.7 8.5c2.3 5.6 3.2 6.8 5.1 6.8 1.5 0 2.2.6 2.2 2 0 3.1-7.1 2.8-11.4-.5-1.8-1.4-4.3-2.5-5.5-2.5s-3.1-.4-4.1-1c-1.4-.8-2.9-.2-6.9 2.4-2.8 1.9-6.1 3.8-7.4 4.2-4.1 1.2-10.2 4.6-12.8 7-2.3 2.2-3 2.3-7.3 1.5-7.6-1.4-11.8.4-16.7 7.3-2.2 2.9-2.9 5-2.9 8.3 0 3.9.5 4.9 5 9.3 2.7 2.8 5.8 5 6.9 5 6.9 0 7 4.9.2 11.9l-4.8 5.1-7.9-.1c-6.5-.1-8 .2-9.3 1.8-1.2 1.4-4 2.2-10.5 3.1-6.4.8-9.5 1.7-11.1 3.2-2.7 2.6-7.5 2.6-12.5 0-2.2-1.1-5.7-2.4-7.7-2.8-2.9-.6-3.9-1.3-4.1-3-.2-1.2-.9-2.2-1.5-2.2-1.8-.1-7.7-10.4-7.7-13.4 0-1.4.5-4.5 1.2-6.9 1-4 .9-4.7-1-7.5-1.7-2.3-2.2-4.5-2.2-8.9 0-5.5-.3-6.1-3.8-9.6-2.1-2-4.5-3.7-5.3-3.7-2.4 0-4.7-3.1-5.1-6.9-.4-4.1-5-8.3-7-6.3-.7.7-3.4 1.2-6.1 1.2-4.5 0-5.5-.5-10.3-4.6-3.8-3.2-5.4-4.1-5.4-2.9 0 .9-.9 3.3-2 5.5s-2 4.8-2 6c0 1.9-.6 2-8.4 2-7.4 0-8.5-.2-9.8-2.1-1.3-2-1.7-2.1-4.9-1-1.9.6-5.2 2.7-7.2 4.6s-5.4 4.3-7.5 5.4c-2.5 1.3-5.2 3.9-7.2 7.1-2 3.1-4.8 5.9-7 7-2 1-5.1 3.5-6.8 5.5-2.6 2.9-3.2 4.4-3.2 8.3 0 3.2-.9 6.4-2.7 9.9-2.5 4.8-2.7 5.5-1.4 7.5 3.4 5.4 4.1 7.6 4.1 13.3 0 5.6.3 6.4 4 10.9 2.2 2.6 4 5.3 4 5.9s.8 2 1.8 3.1c1 1.2 2.4 4 3.1 6.4 1 3.4 1.6 4.2 3.5 4.2 1.3 0 3.9.6 5.7 1.4 1.9.7 4.9 1.1 6.6.9 1.8-.3 4.9-.2 6.8.1 3.2.6 3.5 1 2.8 2.9-1.2 3.4-.6 9 1.7 14.9 1.1 2.9 2 6.7 2 8.4 0 3.8 1.6 5.3 6.3 6.1l3.5.5-.5-8.4c-.5-8.1-.4-8.6 1.8-10.2 2.9-2 9.2-2.1 10.9-.1 1.6 1.9 2.7 1.9 4.6 0 1.1-1.1 3.8-1.5 9.5-1.5h8l-.3 9.1-.3 9.1-4.8 1.8c-2.6 1-7.1 2.1-9.9 2.5-2.9.4-5.8 1.4-6.6 2.1-2.5 2.6-18.2.7-18.2-2.2 0-1-1.2-1.4-4-1.4-5.2 0-19-6.4-19-8.7 0-1.3-.3-1.4-1.2-.5-.7.7-2 1.2-3 1.2s-1.8.8-1.9 1.8c0 .9-.1 5.4-.2 9.9s-.4 8.4-.7 8.6c-.9 1-33.4 1.2-39 .4m234-192.3c5.8-4.9 7.4-11.1 4.6-17.7-2.2-5.2-5.9-7.9-11.3-8.4-6.6-.6-11.1 1.9-14.1 7.7-3.3 6.5-2.5 12.2 2.6 17.2 3.3 3.2 4.3 3.6 9.4 3.7 4.7.1 6.2-.3 8.8-2.5m-30.3 192.9c-.4-.3-.7-2.3-.7-4.4 0-4 2.6-6.9 6.1-6.9 1.3 0 1.9-1.7 2.8-8.2 2.1-14.6 3.9-17.8 9.7-17.8 2.2 0 4.5-1.1 7.4-3.5 3.3-2.8 5.1-3.5 8.4-3.5 3.6 0 4.8.6 8.6 4.5l4.4 4.5h19.2l2.7-5.5c1.5-3.1 2.7-6.8 2.7-8.4 0-4.4 2.1-5.4 8.7-4.6 5.1.6 6.3 1.2 9.6 4.7 2 2.2 3.7 4.8 3.7 5.7.1.9.7 2.7 1.5 4.1 2.5 4.4 1.8 8.1-2 11.9-2.9 2.8-3.5 4.1-3.5 7.6 0 3.3-.5 4.4-2.2 5.3-4.8 2.4-11.5 4.2-16 4.2-4.4 0-4.7-.2-5-2.7l-.3-2.8-2.7 2.7c-1.6 1.5-2.8 3.6-2.8 4.6 0 1.4-1.2 2.1-5.1 3-7.5 1.8-10.7 1.5-12.1-.9-2.8-4.5-15.9-6.9-19.6-3.6-1 .9-2.2 1.7-2.6 1.7s-3.4 2-6.6 4.5c-4.6 3.6-6.7 4.5-9.8 4.5-2.1 0-4.2-.3-4.5-.7" fill="#F88A1C"/>
  <path d="M546.461 551.715c-1.8-2.6-5.3-10.5-6.5-14.8-.7-2.5-1.6-4.9-2-5.4-1.1-1.3-66-.7-67.5.5-.7.5-1.4 2.2-1.7 3.7-1.4 6.7-2.2 8.9-4.4 12.5-2.3 3.6-2.7 3.9-6.1 3.4-2-.2-9.1-1-15.8-1.7l-12.1-1.3-2.6-7.1c-1.5-3.9-3-9-3.3-11.2-.3-2.3-.9-4.5-1.3-5-.3-.5-3.5-1.9-7.1-3-4.2-1.3-6.6-2.6-6.8-3.7-.2-1 .3-1.7 1.2-1.7.8 0 2.3-.8 3.3-1.8 1.1-1.2 3.4-1.9 6.3-2 2.5-.1 6.7-1 9.5-2.1l4.9-1.9.2-6 .1-6h-4.8c-2.7-.1-5.5.5-6.2 1.1-5.6 5.2-5.2 5.1-9 1.7-3.8-3.3-5.6-3.2-8.7.4-1.8 2.3-3 1.9-3-.9 0-3-4.7-14.7-6.4-15.7-1.9-1.3-5.5-.9-6.4.7-.7 1.3-1.4 1.4-3.7.5-2-.7-3.7-.7-6 0-2.5.8-4 .7-7.1-.6-2.1-.9-5.2-1.7-6.9-1.8-2.7-.1-3.2-.6-4.6-4.8-.8-2.6-2.3-5.6-3.2-6.6s-1.7-2.3-1.7-2.9-2-3.5-4.4-6.4c-4.1-5.2-4.3-5.7-4.3-12 0-5.1-.4-7.3-2-9.5-3.6-5.1-3.7-8.3-.3-15 2-4.1 2.9-7.2 2.7-9.5-.6-5.6 3.7-11.6 10.9-15.2 1.7-.9 4.6-3.9 6.4-6.7 2-3.2 4.7-5.8 7.2-7.1 2.1-1.1 5.5-3.6 7.6-5.5 2-1.9 5.5-3.9 7.7-4.5s5-1.5 6.2-2c1.9-.7 2.5-.4 3.8 2.1.9 1.7 2.2 3 3.1 3s1.4.7 1.2 1.7c-.2 1.1-2.2 2.1-6.2 3-6.4 1.4-13.6 6.3-13.6 9.2 0 1-1.1 2.8-2.5 4.1s-2.5 3.3-2.5 4.5-1.8 3.8-4.1 6-5.4 5.8-7 7.9c-3.6 4.8-3.7 9.6-1.2 30.1l1.8 14 5.7 5.4 5.8 5.4 4-2.7c5.2-3.4 9.2-3.3 15.9.7 4.1 2.4 5.7 4.1 6.3 6.4.7 2.7 1.5 3.2 6.8 4.7 5.8 1.7 6.1 1.6 8.8-.2 1.5-1.1 3.6-2.9 4.6-4.1 1.1-1.2 2.5-2.1 3.3-2.1s3.7-1.3 6.6-2.9c2.9-1.5 6.4-3.1 7.8-3.4 1.4-.4 3.8-1.6 5.2-2.7 2.6-2 2.6-2.3 1.2-5-2.1-4-1.9-8.9.6-12.9 2.3-3.8 2.5-6.6 1.1-16.1-1.3-8.6-4.5-16.9-8.6-22.8-1.8-2.6-3.8-6.1-4.5-7.9-.7-1.7-2.3-4-3.5-5.2-2.5-2.3-12.4-5.8-20.5-7.1-5.8-1-9.1-3.2-9.1-6.2 0-1.3.8-1.8 3-1.8 2.4 0 3-.4 3.1-2.2 0-1.3 1.3-4.8 2.8-7.8 3.4-6.8 5.1-6.9 12.6-.5 5.6 4.8 7.3 5.3 10.8 3 1.7-1.1 3.1-1.2 5.5-.6 1.8.5 3.2.7 3.2.3 0-.3 1.1 1 2.5 2.9 1.6 2 2.4 4.2 2.1 5.4-.6 2.2 2 5.5 4.4 5.5.9 0 3.3 1.7 5.3 3.8 3.4 3.5 3.7 4.2 3.7 9.6 0 4.4.5 6.6 2.2 8.9 2.4 3.3 2.7 9.1.8 14.2-.9 2.3-.6 3.4 2.2 7.9 1.8 2.9 3.8 5.1 4.5 4.9.6-.2 1.3.8 1.5 2.4.2 2.3.9 2.9 4.1 3.5 2 .4 5.6 1.7 7.8 2.9l4.1 2 2.2-2c1.7-1.6 4.6-2.5 11.2-3.3 6.5-.9 9.3-1.7 10.2-3 .7-1 2.4-1.8 3.6-1.8 1.3 0 2.9-.7 3.6-1.5 1.1-1.3 1.5-1.3 4.1 0 1.5.8 3.6 1.5 4.5 1.5 2.2 0 11.4-9.6 11.4-11.9 0-1.3.6-1.7 2.8-1.3 3.6.5 11.5-5.5 13.1-9.9 2.4-7 1.1-11.9-4.9-17.9l-4.2-4.2 2.4-2.5c2.3-2.4 9.1-6.4 13.5-7.7 1.2-.4 5-2.5 8.3-4.8l6.1-4 4.2 1.6c2.4.9 5.1 1.6 6 1.6 2.1 0 6.7 2.8 6.7 4.1 0 .5-2.1 2-4.7 3.4-7.4 4-13.6 7.8-17.1 10.3-2.6 1.9-3.2 3-3.2 6.2 0 2.1-.7 4.5-1.5 5.4-2.1 2.1-7.2 15.1-8 20.6-.4 2.5-1.4 6.2-2.2 8.2-1.4 3.5-1.3 4.1.6 8.1 1.3 2.7 2.1 6.3 2.1 9.6 0 4.6.4 5.7 3 8.1 1.7 1.6 3.3 4.2 3.6 5.9.4 2.1 2.3 4.5 5.5 7.2l4.8 4h11.8c13.7-.1 18.8.6 17.5 2.3-.5.6-.9 2.3-1 3.9-.1 1.5-1.4 5-2.8 7.9-2 4-2.6 6.5-2.6 11.7.1 13 .1 13.1 1.8 13.1 3 0 1 3.4-2.6 4.3-6 1.6-14 2-14 .8 0-.6.7-1.1 1.5-1.1.9 0 1.5-.9 1.5-2.1s1.6-3.6 3.5-5.3c1.9-1.8 3.5-3.8 3.5-4.5 0-.6.7-2.2 1.5-3.5 1.3-2 1.4-2.8.3-5.1l-1.2-2.7-10.3.3-10.2.4-4.9-4.8c-2.6-2.6-5.3-4.7-5.9-4.7s-3 1.6-5.3 3.5c-3.6 3-6.3 4.1-9.3 3.6-2.1-.3-4.3 2.1-5.4 6.1-2 6.9-3 15.5-2.1 17.2.7 1.2 0 1.7-3.1 2.6-4.2 1.1-6.7 3.3-5.6 5s2.4 1.2 8.5-3.5c3.2-2.5 6.2-4.5 6.6-4.5s2-1.2 3.5-2.6c2.5-2.4 3-2.5 6.2-1.5 1.9.6 4.1.9 5 .5 2.5-.9 11.5 2.7 13.3 5.4 1.1 1.6 2.1 2.1 3.5 1.7 2.4-.8 2.4-.1.3 10.7-.8 4.6-2 10.7-2.5 13.6-1 5-1.2 5.2-4.2 5.2-1.8 0-7 .7-11.7 1.5-10.4 1.8-16.5 1.9-17.6.3m-27.3-41.7c6.8-2.7 10.8-6 10.9-8.8 0-.7 1.4-4 3.1-7.3 3.6-7.1 3.4-9.3-1.7-17.7-1.9-3.1-3.4-6.5-3.4-7.6 0-2.9-6.4-11-10.2-12.8-11.4-5.6-23.1-4.2-28.7 3.6-.8 1.1-3 3.5-4.8 5.4-1.9 1.9-3.9 4.3-4.5 5.5s-2.3 3.7-3.9 5.7c-3.2 4.1-3 6.7 1.6 15.9 1.5 3 3 6.1 3.4 6.8.6 1.4 2.5 2.5 9.6 5.8 2.2 1 4.7 2.3 5.5 3 3.5 2.7 9.7 5.4 12.7 5.4 1.7 0 6.4-1.3 10.4-2.9m-133 20.8c-1.7-1.4-3.9-1.9-8.6-1.9-3.4 0-7.7-.3-9.5-.6l-3.2-.7.7-5.7c.5-4.5.3-5.9-.9-6.9-2-1.7-2-4.5-.1-6.1.8-.7 1.5-2.1 1.5-3.1 0-1.1.7-1.9 1.6-1.9.8 0 3.2-1.1 5.2-2.5 4.6-3.2 5.2-3.1 5.2.3 0 1.6.8 3.2 1.9 3.9 1.2.7 2.1 2.9 2.6 5.9.4 2.6 2 7.3 3.6 10.3 1.7 3.2 2.9 6.7 2.7 8.3l-.3 2.6zm233.9-1.4c0-2 .8-5.2 1.9-7.3 1-2 2.5-5.3 3.4-7.3l1.4-3.5-5.6.3c-5 .4-5.4.3-3.8-1 1.2-1 1.7-2.6 1.5-5-.2-3.6 1.5-6.5 5.4-9.5 1.6-1.2 1.7-1.6.3-4.2-.8-1.6-1.5-3.5-1.5-4.3s-1.6-3.2-3.5-5.3c-3.2-3.5-3.4-3.9-2-5.8.8-1.2 2.8-4.5 4.5-7.3 2.9-4.8 3.5-5.3 6.7-5.3 1.9 0 4.8.8 6.4 1.7l2.9 1.7 4.1-4 4-4 .6-11c1.2-19.9 1-22.1-3.1-30.8-2-4.3-3.6-8.8-3.6-9.9 0-1.7.5-1.9 3.4-1.4 2.6.4 4.3-.1 7.2-2l3.8-2.6 3.9 4.4c6.2 7.1 6.9 10.4 4.1 19.9-.8 3-1.7 7.9-1.9 10.9-.3 2.9-1.3 6.8-2.3 8.5-2.9 4.9-3.6 10.3-1.8 13.1.9 1.3 2.2 4.3 3 6.6l1.5 4.2-5.1 4.6c-2.8 2.5-6.6 5.4-8.5 6.4-2.3 1.2-4 3.2-5.3 6.1-2.7 6.4-2.7 7.7-.1 11.9l2.3 3.8-2.6 3.4c-1.4 1.8-2.7 4.4-2.8 5.7-.1 2.4 2.3 10.1 4.7 14.8.8 1.5 1.2 3 .9 3.2-.2.3-4.9.3-10.3 0-9.1-.4-10-.3-12 1.7l-2.1 2.1zm-1.4-145.2c-2.1-1.1-5.4-1.5-12.2-1.4-7.6.1-9.4-.1-9.4-1.3 0-.8 1.6-1.8 3.7-2.3l3.7-.8-.3-5.6c-.2-4.6.1-5.8 1.6-6.5 2.7-1.2 4.6-1.1 6.8.3 1.1.7 2.6 1.3 3.4 1.3 2 0 4.9 3.7 6 7.7.6 1.9 2.2 5 3.6 6.9l2.6 3.4h-3.3c-1.8-.1-4.6-.8-6.2-1.7" fill="#FB992A"/>
  <path d="M502.361 515.515c-1.5-.5-4.6-2-6.8-3.5-2.2-1.4-5.8-3.5-8-4.5-7.4-3.5-9-4.5-9.6-5.8-.4-.7-1.9-3.8-3.4-6.8-3.8-7.6-5.5-15.4-4.1-17.9 2.5-4.5 7.8-11.8 10.9-15.1 1.8-1.9 3.9-4.5 4.7-5.6.8-1.2 3.1-3.2 5.2-4.6 6-4.1 20.1-3.6 29.6 1.1 3.8 1.8 10.2 9.9 10.2 12.8 0 1.1 1.6 4.6 3.6 7.9 5.3 8.7 5.7 15.1 1.5 23.3-1.7 3.4-3.1 6.7-3.1 7.4-.1 2.9-4.1 6-11.8 9.2-8.4 3.4-13.2 4-18.9 2.1m14.7-19.7c3.5-.5 7-1.5 7.6-2 2.1-1.7 2.8-14.2 1.1-17.5-2.5-4.8-8-9.4-14.7-12.4-1.4-.6-3.5-2.1-4.8-3.3-2.2-2-2.4-2.1-3.3-.4-1.3 2.3-6.1 6.7-7.4 6.7-1.1 0-6.8 8.1-8.4 12-.6 1.4-1.5 5.2-2.1 8.4-1.2 7-.8 7.5 6 7.6 2.5.1 6.3.5 8.5.9 5.7 1.2 10.1 1.2 17.5 0m-105.5-11.9c-3.8-1-7.3-1.9-7.7-1.9-.4-.1-1.1-1.5-1.6-3.3-.6-2.5-2.1-4-6.5-6.5l-5.7-3.4-3.7 2.5c-7.2 4.8-9 4.5-16.2-2.6l-6.3-6.2-.4-6.7c-.2-3.7-.8-7.8-1.3-9.1s-1-8.4-1-15.7c-.2-15.2.1-16 8.8-24.6 3-2.8 5.1-5.8 5.1-7s1.1-3.2 2.5-4.5 2.5-3.1 2.5-4.1c0-2.3 6.5-7.4 11.5-8.9 2.2-.7 6.4-1.4 9.3-1.7 6.6-.6 6.8.9 1.1 8.3-4.5 5.9-8 8.3-15.6 10.8-2.8.9-5.7 2.4-6.3 3.2-.7.7-2.1 1.4-3.1 1.4-1.5 0-1.9.7-1.9 3.5 0 5-2 13.6-3.8 16.5-1.2 1.9-1.6 5.4-1.7 14.5-.1 6.9-.7 13-1.4 14.2-.7 1.5-.8 2.4-.1 2.8 1.1.7 10 2.2 26 4.6 4.1.6 8.9 1.7 10.5 2.5 6.2 2.9 8.7 2.8 16-.9 6-3 8.3-3.5 15.8-3.9 4.8-.2 9.1-.9 9.5-1.4.8-.8.1-17.9-1.4-34.2-.7-7.3-2.8-10.4-10.8-15.7-2.8-1.9-7.6-5.5-10.6-8s-6.2-4.5-7.1-4.5c-2.9 0-7.9-6.3-7.9-10 0-3.2.1-3.2 1.9-1.6 1 .9 4.2 2.1 7.2 2.6 8.1 1.3 18 4.8 20.5 7.1 1.2 1.2 2.8 3.5 3.5 5.2.7 1.8 2.7 5.3 4.5 7.9 6 8.5 9.6 21.7 9.7 35.3 0 4.5-.5 6.9-2.1 9.6l-2.2 3.6 2.1 4.7c1.9 4.4 1.9 4.9.5 7.1-1.5 2.3-9.6 7.3-9.6 6 0-.3-2.5.8-5.4 2.5-3 1.6-6.1 3-6.9 3s-2.1.8-2.8 1.7c-1.6 1.9-8.9 7.3-9.8 7.2-.3 0-3.7-.9-7.6-1.9m205.6-4.4c-1.5-1.8-7.9-2.5-9.1-1-.7.8-5.6 1-16.6.8l-15.5-.3-4.8-4.1c-3.2-2.6-5.1-5-5.5-7.1-.3-1.7-1.9-4.3-3.6-5.9-3.8-3.5-3.8-4 .2-4 6.3 0 16 3.2 20.7 6.8 7.3 5.6 10.1 6.4 15.6 4.8 2.5-.8 5.2-2 6-2.6.8-.7 4.5-1.5 8.2-1.7 5.5-.5 8.1-1.3 13.3-4.3 3.6-2.1 8.2-4.1 10.3-4.4 4.2-.8 4.6-2 2.1-6.8-1.8-3.4-1.6-11.3.5-21.2 1-4.7 1-7.7.1-14.3-.7-4.6-1-8.6-.8-8.8s1.3-.2 2.5.1c3.1.8 9.2 14.8 10 22.7.3 3.4 0 10.3-.6 15.2-.7 5.9-.7 10.4-.1 13 1 4 .9 4.1-4.4 9.3-6.1 5.8-8.1 6.3-13.4 3-4-2.4-3.2-3-9.1 6.6-3.7 6-4.2 6.3-6 4.2m-58.1-28.5c0-2.2-.4-4.3-1-4.6-.5-.3-1.7-3-2.5-6-1.5-4.9-1.5-5.7 0-8.5.9-1.7 2.2-6.2 3-9.8 1.5-7.6 5.6-18.5 7.8-20.7 1-1 1.4-2.7 1-5.2-.4-3.7-.2-3.9 4.9-7.1 20.4-12.8 21.1-13.2 23.7-10.8 1.4 1.3 3.7 1.6 12.2 1.4 9.2-.3 10.9 0 14.6 2 4.6 2.4 6.3 4.7 6.3 8.4 0 1.3.7 3.6 1.5 5.2.8 1.5 1.5 3 1.5 3.2 0 1-5 .2-9.8-1.6-2.9-1.1-6.5-2-8.2-2-2.3 0-3.7-1-6.5-4.6-1.9-2.6-3.5-5.1-3.5-5.5 0-1.2-7.4 7.1-9.4 10.6-1.6 2.7-11.6 9.8-18.8 13.4-1.6.7-2.8 1.7-2.8 2.2s-.6.9-1.4.9c-1.3 0-7.6 8.4-7.6 10.2 0 .4.9 3.1 2 6 2.8 7.4 2.6 14.6-.6 21.4-1.8 3.8-3.1 5.4-4.5 5.4-1.5 0-1.9-.7-1.9-3.9" fill="#FCA73B"/>
  <path d="M440.561 552.915c-4.9-.3-10-1.3-11.2-2-2.4-1.5-6.8-15.5-7.9-25.3l-.6-5.5 2.5.5c2.7.5 3.1 1.2 4.2 7.3.3 1.9 1.8 6.7 3.2 10.6l2.7 7.2 8.5.7c4.7.4 10.6 1 12.9 1.5 4.4.8 4.4.8 7-3.6 1.5-2.4 3-4.4 3.4-4.4.5 0 .8 2.2.8 4.8 0 3.5-.6 5.4-2 7-2.3 2.4-5.4 2.6-23.5 1.2m132.5-4.9c0-.6.6-1.1 1.4-1.1 1.5 0 1.9-1.6 4.7-17.5.7-3.8 1.7-7.5 2.3-8.1 1.1-1.1 8.8-3.4 20.1-5.9 3.3-.7 7.6-1.8 9.5-2.4s3.6-1.1 3.8-1.1.2 1.5 0 3.3c-.3 3.2-.3 3.2-14 7.7l-13.7 4.5-2.1 7c-4.1 13.9-4.2 14-8.3 14.3-2.1.2-3.7-.1-3.7-.7m-34.6-9.8-1.8-3.8h-21.1c-11.5 0-26.3-.3-32.8-.8-11.4-.7-11.9-.6-12.4 1.3-.3 1.3-1.4 2-2.9 2-2.1 0-2.3-.3-1.7-3.2.3-1.8 1.1-3.8 1.7-4.5 1.5-1.5 72.1-2.3 73.4-.8.5.6 1.4 2.8 2 5 2.5 8.9 2.5 8.5-.2 8.5-1.8 0-2.9-.9-4.2-3.7m-56.9-42c-1.1-1-1.5-2.5-1.1-4.2.3-1.4 1.1-5.1 1.6-8.1.6-3 1.5-6.6 2.1-8 1.6-3.9 7.3-12 8.5-12s7.4-5.9 7.4-7.1c0-.5 1.2-1.6 2.6-2.6 2.5-1.6 2.6-1.6 5.2 1.6 1.4 1.9 3.9 4 5.6 4.8 7.2 3.3 12.6 7.6 14.9 11.8 1.9 3.6 2.5 9.8 1.4 15.7-1.6 8.7-3.7 7.8-10.1-4.2-5.4-10.2-11.8-20.1-14.1-22-1.1-.9-1.6-.6-2.6 1.2-.7 1.3-3.1 5.2-5.4 8.8-5.1 7.9-10.5 18.4-10.5 20.5 0 .8.9 1.5 2 1.5 1.3 0 2 .7 2 2 0 1.7-.7 2-3.9 2-2.4 0-4.6-.7-5.6-1.7m106-23.6c-1.6-.8-5.1-3-7.6-5-3.3-2.5-7-4.1-12.5-5.4-7.7-1.9-7.9-2-8.2-5.1-.3-2.5.1-3.2 1.4-3.2 1 0 2.5.6 3.3 1.3 1 .9 7.3 1.9 17.1 2.7 19.7 1.7 19.8 1.7 30.4-.3 4.9-.9 13.1-1.7 18.2-1.7 8.7 0 9.4.1 9.4 2 0 1.2-.7 2-1.7 2-.9 0-4.8 1.8-8.5 4.1-5.6 3.3-7.9 4.1-12.6 4.2-3.6.2-7.5 1.1-10.4 2.5-5.9 2.9-14.2 3.7-18.3 1.9m-178.8-4.9c-2.7-.5-5.9-1.5-7-2.2-1.2-.8-5.1-1.6-8.6-2-3.6-.3-7.9-1-9.5-1.6-1.7-.5-4.8-1.2-6.8-1.5-2.1-.3-3.8-1.2-3.8-1.9 0-1 7.1-1.3 34.6-1.4 24.4-.1 35-.4 36-1.2 1.1-1 .8-2.1-2.1-6.6-4.6-7.2-5.9-10.6-7.4-18.9-.7-3.8-1.5-8.1-1.7-9.3-.3-1.3-4.3-6.4-8.9-11.3-4.7-4.9-8.5-9.5-8.5-10.2s-1.1-2.9-2.5-4.9c-1.6-2.3-2.5-5.1-2.5-7.4v-3.8l3.8 3.7c2.1 2 4.4 3.7 5.2 3.7s4 2 7 4.5 7.8 6.1 10.6 8c2.8 1.8 6.3 4.8 7.7 6.4 2.7 3.3 2.8 3.8 4.6 28.6.5 7.2 1.2 14.1 1.6 15.5 1.2 4.8-1.2 6.3-11.1 6.8-7.5.4-9.9.9-15.4 3.7-8.5 4.2-9.6 4.4-15.3 3.3m-42.1-8.7c-2.8-1.1-3.5-4.1-2-8.1.9-2.2 1.5-8.2 1.7-15.5.2-9.3.6-12.6 1.9-14.5.9-1.4 2.2-5.6 2.9-9.5 1.5-8.6 4.8-12.7 12.3-15.1 2.8-.9 7-2.9 9.4-4.5l4.2-2.8v3.3c0 7-1.2 9.6-7.2 15.6-5.2 5.1-6.4 7.1-8.9 14.2-1.6 4.6-2.9 10.1-2.9 12.2 0 2.6-.8 5-2.4 7.1-3.6 4.6-5.8 10.5-5.7 14.8.1 3.9-.1 4.1-3.3 2.8m198-18.3c.4-2.1-.4-6.1-2-11-2.1-6.2-2.4-8.2-1.5-10.5 1.6-4.3 6-10.3 7.5-10.3.8 0 1.4-.4 1.4-.8 0-.5 1.2-1.5 2.8-2.3 4.8-2.4 16.7-10.4 17.5-11.7 3.2-4.9 3.8 5.8.7 11.4-1.2 2-4.9 7.8-8.3 12.8-3.4 5.1-8 12.9-10.2 17.4-3.2 6.4-4.5 8.1-6.2 8.2-1.9 0-2.1-.4-1.7-3.2m69.6-.6c-1.2-2-2.6-4.4-3.1-5.2-2.3-3.9-16.1-32.8-16.1-33.7 0-.5-.9-1.8-2-2.8-1.4-1.2-2-3.1-2-5.8 0-3.8.1-3.9 1.8-2.4 1 1 3 1.7 4.5 1.7 4.7 0 13.7 4 14.9 6.6.6 1.3 2.8 3.5 4.9 4.9 2 1.5 4 3.3 4.3 4.2 1.4 3.6 1.8 18.1.6 23.8-.7 3.3-1.5 7.5-1.7 9.3-.7 4.4-3.2 4.2-6.1-.6" fill="#FCBE57"/>
  <path d="M691.361 870.915c-.3-1.2-2-2.8-3.7-3.7l-3.1-1.6 2.5-1.1c1.4-.6 3.5-2.2 4.6-3.5l2.1-2.5.8 2.3c.3 1.2 1.8 2.6 3.1 3.1s2.4 1.4 2.4 2-1.1 1.5-2.4 2-2.7 1.8-3.1 2.9c-.8 2.7-2.5 2.7-3.2.1m188.5-113.4c-2.7-2-2.3-7 .6-8.6 3.2-1.6 5.4-.8 6.2 2.5 1.4 5.6-2.7 9.3-6.8 6.1m-754.4-412.7c-1.7-1.9-1.7-2.3-.3-4.7 1.8-3.3 4.6-4 6.4-1.5 2 2.5 1.8 4.7-.3 6.6-2.4 2.2-3.5 2.1-5.8-.4m615.6-40.6c0-.5-1.2-2.2-2.8-4-2.5-3-11.5-7.2-18.4-8.7-3.2-.7-3.7-2.4-1-3.2.9-.3 2.6-1 3.7-1.5s4.8-1.5 8.3-2.3l6.2-1.4v2.3c0 1.3-.7 2.8-1.6 3.3-1.4.8-.9 1.4 2.7 3.8 4 2.7 4.4 3.4 4.7 7.7.2 2.8-.1 4.7-.7 4.7s-1.1-.3-1.1-.7m-6-112.2c-1.5-2.9-1.2-4.5 1.3-6.9 1.9-1.8 2.6-2 4.7-.9 2.8 1.4 3.9 5.9 1.9 8.3-1.7 2.1-6.6 1.8-7.9-.5m-417.4-71.5c-.4-1.5-1.7-2.8-3.6-3.4-3.8-1.4-3.8-2.7.1-4.1 1.7-.6 3.3-2 3.6-3.1.7-2.8 3-2.5 3.7.5.4 1.5 1.7 3 3.1 3.5 3 1.2 3.3 3 .4 3-1.4 0-2.4 1-3.2 3-1.4 3.6-3.3 3.9-4.1.6m172.6-58.2c-3-2.1-3-7.3.2-10.3l2.3-2.2.7 4.7c1.3 9.6.8 10.7-3.2 7.8" fill="#BAB5BD"/>
  <path d="M402.461 552.615c-9.1-9.8-11.1-12.7-19.4-28.2-2.7-4.9-5.6-16.7-4.6-18.4.3-.4 3.1.4 6.2 2 5.6 2.6 13 5.2 30.7 10.4 4.8 1.4 8.7 3 8.7 3.5 0 .4.3 1.6.6 2.5.6 1.4-.3 1.6-7.7 1.4l-8.4-.2-2.2 3.3c-3.2 4.6-2.9 6.3 1.7 12.1s5.2 9.9 2.2 14.9l-1.9 3zm200.9-1.4c-2.2-4.5-1.6-10.5 1.4-15 1.5-2.3 3.6-4.4 4.7-4.7 1.2-.3 2.9-1.7 3.9-3.1 1.8-2.5 1.8-2.6-1.2-6.2-1.7-2.1-3.1-4.1-3.1-4.5 0-2.6 11.2-9.6 19.8-12.2 3.5-1.1 3.7 1.6.7 9.1-2.8 7.2-10.4 21.8-13.8 26.8-2.2 3.1-9.7 11.8-10.7 12.2-.3.2-1.1-.9-1.7-2.4m-229.9-113.8c.9-1.3 1.6-4.1 1.6-6.2s1.3-7.5 2.9-12.1c2.5-7.1 3.7-9.1 8.9-14.2 4.3-4.4 6.2-7 6.7-9.7.9-4.9 9-15.3 12-15.3 3.2 0 4.9 2.2 12.2 16 1.4 2.5 5.5 7.7 9.3 11.5 7.3 7.5 10.5 12.6 9.7 15.6-.3 1.1-.2 3.4.3 5.2 2.2 8.7 2.2 8.7-.2 8.7-2.3 0-3.5-1.7-11.1-15.4-6.7-12-9.2-16.3-11.9-20.4-3.2-4.6-3.3-4.6-12.6-1.6-2.3.8-5.5 1.4-7.1 1.4-2.7 0-2.9.2-3.3 5.5-.3 3.8-1.6 7.8-4 12.4-2 3.7-3.9 8.3-4.3 10.2s-1.4 5.1-2.2 7.2c-1.4 3.3-1.9 3.7-5 3.7-3.5 0-3.5 0-1.9-2.5m215.4-36.7c.7-.7 1.2-2.2 1.2-3.5 0-4.4 10.2-17.3 13.7-17.3 1.8 0 5.3 4.3 10.6 13.3l1.8 3-4.5-.6c-4.8-.7-13.3 1.8-16.7 4.9-2 1.8-7.9 2-6.1.2" fill="#FCE259"/>
  <path d="M430.961 576.015c-9-5.4-17.1-11.6-21.8-16.5-3.7-3.8-3.6-3.3-.3-9.7.1-.4-1.9-3.4-4.6-6.8l-5-6.2 1.4-4.6c1.6-5.2 3.9-9.2 5.7-9.9.7-.2 5-.1 9.7.3l8.5.8.6 4c.5 2.9.2 4.5-1.2 6.5-1 1.4-2.3 4.4-2.9 6.7s-1.5 4.5-2 4.8c-1.2.7 5.9 9.5 7.6 9.5.7 0 1.4-.7 1.8-1.5.3-.9 1.9-1.5 4.1-1.5 3.4 0 3.5.1 3.5 3.8-.1 2-.7 4.8-1.5 6.2-2.5 4.4-1.9 7.6 2 10.6 2.6 1.9 3.5 3.4 3.5 5.5 0 1.6-.3 2.9-.7 2.8-.5-.1-4.2-2.2-8.4-4.8m148.1-4.5c0-1.9.5-3.8 1-4.1.6-.3 1-3.3 1-6.6v-6l-4.6-1.9c-2.5-1.1-6.3-2-8.5-2-2.7 0-3.9-.4-3.9-1.4 0-1.6 3-2.6 8.2-2.6 4.4 0 6-1.9 7.9-9.3 1.2-5 3.5-7.1 5-4.6 3.4 5.7 4.2 5.1 4.9-3.9l.5-6.6 10.7-3.6 10.7-3.7 3.6 4.5c2.7 3.5 3.3 5.1 2.8 7.1-.9 3.7-3.4 7-5.9 7.7-2.3.6-7.4 7.9-7.4 10.5 0 1 .5 2.1 1 2.4.6.3 1 1.7 1 3 0 3.5-15.3 17.2-26.7 23.9-1 .5-1.3-.3-1.3-2.8m-85.9-73.2c-9.7-1.7-10.1-1.9-10.1-4.7 0-2.3.4-2.4 5.8-2.5 3.1 0 8.2.5 11.3 1.2 5.2 1.3 5.9 1.2 11.5-1.1 3.2-1.4 6.3-2.8 6.7-3.2.4-.5-.3-3.4-1.7-6.6-3-6.7-3.6-14.6-1-12.4.9.7 3.2 4.4 5.1 8.3 1.9 3.8 4.6 8.7 5.9 10.8 4.5 7 3.1 9.1-6.6 10.7-8.4 1.4-17.7 1.2-26.9-.5m-125.9-39.6c-1.8-1.8-1.5-6.1.8-11.9 2.2-5.4 5.4-10.2 6.5-9.7.4.2 1.3-.8 2-2.2l1.3-2.5 1.2 3c.7 1.7 1.5 6.3 1.8 10.3.5 7.2.6 7.4 3.8 9 2 .9 3.4 2.3 3.4 3.4 0 1.6-1 1.8-9.8 1.8-6.3 0-10.2-.4-11-1.2m252.8-1.5c0-1.2.5-2.3 1.1-2.5 2.2-.7 6.8-19.1 6.9-27.5 0-1.8.4-3.3.9-3.3 1 0 4.1 4.4 4.1 5.9 0 .5 1.6 3.2 3.5 6.1s3.5 5.8 3.5 6.5.9 3.2 2 5.6c2.2 5 2.6 9.4.8 10.5-.7.4-6.1.8-12 .8-10.4.1-10.8 0-10.8-2.1m-233.8-46.9c2.9-8 6.1-12.1 10.6-13.4 6.5-2 15.6-3.9 16.4-3.4.4.3 2.1 2.5 3.8 4.9 2.5 3.6 2.7 4.4 1.4 4.9-2.5.9-7.3.7-9.6-.5-1.6-.9-2.4-.7-4.3 1.1-1.3 1.2-2.9 3.5-3.5 5.1-1.6 3.9-4.6 5.6-11.2 6.4l-5.6.7zm233.4 3.9c-.4-.5-4.2-.8-8.4-.8-5.4 0-8.7-.5-11.1-1.7-4.1-2.2-7.9-2.2-10.5-.3-1.9 1.4-7.6 2.1-7.6.9 0-.3 1.4-2.5 3-4.9 1.7-2.4 3-4.8 3-5.2 0-3.3 15.1-11.3 21.3-11.3 2.3 0 8.7 5.6 8.7 7.6 0 .5 1.8 4.4 3.9 8.7l4 7.7h-2.8c-1.5 0-3.1-.3-3.5-.7" fill="#FDEA77"/>
  <path d="M463.061 590.915c-13.5-4.4-23-9.2-28.7-14.6-4.8-4.6-6-8.5-4-14 3.1-8.6 3-8.1 1.5-6.2-.8.9-3 1.9-4.9 2.3-3.3.6-3.7.3-8.7-5.5l-5.2-6.2 2-2.8c1.2-1.6 2.7-5 3.5-7.5.7-2.6 2.2-5.6 3.1-6.6 1.7-1.9 1.7-2.1-1.1-4.5l-3-2.4 3.5.2c2.6.2 3.6.8 3.8 2.3.1 1.1 1.4 6.3 2.8 11.6 2.9 11.1 3.8 11.9 13.1 12.7 6.1.5 6.5.7 9.1 4.5 1.5 2.2 3.9 5.2 5.3 6.6s3.3 3.8 4.2 5.3c1 1.5 2.8 3 4.2 3.4 4.1 1 6.5 6.5 6.5 14.9 0 4.1-.3 7.6-.7 7.8-.5.3-3.3-.3-6.3-1.3m86-4.5c0-1.3 1-3.1 2.1-3.9 3.9-2.7 2.2-14.6-2.1-14.6-1.7 0-2-.7-2-3.9 0-2.2.5-4.3 1-4.6.6-.4.7-2.8.3-6.3-.6-5.2-.5-5.6 1-4.3 1.3 1 2.9 1.1 8 .2 9.5-1.6 16.9-1.4 22 .8 4.2 1.8 4.6 2.3 5.2 6.5.4 2.4.4 4.9.1 5.4-.3.6-.2 2.2.3 3.5.8 2 .6 2.9-1 4.3-1 .9-1.9 2.2-1.9 2.8 0 2.7-18 12-30.2 15.6-2.5.8-2.8.6-2.8-1.5m35-47.7c-1.7-2.3-2.8-4.7-2.6-5.4.3-.7 1-3 1.5-5.1 1-3.5 1.5-3.9 6.8-5.6 6.4-1.9 10.2-2.2 6.6-.5-2.8 1.3-3.7 4-2.9 8.3.8 4.1-1.4 9.9-4.3 11.4-1.8 1-2.4.6-5.1-3.1m-100.3-44.4c-1.3-1.4-.7-4 2.7-11 5.8-12.1 17.6-29.9 18.9-28.4 4.3 5.1 9.7 12.3 9.7 13 0 .6-1.7 1-3.9 1-4.2 0-13.1 3.5-13.1 5.1 0 .5-.9 2.2-1.9 3.7-2.4 3.3-3.7 9.7-2.2 10.6.6.4 1.1 2 1.1 3.5 0 2.7-.2 2.8-5.3 3-2.9.1-5.6-.2-6-.5m106.3-32.4c-2.5-.4-9.7-1.1-16-1.5-11.9-.8-15-1.9-15-5.6 0-2.5 15.4-32.2 20.1-38.8 5.4-7.5 9-9.6 15.9-9.2 3 .2 6 .6 6.5 1.1 2.5 1.8 7.5 2.6 12.9 2 5.2-.6 6.2-.4 8.6 1.6 3.3 2.8 8 13 8.2 17.6.1 4.1-1.8 14.4-4 22.2-2 6.9-3 7.5-16.3 10-9.2 1.7-13.6 1.8-20.9.6m18.4-7.6c.8-.3 3.4-3.1 5.7-6.2 2.4-3.2 4.7-6 5.2-6.3 1.3-.9.1-8.2-1.9-12.3-.9-1.7-3.2-4.8-5.1-6.8-3.1-3.1-3.9-3.5-6-2.7-3.3 1.2-9.3 1.1-13.2-.2-2.8-1-3.5-.8-6.5 1.5-1.8 1.4-4.3 4.3-5.4 6.5-2.5 4.8-5.5 18.7-4.7 21.8.5 2.2 1 2.3 9.8 2.4 5 0 11 .6 13.2 1.4 4.6 1.5 6.7 1.7 8.9.9m-217.5 6c-3.5-.6-7.9-1.8-9.6-2.7-3.3-1.7-3.9-3.4-3.5-9.2 0-1.1-.4-4-.9-6.4-.9-3.7-.7-5.7 1.1-11.5 2.3-7.7 5.6-15.1 7.8-17.2.7-.8 2.6-1.4 4.1-1.4 2.8 0 8.1-3.9 8.1-5.9 0-1.9 6.2-8.1 8.2-8.1 1 0 2.9.5 4.1 1.2s3.5 1.2 5.1 1.2c2.5.1 3.5 1 6.2 5.6 1.8 3 3.3 5.8 3.4 6.3 0 .4-1.9.7-4.1.7-3.7 0-4.7.6-9.4 5.5-3.9 4.2-5.8 5.5-8.1 5.5-2.8 0-6.4 1.8-11.2 5.7-2 1.6-2.2 2.3-1.3 4.7.6 1.5 1.1 4.9 1.1 7.5 0 3.7.5 5.2 2.4 7 5 4.7 25.3 6.9 31.3 3.5 3.2-1.9 11.3-11.9 11.3-14 0-.8.7-1.4 1.5-1.4s1.5.5 1.5 1.1 2 4.4 4.5 8.3c5 8.1 5.3 9.5 2.7 11.9-1.6 1.4-4.4 1.7-17.3 1.8-8.5 0-19.3.4-24 .7-5 .4-11.4.2-15-.4" fill="#FDF28F"/>
  <path d="M525.661 910.715c-.3-.7-1.1-3.3-1.8-5.7-1.2-3.9-1.8-4.5-6.3-6-2.8-.9-5-2-5-2.6 0-.5 2.1-1.7 4.7-2.5 5.7-1.8 6.1-2.2 7.3-7.2 1.1-4.2 3.1-6.1 4-3.6.2.7.9 3.1 1.4 5.4 1 3.9 1.3 4.1 6.6 5.3 3.2.7 5.5 1.8 5.5 2.5 0 .8-2.3 2-5.2 2.8-5.2 1.4-5.3 1.6-6.8 6.8s-3.6 7.5-4.4 4.8m261.1-81.4c-1.7-.5-4.7-5.2-4.7-7.5 0-.8 1.3-.9 4.4-.5 5.9.9 8.6-.7 8.6-5.1 0-3.9 1.2-4.2 3.4-.8 2.1 3.2 2 8.7-.2 11.5-1.7 2.1-7.8 3.4-11.5 2.4m118-256.1c-2.4-.6-5-5.9-4.1-8.6 1.8-5.6 8.4-7.4 12.2-3.4 5.5 5.8-.1 14.1-8.1 12m-741.7-104c-4.8-3.3-5.3-6.1-1.5-9.8 3.3-3.4 7.7-3.3 10.4.1 3.2 4.1 2.4 7.6-2.6 10.2-2.8 1.6-3.4 1.5-6.3-.5m739.6-80.4c-1.9-1.5-2.6-3-2.6-5.3 0-2.7.6-3.6 3.5-5.2 3.4-1.8 3.6-1.8 7 0 2.9 1.6 3.5 2.5 3.5 5.2 0 3.5-3.7 7.4-7 7.4-1 0-2.9-.9-4.4-2.1m-182.4-268.6c-.5-1-1.5-3.9-2.2-6.5-1-3.8-1.7-4.8-3.4-4.8-7.6-.1-8.7-3.3-1.9-5.3 4.6-1.3 4.9-1.7 6.4-6.6.8-2.9 1.9-5.2 2.5-5.2.5 0 1.6 2.3 2.4 5.2 1.5 5.1 1.7 5.3 6.4 6.5 2.6.7 5 1.5 5.3 1.8 1.1 1.1-.9 2.5-4.6 3.1-4.7.8-5.4 1.5-7.1 7.8-1.5 5.4-2.5 6.5-3.8 4" fill="#D7D4D9"/>
  <path d="M525.161 594.615c-.6-.6-1.1-1.7-1.1-2.5 0-2.3-5.2-16.2-6.3-16.9-1.4-.8-27.7-.6-28.6.2-.3.3-2 4.8-3.6 9.8l-3.1 9.2-5.4-.3c-3-.1-6.7-.7-8.1-1.3-2.6-1-2.7-1.3-2.2-6.7.4-4.7.1-6.4-1.6-9.4-1.2-2-3.3-3.9-4.6-4.2-1.4-.4-3.2-1.9-4.2-3.4-.9-1.5-2.7-3.8-4-5.2s-4.4-5.2-7-8.4l-4.6-5.9 9.1.7c8.4.6 9.2.5 11.1-1.5 1-1.1 2.2-4.2 2.6-6.8.9-6.7 4.6-12.6 7.6-12.5 1.3.1 9.3.7 17.8 1.3 18.9 1.3 34.7 1.4 42.4.1 6.1-1 8.7-.6 8.7 1.4 0 .6 1.8 3.8 4 7.1s4 6.4 4 6.8c0 .5.9 2 2 3.4 2.2 2.8 2.9 11.7 1 12.8-1.7 1-1.1 2.3 1.2 2.7 1.6.2 2.5 1.3 3.3 4 .5 2 1.3 4 1.8 4.4 1 1.1.9 6.2-.3 6.9-.5.3-1 1.4-1 2.3 0 1.8-4.3 5-10 7.5-8.5 3.7-19.3 6-20.9 4.4m-27.3-99c-6.6-1.6-8.2-4.2-7.5-11.9.3-3.9 1.3-7.1 2.6-8.9 1.2-1.6 2.1-3.3 2.1-3.8 0-2 9.3-5.2 14.3-4.9 5.5.3 5.6.5 10.6 13 4.4 10.9 4.4 11-4.4 14.7-8 3.3-10.3 3.6-17.7 1.8m100.7-38.7c-4.3-1.2-10.3-2-15.6-2-9.7 0-9.9-.2-9.9-7.1 0-6 2.8-18.5 5.2-23.1 2.2-4.1 8.9-9.8 11.7-9.8.8 0 3.4.7 5.7 1.6 3.9 1.5 4.6 1.5 9.4-.1l5.2-1.7 4 3.8c5.1 5 7.5 9.7 8.7 17 .8 5.5.6 8.3-.9 9.4-.3.3-2.5 3.1-4.9 6.2-2.6 3.4-5.4 6.1-7.3 6.7-3.7 1.3-2.8 1.4-11.3-.9m-199.4-1.5c-7.5-1.8-10.5-5-10.8-11.8-.2-2.8-.6-7.4-.9-10.1-.6-4.3-.4-5.1 1.7-6.8 5-4 8.5-5.8 11.3-5.8 2.3 0 4.2-1.3 8.7-6.1l5.8-6.1 4.7.8c4.4.9 4.8 1.2 7.9 6.9 1.7 3.3 5.3 9.4 7.8 13.6 2.6 4.2 4.7 8.7 4.7 10.1 0 3.1-7.3 12.9-11.3 15.2-3.6 2-21.4 2.1-29.6.1" fill="#FDFAA4"/>
  <path d="M243.561 900.515c-3.3-1.4-5.5-5.2-5.5-9.2 0-6 6.7-10.5 12.6-8.4 3.1 1.1 6.4 5.5 6.4 8.5 0 3.2-3.2 7.7-6.5 9.1-4 1.6-3.3 1.6-7 0m540.8-75.8c-2.9-1.4-3-5.1-.3-9.5 2.4-4.1 6.1-5.1 10.6-3 3.1 1.5 3.4 2 3.4 6.1 0 4-.3 4.5-3.4 6-3.9 1.8-7.1 1.9-10.3.4m-581.1-62.8c-2.7-2.5-2.8-5.7-.3-8.9 3.7-4.8 10-2 10.1 4.5 0 5.8-5.6 8.3-9.8 4.4m585.3-50.2c-1.1-1.7-3.7-4.5-5.8-6.2-3.1-2.5-4.7-3-9.1-3-2.9-.1-6.5.6-8.1 1.4-2.6 1.4-2.9 1.3-3.9-.4-4.3-7.3-10.9-11.2-20.7-12.3-9.5-1-9.3-1.4 5.4-9.2 5.4-2.9 11.3-6.1 13-7.2 4.1-2.5 5.4-2.4 6.3.4 1.9 6.3 12.5 16.7 17 16.7.6 0 1.4-1.8 1.7-4.1.7-5.3 1.2-5.7 4.7-3.1 3.4 2.6 6.3 2.8 8.4.7 2.5-2.5 3.6-1.7 3.6 2.5 0 2.5.5 4.3 1.4 4.6 2.6 1 10.7-3.9 16-9.7 2.9-3.3 5.6-5.9 6-5.9.5 0 10.1 6.6 14.1 9.7 6.6 5.1 10.5 8.6 10.5 9.2 0 .5-3.3 1-7.2 1.3-8.2.5-12.6 2.4-17.9 7.4-3.5 3.4-3.6 3.4-7.2 1.9-7.8-3.2-15.7-1.2-21.4 5.6-3.1 3.7-4.3 3.6-6.8-.3m-623.7-85.1c-4.4-9.3-10.2-13-19.4-12.5-6.2.3-6.5.2-8.3-2.7-1-1.7-3.3-4.3-5.2-5.8s-4-3.2-4.7-3.8-4.3-1.6-8-2.3l-6.7-1.3 6.5-3.3c11.4-5.8 22.1-11 22.5-11 .3 0 1.4 1.9 2.6 4.2 2.5 5 13.1 15.8 15.4 15.8.8 0 1.8-.8 2.1-1.7.3-1 1-2.8 1.5-4l.8-2.3 2.5 2.5c2.9 2.9 4 3 8 1 4.2-2.2 4.6-1.9 4.6 3.1v4.7l3.5-.6c5.4-.9 11.9-4.5 16.6-9.3l4.3-4.4 3.5 2.7c2 1.5 4.1 3.2 4.6 3.9.6.6 1.5 1.3 2.1 1.5 1.7.6 14.4 12 14.4 13 0 .4-3.1.5-7 .2-8.6-.7-14.1 1.1-19.4 6.4-3.1 3.2-4 3.5-5.4 2.5-8.5-6.2-15.9-5.3-24.5 3-2.2 2.1-4.3 3.8-4.7 3.8-.3 0-1.3-1.5-2.2-3.3m-101.201-86.2c-2.1-3.3-2-6.1.4-8.5 5.8-5.8 15 2 9.9 8.3-2.8 3.6-8 3.7-10.3.2m704.001-218.7c-4-9-10.9-13.5-19.2-12.5-4.5.5-4.5.4-6.4-3.7-1-2.2-2.1-4.8-2.4-5.8-.5-1.6-8.9-7.5-13.6-9.5-2.4-1-2.4-1.1-.5-1.8 1.1-.4 4.3-1.8 7-3 6-2.8 14.2-5.5 16.6-5.5 1.3 0 2.2 1.2 2.9 3.8 1.4 5.4 4.9 10.6 9.4 14.2 4.5 3.5 6.9 3.6 7.4.2.5-3.3 2.6-3.7 6.1-1.1 2.8 2 3.5 2.2 6.4 1.1 4.8-1.7 4.9-1.6 4.2 3.2-.8 5.2.2 5.9 6.5 4.5 4.8-1.1 7.2-2.2 10.3-4.9 1.2-1 3.3-2.8 4.6-3.9 1.3-1.2 2.9-2.1 3.5-2.1 1.3 0 22.6 21.9 22.6 23.3 0 .5-1.2.7-2.7.3-11.4-2.6-19.7-1.6-25.4 3.1l-3 2.6-4.8-2.7c-6.6-3.6-12.1-3.5-18.8.4-2.8 1.6-5.4 3.4-5.8 4-1.3 2-2.6.9-4.9-4.2m-511.9-26.3c-1.5-.7-3.7-2.1-4.9-2.9-1.4-1-4.4-1.6-8.4-1.6-4.9 0-6.9.5-9.8 2.5-4.5 3-5 3.1-8.6.5-5.1-3.6-12-4.5-19.6-2.7-3.7 1-6.9 1.5-7.2 1.3-.2-.3 1.8-2.9 4.5-5.8s6.7-7.5 8.9-10.3c6.8-8.7 7.1-8.9 11.1-5.8 4.6 3.6 12.1 6.9 17.3 7.8l4.2.7-.7-5.2-.7-5.3 2.8.6c1.6.3 3.7.9 4.6 1.2 1.2.5 2.7-.3 4.8-2.7 3-3.2 3.2-3.2 4.6-1.4.7 1.1 1.4 2.5 1.4 3.2 0 .6.7 1.7 1.5 2.4 1.3 1.1 2.2.6 5.6-2.9 4.1-4.4 8.9-13.1 8.9-16.3 0-3.6 2.6-3.5 18 .9 3 .9 6 1.9 6.5 2.3.6.5 2.5 1.2 4.3 1.7 3.9 1 4.1 2.5.5 3.6-5.9 1.8-9 3.8-13.9 8.9-2.9 2.9-5.5 6.3-5.9 7.6-.5 1.8-1.4 2.2-4.4 2.2-9.3 0-15.5 3.9-19.4 12.2-2.2 4.7-2.8 5-6 3.3m602.3-45.5c-3-3-3.6-6.8-1.5-10.7 2-3.7 4.8-4.8 9.9-3.9 6.2 1.2 8.2 9.5 3.5 14.5-2.6 2.8-9.1 2.9-11.9.1m-664.1-58.9c-5.5-5.6-2.9-13.7 4.7-14.8 3.3-.4 4.3-.1 6.7 2.2 3.8 3.8 3.7 8.7-.2 12.6-1.8 1.7-4 2.9-5.6 2.9s-3.8-1.2-5.6-2.9m297.7-128c-.4-.5-.9-3-1.2-5.5-.8-5.6.6-7.6 5.1-7.6 6.5 0 9.3 7.3 4.8 12.3-1.7 1.8-7.8 2.4-8.7.8" fill="#F2F1F2"/>
</svg>
