<svg class="img-fluid" id="outputsvg" xmlns="http://www.w3.org/2000/svg" style="transform: matrix(0.3, 0, 0, 0.3, 0, 0); transform-origin: 50% 50%; cursor: move; max-height: none; transition: transform 200ms ease-in-out;" width="1012" height="1005" viewBox="0 0 10120 10050"><g id="l2Wc5Qy5O4tVK0kFGmNDagH" fill="rgb(6,3,3)" style="transform: none;"><g style="transform: none;"><path id="p14rPXgu8f" d="M3705 8855 c-55 -19 -107 -35 -116 -35 -27 0 -159 -70 -159 -84 0 -9 -21 -15 -61 -20 -75 -7 -88 -22 -89 -92 0 -51 10 -80 71 -210 16 -34 29 -65 29 -68 0 -24 72 -156 85 -156 11 0 15 -11 15 -42 0 -23 4 -55 9 -72 33 -112 45 -146 51 -146 4 0 10 -10 13 -22 8 -36 41 -115 90 -219 63 -131 65 -142 30 -159 -15 -8 -50 -29 -77 -47 -26 -18 -52 -33 -57 -33 -5 0 -9 -4 -9 -10 0 -5 -11 -26 -25 -46 -29 -43 -32 -89 -8 -139 16 -33 19 -35 68 -35 39 0 56 5 70 20 10 11 33 23 52 26 19 4 37 14 40 23 3 9 11 30 19 48 8 17 14 39 15 50 0 10 3 13 6 6 2 -7 12 -13 21 -13 10 0 35 -14 56 -30 32 -25 49 -30 92 -30 l53 0 32 66 c25 54 30 75 26 109 -5 36 -3 46 19 66 l26 24 35 -39 c47 -52 111 -61 180 -26 44 22 45 23 41 66 -3 43 -2 44 25 44 16 0 41 7 56 16 25 15 30 15 59 0 35 -18 88 -21 97 -5 9 13 54 -27 66 -58 13 -35 81 -32 138 6 39 26 50 29 97 24 61 -7 79 3 88 47 l6 30 140 0 140 0 0 -28 c0 -20 12 -41 35 -65 32 -33 42 -37 84 -37 29 0 69 9 97 22 27 12 76 25 109 28 33 4 68 10 78 14 11 6 17 4 17 -5 0 -8 22 -38 49 -67 65 -70 94 -71 179 -4 52 40 61 52 62 79 1 72 -45 113 -162 144 -103 28 -129 36 -163 47 -68 23 -347 62 -447 62 -39 0 -70 -5 -74 -11 -5 -8 -36 -10 -103 -6 -123 8 -459 -10 -533 -29 -87 -21 -101 -19 -117 19 -7 17 -28 64 -46 102 -18 39 -36 86 -40 105 -4 19 -20 59 -37 88 -16 30 -42 93 -57 140 -20 63 -34 90 -50 97 -15 7 -21 19 -21 42 0 32 -32 130 -55 168 -7 11 -16 33 -20 50 -8 37 -63 154 -83 178 -8 9 -28 17 -44 17 -23 0 -28 4 -28 25 0 23 -4 25 -42 25 -24 -1 -88 -16 -143 -35z"></path><path id="p1EtqtinWn" d="M3334 7278 c-147 -123 -184 -162 -184 -195 0 -31 2 -33 34 -33 19 0 38 -4 41 -10 9 -15 148 -12 169 3 14 10 20 33 25 83 4 38 12 79 19 91 7 12 12 40 12 62 0 40 -1 41 -33 41 -23 0 -46 -12 -83 -42z"></path></g></g><g id="lkJBfOO4ghAKRItDjf0LPs" fill="rgb(26,15,6)" style="transform: none;"><g style="transform: none;"><path id="pRVjSlQ5m" d="M5285 7761 c6 -27 4 -29 -37 -35 -24 -3 -87 -6 -141 -5 -95 1 -98 2 -82 19 16 18 16 18 -7 13 -48 -10 -68 -26 -74 -59 -8 -45 -28 -60 -58 -46 -31 14 -82 2 -134 -33 -41 -27 -72 -28 -72 -2 0 7 -11 24 -25 37 -14 13 -25 34 -25 47 0 30 -4 29 -49 -6 l-36 -29 -35 19 c-46 24 -76 24 -107 -1 -29 -23 -54 -25 -71 -8 -9 9 -12 5 -12 -20 0 -18 -5 -32 -10 -32 -7 0 -7 -6 0 -19 14 -27 15 -27 -32 -51 -54 -28 -76 -21 -138 44 l-51 54 -42 -45 c-31 -34 -47 -44 -64 -40 -31 6 -30 -14 5 -51 50 -55 55 -62 38 -62 -17 0 -55 -66 -67 -115 -5 -24 -7 -25 -8 -7 -1 14 -7 22 -19 22 -10 0 -36 13 -58 30 -21 16 -47 30 -56 30 -10 0 -18 4 -18 9 0 12 -44 22 -64 15 -8 -3 -12 -12 -10 -19 3 -8 -1 -29 -9 -47 -8 -18 -17 -40 -20 -49 -3 -9 -21 -19 -40 -23 -19 -3 -42 -15 -52 -26 -28 -31 -59 -25 -78 15 -15 32 -16 38 -2 63 27 47 40 66 55 80 13 11 8 13 -33 9 -94 -9 -127 -72 -127 -242 0 -78 -2 -85 -20 -85 -11 0 -20 -7 -20 -15 0 -37 -104 -49 -135 -15 -14 15 -22 17 -37 9 -31 -16 -32 -4 -2 20 33 26 13 28 -42 5 -46 -19 -93 -70 -94 -101 0 -17 -6 -23 -21 -23 -19 0 -129 -104 -129 -121 0 -4 -7 -12 -15 -19 -8 -6 -32 -45 -54 -85 -23 -41 -54 -93 -70 -117 -26 -39 -58 -97 -139 -250 -17 -32 -33 -72 -37 -90 -6 -26 -26 -77 -74 -193 -48 -113 -61 -154 -76 -231 -26 -144 -36 -197 -45 -239 -5 -22 -9 -116 -10 -208 l0 -168 103 7 c168 11 277 57 292 124 3 16 13 34 21 41 10 8 14 36 14 109 0 67 5 107 15 126 8 16 15 38 15 49 1 11 7 31 15 45 16 29 20 116 5 125 -19 11 -10 25 15 25 33 0 73 21 105 55 21 22 25 35 23 83 0 31 -1 70 -2 87 0 31 33 88 81 136 16 15 28 30 28 34 0 3 12 17 26 30 19 18 27 37 31 79 7 67 25 86 87 93 39 5 46 9 55 36 17 47 14 136 -4 144 -12 4 -8 11 17 28 39 26 121 65 140 65 27 1 58 38 58 69 0 31 21 43 35 21 8 -14 191 -13 218 1 43 22 67 52 67 83 0 31 54 121 79 131 7 3 20 0 27 -6 8 -7 29 -9 51 -5 21 3 79 10 130 15 102 10 159 35 169 77 4 15 13 24 26 24 11 0 34 11 52 25 25 19 45 25 82 25 38 0 59 7 94 31 24 16 47 35 51 41 5 8 15 8 37 -1 17 -7 51 -11 76 -10 36 2 51 -2 69 -19 27 -25 82 -30 90 -8 3 8 18 22 32 32 24 15 27 15 44 0 9 -9 27 -16 38 -16 12 0 32 -12 45 -27 36 -41 62 -53 120 -53 31 -1 61 -7 72 -15 21 -16 90 -20 145 -9 30 6 31 8 31 60 0 47 -11 87 -41 147 -5 9 -5 17 -1 17 17 0 72 -31 72 -41 0 -5 6 -9 13 -9 20 0 127 -102 145 -140 14 -29 23 -35 55 -38 27 -2 37 1 37 12 0 8 14 26 32 41 29 25 32 25 42 8 5 -10 9 -35 7 -55 -2 -26 2 -38 11 -38 12 0 38 -11 131 -56 43 -21 74 -17 113 13 35 26 36 26 67 8 53 -30 187 -168 187 -192 0 -15 12 -27 43 -42 24 -12 49 -21 56 -21 6 0 29 -8 49 -19 20 -10 54 -27 75 -36 20 -10 37 -22 37 -27 0 -21 42 -48 75 -48 19 0 35 -4 35 -9 0 -5 24 -21 53 -36 95 -47 116 -66 117 -103 0 -24 11 -44 41 -77 23 -25 49 -45 58 -45 18 -1 41 -29 62 -78 8 -17 17 -32 21 -32 5 0 8 -12 8 -26 0 -14 9 -37 20 -51 11 -14 20 -34 20 -44 0 -11 4 -19 10 -19 5 0 16 -21 23 -47 11 -37 19 -49 36 -51 13 -2 41 -22 63 -44 l40 -40 -11 -56 c-16 -82 -14 -97 24 -182 20 -45 35 -94 35 -115 0 -29 10 -51 42 -92 39 -51 41 -58 44 -131 1 -42 5 -101 9 -130 8 -64 8 -64 170 -60 l119 3 9 45 c10 53 2 326 -12 459 -7 57 -17 101 -26 111 -8 9 -15 21 -15 27 0 6 -11 27 -25 47 -14 21 -30 59 -36 84 -83 370 -327 781 -656 1106 -128 127 -139 135 -312 234 -98 56 -183 102 -188 102 -5 0 -19 9 -30 20 -35 32 -149 106 -211 135 -31 16 -65 32 -74 37 -10 4 -27 8 -37 8 -11 0 -23 5 -26 10 -3 6 -17 10 -30 10 -13 0 -27 5 -30 10 -7 11 -105 14 -105 3 0 -5 13 -17 29 -28 25 -16 58 -63 49 -70 -2 -1 -29 -22 -61 -48 -32 -25 -64 -44 -71 -41 -18 7 -96 99 -96 113 0 20 -51 25 -80 7 -32 -18 -85 -21 -95 -5 -5 7 -12 6 -23 -4 -23 -19 -110 -57 -133 -57 -10 0 -34 16 -53 36 -39 40 -38 49 10 107 36 43 31 57 -17 57 -40 0 -40 -1 -34 -29z m-726 -237 c10 -9 -35 -3 -49 6 -11 8 -7 9 15 4 17 -4 32 -8 34 -10z m-598 -309 c-6 -35 -9 -41 -10 -20 -1 30 9 78 15 73 2 -2 -1 -26 -5 -53z"></path></g></g><g id="l2if7c7P2JA5BBC6AXmCj5" fill="rgb(43,28,10)" style="transform: none;"><g style="transform: none;"><path id="pCaoZAxXb" d="M5390 7389 c0 -17 9 -44 21 -60 24 -34 18 -69 -13 -69 -13 0 -18 -5 -15 -14 5 -11 -5 -17 -38 -21 -36 -6 -51 -3 -88 19 -39 23 -48 25 -71 15 -31 -15 -68 0 -104 44 -13 15 -33 27 -44 27 -10 0 -34 11 -52 25 -18 14 -37 25 -43 25 -5 0 -28 -17 -51 -38 l-42 -38 -32 33 c-35 36 -50 40 -67 19 -21 -25 -60 -25 -97 0 -42 29 -64 31 -64 6 0 -30 -76 -73 -138 -77 -38 -3 -64 -12 -86 -29 l-33 -25 -26 27 c-32 31 -40 27 -27 -17 12 -42 5 -56 -37 -82 -25 -16 -59 -23 -127 -28 -51 -4 -97 -11 -104 -15 -7 -4 -15 0 -19 11 -9 24 -23 33 -52 33 -16 0 -21 -4 -18 -14 4 -9 -1 -17 -11 -21 -27 -9 -82 -98 -82 -131 0 -31 -25 -62 -65 -81 -26 -13 -145 -15 -160 -3 -6 5 -30 12 -53 16 l-42 7 0 -38 c0 -39 -29 -74 -62 -75 -28 0 -102 -70 -111 -104 -5 -17 -17 -62 -28 -99 -19 -64 -22 -68 -47 -66 -33 2 -73 -13 -92 -36 -8 -9 -15 -39 -16 -66 -1 -39 -7 -55 -28 -74 -14 -13 -26 -29 -26 -34 0 -6 -7 -14 -15 -18 -8 -5 -34 -34 -57 -66 -46 -61 -47 -64 -37 -205 2 -42 -72 -102 -126 -102 -22 0 -25 -4 -25 -35 0 -19 5 -44 12 -55 10 -15 9 -26 -5 -55 -9 -20 -17 -43 -17 -53 0 -9 -8 -30 -17 -47 -13 -23 -17 -53 -16 -125 1 -67 -2 -99 -12 -110 -7 -8 -17 -27 -20 -43 -4 -15 -20 -38 -36 -51 -38 -32 -148 -66 -206 -64 -26 1 -58 -2 -70 -6 l-23 -7 0 120 c0 111 -2 121 -19 121 -15 0 -19 -11 -24 -67 -11 -112 -8 -188 7 -209 14 -18 27 -19 348 -15 213 2 338 7 346 14 9 7 13 34 12 81 -3 153 24 304 82 466 106 300 133 356 204 432 24 26 44 56 44 66 0 11 7 25 16 33 8 7 24 29 34 48 18 36 232 251 325 327 28 22 79 60 115 84 87 58 120 89 120 116 0 16 7 23 28 27 64 12 139 35 171 51 19 10 61 27 95 38 33 11 72 28 86 38 14 9 53 22 88 29 34 7 82 19 105 28 24 9 95 19 167 24 69 4 159 11 200 14 53 5 98 2 152 -9 102 -21 162 -20 226 4 44 17 52 18 52 5 0 -8 5 -15 12 -15 6 0 40 -14 75 -30 35 -17 107 -41 160 -55 163 -41 356 -128 428 -192 21 -19 73 -59 116 -89 43 -30 88 -69 101 -87 12 -18 38 -45 58 -61 90 -75 214 -217 296 -339 100 -149 204 -325 204 -344 0 -8 4 -21 9 -31 6 -9 22 -48 36 -87 14 -38 35 -94 46 -123 27 -68 38 -145 46 -308 l5 -131 106 -7 c58 -3 210 -6 339 -6 265 0 250 -5 238 85 -8 66 -31 75 -40 18 -11 -66 -7 -63 -112 -63 -54 0 -103 4 -109 8 -20 12 -35 166 -22 213 7 23 0 37 -40 89 -37 47 -47 68 -44 89 2 17 -11 61 -38 119 -22 51 -38 97 -34 104 4 6 8 22 10 35 1 12 5 40 9 61 6 36 3 42 -41 88 -27 27 -57 49 -68 49 -14 0 -22 12 -33 48 -7 26 -18 47 -23 47 -6 0 -10 8 -10 19 0 10 -9 30 -20 44 -11 14 -20 37 -20 51 0 14 -3 26 -8 26 -4 0 -13 15 -21 33 -21 48 -44 76 -62 77 -9 0 -35 20 -58 45 -30 33 -41 53 -41 77 0 35 -9 43 -113 100 -27 15 -55 35 -61 44 -9 12 -20 15 -39 10 -20 -5 -32 -1 -47 14 -11 11 -20 24 -20 28 0 5 -17 17 -37 27 -21 9 -55 26 -75 36 -20 11 -43 19 -49 19 -7 0 -32 9 -56 21 -31 15 -43 27 -43 42 0 28 -137 164 -202 202 l-48 27 -47 -34 c-53 -37 -40 -38 -143 11 -25 11 -51 21 -57 21 -9 0 -10 7 -3 26 14 36 14 36 -24 77 l-35 38 -45 -42 c-25 -24 -46 -50 -46 -58 -1 -20 -40 24 -40 44 0 16 -120 125 -137 125 -7 0 -13 5 -13 10 0 6 -20 10 -45 10 -44 0 -45 -1 -45 -31z"></path><path id="p3JHnlhia" d="M4443 2653 c-74 -59 -83 -71 -83 -100 0 -31 2 -33 33 -33 17 0 110 25 205 56 l172 56 0 33 0 32 -107 11 c-60 7 -115 12 -123 12 -8 0 -52 -30 -97 -67z"></path></g></g><g id="l14uFD9XOvS2GzP9pY0qg7T" fill="rgb(40,26,29)" style="transform: none;"><g style="transform: none;"><path id="p1LmoVLkL" d="M3650 8600 c0 -5 6 -10 13 -10 10 0 91 -148 147 -270 4 -8 21 -16 37 -18 46 -5 49 21 9 66 -18 20 -45 62 -59 92 -38 80 -147 184 -147 140z"></path><path id="pUjez3PE9" d="M3340 8447 c0 -66 90 -287 116 -287 9 0 14 -12 14 -31 0 -18 5 -49 12 -70 9 -31 16 -39 34 -39 21 0 22 3 17 38 -3 20 -10 45 -14 54 -14 27 -10 52 11 71 11 9 23 30 26 45 8 41 37 74 57 66 9 -3 17 -14 17 -24 0 -11 5 -22 10 -25 6 -3 10 -15 10 -26 0 -10 5 -19 10 -19 14 0 13 73 -2 107 -42 98 -95 83 -144 -39 -10 -27 -22 -48 -27 -48 -7 0 -77 141 -77 156 0 15 -53 114 -61 114 -5 0 -9 -19 -9 -43z"></path><path id="p67kQP8kf" d="M4069 8362 c-10 -11 -20 -28 -23 -39 -3 -10 -28 -54 -56 -98 -67 -106 -74 -131 -59 -202 10 -52 13 -55 22 -35 12 27 16 27 78 5 49 -18 53 -23 84 -103 9 -25 21 -52 26 -60 5 -8 13 -24 18 -35 5 -11 38 -53 75 -94 36 -40 66 -77 66 -81 0 -5 17 -26 38 -48 42 -46 139 -82 217 -82 l46 0 -6 -68 c-8 -76 -6 -80 79 -126 52 -29 76 -28 76 2 0 24 -14 36 -63 53 -51 18 -56 26 -50 87 5 47 8 53 34 60 45 11 21 30 -70 54 -70 18 -92 19 -139 11 -55 -10 -56 -10 -84 21 -15 17 -28 38 -28 48 0 22 -81 137 -119 169 -16 13 -38 47 -49 75 -32 80 -63 119 -113 143 -26 11 -54 21 -63 21 -9 0 -19 7 -22 15 -5 13 61 205 93 268 20 39 14 65 -8 39z"></path><path id="pIM48HcNK" d="M4998 7915 c-4 -4 -67 -8 -141 -9 -108 -3 -149 -8 -210 -27 -58 -18 -77 -28 -77 -41 0 -21 47 -23 230 -9 63 5 153 6 199 3 l84 -7 -66 -50 c-36 -27 -68 -58 -70 -67 -3 -11 6 -27 25 -43 24 -21 40 -25 86 -24 l57 1 -53 13 c-30 7 -61 20 -70 29 -16 16 -15 18 8 37 14 11 48 35 75 53 28 18 59 43 69 55 11 11 25 21 33 21 7 0 13 7 13 15 0 8 -5 15 -12 15 -6 0 -19 7 -28 15 -18 16 -140 32 -152 20z"></path><path id="paIArTwbv" d="M3807 7823 c-4 -3 -7 -41 -7 -84 0 -72 2 -80 33 -120 35 -46 41 -50 109 -78 26 -11 54 -30 62 -43 14 -21 13 -28 -15 -85 -17 -36 -37 -63 -45 -63 -26 0 -94 -40 -94 -55 0 -16 8 -18 52 -15 26 1 27 1 17 -35 -11 -40 -4 -92 16 -115 7 -8 16 -39 20 -69 4 -30 18 -69 31 -89 13 -19 24 -38 24 -42 0 -5 -16 -22 -35 -39 -19 -17 -35 -33 -35 -36 0 -16 77 -2 104 18 17 13 38 27 46 30 69 32 95 54 98 80 3 24 0 28 -15 23 -10 -3 -36 -9 -58 -14 -22 -5 -46 -11 -54 -13 -8 -2 -24 15 -39 41 -24 42 -26 55 -27 180 -1 125 1 138 23 178 l25 44 41 -41 c38 -37 44 -40 61 -27 17 12 18 17 6 39 -23 43 -126 139 -201 187 -58 37 -80 64 -80 99 0 30 -40 151 -50 151 -4 0 -10 -3 -13 -7z"></path><path id="pEeXNibDr" d="M5600 7810 c0 -12 34 -31 75 -41 115 -30 224 -64 257 -80 10 -5 27 -9 37 -9 11 0 23 -4 26 -10 3 -5 15 -10 26 -10 10 0 27 -4 37 -8 9 -5 43 -21 74 -37 62 -29 176 -103 211 -135 11 -11 25 -20 30 -20 5 0 75 -38 156 -84 210 -120 191 -112 191 -76 0 26 -7 35 -46 58 -25 15 -74 48 -108 75 -33 26 -83 64 -111 85 -27 22 -68 45 -90 53 -22 8 -80 35 -130 60 -49 26 -119 56 -155 68 -36 12 -73 27 -84 32 -85 48 -396 110 -396 79z"></path><path id="paZHTT8Sw" d="M5320 7503 c0 -37 10 -79 30 -128 34 -84 41 -122 28 -156 -3 -7 -31 -23 -62 -33 -59 -20 -71 -39 -33 -51 40 -12 190 -36 260 -42 57 -4 67 -3 67 11 0 9 -4 16 -10 16 -5 0 -39 14 -73 30 -35 17 -70 30 -77 30 -9 0 -10 9 -5 33 18 90 17 116 -6 148 l-23 32 41 -6 c23 -4 50 -10 60 -14 16 -6 16 -5 4 10 -7 9 -19 17 -26 17 -8 0 -15 5 -17 10 -2 6 -28 23 -58 38 -30 15 -60 38 -66 50 -23 47 -34 49 -34 5z"></path><path id="p12YqA5Bff" d="M3388 7342 c-23 -13 -28 -24 -28 -55 l0 -38 30 21 c33 23 38 14 16 -28 -7 -15 -16 -57 -18 -94 -5 -61 -3 -72 20 -108 45 -68 52 -55 46 88 -3 88 0 143 9 180 l14 52 -31 0 c-17 0 -43 -8 -58 -18z"></path><path id="pmr1s1hil" d="M4592 7160 c-30 -11 -81 -25 -115 -31 -34 -7 -74 -20 -89 -31 -14 -10 -31 -18 -37 -18 -6 0 -11 -7 -11 -15 0 -22 58 -19 120 5 28 11 72 20 99 20 27 0 75 8 107 19 33 10 89 22 127 25 57 7 67 10 67 27 0 18 -8 19 -107 18 -79 0 -122 -6 -161 -19z"></path><path id="pTTblkaBA" d="M3047 7012 c-20 -22 -24 -83 -5 -64 24 24 31 11 26 -55 -7 -82 -20 -112 -61 -138 -46 -29 -110 -124 -96 -142 17 -20 24 -17 70 27 34 32 46 38 70 33 28 -5 29 -4 29 31 0 20 9 62 20 93 22 64 25 124 9 172 -8 24 -8 35 1 46 11 13 8 15 -17 15 -17 0 -37 -8 -46 -18z"></path><path id="pXnA9vANI" d="M3375 6789 c-33 -18 -80 -42 -105 -55 -58 -29 -125 -97 -117 -118 9 -23 50 -19 75 7 53 57 82 60 82 8 0 -24 3 -28 19 -24 14 3 23 20 32 56 9 39 21 60 49 84 38 33 58 73 37 73 -7 0 -39 -14 -72 -31z"></path><path id="ptPRWeJ4X" d="M2803 6718 c-66 -100 -163 -255 -163 -261 0 -2 -23 -44 -51 -93 -29 -49 -58 -116 -66 -149 -7 -33 -19 -80 -24 -105 -6 -25 -13 -74 -16 -109 -6 -81 10 -79 45 5 13 32 28 68 33 79 47 113 68 167 74 193 4 18 20 58 37 90 81 153 113 211 139 250 16 24 48 77 70 118 l41 74 -29 0 c-25 0 -36 -12 -90 -92z"></path><path id="p515aBDTJ" d="M7357 6478 c95 -196 147 -332 163 -423 9 -56 18 -77 61 -150 16 -27 32 -58 35 -67 8 -22 30 -23 38 -2 12 31 5 80 -23 159 -16 44 -36 103 -45 130 -10 28 -57 129 -106 225 -83 164 -91 175 -119 178 l-30 3 26 -53z"></path></g></g><g id="l6EWMBAU4qN4jmdMA18DMm2" fill="rgb(5,92,33)" style="transform: none;"><g style="transform: none;"><path id="pvdSSwkVR" d="M5460 2608 c1 -41 29 -76 68 -84 16 -3 51 -23 78 -45 27 -21 70 -53 96 -71 26 -18 48 -35 48 -38 0 -3 -13 -14 -30 -23 -16 -10 -30 -23 -30 -28 0 -6 -16 -17 -35 -25 -29 -12 -35 -20 -35 -43 0 -20 -13 -43 -42 -76 l-43 -46 -34 25 c-47 35 -101 35 -147 0 l-34 -27 -42 29 c-23 16 -54 41 -69 57 -20 20 -37 27 -64 27 -32 0 -50 -11 -131 -81 -88 -76 -94 -84 -94 -119 0 -43 49 -138 109 -210 20 -25 53 -67 73 -95 50 -68 137 -151 233 -221 118 -86 217 -130 373 -164 50 -11 131 -29 180 -39 200 -44 502 -31 516 22 12 44 5 165 -15 272 -11 61 -23 126 -26 145 -17 105 -112 316 -169 376 -20 21 -55 62 -76 89 -95 120 -224 240 -319 297 -116 69 -255 128 -303 128 -34 0 -36 -2 -36 -32z"></path></g></g><g id="lFZULoyqTWEUoSdTRZaVAd" fill="rgb(45,33,61)" style="transform: none;"><g style="transform: none;"><path id="pBwHeLUol" d="M4680 10039 c-315 -25 -685 -90 -963 -169 -204 -58 -455 -143 -586 -200 -52 -22 -101 -40 -108 -40 -18 0 -329 -156 -469 -236 -133 -75 -425 -260 -439 -278 -5 -6 -55 -46 -110 -88 -55 -41 -144 -112 -198 -157 -53 -44 -100 -81 -103 -81 -14 0 -253 -232 -343 -332 -116 -130 -129 -145 -271 -323 -61 -77 -121 -151 -132 -165 -44 -51 -206 -299 -284 -435 -91 -157 -254 -474 -254 -494 0 -7 -14 -44 -30 -81 -131 -299 -261 -739 -320 -1088 -61 -363 -86 -853 -61 -1190 42 -540 155 -1031 350 -1517 29 -71 59 -148 67 -170 55 -162 389 -737 522 -901 77 -94 242 -301 297 -372 63 -82 439 -462 457 -462 6 0 38 -24 72 -53 34 -30 120 -98 191 -152 72 -54 135 -104 140 -110 18 -21 324 -219 445 -288 139 -78 456 -237 474 -237 8 0 44 -13 82 -30 484 -208 1017 -335 1608 -381 214 -17 693 -6 911 20 276 34 563 86 715 131 338 99 428 130 675 229 39 16 86 33 105 39 138 45 810 433 899 519 7 8 50 42 95 76 44 34 125 98 180 142 54 44 109 87 122 96 46 30 274 251 362 349 109 123 270 319 335 408 27 37 52 69 56 72 16 11 163 233 248 375 87 144 283 520 283 542 0 5 34 94 75 197 162 406 269 839 322 1308 22 194 25 787 5 978 -54 511 -165 962 -351 1421 -28 69 -51 130 -51 134 0 20 -200 402 -283 539 -90 152 -214 341 -239 367 -8 8 -59 73 -115 144 -55 72 -123 155 -150 185 -28 30 -52 60 -54 67 -8 22 -211 233 -318 331 -125 112 -317 269 -440 359 -46 35 -87 67 -90 71 -40 57 -750 467 -891 514 -19 6 -118 44 -220 84 -470 182 -908 284 -1425 329 -183 16 -615 18 -795 4z m600 -1074 c0 -9 10 -20 23 -25 22 -9 22 -9 0 -9 -12 -1 -23 -6 -25 -12 -2 -7 -13 -5 -31 4 -26 13 -26 15 -7 20 11 3 20 12 20 21 0 9 5 16 10 16 6 0 10 -7 10 -15z m-2775 -40 c30 -29 31 -45 5 -73 -27 -29 -46 -28 -75 4 -23 24 -23 28 -10 54 13 26 27 37 48 39 4 1 19 -10 32 -24z m1324 -151 c-39 -110 -34 -134 11 -55 44 79 64 98 85 81 18 -15 80 -143 91 -186 4 -16 17 -49 30 -74 42 -85 50 -126 31 -166 -26 -54 -22 -75 7 -39 22 26 26 28 39 15 7 -8 24 -49 37 -90 13 -41 37 -99 53 -128 16 -29 35 -75 42 -102 17 -65 67 -169 82 -169 6 -1 21 15 33 34 l22 35 28 -20 c39 -27 94 -26 146 5 38 22 48 24 86 16 69 -15 258 -13 282 2 12 8 45 17 75 20 30 4 58 10 63 15 5 5 31 7 57 4 26 -2 57 1 68 6 34 18 93 -6 100 -40 9 -46 24 -52 121 -43 48 4 101 7 117 6 17 0 66 -3 110 -5 l80 -3 55 -53 c63 -61 119 -76 164 -46 14 9 36 16 49 16 12 0 28 5 35 12 8 8 15 8 26 -2 9 -7 31 -10 52 -8 21 2 62 -4 92 -14 30 -10 66 -18 79 -18 12 0 23 -4 23 -9 0 -5 16 -16 36 -26 34 -16 35 -17 20 -40 -21 -32 -20 -88 2 -108 9 -8 47 -18 84 -22 98 -11 139 -27 159 -65 10 -17 35 -41 56 -51 21 -11 50 -33 65 -50 23 -23 36 -29 71 -29 50 0 69 -16 112 -97 15 -29 38 -59 50 -67 12 -8 43 -36 69 -62 l47 -47 61 6 c86 8 95 0 90 -78 l-4 -63 43 -31 c24 -17 52 -38 61 -47 15 -14 33 -16 120 -11 109 6 128 15 128 64 0 15 6 23 18 23 9 0 28 18 42 40 29 48 66 55 76 15 6 -23 10 -25 71 -25 57 0 68 3 92 28 15 15 32 35 38 46 10 17 14 15 53 -24 l42 -42 97 3 c95 4 98 3 132 -25 47 -40 90 -56 151 -56 44 -1 50 -3 37 -13 -9 -7 -29 -22 -45 -35 -16 -12 -51 -38 -77 -56 l-48 -34 -45 48 c-56 60 -121 92 -178 88 -39 -3 -41 -4 -44 -39 -3 -34 -6 -37 -40 -43 -22 -3 -42 -14 -50 -27 -12 -19 -15 -20 -31 -5 -22 20 -80 21 -107 2 -11 -8 -40 -16 -65 -18 -39 -3 -46 -7 -58 -35 -8 -18 -24 -34 -38 -37 -20 -6 -23 -13 -23 -50 0 -41 -3 -45 -40 -65 -22 -12 -46 -21 -52 -21 -27 0 -48 -34 -48 -75 0 -40 2 -44 39 -58 22 -9 42 -21 46 -26 3 -6 21 -18 40 -27 34 -16 35 -18 35 -75 0 -32 4 -60 9 -63 5 -3 12 -18 16 -33 10 -43 34 -63 75 -63 20 0 41 5 48 12 9 9 12 7 12 -10 0 -12 16 -42 35 -68 40 -53 42 -58 16 -76 -49 -35 -65 -124 -34 -194 10 -24 16 -60 14 -92 -1 -33 3 -60 11 -69 8 -10 12 -37 10 -72 -3 -53 -1 -58 37 -99 l41 -42 -12 -63 c-17 -98 -16 -182 4 -203 10 -12 18 -45 22 -84 10 -112 7 -153 -14 -182 -11 -15 -20 -38 -20 -51 0 -14 -7 -30 -15 -37 -21 -17 -19 -86 3 -108 9 -9 28 -32 40 -50 13 -17 30 -32 38 -32 8 0 14 -5 14 -11 0 -13 -53 -91 -73 -108 -10 -8 -18 -41 -22 -99 -7 -76 -11 -91 -36 -120 -16 -18 -29 -36 -29 -41 0 -5 -14 -26 -31 -47 -28 -35 -31 -44 -26 -91 4 -42 2 -54 -14 -69 -23 -21 -26 -82 -4 -110 16 -21 20 -74 5 -74 -5 0 -28 -18 -52 -40 -24 -22 -51 -40 -61 -40 -10 0 -25 -6 -33 -14 -17 -18 -19 -76 -2 -76 7 0 24 -12 40 -27 l27 -26 -24 -29 c-14 -16 -25 -38 -25 -49 0 -10 -4 -19 -10 -19 -5 0 -10 -12 -10 -27 0 -41 -58 -85 -99 -77 -44 9 -81 -3 -81 -26 0 -10 -5 -22 -10 -25 -21 -13 -50 -85 -50 -124 0 -34 -3 -38 -20 -34 -11 3 -39 2 -63 -1 -41 -6 -45 -10 -56 -46 -11 -38 -14 -40 -51 -40 -66 0 -88 -16 -95 -71 -4 -26 -4 -57 0 -68 3 -11 0 -29 -6 -39 -11 -17 -20 -19 -64 -15 -39 4 -62 0 -98 -16 -44 -20 -47 -24 -53 -70 -6 -44 -10 -51 -38 -61 -17 -6 -39 -16 -48 -21 -10 -5 -25 -9 -33 -9 -28 0 -55 -38 -55 -78 0 -21 5 -43 11 -49 8 -8 6 -18 -6 -36 -22 -35 -40 -39 -61 -16 -14 15 -31 19 -86 19 -64 0 -68 -1 -68 -22 -1 -13 -9 -39 -19 -57 -18 -34 -21 -35 -70 -32 -46 2 -54 -1 -88 -33 -28 -26 -41 -32 -50 -24 -7 6 -28 7 -50 4 -21 -4 -62 -10 -90 -13 -53 -5 -53 -5 -53 -39 0 -19 3 -34 8 -34 4 0 15 -19 25 -42 19 -42 13 -57 -21 -58 -12 0 74 -111 142 -184 57 -60 152 -272 169 -376 3 -19 15 -84 26 -145 21 -112 25 -173 15 -212 -14 -50 -300 -62 -474 -20 -36 9 -108 25 -160 37 -158 34 -256 77 -375 164 -96 70 -183 153 -233 221 -20 28 -53 70 -73 95 -21 25 -54 74 -74 110 -29 52 -35 68 -26 82 10 16 7 18 -21 18 -24 0 -51 -14 -95 -48 -144 -110 -194 -142 -296 -190 -128 -61 -211 -87 -361 -113 -163 -28 -341 -23 -432 11 l-22 9 18 48 c10 26 32 75 49 108 17 33 31 68 31 78 0 23 24 70 45 87 9 8 25 30 35 49 10 20 48 66 84 103 80 82 85 109 31 161 -19 19 -35 39 -35 44 0 16 -26 23 -81 23 -47 0 -49 1 -49 28 0 36 -25 59 -72 66 -21 3 -54 8 -73 11 -34 6 -35 8 -35 48 0 41 -2 44 -47 66 -55 27 -195 42 -207 22 -5 -7 -20 0 -46 20 -34 28 -45 31 -85 27 -42 -5 -45 -4 -45 18 0 12 -4 25 -9 28 -5 3 -19 25 -31 48 -12 24 -28 47 -36 51 -8 4 -14 16 -14 25 0 24 -89 108 -122 116 -14 3 -41 24 -58 46 -17 22 -38 40 -46 40 -9 0 -37 23 -65 52 -43 45 -49 56 -49 94 0 39 -3 44 -29 51 -15 4 -45 22 -65 40 -33 30 -36 37 -36 86 0 41 -5 58 -20 72 -11 10 -20 30 -20 44 0 14 -9 37 -20 51 -11 14 -20 37 -20 51 0 15 -6 32 -14 39 -8 6 -16 28 -18 48 -2 27 -9 40 -26 47 -13 6 -25 20 -28 32 -3 12 -12 27 -20 34 -8 6 -14 27 -14 45 0 32 -2 34 -34 34 -30 0 -36 4 -46 34 -10 31 -6 76 9 101 11 19 30 100 31 133 0 31 -1 32 -43 32 -38 0 -47 5 -80 44 -20 25 -37 50 -37 57 0 7 -12 25 -27 41 -22 23 -26 36 -25 75 2 54 -10 104 -34 141 -9 13 -17 46 -18 73 -1 32 -9 58 -24 78 -18 24 -20 35 -12 50 12 23 13 83 2 96 -4 6 -13 26 -20 46 -10 29 -10 41 1 60 26 50 42 69 56 69 8 0 23 7 33 17 26 23 25 116 -2 166 -11 20 -20 50 -20 65 0 20 -12 39 -42 67 -35 34 -39 40 -22 43 10 2 29 15 41 29 12 15 37 31 55 37 30 10 33 15 36 54 2 23 8 42 14 42 7 0 8 24 3 73 -5 53 -13 80 -31 103 -21 29 -23 39 -17 98 3 40 2 76 -5 89 -5 12 -13 30 -16 40 -4 13 -17 17 -60 17 -48 0 -58 -4 -87 -33 l-32 -33 -43 43 c-51 52 -140 96 -186 91 -29 -3 -33 -7 -36 -35 l-3 -33 -59 0 c-53 0 -59 2 -62 23 -3 19 -10 22 -49 25 -41 3 -50 -1 -93 -39 -30 -27 -57 -62 -72 -98 -14 -30 -26 -57 -29 -59 -4 -4 -50 16 -176 76 l-57 26 63 16 c72 18 123 53 149 101 18 34 18 34 94 35 92 2 142 21 173 66 12 18 24 35 25 36 1 2 24 -11 51 -29 40 -28 59 -34 113 -37 43 -3 78 1 100 10 33 14 36 13 60 -9 22 -21 34 -23 123 -23 91 0 102 2 129 25 16 14 37 25 45 25 21 0 53 29 53 48 0 8 13 31 29 51 26 33 32 51 47 138 3 17 19 44 35 59 16 15 29 36 29 46 0 14 8 18 34 18 29 0 39 7 74 54 30 39 49 55 73 60 51 10 59 22 59 90 0 43 6 70 20 94 22 36 26 98 9 136 -9 20 -8 29 7 50 27 36 76 49 182 49 88 -1 92 0 92 21 0 12 20 44 45 73 49 56 59 101 30 139 -22 29 -18 42 18 60 21 12 52 16 93 15 58 -2 63 0 98 33 24 24 46 36 65 36 16 0 34 7 41 15 10 12 25 14 71 9 l59 -7 0 37 c0 21 -5 46 -10 57 -8 14 -6 25 6 44 l17 26 39 -38 c22 -21 44 -48 49 -60 10 -28 26 -29 59 -4 24 19 24 21 12 66 -7 26 -33 90 -58 143 -50 105 -83 184 -91 220 -3 12 -9 22 -14 22 -5 0 -9 4 -9 10 0 5 -12 35 -27 67 -14 32 -28 79 -31 106 -3 28 -9 47 -17 47 -14 0 -79 137 -102 214 -8 28 -28 85 -44 127 -32 82 -35 106 -16 130 21 27 65 29 123 3 29 -13 81 -30 116 -38 35 -8 77 -22 93 -30 39 -20 54 -20 33 0 -8 8 -64 39 -124 68 l-109 53 74 36 c41 20 82 37 90 37 9 0 61 16 116 35 55 19 105 34 112 35 7 0 1 -31 -18 -86z m3121 -115 c0 -10 8 -23 18 -28 15 -9 15 -10 -5 -11 -18 0 -23 -6 -23 -24 0 -14 -4 -27 -9 -30 -10 -7 -21 17 -21 45 0 10 -4 19 -10 19 -5 0 -7 6 -5 13 26 74 26 73 41 53 8 -11 14 -28 14 -37z m1011 -461 c7 -13 5 -25 -7 -43 -23 -35 -49 -40 -84 -15 -40 29 -39 61 2 94 l33 25 23 -22 c13 -12 28 -30 33 -39z m-5861 -633 l24 -26 -25 -25 -25 -25 -27 21 c-32 26 -33 34 -7 60 26 26 32 25 60 -5z m7000 -1910 c26 -31 -16 -70 -45 -41 -12 12 -14 20 -5 36 13 24 33 26 50 5z m-8383 -277 c30 -29 29 -62 -3 -83 -24 -16 -27 -16 -47 2 -35 29 -36 34 -15 69 23 40 34 42 65 12z m968 -754 c12 -12 13 -19 4 -30 -15 -18 -33 -18 -49 1 -11 13 -10 18 6 30 24 18 20 18 39 -1z m7408 -802 c15 -16 15 -19 -3 -30 -16 -10 -24 -10 -40 0 -18 11 -18 14 -3 30 9 10 19 18 23 18 4 0 14 -8 23 -18z m-998 -639 c37 6 49 3 65 -13 11 -11 31 -20 44 -20 13 0 37 -3 54 -6 l31 -6 -42 -46 c-93 -100 -136 -142 -146 -142 -6 0 -25 13 -43 28 -52 45 -96 62 -160 62 l-58 0 0 -39 c0 -40 0 -40 -34 -34 -19 3 -48 1 -65 -5 -23 -8 -31 -7 -35 4 -7 18 -72 19 -108 2 -28 -14 -84 -96 -97 -144 -7 -25 -12 -29 -37 -26 -47 5 -121 31 -206 73 -10 5 -25 9 -33 9 -13 0 -13 3 -3 20 8 12 24 20 39 20 15 0 32 6 38 14 6 7 38 17 72 20 56 7 61 9 76 42 16 32 19 34 69 34 28 0 67 7 86 15 41 16 95 74 104 110 5 19 11 24 28 20 59 -13 143 -25 173 -25 34 0 81 23 96 48 7 11 12 10 28 -4 14 -13 29 -15 64 -11z m-5485 -328 c0 -17 44 -61 77 -79 18 -9 55 -16 86 -16 l54 0 12 -42 c14 -47 80 -124 120 -139 14 -6 20 -13 15 -18 -11 -10 -97 -37 -146 -45 -33 -6 -38 -4 -38 12 0 31 -47 118 -88 161 -31 33 -46 41 -75 41 -24 0 -40 -6 -49 -19 -10 -14 -18 -17 -28 -10 -8 5 -32 9 -52 9 -38 0 -38 0 -38 41 l0 42 -69 -6 c-79 -7 -120 -24 -172 -74 -36 -34 -38 -34 -53 -17 -9 11 -40 45 -69 78 -86 97 -87 91 9 88 71 -3 91 0 128 19 43 21 46 21 85 5 55 -21 154 -20 211 4 45 18 45 18 62 -3 10 -12 18 -26 18 -32z m6083 -417 c24 -33 15 -63 -25 -88 -34 -20 -54 -17 -80 15 -25 29 -22 53 11 86 34 33 62 30 94 -13z m-6639 -593 c12 -32 6 -54 -21 -75 -62 -49 -135 25 -85 86 9 12 24 24 32 26 20 7 66 -17 74 -37z m5175 -800 c4 -5 2 -20 -4 -33 l-13 -23 -6 25 c-3 14 -3 38 1 54 6 23 8 24 11 7 2 -11 7 -24 11 -30z m-2254 -525 l-18 -20 -24 22 -24 23 22 18 c22 17 23 17 43 -2 19 -20 19 -21 1 -41z"></path></g></g><g id="l4Qyc5npZ6nbECPlG5VuLIp" fill="rgb(29,96,36)" style="transform: none;"><g style="transform: none;"><path id="paaJNrwG5" d="M5261 2628 c-7 -35 -25 -101 -40 -148 -16 -47 -34 -107 -40 -135 -7 -31 -21 -58 -36 -70 -29 -24 -36 -79 -9 -68 10 4 23 -2 33 -14 28 -36 127 -103 150 -103 13 0 40 14 61 30 21 16 42 30 47 30 5 0 28 -14 51 -31 44 -32 68 -33 106 0 37 32 74 91 69 111 -4 14 3 22 31 34 20 8 36 19 36 24 0 5 18 22 41 36 30 20 40 33 36 47 -3 11 0 19 6 19 7 0 -7 9 -30 21 -23 11 -61 37 -85 58 -63 54 -99 78 -133 85 -16 4 -38 18 -48 32 -20 27 -19 28 17 14 34 -12 33 0 -1 33 -43 40 -94 57 -176 57 l-73 0 -13 -62z"></path><path id="p1DFGXaZLM" d="M5610 2565 c33 -19 49 -19 24 0 -10 8 -26 14 -34 14 -9 0 -4 -6 10 -14z"></path><path id="p4ITAzbrI" d="M4022 2313 c2 -5 -26 -37 -60 -73 -35 -36 -72 -81 -82 -101 -10 -19 -26 -41 -35 -49 -21 -17 -45 -64 -45 -87 0 -10 -14 -45 -31 -78 -55 -109 -83 -187 -72 -204 12 -19 74 -38 154 -47 53 -6 59 -5 59 12 0 31 -43 83 -82 99 -37 15 -38 16 -38 70 0 41 4 55 14 55 8 0 28 28 45 63 17 35 45 79 62 98 16 19 45 57 64 84 18 28 42 59 54 69 26 23 30 96 6 96 -8 0 -14 -3 -13 -7z"></path></g></g><g id="l7XFTLsecWwd6w76D2Uxj5M" fill="rgb(65,45,63)" style="transform: none;"><g style="transform: none;"><path id="pYLrpN8Tu" d="M6892 8737 c-6 -6 -14 -25 -17 -40 -4 -15 -16 -32 -26 -38 -28 -14 -24 -47 6 -55 17 -4 25 -13 25 -28 0 -28 10 -42 38 -50 28 -9 52 8 52 38 0 16 9 24 33 31 41 13 47 56 8 65 -16 4 -27 15 -32 33 -4 16 -13 35 -20 43 -14 17 -53 18 -67 1z"></path><path id="pW5sIfEi4" d="M5171 8011 c-8 -5 -36 -7 -63 -4 -30 4 -53 1 -62 -6 -8 -6 -38 -14 -67 -18 -30 -3 -63 -12 -74 -19 -28 -18 -217 -10 -266 11 -35 16 -36 16 -88 -19 -29 -20 -57 -36 -62 -36 -5 0 -26 11 -47 25 -46 30 -74 25 -102 -20 -25 -40 -25 -45 1 -102 l20 -45 47 6 c62 9 203 43 275 67 42 14 98 21 200 25 197 7 218 6 237 -11 10 -9 36 -15 66 -15 51 0 243 -23 329 -40 28 -5 103 -19 169 -31 114 -21 244 -56 282 -78 11 -5 48 -20 84 -32 36 -12 106 -42 155 -68 50 -25 108 -52 130 -60 38 -13 78 -41 190 -131 28 -22 70 -52 95 -67 25 -14 56 -36 70 -49 291 -263 367 -349 529 -594 49 -74 102 -153 118 -175 37 -51 197 -365 217 -425 8 -25 26 -78 41 -118 19 -54 27 -100 31 -175 2 -56 9 -129 14 -162 5 -33 10 -125 11 -205 2 -131 0 -145 -15 -148 -14 -3 -16 -10 -11 -30 25 -97 8 -286 -42 -479 -16 -63 -12 -166 8 -178 19 -13 8 -54 -21 -78 -16 -14 -30 -33 -30 -41 0 -9 -4 -16 -8 -16 -14 0 -32 -65 -32 -118 0 -47 -4 -55 -44 -96 -24 -25 -46 -58 -49 -74 -3 -17 -20 -51 -37 -78 -16 -26 -30 -57 -30 -69 0 -34 -39 -95 -114 -177 -39 -44 -79 -97 -89 -120 -19 -45 -112 -141 -372 -382 -156 -146 -266 -232 -398 -312 -72 -44 -136 -102 -143 -131 -6 -24 -17 -28 -89 -37 -22 -3 -67 -10 -100 -15 -33 -5 -89 -14 -125 -19 -112 -17 -116 -21 -125 -96 l-7 -65 -24 16 c-34 22 -103 11 -171 -27 -29 -17 -64 -30 -78 -30 -50 0 -23 -26 63 -58 147 -57 284 -144 381 -244 47 -49 91 -88 99 -88 21 0 72 33 72 46 0 6 -7 17 -15 24 -9 7 -23 29 -32 49 -9 20 -22 39 -27 43 -6 4 11 8 37 8 27 0 57 5 67 10 13 7 21 7 25 0 14 -23 70 -10 107 25 37 36 56 42 74 26 5 -5 22 -7 37 -4 29 6 67 63 67 100 0 30 69 24 109 -10 18 -15 36 -27 40 -27 10 0 81 68 82 78 0 4 2 16 4 27 2 11 -3 30 -11 43 -18 27 -5 58 28 67 26 7 45 15 101 39 29 12 37 21 36 39 -5 56 0 66 47 87 37 18 51 19 76 11 44 -15 73 -4 94 35 14 26 16 40 9 61 -24 66 15 116 70 91 32 -14 51 1 66 52 12 40 43 55 82 41 28 -11 77 -1 77 15 0 8 -5 23 -12 33 -9 16 -8 27 6 60 11 22 27 48 37 57 10 9 15 22 13 29 -7 16 19 26 37 14 28 -17 61 -8 105 28 34 29 44 43 41 60 -2 13 0 23 4 23 5 0 9 9 9 20 0 11 16 37 35 59 19 21 35 43 35 48 0 14 -74 83 -89 83 -9 0 -8 4 3 15 8 8 23 15 33 15 10 0 37 18 61 40 24 22 47 38 51 35 5 -2 11 20 15 50 5 48 3 60 -16 85 l-22 30 27 28 c29 30 34 60 16 94 -9 17 -7 26 10 47 11 14 28 40 37 56 9 17 28 42 42 57 18 20 25 38 25 70 -1 24 4 48 9 55 5 7 7 25 3 41 -4 20 -1 33 11 43 9 7 33 38 53 69 32 48 36 59 27 83 -5 15 -15 27 -22 27 -7 0 -23 15 -36 32 -12 18 -31 41 -40 50 -22 22 -22 32 -3 48 8 7 15 23 15 37 0 13 9 36 20 51 17 22 21 43 21 102 -1 157 -5 197 -25 219 -22 24 -23 58 -7 141 6 30 13 65 15 77 2 12 7 26 10 32 4 5 -2 16 -12 23 -10 7 -34 30 -52 51 -32 37 -33 39 -20 78 12 37 12 42 -9 70 -20 27 -21 34 -11 60 11 25 9 37 -15 94 -28 64 -28 65 -11 104 10 21 29 45 43 52 17 9 23 19 19 34 -3 11 -6 28 -6 37 0 9 -16 37 -35 62 -19 26 -35 57 -35 70 0 33 -21 38 -60 15 -30 -19 -33 -19 -51 -3 -11 9 -19 21 -19 27 0 5 -7 24 -16 43 -15 32 -15 49 1 99 5 17 -2 25 -39 44 -25 12 -48 27 -52 32 -3 5 -23 17 -45 26 -21 8 -39 21 -39 28 0 14 32 45 46 45 19 0 104 45 109 58 3 7 0 22 -5 32 -15 29 -12 39 15 46 15 4 25 13 25 24 0 27 33 50 71 48 19 0 47 7 62 17 26 16 29 16 46 1 26 -24 77 -21 95 6 11 16 25 22 51 21 30 -1 35 2 35 23 0 28 -28 38 -95 32 -43 -3 -45 -2 -45 24 0 26 -3 28 -43 28 -79 0 -177 -82 -177 -149 0 -34 -6 -37 -35 -17 -11 7 -65 37 -120 66 -55 29 -104 57 -109 61 -6 5 -17 9 -27 9 -11 0 -15 7 -13 23 3 17 -6 28 -44 52 -43 27 -47 33 -44 65 6 81 5 90 -19 109 -28 24 -47 25 -100 10 -37 -12 -38 -11 -85 35 -26 26 -57 54 -69 62 -12 8 -35 38 -50 67 -15 28 -39 64 -53 79 -22 24 -31 27 -63 22 -33 -6 -41 -2 -66 24 -15 17 -45 40 -66 51 -21 10 -46 34 -56 51 -20 38 -62 55 -161 65 -48 5 -74 13 -85 25 -16 18 -16 21 3 47 28 40 19 79 -24 99 -19 9 -34 20 -34 25 0 5 -11 9 -24 9 -13 0 -57 11 -98 25 -81 28 -108 31 -108 13 0 -9 -3 -9 -12 0 -15 15 -84 16 -93 2 -3 -5 -18 -10 -33 -10 -15 0 -36 -7 -46 -15 -28 -21 -47 -12 -111 52 l-57 56 -52 -7 c-33 -4 -75 0 -120 11 -51 12 -73 14 -86 5 -10 -6 -44 -14 -77 -17 -64 -8 -75 -2 -86 46 -5 19 -17 29 -45 37 -47 14 -92 15 -111 3z"></path><path id="pwWMk4X8v" d="M3569 7653 c-9 -2 -31 -22 -49 -44 l-33 -41 22 -38 c11 -21 21 -39 21 -41 0 -2 -26 -3 -58 -1 -44 3 -61 0 -71 -12 -8 -9 -26 -16 -42 -16 -19 0 -41 -12 -65 -35 -36 -35 -85 -47 -99 -25 -11 17 -38 11 -87 -20 -56 -35 -63 -61 -30 -112 l24 -37 -52 -60 c-33 -38 -50 -66 -47 -76 8 -19 -3 -19 -30 0 -19 13 -26 13 -63 0 -24 -8 -55 -15 -71 -15 -93 0 -146 -80 -107 -165 10 -21 8 -32 -10 -64 -16 -28 -22 -56 -22 -99 0 -66 -8 -78 -59 -88 -24 -5 -43 -21 -73 -61 -38 -50 -44 -54 -77 -51 -30 2 -35 0 -33 -16 2 -11 -11 -33 -29 -52 -18 -19 -34 -46 -36 -61 -8 -71 -18 -101 -44 -134 -16 -20 -29 -43 -29 -51 0 -19 -32 -48 -53 -48 -8 0 -29 -12 -46 -26 -28 -23 -37 -25 -106 -22 -71 3 -75 2 -75 -19 0 -26 43 -43 106 -43 l44 0 -45 -41 c-37 -34 -45 -48 -45 -76 0 -31 1 -33 16 -19 21 22 63 21 70 -1 3 -10 10 -26 16 -37 7 -13 6 -38 -3 -81 l-12 -62 31 -39 c37 -48 48 -121 19 -130 -13 -4 -16 -11 -11 -27 13 -41 9 -51 -24 -62 -18 -7 -43 -23 -55 -37 -12 -15 -37 -29 -54 -33 -18 -4 -33 -9 -33 -12 0 -11 54 -78 81 -100 19 -16 25 -29 22 -47 -3 -16 3 -36 17 -55 31 -44 37 -96 15 -121 -10 -11 -25 -20 -32 -20 -15 0 -52 -38 -53 -53 0 -5 -10 -23 -22 -39 l-21 -31 23 -46 c13 -25 27 -54 31 -63 6 -11 3 -30 -8 -53 -14 -28 -14 -38 -4 -57 7 -13 21 -39 31 -58 13 -22 16 -38 10 -44 -16 -16 -11 -40 15 -76 34 -46 47 -95 33 -126 -12 -27 -1 -60 36 -102 11 -12 21 -29 22 -37 1 -8 21 -37 45 -65 41 -49 45 -51 81 -45 43 8 43 7 24 -40 -8 -18 -12 -36 -9 -39 3 -3 2 -11 -4 -18 -5 -7 -15 -32 -23 -55 -11 -37 -10 -49 6 -102 18 -57 35 -74 49 -51 12 19 33 11 28 -11 -3 -12 2 -31 14 -47 11 -15 23 -36 27 -47 3 -11 16 -25 28 -30 19 -8 22 -17 20 -43 -3 -25 2 -38 17 -49 12 -8 21 -25 21 -41 0 -15 9 -38 20 -52 11 -14 20 -37 20 -51 0 -14 9 -34 20 -44 22 -20 26 -55 9 -87 -10 -18 -5 -26 38 -63 26 -24 60 -46 76 -49 28 -6 37 -32 17 -52 -14 -14 67 -114 107 -134 15 -8 49 -36 76 -63 26 -26 52 -45 58 -41 14 8 109 -85 109 -108 0 -9 6 -21 14 -25 8 -4 24 -27 36 -51 12 -23 26 -45 31 -48 5 -3 9 -16 9 -29 0 -28 39 -41 71 -24 18 9 27 6 57 -18 52 -41 71 -46 100 -27 31 20 91 14 155 -17 41 -20 44 -24 36 -46 -6 -16 -5 -30 3 -43 13 -20 26 -24 109 -35 60 -8 87 -35 71 -70 -11 -24 -10 -25 26 -27 104 -4 112 -6 112 -19 0 -7 16 -27 35 -46 21 -20 32 -39 29 -48 -13 -32 42 -15 91 28 50 44 192 139 263 177 20 10 53 33 72 50 l35 30 -44 -15 c-24 -8 -46 -14 -48 -12 -6 7 159 132 173 131 8 -1 14 6 14 16 0 18 -26 30 -66 30 -12 0 -50 9 -84 20 -85 27 -121 26 -150 -5 -25 -27 -49 -32 -67 -14 -5 5 -25 18 -44 27 -28 14 -35 23 -37 55 -2 20 -8 37 -13 37 -5 0 -51 20 -102 45 -51 24 -111 51 -135 59 -23 8 -57 27 -76 41 -43 33 -86 32 -126 -1 l-31 -27 -35 34 c-19 18 -34 38 -34 44 0 6 -13 26 -30 45 -19 24 -29 46 -30 70 -1 30 -8 40 -48 70 -26 19 -54 38 -62 41 -13 6 -112 91 -176 154 -65 61 -254 269 -254 277 0 9 -55 85 -71 98 -55 46 -339 604 -339 667 0 8 -6 29 -13 46 -59 139 -114 483 -105 664 4 92 3 102 -13 106 -10 3 -21 18 -25 33 -9 35 21 301 41 368 8 27 15 64 15 82 0 18 7 63 16 101 9 37 20 91 25 118 9 52 18 98 42 200 8 33 37 100 66 149 28 49 51 90 51 92 0 19 207 332 250 377 16 18 30 35 30 38 0 4 19 26 43 50 23 24 72 76 108 114 36 39 116 115 177 169 62 54 112 104 112 111 0 6 17 20 37 31 21 10 48 31 60 45 13 15 47 39 76 54 28 15 66 38 83 51 17 13 37 24 44 24 9 0 11 9 6 33 -8 39 -103 136 -127 130z"></path><path id="peglo3PVU" d="M7639 7083 c-8 -2 -26 -21 -40 -42 -22 -36 -26 -38 -65 -33 -40 4 -42 3 -37 -21 3 -17 13 -27 27 -29 l21 -3 -22 -22 c-13 -13 -23 -25 -23 -28 0 -3 20 -5 44 -5 37 0 48 5 70 31 14 17 26 35 26 40 0 5 36 9 79 9 95 0 111 5 111 35 0 21 -3 22 -44 18 -40 -5 -44 -3 -50 21 -5 19 -13 26 -30 26 -14 0 -30 2 -38 4 -7 2 -20 2 -29 -1z"></path><path id="pzfiOQpmc" d="M7982 3233 c-9 -10 -30 -26 -45 -36 -27 -18 -64 -16 -174 8 -19 4 -23 1 -23 -18 0 -35 55 -57 141 -57 41 0 81 6 98 14 26 14 32 13 76 -10 40 -20 63 -24 129 -24 107 0 156 14 156 43 0 20 -5 22 -65 24 -56 3 -70 7 -89 28 -25 27 -49 31 -89 16 -20 -8 -29 -6 -43 10 -21 24 -49 24 -72 2z"></path><path id="pBtCX5DQ2" d="M7405 3006 c-6 -9 -33 -17 -64 -20 -30 -4 -61 -12 -69 -18 -7 -7 -25 -12 -39 -13 -30 0 -71 -61 -60 -89 9 -23 61 -15 150 21 79 32 99 53 95 99 -2 27 -5 31 -13 20z"></path></g></g><g id="l4WlJybl4GvigMpAI2xb2VK" fill="rgb(10,142,38)" style="transform: none;"><g style="transform: none;"><path id="p1Fi7hVS58" d="M4475 2576 c-115 -37 -134 -46 -253 -123 -97 -63 -202 -150 -202 -168 0 -7 -9 -20 -21 -31 -12 -10 -36 -42 -55 -70 -19 -28 -46 -64 -61 -80 -15 -16 -41 -56 -58 -89 -17 -33 -38 -71 -47 -85 -17 -25 -21 -54 -19 -123 1 -33 5 -39 38 -52 21 -9 49 -31 62 -50 l24 -35 111 0 c119 0 288 25 404 59 97 29 288 122 355 173 32 24 85 63 119 88 53 39 179 144 296 246 17 16 32 33 32 39 0 5 7 23 15 39 9 16 14 35 11 42 -3 7 6 44 19 81 27 79 23 84 -53 60 -26 -9 -73 -18 -105 -22 -73 -8 -107 -34 -107 -82 0 -25 8 -41 27 -57 39 -33 31 -42 -102 -109 -22 -11 -57 -30 -77 -43 -21 -13 -47 -24 -59 -24 -20 0 -21 -3 -15 -67 4 -38 9 -82 12 -99 5 -30 5 -30 -30 -26 -73 9 -103 -5 -175 -80 l-69 -71 -84 -2 c-57 -1 -92 -6 -113 -18 -16 -9 -37 -17 -45 -17 -8 0 -40 -9 -69 -20 l-54 -19 -39 21 c-21 12 -38 25 -38 30 0 4 -17 8 -39 8 -21 0 -52 3 -69 6 -30 6 -31 8 -37 80 -4 41 -11 77 -16 80 -5 3 -9 12 -9 19 0 19 59 85 76 85 8 0 14 10 14 21 0 31 28 48 76 49 36 0 48 6 88 48 51 52 60 90 29 125 -18 19 -17 20 32 13 28 -3 67 -9 87 -12 33 -5 41 -2 68 25 18 17 36 31 41 31 5 0 9 20 9 43 0 53 28 88 50 62 8 -9 30 -15 60 -15 58 0 80 21 79 76 -1 75 -2 75 -114 40z"></path></g></g><g id="l700LkhzwMZY8LmcLQNt3CL" fill="rgb(31,146,39)" style="transform: none;"><g style="transform: none;"><path id="p16cfcEfft" d="M4685 2686 l-30 -14 45 -2 45 -1 -35 -14 c-19 -7 -64 -24 -99 -36 l-63 -22 6 -36 c4 -25 1 -40 -11 -53 -22 -25 -38 -23 -80 9 l-35 27 -39 -42 c-36 -38 -38 -43 -27 -68 10 -22 10 -27 -7 -37 -10 -5 -28 -20 -39 -32 -15 -16 -27 -20 -41 -15 -11 4 -54 10 -96 14 -63 5 -78 4 -89 -9 -11 -14 -8 -21 23 -53 l37 -37 -46 -48 c-40 -41 -52 -47 -88 -47 -48 0 -92 -29 -83 -54 4 -10 1 -16 -6 -16 -15 0 -56 -41 -81 -81 -15 -23 -14 -28 4 -64 12 -23 22 -67 24 -109 l5 -69 67 -5 c44 -2 73 -10 85 -20 10 -10 33 -25 53 -36 34 -18 35 -18 109 8 40 14 80 26 88 26 8 0 28 8 44 17 22 12 51 16 111 15 l81 -2 66 70 c75 79 99 92 160 84 63 -7 71 2 57 70 -6 31 -8 65 -5 76 4 12 1 28 -7 37 -11 14 -11 16 3 11 9 -4 26 0 37 8 18 12 111 64 182 100 14 7 40 28 58 47 l33 34 -37 29 c-21 16 -43 32 -48 36 -7 5 -1 16 15 32 18 17 42 26 85 30 136 16 151 29 174 149 9 42 19 67 27 67 7 0 13 4 13 9 0 5 -109 11 -242 15 -134 3 -272 8 -308 11 -45 4 -74 1 -95 -9z"></path></g></g><g id="l5VdjC6wdUUEvok3C6WxQ6h" fill="rgb(94,61,64)" style="transform: none;"><g style="transform: none;"><path id="pVaYB7BTO" d="M4948 7198 c-37 -3 -82 -11 -100 -17 -18 -5 -67 -15 -108 -20 -41 -6 -93 -17 -115 -25 -22 -9 -63 -15 -92 -16 -28 0 -75 -9 -105 -19 -29 -11 -80 -27 -113 -37 -67 -19 -150 -58 -161 -75 -3 -6 -21 -18 -38 -26 -40 -18 -64 -32 -103 -60 -17 -13 -35 -23 -40 -23 -11 0 -139 -87 -199 -135 -89 -73 -305 -289 -324 -325 -10 -19 -27 -43 -38 -53 -11 -11 -18 -25 -15 -32 2 -8 -16 -36 -41 -62 -71 -77 -97 -132 -204 -433 -58 -162 -88 -328 -84 -466 1 -54 -2 -75 -14 -84 -22 -19 0 -30 63 -30 70 0 101 13 109 47 10 41 43 103 54 103 17 0 50 63 50 97 0 18 -11 53 -25 79 -29 55 -29 54 -10 54 26 0 90 87 96 133 19 120 57 189 128 226 30 17 61 92 61 150 0 44 3 49 39 73 22 14 55 31 74 37 20 7 37 20 40 31 3 13 14 20 28 20 15 0 43 23 87 70 l64 70 59 0 c55 0 61 3 104 42 25 24 45 51 45 62 0 13 24 44 62 79 58 53 65 57 112 57 42 0 57 6 100 39 56 42 115 56 234 52 53 -2 73 3 124 28 34 17 67 31 73 31 7 0 26 7 43 16 31 15 33 14 76 -15 54 -38 115 -42 161 -11 38 25 80 25 112 0 18 -14 41 -20 79 -20 29 0 56 -4 59 -10 8 -13 71 -13 94 0 12 6 34 4 67 -5 27 -8 75 -17 107 -21 44 -4 63 -11 75 -27 48 -62 111 -114 143 -119 20 -4 59 -18 89 -32 30 -14 60 -26 67 -26 18 0 127 -53 132 -64 2 -5 18 -25 36 -45 18 -20 38 -46 44 -59 10 -20 19 -23 59 -21 72 3 148 -26 168 -64 25 -49 44 -127 44 -184 0 -48 3 -54 47 -97 39 -38 53 -46 84 -46 34 0 39 -3 45 -27 4 -16 15 -40 26 -55 10 -15 25 -46 32 -70 7 -24 25 -56 39 -72 20 -22 27 -39 27 -71 0 -27 7 -51 20 -68 25 -32 25 -31 -5 -75 -28 -42 -33 -98 -10 -128 9 -12 14 -42 15 -79 0 -56 2 -62 29 -78 39 -23 171 -24 206 -1 28 18 33 34 11 34 -11 0 -15 29 -19 133 -8 171 -18 239 -51 323 -15 38 -36 94 -47 124 -11 30 -25 63 -30 72 -5 10 -9 23 -9 31 0 19 -104 195 -204 344 -82 122 -206 264 -296 339 -20 16 -46 43 -58 61 -13 18 -58 57 -101 87 -43 30 -95 70 -116 89 -96 85 -358 189 -550 218 -33 4 -100 16 -150 24 -49 9 -121 20 -160 25 -38 5 -81 12 -95 16 -51 13 -147 19 -212 12z"></path><path id="p1HLrRc6RY" d="M7507 4523 c-36 -109 -83 -239 -106 -289 -31 -69 -41 -104 -41 -143 0 -28 4 -51 9 -51 13 0 61 77 68 111 3 16 25 50 49 75 40 41 44 49 44 96 0 53 18 118 32 118 4 0 8 8 8 18 0 9 9 23 20 30 11 7 29 27 40 44 19 31 19 31 -11 103 -4 11 -11 35 -14 53 -13 66 -32 34 -98 -165z"></path><path id="p1G8LxUFbB" d="M3474 3175 c13 -10 17 -21 12 -40 -5 -21 1 -35 29 -67 19 -23 35 -47 35 -54 0 -13 85 -94 99 -94 5 0 28 16 51 35 33 28 45 33 56 24 11 -9 14 -7 14 14 0 27 -20 45 -160 140 -64 43 -93 57 -120 57 -32 -1 -34 -2 -16 -15z"></path><path id="pv67gaFTL" d="M6324 3037 c-45 -23 -99 -50 -120 -59 -22 -9 -84 -37 -139 -62 -55 -24 -119 -51 -142 -58 -33 -10 -43 -18 -43 -33 0 -23 11 -23 180 6 36 6 85 12 110 14 56 4 80 13 80 31 0 25 71 94 130 125 32 17 68 42 81 55 l22 24 -39 0 c-26 -1 -66 -15 -120 -43z"></path><path id="pHrgMREkG" d="M4070 2831 c0 -6 7 -11 16 -11 12 0 15 -8 11 -35 -4 -32 -2 -36 37 -56 22 -11 52 -27 66 -35 40 -22 73 -17 105 16 16 17 35 28 42 26 8 -3 13 2 13 15 0 13 -10 24 -29 30 -17 6 -47 19 -67 30 -45 23 -194 38 -194 20z"></path><path id="pN0J580qw" d="M5767 2804 c-3 -3 -20 -10 -39 -14 -18 -5 -91 -24 -163 -43 -71 -20 -151 -38 -177 -42 -38 -6 -48 -11 -48 -26 0 -14 7 -19 28 -19 16 0 51 -11 78 -25 62 -32 104 -32 159 0 63 37 100 46 122 29 10 -7 32 -14 50 -14 l31 0 7 66 c5 41 13 68 21 71 8 3 14 9 14 14 0 10 -73 13 -83 3z"></path></g></g><g id="l1lGuVTVzZyNvsySiJoWPo4" fill="rgb(151,71,7)" style="transform: none;"><g style="transform: none;"><path id="pBQCrS7yR" d="M6991 5290 c-34 -16 -40 -34 -15 -44 24 -9 694 -7 694 2 0 5 -6 16 -12 25 -11 15 -41 17 -238 18 -124 1 -264 5 -312 8 -66 5 -93 3 -117 -9z"></path><path id="pKSSTp4hJ" d="M5350 4188 c-46 -31 -63 -83 -57 -167 6 -74 27 -109 78 -127 81 -29 176 -7 204 47 22 42 20 187 -3 215 -27 32 -57 44 -125 50 -54 5 -66 3 -97 -18z"></path><path id="pvtYhaAga" d="M6342 4006 c-93 -33 -98 -251 -6 -286 14 -6 59 -10 101 -10 124 0 153 29 153 156 0 83 -14 115 -61 140 -34 17 -140 17 -187 0z"></path><path id="p13i5KXJlu" d="M5426 3347 c-28 -22 -30 -29 -34 -110 -7 -138 21 -176 137 -185 119 -8 161 33 161 158 0 117 -45 160 -167 160 -56 0 -73 -4 -97 -23z"></path></g></g><g id="l6KQIQQs0NPVcftWFtJHjJ7" fill="rgb(113,74,66)" style="transform: none;"><g style="transform: none;"><path id="p11Y3EwT9b" d="M4864 6899 c-27 -14 -54 -24 -61 -22 -7 3 -25 -4 -41 -15 -49 -35 -108 -55 -130 -43 -13 7 -39 6 -88 -5 -38 -8 -79 -12 -92 -9 -17 4 -38 -6 -82 -41 -56 -44 -62 -46 -103 -40 -43 7 -45 6 -111 -57 -39 -37 -66 -71 -66 -83 0 -11 -20 -39 -45 -62 -43 -39 -49 -42 -104 -42 l-59 0 -62 -67 c-35 -38 -67 -67 -72 -65 -15 4 -48 -18 -48 -33 0 -7 -16 -19 -36 -25 -50 -17 -107 -57 -117 -83 -4 -11 -5 -33 -2 -47 8 -35 -27 -115 -56 -131 -71 -37 -109 -106 -128 -226 -6 -45 -70 -133 -96 -133 -29 0 -27 -45 4 -104 30 -54 30 -58 16 -86 -8 -16 -23 -34 -33 -39 -16 -9 -32 -39 -62 -118 -5 -12 -21 -24 -39 -28 -17 -4 -31 -13 -31 -21 0 -12 30 -14 173 -14 156 0 176 2 190 18 10 10 17 31 17 47 0 30 -37 154 -52 170 -12 14 -10 25 7 25 8 0 15 5 15 10 0 6 6 10 14 10 16 0 26 21 26 55 0 13 11 37 25 53 14 17 25 36 25 44 0 7 9 30 20 51 11 20 20 43 20 49 0 17 58 55 96 63 26 5 38 17 63 64 17 33 31 73 31 91 0 17 10 54 21 81 20 45 28 53 84 78 34 16 65 33 69 39 3 6 20 14 37 17 44 10 129 94 129 127 0 20 7 29 30 36 16 6 53 34 80 61 48 48 54 51 103 51 31 0 70 9 97 21 85 40 144 56 188 51 34 -3 49 1 75 20 23 19 49 26 97 30 36 3 85 13 110 22 36 13 67 15 150 9 62 -3 113 -11 125 -19 11 -8 28 -14 38 -14 11 0 41 -12 67 -26 40 -22 56 -25 101 -21 30 3 94 6 142 6 49 0 94 5 101 11 21 17 106 -34 106 -63 0 -19 54 -77 72 -77 6 0 25 -11 43 -24 17 -13 58 -39 91 -56 32 -18 72 -43 87 -56 20 -16 41 -24 68 -24 33 0 45 -6 77 -40 20 -23 58 -62 85 -87 29 -29 51 -61 57 -85 11 -41 65 -100 120 -133 32 -19 34 -23 34 -79 1 -38 5 -61 14 -64 6 -2 12 -9 12 -15 0 -7 16 -30 35 -51 25 -28 35 -49 35 -72 0 -17 7 -45 15 -60 8 -16 15 -38 15 -49 0 -11 7 -38 15 -60 8 -22 14 -66 15 -97 0 -93 46 -124 164 -113 62 7 68 9 51 21 -15 11 -17 22 -12 74 4 36 3 60 -3 60 -5 0 -14 9 -20 21 -10 17 -6 29 24 75 20 29 36 57 36 61 0 5 -14 26 -30 47 -22 29 -30 50 -30 81 0 32 -7 49 -27 71 -14 16 -32 48 -39 72 -7 24 -22 55 -32 70 -11 15 -22 39 -26 55 -6 24 -11 27 -45 27 -31 0 -45 8 -84 46 -45 44 -47 48 -41 89 3 24 1 53 -5 64 -6 11 -12 33 -13 48 -1 15 -9 39 -18 53 -9 14 -19 32 -23 41 -3 10 -30 25 -59 34 -29 10 -61 24 -70 33 -16 13 -20 13 -45 -3 -26 -17 -27 -17 -38 0 -5 10 -26 37 -46 61 -21 23 -39 46 -40 51 -5 10 -115 63 -132 63 -12 0 -99 37 -139 60 -10 5 -24 7 -32 4 -14 -5 -86 59 -128 113 -12 16 -31 23 -75 27 -32 4 -81 13 -109 21 -60 18 -98 19 -125 5 -14 -8 -25 -6 -44 6 -16 11 -38 14 -65 11 -30 -3 -47 1 -64 14 -35 28 -125 26 -176 -3 -35 -21 -40 -21 -66 -8 -15 8 -42 29 -60 45 l-32 30 -48 -26z"></path><path id="plEal0UuA" d="M7330 4093 c-28 -55 -124 -215 -151 -255 -18 -25 -27 -109 -11 -107 8 1 125 133 164 187 15 20 30 51 33 67 4 17 10 41 15 55 4 14 11 42 14 63 4 33 2 37 -17 37 -16 0 -29 -13 -47 -47z"></path></g></g><g id="l1vLskEIRBabptSpdY24pR3" fill="rgb(130,83,64)" style="transform: none;"><g style="transform: none;"><path id="pLd7lFtUw" d="M4916 6695 c-23 -24 -114 -46 -158 -39 -31 5 -42 1 -75 -25 -35 -28 -41 -30 -70 -19 -25 9 -37 9 -64 -4 -19 -9 -45 -19 -59 -23 -14 -4 -43 -17 -65 -28 -26 -13 -61 -21 -100 -22 -59 -1 -61 -2 -113 -53 -28 -29 -66 -58 -82 -64 -23 -7 -30 -16 -30 -36 0 -33 -85 -117 -129 -127 -17 -3 -34 -11 -37 -17 -4 -6 -35 -23 -69 -39 -57 -25 -64 -32 -85 -81 -13 -29 -22 -66 -21 -81 2 -36 -56 -147 -78 -148 -9 -1 -22 -1 -28 0 -7 1 -25 -10 -40 -24 -15 -14 -31 -25 -35 -25 -5 0 -8 -7 -8 -15 0 -8 -9 -32 -20 -52 -11 -21 -20 -44 -20 -51 0 -8 -11 -27 -25 -44 -14 -16 -25 -40 -25 -53 0 -34 -10 -55 -26 -55 -8 0 -14 -5 -14 -11 0 -6 -7 -9 -15 -5 -12 4 -15 -3 -15 -34 0 -22 4 -48 10 -58 5 -9 19 -44 30 -77 l21 -60 -26 -22 c-45 -40 -34 -46 69 -40 99 6 136 20 136 51 0 20 11 57 36 129 8 20 14 54 14 75 0 52 20 90 51 97 37 8 59 63 70 175 6 53 16 101 23 108 8 8 41 17 75 21 76 9 99 30 135 120 29 73 52 100 104 121 17 7 32 15 32 19 0 4 16 13 35 20 19 7 57 30 85 52 27 21 56 39 65 39 15 0 43 14 220 109 110 59 181 75 205 46 19 -23 96 -19 131 5 24 17 32 19 50 9 12 -6 81 -15 153 -19 72 -5 156 -14 186 -20 30 -7 64 -14 76 -16 24 -4 84 -59 84 -77 0 -6 17 -23 38 -37 35 -24 44 -25 150 -22 96 3 118 0 150 -16 20 -11 57 -26 81 -33 66 -20 91 -44 91 -87 0 -47 10 -82 22 -82 6 0 27 -13 48 -30 21 -16 44 -30 52 -30 8 0 25 -11 37 -24 13 -14 36 -30 52 -36 15 -7 35 -23 44 -36 14 -22 14 -27 0 -46 -22 -32 -19 -84 7 -119 15 -20 22 -42 20 -67 -2 -42 33 -120 62 -136 11 -6 31 -24 46 -40 26 -29 27 -33 22 -117 l-5 -88 39 -9 c59 -16 290 -32 446 -32 127 0 139 2 136 18 -3 14 -17 18 -73 22 -45 3 -80 12 -97 24 -20 13 -39 17 -65 13 -42 -5 -99 16 -113 42 -5 10 -8 39 -8 67 0 27 -7 71 -16 97 -10 27 -15 55 -12 63 3 7 1 16 -5 19 -5 4 -7 10 -4 15 3 4 -2 13 -10 20 -8 7 -15 29 -15 49 0 28 -8 47 -35 77 -19 21 -35 44 -35 51 0 6 -5 13 -11 15 -6 2 -12 30 -13 63 -1 57 -3 61 -35 80 -56 32 -109 92 -121 133 -6 24 -28 56 -57 85 -69 67 -120 123 -125 137 -3 10 -9 10 -25 1 -32 -16 -48 -14 -80 13 -15 13 -55 38 -87 56 -33 17 -74 43 -91 56 -18 13 -37 24 -43 24 -18 0 -72 57 -72 76 0 20 -19 36 -78 66 -41 21 -45 21 -75 6 -33 -16 -107 -18 -140 -3 -12 5 -31 2 -53 -9 -46 -21 -54 -20 -105 9 -24 14 -53 25 -65 25 -11 0 -29 7 -40 15 -11 8 -43 15 -79 16 -69 1 -162 13 -186 23 -10 4 -23 1 -33 -9z"></path><path id="pW212s53S" d="M7080 3712 c-41 -53 -121 -145 -178 -203 -94 -97 -103 -109 -100 -140 l3 -33 150 141 c167 156 197 190 220 254 9 24 21 52 26 62 8 14 5 17 -18 17 -23 0 -40 -16 -103 -98z"></path><path id="p17IMfD42h" d="M3650 3064 c0 -17 155 -123 205 -141 22 -7 82 -34 134 -59 51 -25 119 -50 150 -56 31 -6 79 -21 106 -33 124 -55 280 -91 443 -101 88 -6 92 -6 92 14 0 17 -8 22 -37 27 -21 3 -78 14 -128 25 -49 11 -108 23 -130 26 -97 15 -304 82 -383 123 -17 10 -57 27 -126 55 -21 9 -47 16 -59 16 -11 0 -45 17 -76 39 -82 56 -116 71 -156 71 -19 0 -35 -3 -35 -6z"></path></g></g><g id="l3FpMGHsqLhGsQ1Vl4Shbst" fill="rgb(95,85,106)" style="transform: none;"><g style="transform: none;"><path id="ps5WkMQcI" d="M7836 8256 c-51 -48 -47 -113 10 -150 l27 -18 -6 52 c-9 76 1 90 70 90 l57 0 -29 30 c-40 42 -82 41 -129 -4z"></path><path id="pftwKi26B" d="M2016 7605 c-37 -34 -37 -95 0 -124 88 -69 189 51 103 123 -38 33 -69 33 -103 1z m72 -74 c-7 -9 -13 -18 -14 -19 -1 -2 -8 6 -14 18 -10 18 -9 24 1 31 8 4 19 3 26 -3 11 -8 11 -14 1 -27z"></path><path id="p9M9BurMN" d="M7311 6919 c-12 -35 -5 -59 18 -59 9 0 21 -4 27 -9 12 -11 132 5 179 25 26 11 35 20 35 38 0 23 -2 24 -32 15 -18 -5 -66 -11 -106 -14 -58 -5 -73 -3 -78 9 -11 28 -32 26 -43 -5z"></path><path id="pLZMvuJHN" d="M621 5394 c-29 -49 -27 -88 6 -119 38 -34 90 -34 128 1 24 22 27 30 21 67 -10 59 -39 87 -92 87 -38 0 -44 -4 -63 -36z m88 -71 c-26 -30 -57 -7 -39 28 11 20 12 20 31 3 14 -13 16 -20 8 -31z"></path><path id="pZTRt0QFt" d="M3169 1198 c-1 -13 -1 -27 0 -32 1 -5 -4 -13 -11 -17 -9 -6 -7 -9 9 -9 20 0 21 -3 16 -55 -5 -51 -4 -55 15 -55 13 0 23 10 31 30 7 23 16 30 35 30 26 0 47 25 39 47 -2 7 -20 15 -38 19 -26 4 -36 13 -44 35 -13 36 -50 41 -52 7z"></path></g></g><g id="lVV1g4W9U9gZRB6kQZ90hj" fill="rgb(130,142,31)" style="transform: none;"><g style="transform: none;"><path id="pm6xmYJz1" d="M4720 2696 c0 -26 84 -37 317 -43 248 -6 286 -3 281 25 -4 24 -72 30 -360 31 -196 1 -238 -1 -238 -13z"></path></g></g><g id="l7bU1mhxtN7VJO8IuiBhbra" fill="rgb(149,95,61)" style="transform: none;"><g style="transform: none;"><path id="pXoc1Nxg2" d="M4908 6485 c-42 -28 -61 -31 -77 -11 -18 21 -87 26 -139 9 -50 -15 -140 -59 -257 -124 -38 -21 -78 -39 -88 -39 -10 0 -40 -18 -67 -39 -28 -22 -66 -45 -85 -52 -19 -7 -35 -16 -35 -20 0 -4 -15 -12 -32 -19 -52 -21 -75 -48 -104 -121 -34 -86 -60 -112 -119 -115 -25 -2 -57 -9 -72 -16 -31 -15 -41 -49 -47 -153 -3 -52 -33 -138 -47 -136 -37 5 -69 -40 -69 -98 0 -37 -21 -113 -47 -168 -9 -18 -13 -38 -10 -46 3 -7 -5 -20 -16 -28 -18 -11 -76 -14 -281 -16 -142 -1 -261 -5 -264 -8 -3 -3 -98 -5 -211 -5 -217 0 -251 -4 -251 -26 0 -8 1 -14 3 -14 1 0 137 -5 302 -10 251 -8 307 -7 340 5 31 11 107 14 335 15 346 0 335 -3 342 88 2 37 11 69 25 88 11 16 24 44 27 61 13 57 41 103 75 121 25 13 39 33 57 77 40 99 57 126 86 141 19 10 28 22 28 40 0 13 7 27 15 30 8 4 15 15 15 25 0 40 38 96 77 113 21 10 58 28 83 41 27 14 63 24 89 24 25 1 52 7 60 15 9 7 38 18 64 25 27 6 62 21 77 33 21 15 58 25 137 34 59 8 124 20 143 28 81 31 109 37 129 27 11 -6 45 -11 76 -11 49 0 62 -4 98 -34 38 -30 52 -34 147 -45 75 -9 113 -9 133 -2 25 10 29 8 47 -21 11 -18 22 -44 25 -59 3 -14 18 -36 32 -49 23 -20 33 -22 87 -17 47 4 65 2 79 -10 9 -9 27 -21 40 -27 13 -7 24 -24 27 -41 4 -23 13 -32 39 -41 45 -15 57 -33 76 -116 18 -80 33 -108 57 -108 28 0 55 -46 62 -106 4 -31 13 -71 20 -88 8 -17 24 -57 37 -90 22 -54 29 -61 78 -84 61 -28 201 -44 201 -23 0 6 -7 14 -15 17 -19 8 -20 63 -1 108 10 25 11 37 2 53 -16 29 -59 76 -82 89 -10 6 -29 31 -40 55 -19 38 -20 47 -9 69 12 22 10 28 -21 66 l-35 42 22 42 c22 42 22 43 4 77 -11 19 -35 43 -55 53 -19 10 -44 27 -54 39 -11 12 -26 21 -34 21 -8 0 -31 14 -52 30 -21 17 -42 30 -48 30 -16 0 -24 48 -11 71 9 18 6 26 -17 50 -15 16 -42 33 -61 40 -18 6 -33 15 -33 21 0 6 -9 8 -20 5 -12 -3 -39 5 -63 18 -37 21 -52 23 -127 19 -47 -3 -94 -5 -106 -6 -24 0 -94 42 -94 58 0 31 -76 86 -123 89 -18 1 -61 8 -97 15 -36 6 -108 13 -161 14 -71 2 -103 7 -122 19 -36 23 -56 21 -99 -8z"></path><path id="pyCXRrymZ" d="M2450 4785 c0 -45 48 -235 77 -302 7 -17 13 -38 13 -46 0 -15 76 -200 104 -256 9 -17 21 -31 26 -31 17 0 11 100 -10 148 -32 77 -106 290 -141 405 -26 84 -37 107 -51 107 -13 0 -18 -8 -18 -25z"></path><path id="pEQfT5spA" d="M2820 3862 c0 -8 49 -83 59 -92 16 -13 71 -89 71 -98 0 -8 189 -216 254 -277 75 -73 161 -146 186 -159 29 -14 30 -14 30 11 0 20 -35 60 -153 177 -163 160 -238 245 -327 369 -49 69 -57 77 -87 77 -18 0 -33 -3 -33 -8z"></path><path id="p8vPqZALS" d="M6685 3309 c-98 -78 -275 -204 -322 -229 -127 -68 -143 -81 -143 -111 0 -25 3 -28 18 -20 9 5 68 34 129 65 151 74 245 139 356 246 l92 89 -40 0 c-31 0 -51 -9 -90 -40z"></path></g></g><g id="l439ZkAgFQrh9zRDcn0cEzc" fill="rgb(166,111,65)" style="transform: none;"><g style="transform: none;"><path id="pLUs9Xupx" d="M5020 6293 c-25 -9 -61 -22 -80 -29 -19 -8 -84 -20 -143 -28 -79 -9 -116 -19 -137 -34 -15 -12 -50 -27 -77 -33 -26 -7 -55 -18 -64 -25 -8 -8 -35 -14 -60 -15 -26 0 -62 -10 -89 -24 -25 -13 -62 -31 -83 -41 -39 -17 -77 -73 -77 -113 0 -10 -7 -21 -15 -25 -8 -3 -15 -17 -15 -30 0 -18 -9 -30 -28 -40 -29 -15 -46 -42 -86 -141 -18 -44 -32 -64 -57 -77 -34 -18 -62 -64 -75 -121 -3 -17 -16 -45 -27 -61 -13 -18 -22 -51 -25 -85 -2 -31 -9 -62 -14 -68 -8 -10 -3 -13 19 -13 25 0 35 9 62 50 38 59 193 223 250 265 40 29 41 31 41 91 0 58 2 63 43 103 36 36 46 42 72 37 90 -18 111 -18 124 -2 10 11 30 16 71 16 59 0 117 19 158 50 12 10 45 24 72 31 28 7 50 19 50 26 0 14 62 43 94 43 11 0 49 9 84 20 l63 20 42 -28 c35 -22 54 -27 113 -28 74 -1 76 -2 188 -77 58 -38 63 -39 152 -41 82 -1 95 -4 131 -29 22 -15 53 -27 71 -27 23 0 41 -10 67 -36 40 -40 55 -71 55 -113 0 -16 7 -34 15 -41 8 -7 15 -18 15 -24 0 -6 39 -51 87 -101 79 -83 173 -209 173 -234 0 -30 44 -33 307 -26 210 6 263 10 263 21 0 15 -18 18 -175 33 -169 17 -234 29 -289 55 -46 21 -53 29 -75 82 -13 33 -30 73 -37 91 -8 17 -16 55 -17 83 -4 55 -31 102 -63 109 -28 5 -41 29 -59 107 -19 85 -31 103 -76 118 -26 8 -35 18 -39 40 -3 16 -14 34 -25 40 -11 6 -35 23 -53 39 -34 28 -56 34 -67 18 -3 -5 -19 -12 -35 -16 -38 -8 -70 21 -94 86 -9 26 -25 54 -36 64 -17 16 -23 16 -62 3 -34 -11 -60 -12 -125 -3 -68 8 -88 15 -122 43 -35 28 -47 32 -99 32 -36 0 -66 6 -78 15 -24 18 -47 18 -104 -2z"></path><path id="pU1L8CltV" d="M2647 4208 c7 -45 107 -255 156 -324 17 -24 37 -44 44 -44 8 0 16 -7 19 -15 10 -25 24 -17 24 14 0 27 -35 97 -127 253 -22 36 -48 87 -58 112 -15 35 -24 46 -41 46 -20 0 -22 -4 -17 -42z"></path><path id="p1BpBfDfDN" d="M5305 2725 c-38 -7 -78 -14 -87 -14 -11 -1 -18 -9 -18 -21 0 -16 7 -20 38 -20 21 0 42 -4 48 -9 5 -5 50 -1 104 9 159 29 200 41 200 56 0 18 -185 18 -285 -1z"></path></g></g><g id="l5B6oQUPoC84IdPHJFF4FzJ" fill="rgb(221,114,23)" style="transform: none;"><g style="transform: none;"><path id="pRITsZdGg" d="M3872 5310 l-32 -30 -295 0 c-242 0 -303 -3 -341 -16 -32 -11 -61 -13 -96 -9 l-50 7 6 -48 c4 -27 9 -134 11 -239 3 -104 10 -242 16 -305 6 -63 11 -156 10 -206 -2 -83 1 -100 33 -182 19 -50 40 -119 47 -154 7 -35 22 -84 35 -109 13 -25 26 -70 30 -100 4 -30 15 -71 25 -91 11 -20 26 -59 35 -85 8 -26 30 -77 48 -113 19 -36 39 -83 46 -105 24 -79 92 -225 123 -267 31 -42 53 -89 62 -130 9 -40 22 -51 105 -89 36 -17 80 -42 97 -55 l33 -25 0 33 c0 66 -31 153 -80 229 -28 41 -50 82 -50 91 0 8 -18 42 -40 74 -22 33 -40 65 -40 72 0 7 -11 32 -24 55 -14 23 -28 65 -32 92 -12 87 -90 266 -124 287 -11 7 -20 21 -20 31 0 11 -11 32 -25 49 -22 26 -24 36 -19 83 5 39 1 71 -14 122 -11 37 -23 88 -27 113 -10 73 -26 142 -41 183 -8 20 -14 64 -14 97 0 32 -4 70 -10 84 -9 24 -22 169 -22 241 1 151 10 297 20 307 9 9 104 15 308 20 338 8 344 10 344 78 0 22 -1 40 -2 40 -2 0 -18 -14 -36 -30z"></path><path id="pgtHh5bUQ" d="M2424 5268 c-12 -19 -5 -245 12 -358 30 -211 84 -342 84 -202 0 31 -5 75 -11 97 -5 22 -14 106 -19 187 -5 81 -14 166 -20 189 -10 37 -9 45 4 55 22 16 20 31 -6 38 -32 8 -36 8 -44 -6z"></path><path id="pPh4S5YG5" d="M6600 5250 c0 -19 7 -20 114 -20 l114 0 7 -127 c11 -173 -7 -475 -30 -528 -17 -39 -27 -93 -44 -240 -5 -38 -18 -98 -30 -132 -11 -34 -21 -82 -21 -107 0 -26 -12 -75 -30 -119 -19 -47 -30 -93 -30 -124 0 -55 -13 -84 -68 -151 -22 -26 -43 -63 -47 -82 -9 -42 -155 -334 -202 -404 -18 -26 -33 -55 -33 -62 0 -8 -13 -38 -30 -67 -18 -33 -30 -68 -30 -90 l0 -37 43 27 c23 15 67 39 97 55 30 15 67 38 81 50 30 27 66 102 98 208 34 111 42 130 76 174 45 60 66 95 75 125 24 73 42 111 74 160 20 29 36 63 36 75 0 25 44 176 59 205 7 11 14 58 17 103 5 63 16 107 45 183 37 94 39 108 39 200 0 55 4 116 9 135 5 19 19 71 31 114 24 85 23 101 -4 261 -8 50 -18 123 -22 163 l-7 72 -193 0 c-187 0 -194 -1 -194 -20z"></path><path id="p6I7YPUBc" d="M7060 5252 c0 -17 14 -19 178 -26 97 -3 217 -9 266 -13 l89 -6 -7 -61 c-3 -34 -11 -128 -16 -211 -5 -82 -12 -189 -16 -237 -6 -78 -5 -88 10 -88 9 0 16 2 16 4 0 2 9 39 20 82 48 186 73 368 68 496 l-3 73 -302 3 c-290 2 -303 1 -303 -16z"></path><path id="pPxsG6Rb4" d="M3940 5127 c-19 -10 -26 -23 -31 -57 -3 -25 -14 -65 -23 -90 -22 -59 -31 -148 -17 -182 10 -26 15 -28 63 -28 29 0 58 4 64 8 7 4 23 34 37 67 19 47 26 86 31 178 l7 117 -53 0 c-29 0 -64 -6 -78 -13z"></path><path id="pFg9eQoZm" d="M5376 4223 c-17 -3 -48 -24 -77 -53 l-49 -49 0 -74 c0 -66 3 -79 29 -113 44 -62 76 -79 151 -79 91 1 114 9 151 57 29 36 34 51 37 109 6 91 -10 132 -65 174 -47 36 -84 42 -177 28z m129 -66 c39 -20 54 -50 55 -105 0 -67 -19 -105 -66 -127 -31 -15 -42 -15 -80 -5 -52 15 -80 46 -89 98 -15 88 50 169 124 156 20 -4 45 -11 56 -17z"></path><path id="p12NfOAYXh" d="M6393 4060 c-39 -9 -81 -41 -105 -81 -23 -37 -25 -119 -3 -119 8 0 15 5 15 11 0 5 9 29 19 53 16 34 27 45 59 54 107 32 182 -14 182 -112 0 -57 -14 -88 -50 -109 -35 -21 -115 -22 -152 -3 -27 14 -28 14 -28 -13 0 -45 23 -56 111 -55 67 2 85 6 123 30 55 35 66 58 66 140 0 147 -103 236 -237 204z"></path><path id="p6THtjFJQ" d="M5927 3723 c-15 -37 -27 -76 -27 -87 0 -10 -17 -39 -39 -65 -65 -77 -81 -111 -81 -167 0 -28 -7 -71 -15 -94 -8 -23 -15 -54 -15 -69 0 -14 -7 -35 -15 -45 -14 -18 -15 -16 -15 28 0 56 -18 94 -60 130 -29 24 -39 26 -121 26 l-89 0 0 -29 c0 -26 -4 -30 -32 -33 -37 -4 -45 -22 -47 -108 -1 -73 30 -138 79 -163 27 -14 53 -17 111 -15 l77 3 -28 -40 c-15 -22 -45 -76 -66 -119 -22 -43 -51 -92 -66 -109 -16 -16 -28 -35 -28 -43 0 -21 111 -18 200 7 41 11 89 24 106 28 67 17 73 38 13 43 l-41 3 42 63 c23 34 48 84 55 110 16 57 57 157 84 203 10 19 31 70 46 114 15 44 38 103 50 130 40 85 64 186 67 275 l3 85 -60 3 -60 3 -28 -68z m-337 -398 c89 -46 95 -186 9 -231 -63 -32 -159 7 -175 72 -4 14 -4 49 -1 77 5 41 13 57 34 74 33 27 90 30 133 8z"></path><path id="p6VrVBpUI" d="M4051 3680 c-27 -23 -40 -72 -41 -147 0 -42 9 -72 44 -145 24 -51 56 -131 71 -178 14 -46 30 -89 36 -96 5 -6 20 -31 33 -56 13 -25 44 -71 69 -104 60 -80 89 -138 81 -167 -5 -21 -1 -25 38 -35 24 -7 72 -17 108 -22 36 -6 88 -18 115 -27 37 -12 111 -17 283 -20 226 -5 232 -5 232 14 0 17 -9 21 -61 27 -34 3 -121 6 -193 6 -124 1 -248 18 -266 36 -5 5 -20 31 -34 57 -14 26 -43 69 -64 95 -22 26 -55 81 -73 122 -18 41 -48 98 -67 126 -27 42 -39 78 -61 187 -15 74 -35 147 -44 161 -9 14 -26 49 -38 78 -28 74 -63 108 -108 108 -21 -1 -46 -9 -60 -20z"></path></g></g><g id="l6CJ37cnw3KRnsTZck6AO8b" fill="rgb(186,129,71)" style="transform: none;"><g style="transform: none;"><path id="pIjPnQxwc" d="M5000 6059 c-30 -11 -71 -21 -90 -23 -48 -6 -110 -33 -110 -49 0 -7 -22 -19 -49 -26 -27 -7 -63 -22 -80 -35 -48 -36 -106 -52 -136 -38 -21 10 -32 9 -55 -3 -16 -8 -31 -19 -35 -25 -3 -5 -15 -6 -28 -1 -12 4 -40 11 -63 14 -35 6 -46 3 -76 -20 -60 -47 -73 -72 -71 -132 2 -41 -2 -58 -15 -67 -15 -12 -13 -13 15 -14 20 0 60 17 110 46 146 87 253 137 380 177 94 31 97 29 128 -70 15 -49 31 -92 36 -97 13 -15 337 -16 348 -2 13 15 61 149 61 169 0 9 4 18 9 21 10 6 100 -18 148 -40 18 -8 61 -24 95 -35 35 -11 95 -36 133 -56 75 -38 239 -146 250 -163 3 -5 23 -10 43 -10 33 1 35 2 20 14 -10 7 -18 20 -18 28 0 9 -6 21 -14 27 -7 6 -16 31 -18 55 -8 70 -90 156 -132 140 -11 -4 -34 5 -62 25 -42 31 -68 37 -134 32 -73 -5 -112 11 -242 100 -21 15 -42 18 -95 16 -62 -2 -72 1 -116 31 -54 36 -61 37 -137 11z"></path></g></g><g id="l5mLAHU2YBh8Jdi5xIYG1vH" fill="rgb(133,125,142)" style="transform: none;"><g style="transform: none;"><path id="pr6z9JqUz" d="M7871 7096 c-48 -69 -88 -89 -171 -84 -66 3 -70 2 -70 -18 0 -24 31 -34 100 -34 68 0 100 12 150 57 38 34 50 41 57 29 4 -8 25 -24 46 -36 32 -19 49 -22 126 -19 80 4 92 2 113 -17 39 -37 89 -56 155 -62 42 -3 63 -9 63 -18 0 -9 7 -9 32 3 35 18 68 44 68 54 0 4 -47 9 -104 11 -97 3 -107 5 -148 33 -24 17 -47 41 -53 53 -11 26 -32 28 -71 7 -16 -8 -53 -15 -82 -15 -50 0 -55 3 -102 50 -27 28 -56 50 -64 50 -8 0 -29 -20 -45 -44z"></path><path id="pqiSJkWBG" d="M1568 6149 c-40 -20 -105 -27 -153 -15 -28 7 -32 4 -65 -45 -44 -67 -103 -99 -195 -106 -96 -8 -89 -28 27 -86 126 -62 226 -107 238 -107 8 0 40 62 55 109 5 18 2 21 -19 21 -18 0 -30 -9 -41 -29 l-15 -29 -48 20 c-27 12 -60 29 -73 39 -23 17 -23 18 -4 25 24 9 27 12 82 59 23 20 45 45 48 56 5 16 16 19 76 19 89 0 129 18 129 60 0 17 -1 30 -2 29 -2 -1 -20 -10 -40 -20z"></path><path id="pk89LGvAH" d="M1760 6038 c0 -33 0 -33 -40 -30 -22 2 -54 -1 -70 -8 -26 -11 -30 -18 -30 -51 0 -46 21 -52 46 -13 20 29 55 30 93 2 31 -24 41 -15 41 37 0 24 4 46 8 49 26 16 192 -98 192 -131 0 -17 22 -22 45 -10 11 5 44 35 73 66 l52 56 -37 3 c-22 2 -41 -2 -48 -10 -32 -41 -44 -42 -78 -10 -51 48 -114 76 -184 80 l-63 4 0 -34z"></path><path id="pUvsbZlyZ" d="M8293 3157 c-18 -12 -67 -59 -109 -104 -81 -89 -83 -89 -132 -43 -42 40 -152 70 -207 56 -21 -5 -25 -12 -25 -40 0 -33 -1 -34 -47 -38 -33 -3 -51 0 -56 9 -5 7 -26 13 -51 13 -33 0 -52 -7 -82 -31 -41 -31 -94 -112 -94 -141 0 -26 -10 -27 -85 -7 -165 43 -201 2 -40 -45 33 -10 73 -22 89 -27 52 -16 64 -12 75 27 6 20 24 60 41 88 43 71 110 99 110 47 0 -10 7 -24 16 -32 13 -11 19 -8 38 16 23 29 25 29 116 22 23 -2 25 1 23 41 -2 40 0 42 26 42 37 0 85 -25 142 -72 25 -21 52 -38 61 -38 23 0 268 250 268 272 0 16 -46 6 -77 -15z"></path><path id="pePdmbqlI" d="M2563 2956 c-11 -20 -106 -56 -146 -56 -18 0 -57 12 -86 26 -52 26 -54 26 -83 10 -65 -39 -85 -46 -130 -46 -27 0 -75 9 -109 21 -34 12 -65 17 -69 13 -10 -10 48 -91 126 -178 27 -30 60 -69 74 -86 13 -16 31 -30 40 -30 13 0 120 94 120 106 0 12 -79 2 -90 -11 -20 -24 -33 -17 -82 48 l-47 62 64 7 c35 3 79 14 98 23 32 15 38 15 66 1 46 -24 194 -22 235 3 l32 20 13 -31 c21 -46 83 -104 121 -111 18 -4 49 -7 70 -7 33 0 39 -4 49 -30 8 -25 15 -30 42 -30 24 0 29 3 21 13 -5 6 -16 31 -23 55 l-12 42 -54 0 c-89 0 -135 32 -180 128 -24 52 -45 65 -60 38z"></path><path id="p885Vh4bk" d="M8587 2499 c-84 -63 -65 -183 31 -196 66 -9 132 44 132 104 0 30 -36 80 -71 97 -42 21 -58 20 -92 -5z m83 -61 c23 -25 24 -37 7 -59 -21 -27 -45 -30 -67 -7 -25 27 -25 43 0 68 25 25 34 25 60 -2z"></path><path id="ppsUzfiYR" d="M1957 1916 c-39 -17 -60 -52 -60 -98 0 -49 16 -79 50 -95 39 -19 66 -16 104 10 68 46 62 140 -12 178 -43 22 -44 22 -82 5z m72 -72 c17 -22 19 -30 9 -43 -31 -39 -59 -41 -81 -7 -15 22 -15 26 4 50 26 33 42 33 68 0z"></path></g></g><g id="l4aQmAUXnmNxfCXm527xksc" fill="rgb(248,138,28)" style="transform: none;"><g style="transform: none;"><path id="pdRynedsE" d="M6973 5270 c-25 -10 -28 -29 -14 -93 5 -23 15 -82 21 -132 7 -49 16 -107 21 -128 8 -32 5 -56 -15 -130 -41 -146 -47 -183 -40 -256 6 -65 4 -76 -34 -173 -30 -79 -41 -122 -46 -186 -3 -45 -10 -92 -17 -103 -15 -29 -59 -180 -59 -205 0 -12 -16 -46 -36 -75 -32 -49 -50 -87 -74 -160 -9 -30 -30 -65 -75 -125 -34 -44 -41 -59 -78 -179 -14 -44 -40 -113 -57 -154 -16 -41 -28 -76 -25 -79 6 -7 68 35 205 138 64 48 120 89 126 91 23 8 263 270 348 378 135 173 267 397 337 574 95 238 137 427 144 647 1 52 6 146 10 208 8 106 7 112 -11 112 -72 1 -583 30 -594 34 -8 3 -25 1 -37 -4z"></path><path id="pv3BgSQI" d="M2434 5256 c-6 -17 -3 -49 16 -166 5 -30 9 -93 10 -140 0 -47 7 -114 15 -150 8 -36 14 -81 15 -101 0 -33 14 -78 98 -319 60 -173 230 -491 353 -660 122 -168 429 -473 582 -578 120 -82 132 -82 101 0 -29 78 -46 113 -71 146 -31 41 -99 188 -123 267 -7 22 -27 69 -46 105 -18 36 -40 87 -48 113 -9 26 -24 65 -35 85 -10 20 -21 61 -25 91 -4 30 -17 75 -30 100 -13 25 -29 75 -35 110 -7 36 -27 99 -44 140 -26 66 -31 90 -33 186 -5 174 -10 271 -17 281 -3 6 -8 112 -12 237 -3 124 -8 233 -11 242 -5 11 -23 15 -78 15 -39 0 -185 3 -323 7 -233 5 -253 5 -259 -11z"></path><path id="pqmMnSmuK" d="M6401 5252 c-5 -10 -20 -47 -32 -81 -23 -69 -21 -132 8 -163 14 -16 14 -20 -2 -44 -36 -55 8 -190 72 -223 21 -10 56 -38 78 -60 l39 -41 -23 -44 c-21 -37 -23 -52 -18 -104 4 -33 16 -76 27 -94 12 -20 20 -51 20 -79 0 -26 7 -63 16 -84 28 -69 23 -106 -24 -163 -45 -53 -50 -66 -29 -79 26 -15 67 -99 67 -136 0 -52 -16 -79 -64 -110 -63 -40 -136 -40 -177 -1 -44 41 -59 76 -59 134 0 43 -3 50 -20 50 -15 0 -20 -7 -20 -28 0 -16 -13 -46 -30 -68 -16 -21 -34 -55 -40 -75 -16 -57 -41 -79 -99 -86 -33 -4 -51 -11 -51 -19 0 -23 -40 -146 -65 -199 -13 -27 -35 -86 -50 -130 -15 -44 -36 -95 -46 -114 -27 -46 -68 -146 -84 -203 -7 -26 -33 -78 -58 -115 -24 -37 -52 -82 -61 -100 l-16 -32 67 6 c74 6 268 70 368 120 33 17 76 36 96 42 20 6 43 19 52 29 20 22 87 151 87 167 0 7 15 35 33 61 47 70 193 362 202 404 4 19 25 56 47 82 55 67 68 96 68 151 0 31 11 77 30 124 18 44 30 93 30 119 0 25 10 73 21 107 12 34 25 94 30 132 17 147 27 201 44 240 24 57 38 291 32 519 -4 103 -7 190 -9 191 -2 2 -103 6 -225 9 -209 6 -223 5 -232 -12z"></path><path id="p1AdacqRd8" d="M3290 5247 c-30 -5 -60 -13 -67 -18 -7 -7 -12 -55 -13 -137 -5 -309 -2 -372 17 -450 8 -35 13 -78 10 -95 -3 -18 3 -57 13 -87 20 -61 36 -132 45 -200 4 -25 16 -75 26 -111 18 -60 19 -70 5 -108 -14 -42 -14 -42 20 -87 19 -24 34 -52 34 -62 0 -9 9 -23 20 -30 34 -21 112 -200 124 -287 4 -27 18 -69 32 -92 13 -23 24 -48 24 -55 0 -7 18 -39 40 -72 22 -32 40 -66 40 -74 0 -9 22 -50 50 -92 33 -51 55 -98 67 -144 14 -60 21 -71 54 -92 21 -13 47 -24 58 -24 10 0 36 -7 57 -16 69 -28 109 -45 126 -55 21 -11 180 -72 227 -88 19 -6 48 -11 65 -11 37 0 64 14 47 24 -6 4 -25 37 -41 72 -16 36 -50 92 -76 126 -25 34 -57 81 -70 106 -13 25 -28 50 -33 56 -6 7 -22 50 -36 96 -15 47 -47 128 -72 180 -41 87 -44 98 -38 147 5 40 13 60 33 78 15 14 29 25 33 25 15 0 60 -61 78 -108 12 -29 29 -64 38 -78 9 -14 29 -87 44 -161 22 -109 34 -145 61 -187 19 -28 49 -85 67 -126 18 -41 51 -96 73 -122 21 -26 50 -69 64 -95 14 -26 29 -52 34 -57 18 -19 143 -35 270 -36 74 0 188 -7 253 -15 103 -13 126 -13 186 0 38 8 99 17 137 21 83 9 101 24 158 140 21 43 51 97 66 119 62 91 140 229 140 249 0 11 9 50 21 86 11 37 18 77 15 93 -7 35 9 66 68 140 25 30 46 64 46 74 0 10 12 48 27 85 23 56 32 68 51 68 15 0 22 6 22 20 0 31 -71 28 -114 -5 -18 -14 -43 -25 -55 -25 -12 0 -31 -4 -41 -10 -14 -8 -29 -2 -69 24 -28 19 -61 38 -74 42 -41 12 -102 46 -128 70 -23 22 -30 23 -73 15 -76 -14 -118 4 -167 73 -22 29 -29 50 -29 83 0 39 5 49 50 93 27 28 58 50 69 50 69 0 70 49 2 119 l-48 51 -79 -1 c-65 -1 -80 2 -93 18 -12 14 -40 22 -105 31 -64 8 -95 17 -111 32 -27 26 -75 26 -125 0 -22 -11 -57 -24 -77 -28 -29 -6 -39 -13 -41 -30 -2 -12 -9 -22 -15 -22 -18 -1 -77 -104 -77 -134 0 -14 5 -45 12 -69 10 -40 9 -47 -10 -75 -17 -23 -22 -45 -22 -89 0 -55 -3 -61 -38 -96 -21 -20 -45 -37 -53 -37 -24 0 -47 -31 -51 -69 -4 -41 -50 -83 -70 -63 -7 7 -34 12 -61 12 -45 0 -55 -5 -103 -46 -38 -32 -54 -41 -54 -29 0 9 -9 33 -20 55 -11 22 -20 48 -20 60 0 19 -6 20 -84 20 -74 0 -85 -2 -98 -21 -13 -20 -17 -21 -49 -10 -19 6 -52 27 -72 46 -20 19 -54 43 -75 54 -25 13 -52 39 -72 71 -20 31 -48 59 -70 70 -20 10 -51 35 -68 55 -26 29 -32 44 -32 83 0 32 -9 64 -27 99 -25 48 -27 55 -14 75 34 54 41 76 41 133 0 56 3 64 40 109 22 26 40 53 40 59 0 6 8 20 18 31 10 12 24 40 31 64 10 34 16 42 35 42 13 0 39 6 57 14 19 7 49 11 66 9 18 -3 49 -2 68 1 32 6 35 10 28 29 -12 34 -6 90 17 149 11 29 20 67 20 84 0 38 16 53 63 61 l35 5 -5 -84 c-5 -81 -4 -86 18 -102 29 -20 92 -21 109 -1 16 19 27 19 46 0 11 -11 38 -15 95 -15 l80 0 -3 91 -3 91 -48 18 c-26 10 -71 21 -99 25 -29 4 -58 14 -66 21 -25 26 -182 7 -182 -22 0 -10 -12 -14 -40 -14 -52 0 -190 -64 -190 -87 0 -13 -3 -14 -12 -5 -7 7 -20 12 -30 12 -10 0 -18 8 -19 18 0 9 -1 54 -2 99 -1 45 -4 84 -7 86 -9 10 -334 12 -390 4z m2340 -1923 c58 -49 74 -111 46 -177 -22 -52 -59 -79 -113 -84 -66 -6 -111 19 -141 77 -33 65 -25 122 26 172 33 32 43 36 94 37 47 1 62 -3 88 -25z"></path><path id="pi8oH7SW5" d="M5327 5253 c-4 -3 -7 -23 -7 -44 0 -40 26 -69 61 -69 13 0 19 -17 28 -82 21 -146 39 -178 97 -178 22 0 45 -11 74 -35 33 -28 51 -35 84 -35 36 0 48 6 86 45 l44 45 96 0 96 0 27 -55 c15 -31 27 -68 27 -84 0 -44 21 -54 87 -46 51 6 63 12 96 47 20 22 37 48 37 57 1 9 7 27 15 41 25 44 18 81 -20 119 -29 28 -35 41 -35 76 0 33 -5 44 -22 53 -48 24 -115 42 -160 42 -44 0 -47 -2 -50 -27 l-3 -28 -27 27 c-16 15 -28 36 -28 46 0 14 -12 21 -51 30 -75 18 -107 15 -121 -9 -28 -45 -159 -69 -196 -36 -10 9 -22 17 -26 17 -4 0 -34 20 -66 45 -46 36 -67 45 -98 45 -21 0 -42 -3 -45 -7z"></path></g></g><g id="l4hSNQyzrxVPgbmwVk9CZj0" fill="rgb(251,153,42)" style="transform: none;"><g style="transform: none;"><path id="pp3vGSRNE" d="M5464 5488 c-18 -26 -53 -105 -65 -148 -7 -25 -16 -49 -20 -54 -11 -13 -660 -7 -675 5 -7 5 -14 22 -17 37 -14 67 -22 89 -44 125 -23 36 -27 39 -61 34 -20 -2 -91 -10 -158 -17 l-121 -13 -26 -71 c-15 -39 -30 -90 -33 -112 -3 -23 -9 -45 -13 -50 -3 -5 -35 -19 -71 -30 -42 -13 -66 -26 -68 -37 -2 -10 3 -17 12 -17 8 0 23 -8 33 -18 11 -12 34 -19 63 -20 25 -1 67 -10 95 -21 l49 -19 2 -60 1 -60 -48 0 c-27 -1 -55 5 -62 11 -56 52 -52 51 -90 17 -38 -33 -56 -32 -87 4 -18 23 -30 19 -30 -9 0 -30 -47 -147 -64 -157 -19 -13 -55 -9 -64 7 -7 13 -14 14 -37 5 -20 -7 -37 -7 -60 0 -25 8 -40 7 -71 -6 -21 -9 -52 -17 -69 -18 -27 -1 -32 -6 -46 -48 -8 -26 -23 -56 -32 -66 -9 -10 -17 -23 -17 -29 0 -6 -20 -35 -44 -64 -41 -52 -43 -57 -43 -120 0 -51 -4 -73 -20 -95 -36 -51 -37 -83 -3 -150 20 -41 29 -72 27 -95 -6 -56 37 -116 109 -152 17 -9 46 -39 64 -67 20 -32 47 -58 72 -71 21 -11 55 -36 76 -55 20 -19 55 -39 77 -45 22 -6 50 -15 62 -20 19 -7 25 -4 38 21 9 17 22 30 31 30 9 0 14 7 12 17 -2 11 -22 21 -62 30 -64 14 -136 63 -136 92 0 10 -11 28 -25 41 -14 13 -25 33 -25 45 0 12 -18 38 -41 60 -23 22 -54 58 -70 79 -36 48 -37 96 -12 301 l18 140 57 54 58 54 40 -27 c52 -34 92 -33 159 7 41 24 57 41 63 64 7 27 15 32 68 47 58 17 61 16 88 -2 15 -11 36 -29 46 -41 11 -12 25 -21 33 -21 8 0 37 -13 66 -29 29 -15 64 -31 78 -34 14 -4 38 -16 52 -27 26 -20 26 -23 12 -50 -21 -40 -19 -89 6 -129 23 -38 25 -66 11 -161 -13 -86 -45 -169 -86 -228 -18 -26 -38 -61 -45 -79 -7 -17 -23 -40 -35 -52 -25 -23 -124 -58 -205 -71 -58 -10 -91 -32 -91 -62 0 -13 8 -18 30 -18 24 0 30 -4 31 -22 0 -13 13 -48 28 -78 34 -68 51 -69 126 -5 56 48 73 53 108 30 17 -11 31 -12 55 -6 18 5 32 7 32 3 0 -3 11 10 25 29 16 20 24 42 21 54 -6 22 20 55 44 55 9 0 33 17 53 38 34 35 37 42 37 96 0 44 5 66 22 89 24 33 27 91 8 142 -9 23 -6 34 22 79 18 29 38 51 45 49 6 -2 13 8 15 24 2 23 9 29 41 35 20 4 56 17 78 29 l41 20 22 -20 c17 -16 46 -25 112 -33 65 -9 93 -17 102 -30 7 -10 24 -18 36 -18 13 0 29 -7 36 -15 11 -13 15 -13 41 0 15 8 36 15 45 15 22 0 114 -96 114 -119 0 -13 6 -17 28 -13 36 5 115 -55 131 -99 24 -70 11 -119 -49 -179 l-42 -42 24 -25 c23 -24 91 -64 135 -77 12 -4 50 -25 83 -48 l61 -40 42 16 c24 9 51 16 60 16 21 0 67 28 67 41 0 5 -21 20 -47 34 -74 40 -136 78 -171 103 -26 19 -32 30 -32 62 0 21 -7 45 -15 54 -21 21 -72 151 -80 206 -4 25 -14 62 -22 82 -14 35 -13 41 6 81 13 27 21 63 21 96 0 46 4 57 30 81 17 16 33 42 36 59 4 21 23 45 55 72 l48 40 118 0 c137 -1 188 6 175 23 -5 6 -9 23 -10 39 -1 15 -14 50 -28 79 -20 40 -26 65 -26 117 1 130 1 131 18 131 30 0 10 34 -26 43 -60 16 -140 20 -140 8 0 -6 7 -11 15 -11 9 0 15 -9 15 -21 0 -12 16 -36 35 -53 19 -18 35 -38 35 -45 0 -6 7 -22 15 -35 13 -20 14 -28 3 -51 l-12 -27 -103 3 -102 4 -49 -48 c-26 -26 -53 -47 -59 -47 -6 0 -30 16 -53 35 -36 30 -63 41 -93 36 -21 -3 -43 21 -54 61 -20 69 -30 155 -21 172 7 12 0 17 -31 26 -42 11 -67 33 -56 50 11 17 24 12 85 -35 32 -25 62 -45 66 -45 4 0 20 -12 35 -26 25 -24 30 -25 62 -15 19 6 41 9 50 5 25 -9 115 27 133 54 11 16 21 21 35 17 24 -8 24 -1 3 107 -8 46 -20 107 -25 136 -10 50 -12 52 -42 52 -18 0 -70 7 -117 15 -104 18 -165 19 -176 3z m-273 -417 c68 -27 108 -60 109 -88 0 -7 14 -40 31 -73 36 -71 34 -93 -17 -177 -19 -31 -34 -65 -34 -76 0 -29 -64 -110 -102 -128 -114 -56 -231 -42 -287 36 -8 11 -30 35 -48 54 -19 19 -39 43 -45 55 -6 12 -23 37 -39 57 -32 41 -30 67 16 159 15 30 30 61 34 68 6 14 25 25 96 58 22 10 47 23 55 30 35 27 97 54 127 54 17 0 64 -13 104 -29z"></path><path id="phadSSEDg" d="M3861 5279 c-17 -14 -39 -19 -86 -19 -34 0 -77 -3 -95 -6 l-32 -7 7 -57 c5 -45 3 -59 -9 -69 -20 -17 -20 -45 -1 -61 8 -7 15 -21 15 -31 0 -11 7 -19 16 -19 8 0 32 -11 52 -25 46 -32 52 -31 52 3 0 16 8 32 19 39 12 7 21 29 26 59 4 26 20 73 36 103 17 32 29 67 27 83 l-3 26 -24 -19z"></path><path id="p8ZqOCpHd" d="M6200 5265 c0 -20 8 -52 19 -73 10 -20 25 -53 34 -73 l14 -35 -56 3 c-50 4 -54 3 -38 -10 12 -10 17 -26 15 -50 -2 -36 15 -65 54 -95 16 -12 17 -16 3 -42 -8 -16 -15 -35 -15 -43 0 -8 -16 -32 -35 -53 -32 -35 -34 -39 -20 -58 8 -12 28 -45 45 -73 29 -48 35 -53 67 -53 19 0 48 8 64 17 l29 17 41 -40 40 -40 6 -110 c12 -199 10 -221 -31 -308 -20 -43 -36 -88 -36 -99 0 -17 5 -19 34 -14 26 4 43 -1 72 -20 l38 -26 39 44 c62 71 69 104 41 199 -8 30 -17 79 -19 109 -3 29 -13 68 -23 85 -29 49 -36 103 -18 131 9 13 22 43 30 66 l15 42 -51 46 c-28 25 -66 54 -85 64 -23 12 -40 32 -53 61 -27 64 -27 77 -1 119 l23 38 -26 34 c-14 18 -27 44 -28 57 -1 24 23 101 47 148 8 15 12 30 9 32 -2 3 -49 3 -103 0 -91 -4 -100 -3 -120 17 l-21 21 0 -35z"></path><path id="pjhHxiFXF" d="M6186 3813 c-21 -11 -54 -15 -122 -14 -76 1 -94 -1 -94 -13 0 -8 16 -18 37 -23 l37 -8 -3 -56 c-2 -46 1 -58 16 -65 27 -12 46 -11 68 3 11 7 26 13 34 13 20 0 49 37 60 77 6 19 22 50 36 69 l26 34 -33 0 c-18 -1 -46 -8 -62 -17z"></path></g></g><g id="l5WVCyN4tfv8su9WQEK6ZcX" fill="rgb(252,167,59)" style="transform: none;"><g style="transform: none;"><path id="pZF3Mo3Gk" d="M5023 5126 c-15 -5 -46 -20 -68 -35 -22 -14 -58 -35 -80 -45 -74 -35 -90 -45 -96 -58 -4 -7 -19 -38 -34 -68 -38 -76 -55 -154 -41 -179 25 -45 78 -118 109 -151 18 -19 39 -45 47 -56 8 -12 31 -32 52 -46 60 -41 201 -36 296 11 38 18 102 99 102 128 0 11 16 46 36 79 53 87 57 151 15 233 -17 34 -31 67 -31 74 -1 29 -41 60 -118 92 -84 34 -132 40 -189 21z m147 -197 c35 -5 70 -15 76 -20 21 -17 28 -142 11 -175 -25 -48 -80 -94 -147 -124 -14 -6 -35 -21 -48 -33 -22 -20 -24 -21 -33 -4 -13 23 -61 67 -74 67 -11 0 -68 81 -84 120 -6 14 -15 52 -21 84 -12 70 -8 75 60 76 25 1 63 5 85 9 57 12 101 12 175 0z"></path><path id="pmqqXK7Q6" d="M4115 4810 c-38 -10 -73 -19 -77 -19 -4 -1 -11 -15 -16 -33 -6 -25 -21 -40 -65 -65 l-57 -34 -37 25 c-72 48 -90 45 -162 -26 l-63 -62 -4 -67 c-2 -37 -8 -78 -13 -91 -5 -13 -10 -84 -10 -157 -2 -152 1 -160 88 -246 30 -28 51 -58 51 -70 0 -12 11 -32 25 -45 14 -13 25 -31 25 -41 0 -23 65 -74 115 -89 22 -7 64 -14 93 -17 66 -6 68 9 11 83 -45 59 -80 83 -156 108 -28 9 -57 24 -63 32 -7 7 -21 14 -31 14 -15 0 -19 7 -19 35 0 50 -20 136 -38 165 -12 19 -16 54 -17 145 -1 69 -7 130 -14 142 -7 15 -8 24 -1 28 11 7 100 22 260 46 41 6 89 17 105 25 62 29 87 28 160 -9 60 -30 83 -35 158 -39 48 -2 91 -9 95 -14 8 -8 1 -179 -14 -342 -7 -73 -28 -104 -108 -157 -28 -19 -76 -55 -106 -80 -30 -25 -62 -45 -71 -45 -29 0 -79 -63 -79 -100 0 -32 1 -32 19 -16 10 9 42 21 72 26 81 13 180 48 205 71 12 12 28 35 35 52 7 18 27 53 45 79 60 85 96 217 97 353 0 45 -5 69 -21 96 l-22 36 21 47 c19 44 19 49 5 71 -15 23 -96 73 -96 60 0 -3 -25 8 -54 25 -30 16 -61 30 -69 30 -8 0 -21 8 -28 17 -16 19 -89 73 -98 72 -3 0 -37 -9 -76 -19z"></path><path id="p1R6JMicy" d="M6171 4766 c-15 -18 -79 -25 -91 -10 -7 8 -56 10 -166 8 l-155 -3 -48 -41 c-32 -26 -51 -50 -55 -71 -3 -17 -19 -43 -36 -59 -38 -35 -38 -40 2 -40 63 0 160 32 207 68 73 56 101 64 156 48 25 -8 52 -20 60 -26 8 -7 45 -15 82 -17 55 -5 81 -13 133 -43 36 -21 82 -41 103 -44 42 -8 46 -20 21 -68 -18 -34 -16 -113 5 -212 10 -47 10 -77 1 -143 -7 -46 -10 -86 -8 -88 2 -2 13 -2 25 1 31 8 92 148 100 227 3 34 0 103 -6 152 -7 59 -7 104 -1 130 10 40 9 41 -44 93 -61 58 -81 63 -134 30 -40 -24 -32 -30 -91 66 -37 60 -42 63 -60 42z"></path><path id="pMXNKusew" d="M5590 4481 c0 -22 -4 -43 -10 -46 -5 -3 -17 -30 -25 -60 -15 -49 -15 -57 0 -85 9 -17 22 -62 30 -98 15 -76 56 -185 78 -207 10 -10 14 -27 10 -52 -4 -37 -2 -39 49 -71 204 -128 211 -132 237 -108 14 13 37 16 122 14 92 -3 109 0 146 20 46 24 63 47 63 84 0 13 7 36 15 52 8 15 15 30 15 32 0 10 -50 2 -98 -16 -29 -11 -65 -20 -82 -20 -23 0 -37 -10 -65 -46 -19 -26 -35 -51 -35 -55 0 -12 -74 71 -94 106 -16 27 -116 98 -188 134 -16 7 -28 17 -28 22 0 5 -6 9 -14 9 -13 0 -76 84 -76 102 0 4 9 31 20 60 28 74 26 146 -6 214 -18 38 -31 54 -45 54 -15 0 -19 -7 -19 -39z"></path></g></g><g id="l71cLLlnzaYr85iPaKD6T9" fill="rgb(252,190,87)" style="transform: none;"><g style="transform: none;"><path id="paZWDcifh" d="M4405 5500 c-49 -3 -100 -13 -112 -20 -24 -15 -68 -155 -79 -253 l-6 -55 25 5 c27 5 31 12 42 73 3 19 18 67 32 106 l27 72 85 7 c47 4 106 10 129 15 44 8 44 8 70 -36 15 -24 30 -44 34 -44 5 0 8 22 8 48 0 35 -6 54 -20 70 -23 24 -54 26 -235 12z"></path><path id="p14RdMuMKY" d="M5730 5451 c0 -6 6 -11 14 -11 15 0 19 -16 47 -175 7 -38 17 -75 23 -81 11 -11 88 -34 201 -59 33 -7 76 -18 95 -24 19 -6 36 -11 38 -11 2 0 2 15 0 33 -3 32 -3 32 -140 77 l-137 45 -21 70 c-41 139 -42 140 -83 143 -21 2 -37 -1 -37 -7z"></path><path id="pbnPhgVec" d="M5384 5353 l-18 -38 -211 0 c-115 0 -263 -3 -328 -8 -114 -7 -119 -6 -124 13 -3 13 -14 20 -29 20 -21 0 -23 -3 -17 -32 3 -18 11 -38 17 -45 15 -15 721 -23 734 -8 5 6 14 28 20 50 25 89 25 85 -2 85 -18 0 -29 -9 -42 -37z"></path><path id="pTzwJzZ5q" d="M4815 4933 c-11 -10 -15 -25 -11 -42 3 -14 11 -51 16 -81 6 -30 15 -66 21 -80 16 -39 73 -120 85 -120 12 0 74 -59 74 -71 0 -5 12 -16 26 -26 25 -16 26 -16 52 16 14 19 39 40 56 48 72 33 126 76 149 118 19 36 25 98 14 157 -16 87 -37 78 -101 -42 -54 -102 -118 -201 -141 -220 -11 -9 -16 -6 -26 12 -7 13 -31 52 -54 88 -51 79 -105 184 -105 205 0 8 9 15 20 15 13 0 20 7 20 20 0 17 -7 20 -39 20 -24 0 -46 -7 -56 -17z"></path><path id="pWCfvW3cf" d="M5875 4697 c-16 -8 -51 -30 -76 -50 -33 -25 -70 -41 -125 -54 -77 -19 -79 -20 -82 -51 -3 -25 1 -32 14 -32 10 0 25 6 33 13 10 9 73 19 171 27 197 17 198 17 304 -3 49 -9 131 -17 182 -17 87 0 94 1 94 20 0 12 -7 20 -17 20 -9 0 -48 18 -85 41 -56 33 -79 41 -126 42 -36 2 -75 11 -104 25 -59 29 -142 37 -183 19z"></path><path id="p18W8sqA0E" d="M4087 4648 c-27 -5 -59 -15 -70 -22 -12 -8 -51 -16 -86 -20 -36 -3 -79 -10 -95 -16 -17 -5 -48 -12 -68 -15 -21 -3 -38 -12 -38 -19 0 -10 71 -13 346 -14 244 -1 350 -4 360 -12 11 -10 8 -21 -21 -66 -46 -72 -59 -106 -74 -189 -7 -38 -15 -81 -17 -93 -3 -13 -43 -64 -89 -113 -47 -49 -85 -95 -85 -102 0 -7 -11 -29 -25 -49 -16 -23 -25 -51 -25 -74 l0 -38 38 37 c21 20 44 37 52 37 8 0 40 20 70 45 30 25 78 61 106 80 28 18 63 48 77 64 27 33 28 38 46 286 5 72 12 141 16 155 12 48 -12 63 -111 68 -75 4 -99 9 -154 37 -85 42 -96 44 -153 33z"></path><path id="p1GM903did" d="M3666 4561 c-28 -11 -35 -41 -20 -81 9 -22 15 -82 17 -155 2 -93 6 -126 19 -145 9 -14 22 -56 29 -95 15 -86 48 -127 123 -151 28 -9 70 -29 94 -45 l42 -28 0 33 c0 70 -12 96 -72 156 -52 51 -64 71 -89 142 -16 46 -29 101 -29 122 0 26 -8 50 -24 71 -36 46 -58 105 -57 148 1 39 -1 41 -33 28z"></path><path id="pWQjKeDTB" d="M5646 4378 c4 -21 -4 -61 -20 -110 -21 -62 -24 -82 -15 -105 16 -43 60 -103 75 -103 8 0 14 -4 14 -8 0 -5 12 -15 28 -23 48 -24 167 -104 175 -117 32 -49 38 58 7 114 -12 20 -49 78 -83 128 -34 51 -80 129 -102 174 -32 64 -45 81 -62 82 -19 0 -21 -4 -17 -32z"></path><path id="pfVoJd3FS" d="M6342 4372 c-12 -20 -26 -44 -31 -52 -23 -39 -161 -328 -161 -337 0 -5 -9 -18 -20 -28 -14 -12 -20 -31 -20 -58 0 -38 1 -39 18 -24 10 10 30 17 45 17 47 0 137 40 149 66 6 13 28 35 49 49 20 15 40 33 43 42 14 36 18 181 6 238 -7 33 -15 75 -17 93 -7 44 -32 42 -61 -6z"></path></g></g><g id="l5GtOOEV0LtEWzYCPLOYxjD" fill="rgb(186,181,189)" style="transform: none;"><g style="transform: none;"><path id="p12iR4jhbO" d="M6913 8680 c-3 -12 -20 -28 -37 -37 l-31 -16 25 -11 c14 -6 35 -22 46 -35 l21 -25 8 23 c3 12 18 26 31 31 13 5 24 14 24 20 0 6 -11 15 -24 20 -13 5 -27 18 -31 29 -8 27 -25 27 -32 1z"></path><path id="pC5nuq7Zr" d="M8798 7546 c-27 -20 -23 -70 6 -86 32 -16 54 -8 62 25 14 56 -27 93 -68 61z"></path><path id="pxPQjkSQo" d="M1254 3419 c-17 -19 -17 -23 -3 -47 18 -33 46 -40 64 -15 20 25 18 47 -3 66 -24 22 -35 21 -58 -4z"></path><path id="poSyhwkLt" d="M7410 3013 c0 -5 -12 -22 -28 -40 -25 -30 -115 -72 -184 -87 -32 -7 -37 -24 -10 -32 9 -3 26 -10 37 -15 11 -5 48 -15 83 -23 l62 -14 0 23 c0 13 -7 28 -16 33 -14 8 -9 14 27 38 40 27 44 34 47 77 2 28 -1 47 -7 47 -6 0 -11 -3 -11 -7z"></path><path id="pN6lFpzVH" d="M7350 1891 c-15 -29 -12 -45 13 -69 19 -18 26 -20 47 -9 28 14 39 59 19 83 -17 21 -66 18 -79 -5z"></path><path id="pr8OQicJb" d="M3176 1176 c-4 -15 -17 -28 -36 -34 -38 -14 -38 -27 1 -41 17 -6 33 -20 36 -31 7 -28 30 -25 37 5 4 15 17 30 31 35 30 12 33 30 4 30 -14 0 -24 10 -32 30 -14 36 -33 39 -41 6z"></path><path id="pOC47BFAY" d="M4902 594 c-30 -21 -30 -73 2 -103 l23 -22 7 47 c13 96 8 107 -32 78z"></path></g></g><g id="l3MDjByfB6GHKSz5zdJKrPH" fill="rgb(252,226,89)" style="transform: none;"><g style="transform: none;"><path id="p8jCjOLCb" d="M4024 5497 c-91 -98 -111 -127 -194 -282 -27 -49 -56 -167 -46 -184 3 -4 31 4 62 20 56 26 130 52 307 104 48 14 87 30 87 35 0 4 3 16 6 25 6 14 -3 16 -77 14 l-84 -2 -22 33 c-32 46 -29 63 17 121 46 58 52 99 22 149 l-19 30 -59 -63z"></path><path id="pfJcsT86f" d="M6033 5483 c-22 -45 -16 -105 14 -150 15 -23 36 -44 47 -47 12 -3 29 -17 39 -31 18 -25 18 -26 -12 -62 -17 -21 -31 -41 -31 -45 0 -26 112 -96 198 -122 35 -11 37 16 7 91 -28 72 -104 218 -138 268 -22 31 -97 118 -107 122 -3 2 -11 -9 -17 -24z"></path><path id="powm1YrNh" d="M3734 4345 c9 -13 16 -41 16 -62 0 -21 13 -75 29 -121 25 -71 37 -91 89 -142 43 -44 62 -70 67 -97 9 -49 90 -153 120 -153 32 0 49 22 122 160 14 25 55 77 93 115 73 75 105 126 97 156 -3 11 -2 34 3 52 22 87 22 87 -2 87 -23 0 -35 -17 -111 -154 -67 -120 -92 -163 -119 -204 -32 -46 -33 -46 -126 -16 -23 8 -55 14 -71 14 -27 0 -29 2 -33 55 -3 38 -16 78 -40 124 -20 37 -39 83 -43 102 -4 19 -14 51 -22 72 -14 33 -19 37 -50 37 -35 0 -35 0 -19 -25z"></path><path id="pKoz3YoSS" d="M5888 3978 c7 -7 12 -22 12 -35 0 -44 102 -173 137 -173 18 0 53 43 106 133 l18 30 -45 -6 c-48 -7 -133 18 -167 49 -20 18 -79 20 -61 2z"></path></g></g><g id="l2ZNzRv8XXcUJEN69aSZhOj" fill="rgb(253,234,119)" style="transform: none;"><g style="transform: none;"><path id="pxDMzBfl0" d="M4309 5731 c-90 -54 -171 -116 -218 -165 -37 -38 -36 -33 -3 -97 1 -4 -19 -34 -46 -68 l-50 -62 14 -46 c16 -52 39 -92 57 -99 7 -2 50 -1 97 3 l85 8 6 40 c5 29 2 45 -12 65 -10 14 -23 44 -29 67 -6 23 -15 45 -20 48 -12 7 59 95 76 95 7 0 14 -7 18 -15 3 -9 19 -15 41 -15 34 0 35 1 35 38 -1 20 -7 48 -15 62 -25 44 -19 76 20 106 26 19 35 34 35 55 0 16 -3 29 -7 28 -5 -1 -42 -22 -84 -48z"></path><path id="pAIJQu51J" d="M5790 5686 c0 -19 5 -38 10 -41 6 -3 10 -33 10 -66 l0 -60 -46 -19 c-25 -11 -63 -20 -85 -20 -27 0 -39 -4 -39 -14 0 -16 30 -26 82 -26 44 0 60 -19 79 -93 12 -50 35 -71 50 -46 34 57 42 51 49 -39 l5 -66 107 -36 107 -37 36 45 c27 35 33 51 28 71 -9 37 -34 70 -59 77 -23 6 -74 79 -74 105 0 10 5 21 10 24 6 3 10 17 10 30 0 35 -153 172 -267 239 -10 5 -13 -3 -13 -28z"></path><path id="p18nzbiReJ" d="M4931 4954 c-97 -17 -101 -19 -101 -47 0 -23 4 -24 58 -25 31 0 82 5 113 12 52 13 59 12 115 -11 32 -14 63 -28 67 -32 4 -5 -3 -34 -17 -66 -30 -67 -36 -146 -10 -124 9 7 32 44 51 83 19 38 46 87 59 108 45 70 31 91 -66 107 -84 14 -177 12 -269 -5z"></path><path id="p4wsHbKa4" d="M3672 4558 c-18 -18 -15 -61 8 -119 22 -54 54 -102 65 -97 4 2 13 -8 20 -22 l13 -25 12 30 c7 17 15 63 18 103 5 72 6 74 38 90 20 9 34 23 34 34 0 16 -10 18 -98 18 -63 0 -102 -4 -110 -12z"></path><path id="pqoU7iUTG" d="M6200 4543 c0 -12 5 -23 11 -25 22 -7 68 -191 69 -275 0 -18 4 -33 9 -33 10 0 41 44 41 59 0 5 16 32 35 61 19 29 35 58 35 65 0 7 9 32 20 56 22 50 26 94 8 105 -7 4 -61 8 -120 8 -104 1 -108 0 -108 -21z"></path><path id="pcb7kYgpX" d="M3862 4074 c29 -80 61 -121 106 -134 65 -20 156 -39 164 -34 4 3 21 25 38 49 25 36 27 44 14 49 -25 9 -73 7 -96 -5 -16 -9 -24 -7 -43 11 -13 12 -29 35 -35 51 -16 39 -46 56 -112 64 l-56 7 20 -58z"></path><path id="pcUIVsiyF" d="M6196 4113 c-4 -5 -42 -8 -84 -8 -54 0 -87 -5 -111 -17 -41 -22 -79 -22 -105 -3 -19 14 -76 21 -76 9 0 -3 14 -25 30 -49 17 -24 30 -48 30 -52 0 -33 151 -113 213 -113 23 0 87 56 87 76 0 5 18 44 39 87 l40 77 -28 0 c-15 0 -31 -3 -35 -7z"></path></g></g><g id="l6qnaB1s2gXkPHLUeDmEy5f" fill="rgb(253,242,143)" style="transform: none;"><g style="transform: none;"><path id="pYSjYmDcE" d="M4630 5880 c-135 -44 -230 -92 -287 -146 -48 -46 -60 -85 -40 -140 31 -86 30 -81 15 -62 -8 9 -30 19 -49 23 -33 6 -37 3 -87 -55 l-52 -62 20 -28 c12 -16 27 -50 35 -75 7 -26 22 -56 31 -66 17 -19 17 -21 -11 -45 l-30 -24 35 2 c26 2 36 8 38 23 1 11 14 63 28 116 29 111 38 119 131 127 61 5 65 7 91 45 15 22 39 52 53 66 14 14 33 38 42 53 10 15 28 30 42 34 41 10 65 65 65 149 0 41 -3 76 -7 78 -5 3 -33 -3 -63 -13z"></path><path id="pzaC7Qjlk" d="M5490 5835 c0 -13 10 -31 21 -39 39 -27 22 -146 -21 -146 -17 0 -20 -7 -20 -39 0 -22 5 -43 10 -46 6 -4 7 -28 3 -63 -6 -52 -5 -56 10 -43 13 10 29 11 80 2 95 -16 169 -14 220 8 42 18 46 23 52 65 4 24 4 49 1 54 -3 6 -2 22 3 35 8 20 6 29 -10 43 -10 9 -19 22 -19 28 0 27 -180 120 -302 156 -25 8 -28 6 -28 -15z"></path><path id="p1BEhF2kjj" d="M5840 5358 c-17 -23 -28 -47 -26 -54 3 -7 10 -30 15 -51 10 -35 15 -39 68 -56 64 -19 102 -22 66 -5 -28 13 -37 40 -29 83 8 41 -14 99 -43 114 -18 10 -24 6 -51 -31z"></path><path id="pCeArsReC" d="M4837 4914 c-13 -14 -7 -40 27 -110 58 -121 176 -299 189 -284 43 51 97 123 97 130 0 6 -17 10 -39 10 -42 0 -131 35 -131 51 0 5 -9 22 -19 37 -24 33 -37 97 -22 106 6 4 11 20 11 35 0 27 -2 28 -53 30 -29 1 -56 -2 -60 -5z"></path><path id="ph5hflq8M" d="M5900 4590 c-25 -4 -97 -11 -160 -15 -119 -8 -150 -19 -150 -56 0 -25 154 -322 201 -388 54 -75 90 -96 159 -92 30 2 60 6 65 11 25 18 75 26 129 20 52 -6 62 -4 86 16 33 28 80 130 82 176 1 41 -18 144 -40 222 -20 69 -30 75 -163 100 -92 17 -136 18 -209 6z m184 -76 c8 -3 34 -31 57 -62 24 -32 47 -60 52 -63 13 -9 1 -82 -19 -123 -9 -17 -32 -48 -51 -68 -31 -31 -39 -35 -60 -27 -33 12 -93 11 -132 -2 -28 -10 -35 -8 -65 15 -18 14 -43 43 -54 65 -25 48 -55 187 -47 218 5 22 10 23 98 24 50 0 110 6 132 14 46 15 67 17 89 9z"></path><path id="pec8tI6mh" d="M3909 4574 c-35 -6 -79 -18 -96 -27 -33 -17 -39 -34 -35 -92 0 -11 -4 -40 -9 -64 -9 -37 -7 -57 11 -115 23 -77 56 -151 78 -172 7 -8 26 -14 41 -14 28 0 81 -39 81 -59 0 -19 62 -81 82 -81 10 0 29 5 41 12 12 7 35 12 51 12 25 1 35 10 62 56 18 30 33 58 34 63 0 4 -19 7 -41 7 -37 0 -47 6 -94 55 -39 42 -58 55 -81 55 -28 0 -64 18 -112 57 -20 16 -22 23 -13 47 6 15 11 49 11 75 0 37 5 52 24 70 50 47 253 69 313 35 32 -19 113 -119 113 -140 0 -8 7 -14 15 -14 8 0 15 5 15 11 0 6 20 44 45 83 50 81 53 95 27 119 -16 14 -44 17 -173 18 -85 0 -193 4 -240 7 -50 4 -114 2 -150 -4z"></path></g></g><g id="l7HzpDxdvfSSv5mPeCP7NFd" fill="rgb(215,212,217)" style="transform: none;"><g style="transform: none;"><path id="p18MwAFMr2" d="M5256 9078 c-3 -7 -11 -33 -18 -57 -12 -39 -18 -45 -63 -60 -28 -9 -50 -20 -50 -26 0 -5 21 -17 47 -25 57 -18 61 -22 73 -72 11 -42 31 -61 40 -36 2 7 9 31 14 54 10 39 13 41 66 53 32 7 55 18 55 25 0 8 -23 20 -52 28 -52 14 -53 16 -68 68 -15 52 -36 75 -44 48z"></path><path id="pcD8YQMn8" d="M7867 8264 c-17 -5 -47 -52 -47 -75 0 -8 13 -9 44 -5 59 9 86 -7 86 -51 0 -39 12 -42 34 -8 21 32 20 87 -2 115 -17 21 -78 34 -115 24z"></path><path id="p1GebhUgvV" d="M9047 5703 c-24 -6 -50 -59 -41 -86 18 -56 84 -74 122 -34 55 58 -1 141 -81 120z"></path><path id="pgwEafU3e" d="M1630 4663 c-48 -33 -53 -61 -15 -98 33 -34 77 -33 104 1 32 41 24 76 -26 102 -28 16 -34 15 -63 -5z"></path><path id="p94gByWee" d="M9026 3859 c-19 -15 -26 -30 -26 -53 0 -27 6 -36 35 -52 34 -18 36 -18 70 0 29 16 35 25 35 52 0 35 -37 74 -70 74 -10 0 -29 -9 -44 -21z"></path><path id="pzSjdf4vl" d="M7202 1173 c-5 -10 -15 -39 -22 -65 -10 -38 -17 -48 -34 -48 -76 -1 -87 -33 -19 -53 46 -13 49 -17 64 -66 8 -29 19 -52 25 -52 5 0 16 23 24 52 15 51 17 53 64 65 26 7 50 15 53 18 11 11 -9 25 -46 31 -47 8 -54 15 -71 78 -15 54 -25 65 -38 40z"></path></g></g><g id="l71mkJtMZyowMsKGOSY7bhw" fill="rgb(253,250,164)" style="transform: none;"><g style="transform: none;"><path id="prPy17x0q" d="M5251 5917 c-6 -6 -11 -17 -11 -25 0 -23 -52 -162 -63 -169 -14 -8 -277 -6 -286 2 -3 3 -20 48 -36 98 l-31 92 -54 -3 c-30 -1 -67 -7 -81 -13 -26 -10 -27 -13 -22 -67 4 -47 1 -64 -16 -94 -12 -20 -33 -39 -46 -42 -14 -4 -32 -19 -42 -34 -9 -15 -27 -38 -40 -52 -13 -14 -44 -52 -70 -84 l-46 -59 91 7 c84 6 92 5 111 -15 10 -11 22 -42 26 -68 9 -67 46 -126 76 -125 13 1 93 7 178 13 189 13 347 14 424 1 61 -10 87 -6 87 14 0 6 18 38 40 71 22 33 40 64 40 68 0 5 9 20 20 34 22 28 29 117 10 128 -17 10 -11 23 12 27 16 2 25 13 33 40 5 20 13 40 18 44 10 11 9 62 -3 69 -5 3 -10 14 -10 23 0 18 -43 50 -100 75 -85 37 -193 60 -209 44z"></path><path id="pfC0rVtnH" d="M4978 4927 c-66 -16 -82 -42 -75 -119 3 -39 13 -71 26 -89 12 -16 21 -33 21 -38 0 -20 93 -52 143 -49 55 3 56 5 106 130 44 109 44 110 -44 147 -80 33 -103 36 -177 18z"></path><path id="pyUFcJtjr" d="M5985 4540 c-43 -12 -103 -20 -156 -20 -97 0 -99 -2 -99 -71 0 -60 28 -185 52 -231 22 -41 89 -98 117 -98 8 0 34 7 57 16 39 15 46 15 94 -1 l52 -17 40 38 c51 50 75 97 87 170 8 55 6 83 -9 94 -3 3 -25 31 -49 62 -26 34 -54 61 -73 67 -37 13 -28 14 -113 -9z"></path><path id="pK9RyXo8l" d="M3991 4525 c-75 -18 -105 -50 -108 -118 -2 -28 -6 -74 -9 -101 -6 -43 -4 -51 17 -68 50 -40 85 -58 113 -58 23 0 42 -13 87 -61 l58 -61 47 8 c44 9 48 12 79 69 17 33 53 94 78 136 26 42 47 87 47 101 0 31 -73 129 -113 152 -36 20 -214 21 -296 1z"></path></g></g><g id="l74b3BWLnz4K1Qt7vRHL5Ta" fill="rgb(242,241,242)" style="transform: none;"><g style="transform: none;"><path id="pbOKfIrXe" d="M2435 8976 c-33 -14 -55 -52 -55 -92 0 -60 67 -105 126 -84 31 11 64 55 64 85 0 32 -32 77 -65 91 -40 16 -33 16 -70 0z"></path><path id="p15KsvMdmn" d="M7843 8218 c-29 -14 -30 -51 -3 -95 24 -41 61 -51 106 -30 31 15 34 20 34 61 0 40 -3 45 -34 60 -39 18 -71 19 -103 4z"></path><path id="p18oVP9GaA" d="M2032 7590 c-27 -25 -28 -57 -3 -89 37 -48 100 -20 101 45 0 58 -56 83 -98 44z"></path><path id="pmZS9b331" d="M7885 7088 c-11 -17 -37 -45 -58 -62 -31 -25 -47 -30 -91 -30 -29 -1 -65 6 -81 14 -26 14 -29 13 -39 -4 -43 -73 -109 -112 -207 -123 -95 -10 -93 -14 54 -92 54 -29 113 -61 130 -72 41 -25 54 -24 63 4 19 63 125 167 170 167 6 0 14 -18 17 -41 7 -53 12 -57 47 -31 34 26 63 28 84 7 25 -25 36 -17 36 25 0 25 5 43 14 46 26 10 107 -39 160 -97 29 -33 56 -59 60 -59 5 0 101 66 141 97 66 51 105 86 105 92 0 5 -33 10 -72 13 -82 5 -126 24 -179 74 -35 34 -36 34 -72 19 -78 -32 -157 -12 -214 56 -31 37 -43 36 -68 -3z"></path><path id="patxcs5kT" d="M1648 6237 c-44 -93 -102 -130 -194 -125 -62 3 -65 2 -83 -27 -10 -17 -33 -43 -52 -58 -19 -15 -40 -32 -47 -38 -7 -6 -43 -16 -80 -23 l-67 -13 65 -33 c114 -58 221 -110 225 -110 3 0 14 19 26 42 25 50 131 158 154 158 8 0 18 -8 21 -17 3 -10 10 -28 15 -40 l8 -23 25 25 c29 29 40 30 80 10 42 -22 46 -19 46 31 l0 47 35 -6 c54 -9 119 -45 166 -93 l43 -44 35 27 c20 15 41 32 46 39 6 6 15 13 21 15 17 6 144 120 144 130 0 4 -31 5 -70 2 -86 -7 -141 11 -194 64 -31 32 -40 35 -54 25 -85 -62 -159 -53 -245 30 -22 21 -43 38 -47 38 -3 0 -13 -15 -22 -33z"></path><path id="p1B2dXgOYK" d="M636 5375 c-21 -33 -20 -61 4 -85 58 -58 150 20 99 83 -28 36 -80 37 -103 2z"></path><path id="pi6FheONX" d="M7676 3188 c-40 -90 -109 -135 -192 -125 -45 5 -45 4 -64 -37 -10 -22 -21 -48 -24 -58 -5 -16 -89 -75 -136 -95 -24 -10 -24 -11 -5 -18 11 -4 43 -18 70 -30 60 -28 142 -55 166 -55 13 0 22 12 29 38 14 54 49 106 94 142 45 35 69 36 74 2 5 -33 26 -37 61 -11 28 20 35 22 64 11 48 -17 49 -16 42 32 -8 52 2 59 65 45 48 -11 72 -22 103 -49 12 -10 33 -28 46 -39 13 -12 29 -21 35 -21 13 0 226 219 226 233 0 5 -12 7 -27 3 -114 -26 -197 -16 -254 31 l-30 26 -48 -27 c-66 -36 -121 -35 -188 4 -28 16 -54 34 -58 40 -13 20 -26 9 -49 -42z"></path><path id="p19Zp1i1ai" d="M2557 2925 c-15 -7 -37 -21 -49 -29 -14 -10 -44 -16 -84 -16 -49 0 -69 5 -98 25 -45 30 -50 31 -86 5 -51 -36 -120 -45 -196 -27 -37 10 -69 15 -72 13 -2 -3 18 -29 45 -58 27 -29 67 -75 89 -103 68 -87 71 -89 111 -58 46 36 121 69 173 78 l42 7 -7 -52 -7 -53 28 6 c16 3 37 9 46 12 12 5 27 -3 48 -27 30 -32 32 -32 46 -14 7 11 14 25 14 32 0 6 7 17 15 24 13 11 22 6 56 -29 41 -44 89 -131 89 -163 0 -36 26 -35 180 9 30 9 60 19 65 23 6 5 25 12 43 17 39 10 41 25 5 36 -59 18 -90 38 -139 89 -29 29 -55 63 -59 76 -5 18 -14 22 -44 22 -93 0 -155 39 -194 122 -22 47 -28 50 -60 33z"></path><path id="pER4t8yxq" d="M8580 2470 c-30 -30 -36 -68 -15 -107 20 -37 48 -48 99 -39 62 12 82 95 35 145 -26 28 -91 29 -119 1z"></path><path id="pI5W4Vpd5" d="M1939 1881 c-55 -56 -29 -137 47 -148 33 -4 43 -1 67 22 38 38 37 87 -2 126 -18 17 -40 29 -56 29 -16 0 -38 -12 -56 -29z"></path><path id="prAgCZrJq" d="M4916 601 c-4 -5 -9 -30 -12 -55 -8 -56 6 -76 51 -76 65 0 93 73 48 123 -17 18 -78 24 -87 8z"></path></g></g></svg>