<svg fill="none" viewBox="0 0 1041 1049">
  <path fill="#2D213D" d="M1027 514c0 283-227 513-506 513A510 510 0 0 1 15 514C15 230 242 0 521 0s506 230 506 514Z"/>
  <path fill="#F2F1F2" d="M241 903c-3-2-5-6-5-10 0-6 7-10 12-8 4 1 7 6 7 9s-3 7-7 9h-7Zm541-76c-3-2-3-5 0-10 2-4 6-5 10-3s4 2 4 6 0 5-4 6c-3 2-7 2-10 1Zm-581-63c-3-2-3-6 0-9 3-5 10-2 10 5 0 5-6 8-10 4Zm585-50-5-6c-4-3-5-3-10-3l-8 1h-4c-4-8-10-12-20-13s-10-1 5-9l13-7c4-3 6-2 6 0 2 7 13 17 17 17l2-4c1-5 1-6 5-3 3 2 6 3 8 1 3-3 4-2 4 2l1 5c3 1 11-4 16-10l6-6a164 164 0 0 1 25 19l-7 1c-9 1-13 3-18 8-4 3-4 3-7 2-8-4-16-2-22 5-3 4-4 4-7 0Zm-623-85c-5-10-11-13-20-13-6 1-6 0-8-2l-5-6-5-4-8-2-7-2 7-3 22-11 3 4c2 5 13 16 15 16l2-2 2-4 1-2 2 3c3 2 4 3 8 1 4-3 5-2 5 3v4h3c6-1 12-5 17-10l4-4 4 3 4 4 2 1 15 13h-7c-9 0-14 1-20 7-3 3-4 3-5 2-8-6-16-5-24 3l-5 4-2-3ZM61 543c-2-4-2-7 1-9 6-6 15 2 10 8-3 4-8 4-11 1Zm704-219c-4-9-10-14-19-13-4 1-4 1-6-3l-3-6c0-2-8-8-13-10-3-1-3-1-1-1l7-3 17-6 3 4c1 5 5 10 9 14 5 4 7 4 8 0 0-3 2-3 6-1 3 2 3 2 6 1 5-1 5-1 4 3 0 6 1 6 7 5 5-1 7-2 10-5l5-4 3-2c2 0 23 22 23 23l-3 1c-11-3-20-2-25 3l-3 2-5-2c-7-4-12-4-19 0l-6 4c-1 2-2 1-5-4Zm-511-26-5-3-9-2c-5 0-7 1-10 3-4 3-5 3-8 0-5-4-12-4-20-3l-7 2 5-6 8-10c7-9 8-9 12-6s12 7 17 8h4l-1-5v-5h2l5 2 5-3c3-3 3-3 4-2l2 4 1 2c2 1 3 1 6-3 4-4 9-13 9-16 0-4 2-4 18 1l6 2 5 2c4 1 4 2 0 3-6 2-9 4-14 9l-6 8c0 2-1 2-4 2-9 0-16 4-19 12-3 5-3 5-6 4Zm602-46c-3-3-4-7-2-11 2-3 5-4 10-4 6 2 8 10 4 15-3 3-9 3-12 0Zm-664-59c-6-5-3-14 4-15 4 0 5 0 7 3 4 3 4 8 0 12l-6 3-5-3ZM489 65l-1-5c-1-6 1-8 5-8 7 0 10 7 5 12-2 2-8 3-9 1Z"/>
  <path fill="#FF8C14" d="M262 528a260 260 0 1 1 520 0H262Z"/>
  <path fill="#fff" d="M716 528a194 194 0 1 1-388 0h388Z"/>
  <path fill="#8C3C00" d="M610 374a14 14 0 1 0 0-28 14 14 0 0 0 0 28Zm70 64a14 14 0 1 0 0-28 14 14 0 0 0 0 28Zm-79 16a14 14 0 1 0 0-29 14 14 0 0 0 0 29Z"/>
  <path fill="#000" d="m396 755-46 111 61 25 46-111a260 260 0 0 0 325-252h-66a195 195 0 0 1-388 0h-66c0 98 54 183 134 227Z"/>
  <path fill="#00641E" d="M630 137c-51 0-96 28-119 70 18 17 31 38 38 62 60-14 104-66 105-130l-24-2Z"/>
  <path fill="#00961E" d="M419 171c-10 0-20 1-29 4a135 135 0 0 0 159 94c-16-57-68-98-130-98Z"/>
  <path fill="#955F3D" d="M718 529a199 199 0 0 1-197 198 197 197 0 0 1-198-198h395Z"/>
  <path fill="#DD7217" d="m408 533-3-3h-29c-24 0-31 0-34-2l-10-1-5 1 1-5 1-24a599 599 0 0 1 10-84l4-11 3-10 2-9 4-9 5-11c2-4 4-8 4-11 3-7 9-22 13-26 3-4 5-9 6-13s2-5 10-9l10-6 3-2v3c0 7-3 15-8 23l-5 9-4 8-4 7-2 5-3 9a70 70 0 0 1-15 32l-2 5c-2 3-3 4-2 8 0 4 0 8-2 13l-2 11-4 18-2 10-1 8-2 24c0 16 1 30 2 31s10 2 31 2c34 1 34 1 34 8v4l-4-3Zm-144-4c-2-2-1-25 1-36 3-21 8-34 8-20l-1 9-2 19-2 19c-1 4-1 5 1 6s2 3-1 3h-4Zm417-2c0-2 1-2 12-2h11l1-13a254 254 0 0 0-11-90l-2-10-3-12-3-13c0-5-1-8-7-15l-4-8a316 316 0 0 0-27-53l-3-9v-4l5 3 9 5 8 5c3 3 7 10 10 21 4 11 4 13 8 17l7 13c3 7 4 11 8 16l3 7 6 21 2 10c0 6 1 11 4 18 4 10 4 11 4 20l1 14 3 11c3 9 3 10 0 26l-2 17-1 7h-19c-19 0-20 0-20-2Zm46 0c0-2 2-2 18-2l27-2h9l-1-6a846 846 0 0 1-1-54l2 9c5 18 8 36 7 49v7l-30 1c-29 0-31 0-31-2Z"/>
  <path fill="#DD7217" d="M410 518c-2-1-2-3-3-6l-2-9c-2-6-3-15-2-18s2-3 6-3l7 1 4 6 3 18v12h-5l-8-1Zm11-145c-2-2-4-7-4-15 0-4 1-7 5-14a178 178 0 0 0 10-28l4-5 7-11c6-8 8-13 8-16-1-2 0-3 3-4l11-2 12-3 28-2c23 0 23 0 23 2 0 1-1 2-6 2l-19 1c-13 0-25 2-27 4l-3 5-7 10-7 12-7 13-6 18-4 16-4 8c-3 8-6 11-11 11l-6-2Zm163 7-3-7-2-9-4-6c-7-8-8-11-8-17l-2-9-1-7-2-5-3-4c1-2-2-4-2-5 0-2 0 1-2-3l-3-4-2-4-7-12c-2-4-5-9-7-10l-2-5c0-2 11-2 20 1l10 3c7 1 7 4 1 4h-4l5 7 5 11 8 20 5 11 5 13c4 9 6 19 7 28v8l-12 1Z"/>
  <path fill="#955F3D" fill-rule="evenodd" d="M273 453c-3 7-8 26-8 30 0 2 1 3 2 3l5-11 14-40c2-5 3-15 1-15l-3 3a238 238 0 0 0-11 30Zm35-71-6 9 3 1c3 0 4-1 9-8 9-12 16-21 33-37 12-11 15-15 15-17 0-3 0-3-3-1l-19 15a379 379 0 0 0-32 38Zm348-69c5 2 23 15 33 23 3 3 5 4 9 4h4l-10-9c-11-11-20-17-35-25l-9-4-4-2c-2-1-2-1-2 2s2 4 14 11ZM411 538Zm-131-9Z" clip-rule="evenodd"/>
  <path fill="#955F3D" d="M503 652c2-2 4-1 8 1 4 3 6 4 10 1l12-2a134 134 0 0 0 26-3c4 0 12-5 12-8 0-2 7-6 9-6a170 170 0 0 0 11 0c8 1 9 1 13-2 2-1 5-2 6-1l2-1 3-2c2-1 5-2 6-4 3-2 3-3 2-5s0-7 1-7l5-3 5-3 4-2 5-4 6-5c1-4 1-4-1-8l-2-4 3-4c4-4 4-5 3-7-2-2-1-3 0-7l4-5 9-9c1-2 0-3-1-6-1-4-1-10 1-10l1-2c0-2-14-1-20 2-5 2-6 3-8 9l-4 9-2 8c0 6-3 11-6 11-2 0-4 3-5 11-2 8-4 10-8 11-3 1-4 2-4 4s-1 4-3 5l-4 2c-1 1-3 2-8 1-5 0-6 0-8 2-2 1-3 3-3 5l-3 6c-2 3-2 3-5 2h-13c-9 1-11 2-15 5-3 3-5 3-9 3l-8 1c-2 1-5 0-13-3l-14-2c-8-1-12-2-14-4-1-1-5-3-8-3l-6-3-6-1-9-3-8-4c-4-1-8-7-8-11l-1-2-2-3c0-2-1-3-3-4-3-2-4-5-8-15-2-4-4-6-6-7-3-2-6-7-8-12l-2-6c-2-2-3-6-3-9l-1-6c-2-3-9-3-33-3-23 0-30 0-33-2h-34l-30 1h-1v1c0 3 3 3 25 3h21l27 1c20 0 26 1 28 2 1 1 2 2 1 3l1 4c3 6 5 13 5 17 0 6 3 10 7 10l5 13c0 11 1 14 4 16l8 1c5 1 8 3 11 12 3 7 6 10 11 12l3 2 4 2 8 5 7 4 9 4c11 6 20 11 25 12 5 2 12 1 14-1Z"/>
  <path fill="#A66F41" d="M522 634a1463 1463 0 0 1-22-5c-8-1-12-2-14-4-1-1-5-3-8-3l-6-3-6-1-9-3-8-4c-4-1-8-7-8-11l-1-2-2-3c0-2-1-3-3-4-3-2-4-5-8-15-2-4-4-6-6-7-3-2-6-7-8-12l-2-6c-2-2-2-6-3-9l-1-7c-1-1 0-1 2-1s3 1 6 5c4 6 19 22 25 26 4 3 4 4 4 10 0 5 0 6 4 10 4 3 5 4 8 4 9-2 11-2 12-1s3 2 7 2c6 0 12 2 16 5l7 3 5 3c0 1 6 4 9 4l9 2 6 2 4-3c4-2 6-3 12-3 7 0 7 0 18-7 6-4 7-4 16-4 8-1 9-1 13-3 2-2 5-3 7-3s4-1 7-4c4-4 5-7 5-11l2-4 1-2 9-11c8-8 17-20 17-23s4-3 31-3c21 1 26 1 26 3l-17 3c-17 2-24 3-29 5s-6 3-8 9l-4 9-1 8c-1 5-3 10-7 11-2 0-4 3-5 11-2 8-4 10-8 11-3 1-4 2-4 4l-2 4-6 4c-3 3-5 4-6 2l-4-2c-4 0-7 3-9 9l-4 6c-2 2-2 2-6 1l-13-1c-6 1-8 2-12 5-3 3-5 3-10 3l-8 1c-2 2-4 2-10 0ZM285 426c0-5 10-26 15-33l5-4 2-2c1-2 2-1 2 2s-3 10-13 25l-5 11c-2 4-3 5-5 5s-2 0-1-4Zm266-149-9-1-2-2c0-2 1-2 4-2l5-1 10 1c16 3 20 4 20 6 0 1-18 1-28-1Z"/>
  <path fill="#BA8147" d="m520 611-9-2c-5-1-11-4-11-5l-5-3-8-3c-5-4-10-6-13-4-3 1-4 1-6-1-2 0-3-1-3-2h-3l-7 1c-3 1-4 1-7-2-6-4-7-7-7-13 0-4 0-6-2-7-1-1-1-1 2-1l11 5c14 8 25 13 38 17 9 3 9 3 13-7l3-9c1-2 34-2 35-1l6 17 1 2c1 1 10-1 15-4l9-3 14-6 25-16 4-1c3 0 3 0 2 1l-2 3-1 3-2 5c-1 7-9 16-13 14l-7 3c-4 3-6 4-13 3-7 0-11 1-24 10-2 2-4 2-10 2-6-1-7 0-11 3-6 3-6 3-14 1Z"/>
  <path fill="#FB992A" d="m566 554-6-15-2-5c-1-2-66-1-68 0l-1 4c-2 6-2 9-5 12-2 4-2 4-6 4l-16-2-12-1-2-7-4-12-1-5-7-3-7-3 1-2 4-2 6-2 10-2 4-2 1-6v-6h-5l-6 1c-6 5-5 5-9 2s-6-3-9 0c-2 3-3 2-3-1s-5-14-6-15c-2-2-6-1-7 0 0 2-1 2-3 1h-6c-3 1-4 1-8-1l-6-1c-3-1-4-1-5-5l-3-7-2-3-4-6c-4-5-5-6-5-12 0-5 0-7-2-10-3-5-3-8 0-15l3-9c-1-6 3-12 11-15l6-7 7-7 8-6c2-2 5-4 8-4l6-2c2-1 2-1 4 2 0 2 2 3 3 3l1 2-6 3c-7 1-14 6-14 9l-2 4-3 4c0 2-2 4-4 6l-7 8c-4 5-4 10-1 30l2 14 5 6 6 5 4-2c5-4 9-4 16 0 4 3 6 4 6 7 1 2 2 3 7 4 6 2 6 2 9 0l4-4 4-2 6-3 8-3 5-3c3-2 3-2 2-5-3-4-2-9 0-13s3-7 1-16c-1-9-4-17-8-23l-5-8-3-5c-3-2-13-6-21-7-6-1-9-3-9-6 0-2 1-2 3-2s3 0 3-2l3-8c3-7 5-7 13-1 5 5 7 6 10 3h9l3 3 2 5c-1 3 2 6 4 6l5 4c4 3 4 4 4 9s1 7 2 9c3 4 3 9 1 14-1 3-1 4 2 8l5 5 1 3c0 2 1 3 4 3l8 3 4 2 2-2c2-2 5-2 12-3l10-3 3-2 4-2h4l5 2c2 0 11-10 11-12 0-1 1-2 3-1 3 0 11-6 13-10 2-7 1-12-5-18l-4-4 2-3c3-2 9-6 14-7l8-5 6-4 4 1 6 2 7 4-5 3-17 11c-2 2-3 3-3 6l-1 5c-3 2-8 15-8 21l-3 8c-1 4-1 4 1 8l2 10c0 4 0 6 3 8l4 6c0 2 2 4 5 7l5 4h12c13 0 19 1 17 2l-1 4-3 8c-2 4-2 7-2 12 0 13 0 13 2 13 3 0 1 3-3 4-6 2-14 2-14 1l2-1 1-2 4-5 3-5 2-3v-6l-1-2h-21l-5-4c-2-3-5-5-6-5l-5 3c-4 3-6 5-9 4-2 0-5 2-6 6-2 7-3 16-2 17 1 2 0 2-3 3-4 1-7 3-5 5 1 2 2 1 8-4l7-4 3-3c3-2 3-2 6-1h5c3-1 12 3 14 6 1 1 2 2 3 1 3 0 3 0 0 11l-2 14c-1 5-1 5-4 5l-12 1c-10 2-16 2-18 1Zm-27-42c7-3 11-6 11-9l3-7c4-7 4-9-2-18l-3-7c0-3-6-11-10-13-12-6-23-4-29 3l-5 6-4 5-4 6c-3 4-3 7 2 16l3 7 10 6 5 3c4 2 10 5 13 5l10-3Zm-133 21c-2-2-4-2-8-2l-10-1h-3l1-6-1-7c-2-2-2-4 0-6l1-3 2-2 5-3c4-3 5-3 5 1l2 4 3 6 3 10 3 8v3l-3-2Zm234-2 2-7 3-7 2-4-6 1c-5 0-5 0-4-1 2-1 2-3 2-5 0-4 1-7 5-10 2-1 2-1 1-4l-2-4-3-6c-4-3-4-4-2-5l4-8c3-5 4-5 7-5l6 2 3 1 4-4 4-4 1-11c1-20 1-22-3-30l-4-10c0-2 1-2 3-2 3 1 5 0 8-2l3-2 4 4c7 7 7 10 4 20l-1 11-3 8c-3 5-3 11-2 13l3 7 2 4-5 5-9 6c-2 1-4 3-5 6-3 7-3 8 0 12l2 4-2 3-3 6c0 3 2 10 5 15v3h-10c-9 0-10 0-12 2l-2 2v-4Zm-1-145-13-1-9-1 4-3 3-1v-5c0-5 0-6 2-7s4-1 7 1l3 1c2 0 5 4 6 8l4 7 2 3h-3l-6-2Z"/>
  <path fill="#FCA73B" d="m522 518-6-4-8-4-10-6-3-7c-4-8-6-15-5-18a97 97 0 0 1 16-21l5-4c6-4 20-4 30 1 4 2 10 10 10 13l4 8c5 8 5 15 1 23l-3 7c0 3-4 6-12 9-8 4-13 4-19 3Zm15-20 8-2c2-2 2-14 1-18-3-4-8-9-15-12l-5-3c-2-2-2-2-3-1-1 3-6 7-7 7-2 0-7 8-9 12l-2 8c-1 7-1 8 6 8l9 1h17Zm-105-12-8-2-2-3c0-3-2-4-6-7l-6-3-4 2c-7 5-9 5-16-2l-6-6-1-7-1-9-1-16c0-15 0-16 9-25 3-2 5-5 5-7l3-4 2-4c0-2 7-8 12-9l9-2c6 0 7 1 1 9-5 5-8 8-16 10l-6 4-3 1c-2 0-2 1-2 3 0 5-2 14-4 17l-1 14-2 15v2c1 1 10 3 26 5l11 3c6 2 8 2 16-1 6-3 8-4 15-4l10-2c1 0 0-18-2-34 0-7-2-10-10-16l-11-8-7-4c-3 0-8-6-8-10 0-3 0-3 2-2l7 3c8 1 18 5 21 7l3 5 5 8c6 9 9 22 9 35 0 5 0 7-2 10l-2 4 2 4c2 5 2 5 1 7-2 3-10 8-10 6l-5 3-7 3-3 2-10 7-7-2Zm205-4c-1-2-8-3-9-1h-32l-5-4c-3-3-5-5-5-7l-4-6c-4-4-4-4 0-4 7 0 16 3 21 7 7 5 10 6 16 5l6-3 8-2c5 0 8-1 13-4l10-4c5-1 5-2 2-7-1-4-1-12 1-21v-15l-1-9 3 1c3 0 9 14 10 22l-1 15v13c1 4 1 5-4 10-6 6-8 6-14 3-4-3-3-3-9 6-4 6-4 7-6 5Zm-58-29-1-5-2-6c-2-4-2-5 0-8l3-10c1-7 5-18 7-21 1-1 2-2 1-5 0-3 0-4 5-7 21-13 21-13 24-11 1 2 4 2 12 2 9-1 11 0 15 2s6 4 6 8l2 5 1 4-10-2-8-2c-2 0-4-1-6-5l-4-5-9 10c-2 3-12 10-19 14l-3 2-1 1c-2 0-8 8-8 10l2 6c3 8 3 15-1 22-1 3-3 5-4 5-2 0-2-1-2-4Z"/>
  <path fill="#FCBE57" d="m461 555-12-2c-2-2-6-16-8-25v-6l2 1c3 0 3 1 5 7l3 11 2 7h9l13 2c4 1 4 1 7-4l3-4 1 5-2 7c-2 2-5 2-23 1Zm132-5 1-1c2 0 2-2 5-18l2-8 21-6a129 129 0 0 0 13-3v3c0 3 0 3-14 8l-14 4-2 7c-4 14-4 14-8 15l-4-1Zm-35-10-1-4h-21a570 570 0 0 1-46 1c0 1-1 2-3 2s-2 0-1-3l1-5c2-1 73-2 74-1l2 5c2 9 2 9 0 9s-3-1-5-4Zm-56-42c-2-1-2-2-2-4l2-8 2-8c2-4 7-12 9-12l7-7 3-3c2-1 2-1 5 2l5 5c8 3 13 7 15 11s3 10 2 16c-2 9-4 8-10-4l-14-22c-2-1-2-1-3 1l-5 9c-6 8-11 18-11 20l2 2 2 2c0 2-1 2-4 2l-5-2Zm106-23-8-5c-3-3-7-4-13-6-7-2-7-2-8-5 0-2 0-3 2-3l3 1 17 3c20 2 20 2 30 0l19-2c8 0 9 0 9 2l-2 2-8 4c-6 3-8 4-13 4-3 0-7 1-10 3-6 3-14 3-18 2Zm-179-5-7-2-9-2-9-2-7-2-4-1c0-1 7-2 35-2l36-1c1-1 0-2-2-7-5-7-6-10-8-19l-2-9-8-11-9-10-2-5c-2-3-3-5-3-8v-3l4 3 5 4 7 4 11 8 7 7c3 3 3 4 5 28l2 16c1 5-2 6-12 7-7 0-9 1-15 3-8 5-10 5-15 4Zm-42-9c-3-1-4-4-2-8l1-16 2-14 3-10c2-8 5-12 12-15l10-4 4-3v3c0 7-1 10-7 16-5 5-7 7-9 14l-3 12-2 7c-4 5-6 11-6 15s0 4-3 3Zm198-18-2-11c-2-6-3-8-2-11 2-4 6-10 8-10l1-1 3-2 17-12c4-5 4 6 1 12l-8 12c-4 5-8 13-10 18-4 6-5 8-7 8s-2 0-1-3Zm69-1-3-5a591 591 0 0 1-18-45l4 2c5 0 14 4 15 7l5 4 4 5a71 71 0 0 1-1 33c0 4-3 4-6-1Z"/>
  <path fill="#FCE259" d="M422 555c-9-10-11-13-19-29-3-4-6-16-5-18a227 227 0 0 0 37 12l9 4 1 2c0 2-1 2-8 2h-8l-3 3c-3 5-3 6 2 12s5 10 2 15l-2 3-6-6Zm201-2c-2-4-1-10 2-15l4-4 4-4c2-2 2-2-1-6l-3-4c0-3 11-10 20-12 3-2 4 1 1 9l-14 26c-2 4-10 12-11 13l-2-3ZM393 439l2-6 3-12c2-7 4-9 9-14l7-10c0-5 9-15 12-15s4 2 12 16c1 2 5 8 9 11 7 8 11 13 10 16v5c2 9 2 9 0 9s-4-2-11-15l-12-21c-3-4-3-4-13-1l-7 1c-3 0-3 0-3 5 0 4-2 8-4 13l-4 10-3 7c-1 4-2 4-5 4s-3 0-2-3Zm216-36 1-4c0-4 10-17 14-17 2 0 5 4 10 13l2 3h-4c-5-1-14 1-17 5-2 1-8 2-6 0Z"/>
  <path fill="#FDEA77" d="M451 578c-9-5-17-12-22-16-4-4-3-4 0-10l-5-7-5-6 2-5c1-5 4-9 5-10l10 1h9v4c1 3 0 5-1 7l-3 7-2 4c-1 1 6 10 8 10l1-2 5-1c3 0 3 0 3 4l-1 6c-3 4-2 8 2 11 2 1 3 3 3 5l-1 3-8-5Zm148-4 1-5 1-6v-6l-5-2-8-2-4-1c0-2 3-3 8-3s6-2 8-9c1-5 4-7 5-5 4 6 4 5 5-4l1-6 10-4 11-4 4 5c2 3 3 5 2 7-1 4-3 7-6 8-2 0-7 7-7 10l1 2 1 3c0 4-15 18-27 24-1 1-1 0-1-2Zm-86-74c-10-1-10-2-10-4 0-3 0-3 6-3l11 1c5 2 6 2 12-1l6-3-1-7c-3-6-4-14-1-12l5 8 6 11c4 7 3 9-7 11-8 1-18 1-27-1Zm-126-39c-2-2-1-6 1-12s5-10 7-10l2-2 1-3 1 3 2 11c0 7 0 7 4 9l3 3c0 2-1 2-10 2l-11-1Zm253-2 1-2c2-1 7-19 7-28l1-3c1 0 4 4 4 6l4 6 3 6 2 6c2 5 3 9 1 11h-12c-11 0-11 0-11-2Zm-234-47c3-8 6-12 11-13 6-2 15-4 16-3l4 4c3 4 3 5 1 5h-9c-2-1-3-1-4 1l-4 5c-2 4-5 6-11 6l-6 1 2-6Zm234 4-9-1-11-1c-4-2-8-2-10-1-2 2-8 3-8 1l3-5 3-5c0-3 15-11 21-11 3 0 9 6 9 8l4 8 4 8h-3l-3-1Z"/>
  <path fill="#FDF28F" d="M483 593c-13-4-23-9-29-15-4-4-6-8-4-14l2-6-5 2c-3 1-4 1-9-5l-5-6 2-3 4-8 3-6c1-2 1-2-1-5l-3-2h3c3 0 4 1 4 2l3 12c3 11 3 12 13 13 6 0 6 0 9 4l5 7 4 5 5 4c4 1 6 6 6 14l-1 8-6-1Zm86-5 2-3c4-3 2-15-2-15-2 0-2-1-2-4l1-5v-6c0-5 0-5 1-4h8c10-2 17-1 22 1s5 2 6 6v9c1 2 1 3-1 5l-2 2c0 3-18 12-30 16-3 1-3 1-3-2Zm35-47-3-6 2-5c1-3 1-4 7-5 6-2 10-3 6-1-2 1-3 4-3 8 1 5-1 10-4 12-2 1-2 0-5-3Zm-100-45c-2-1-1-4 2-11 6-12 18-30 19-28l10 13-4 1c-4 0-13 3-13 5l-2 4c-2 3-4 9-2 10l1 4c0 3 0 3-5 3l-6-1Zm106-32-16-2c-12 0-15-1-15-5 0-3 15-32 20-39 6-7 9-10 16-9l7 1c2 2 7 3 12 2 6-1 7 0 9 2 3 2 8 13 8 17l-4 22c-2 7-3 8-16 10-9 2-14 2-21 1Zm18-8 6-6 5-6c2-1 0-8-2-12 0-2-3-5-5-7-3-3-4-4-6-3h-13c-3-1-3-1-6 1l-6 7c-2 5-5 19-4 22 0 2 1 2 9 2l14 1c4 2 6 2 8 1Zm-217 6-10-2c-3-2-4-4-3-10l-1-6c-1-4-1-6 1-11 2-8 6-16 8-18l4-1c3 0 8-4 8-6s6-8 8-8l4 1 5 1c3 0 4 1 7 6l3 6-4 1c-4 0-5 1-9 5-4 5-6 6-9 6-2 0-6 2-11 6-2 1-2 2-1 4l1 8c0 4 1 5 2 7 5 5 26 7 32 3 3-2 11-12 11-14l2-1 1 1 5 8c5 8 5 10 2 12-1 2-4 2-17 2a461 461 0 0 0-39 0Z"/>
  <path fill="#FDFAA4" d="m545 597-1-3-6-17h-29l-3 10-4 9h-5l-8-1c-3-1-3-1-2-7 0-5 0-6-2-9l-4-4-5-4-4-5-7-8-4-6h9c8 1 9 1 11-1l3-7c0-7 4-13 7-12l18 1h42c6-1 9-1 9 1l4 7 4 7 2 4c2 2 3 11 1 12s-1 3 1 3 3 1 4 4l1 5v6l-1 3c0 2-4 5-10 7-8 4-19 6-21 5Zm-27-99c-7-2-8-5-8-12l3-9 2-4c0-2 9-5 14-5 6 0 6 1 11 13 4 11 4 11-4 15-8 3-11 3-18 2Zm101-39-16-2c-10 0-10 0-10-7 0-6 3-19 5-23s9-10 12-10l6 2c4 1 4 1 9-1l5-1 4 4c5 5 8 9 9 17 1 5 1 8-1 9l-5 6c-2 4-5 6-7 7-4 1-3 1-11-1Zm-200-2c-7-1-10-5-11-11l-1-10c0-5 0-6 2-7 5-4 9-6 11-6 3 0 5-1 9-6l6-6 5 1c4 0 4 1 8 6a332 332 0 0 0 12 24c0 3-7 13-11 15s-22 2-30 0Z"/>
  <path fill="#8C3C00" d="M680 439a14 14 0 1 0 0-29 14 14 0 0 0 0 29Zm-120 39a14 14 0 1 0 0-29 14 14 0 0 0 0 29Z"/>
</svg>
