<svg fill="none" viewBox="0 0 1049 1049">
  <path fill="#2D213D" d="M1035 525c0 283-229 513-510 513A512 512 0 0 1 15 525C15 241 243 11 525 11c281 0 510 230 510 514Z"/>
  <path fill="#F2F1F2" d="M243 914c-3-2-5-6-5-10 0-6 6-10 12-8 3 1 7 6 7 9s-3 7-7 9h-7Zm545-76c-3-2-3-5 0-10 2-4 6-5 10-3s4 2 4 6 0 5-4 6c-3 2-7 2-10 1Zm-585-63c-3-2-3-6-1-9 4-5 10-2 10 5 0 5-5 8-9 4Zm589-50c-1-2-3-5-6-6-3-3-4-3-9-3l-8 1h-4c-4-8-11-12-21-13-9-1-9-1 6-9l13-7c4-3 5-2 6 0 2 7 13 17 17 17l2-4c1-5 1-6 5-3 3 2 6 3 8 1 3-3 4-2 4 2l1 5c3 1 11-4 16-10l6-6a166 166 0 0 1 25 19l-7 1c-8 1-13 3-18 8-4 3-4 3-7 2-8-4-16-2-22 5-3 4-4 4-7 0Zm-628-85c-5-10-10-13-20-13-6 1-6 0-8-2l-5-6-5-4-8-2-7-2 7-3 22-11 3 4c2 5 13 16 15 16l3-2 1-4 1-2 2 3c3 2 4 3 9 1 4-3 4-2 4 3v4h4c5-1 12-5 16-10l5-4 3 3 5 4 2 1 15 13h-8c-8 0-14 1-19 7-3 3-4 3-6 2-8-6-16-5-24 3l-5 4-2-3ZM62 554c-2-4-2-7 0-9 6-6 15 2 10 8-3 4-8 4-10 1Zm709-219c-4-9-11-14-19-13-5 1-5 1-7-3l-2-6c0-2-9-8-14-10-2-1-2-1 0-1l7-3 17-6 3 4c1 5 4 10 9 14s7 4 7 0c1-3 3-3 7-1 2 2 3 2 6 1 5-1 5-1 4 3-1 6 1 6 7 5 5-1 7-2 10-5l5-4 3-2c2 0 23 22 23 23l-3 1c-11-3-19-2-25 3l-3 2-5-2c-7-4-12-4-19 0l-6 4c-1 2-2 1-5-4Zm-516-26c-1-1-3-3-5-3l-8-2c-5 0-7 1-10 3-4 3-5 3-9 0-5-4-12-4-19-3l-8 2 5-6 9-10c7-9 7-9 11-6 5 3 12 7 18 8h4l-1-5-1-5h3l5 2 5-3c3-3 3-3 4-2l2 4 1 2c2 1 2 1 6-3s9-13 9-16c0-4 3-4 18 1l7 2 4 2c4 1 4 2 0 3-6 2-9 4-14 9l-6 8c0 2-1 2-4 2-9 0-16 4-20 12-2 5-2 5-6 4Zm607-46c-3-3-3-7-1-11 2-3 5-4 10-4 6 2 8 10 3 15-2 3-9 3-12 0Zm-669-59c-5-5-3-14 5-15 3 0 4 0 7 3s3 8-1 12c-1 2-4 3-5 3l-6-3ZM493 76l-1-5c-1-6 1-8 5-8 7 0 9 7 5 12-2 2-8 3-9 1Z"/>
  <path fill="#FF8C14" d="M264 539c0-144 117-260 262-260s262 116 262 260H264Z"/>
  <path fill="#fff" d="M722 539c0 107-88 194-196 194s-196-87-196-194h392Z"/>
  <path fill="#8C3C00" d="M615 385c8 0 14-6 14-14s-6-14-14-14-15 6-15 14 7 14 15 14Zm70 64c8 0 15-6 15-14s-7-14-15-14-14 6-14 14 6 14 14 14Zm-79 16c8 0 14-7 14-15 0-7-6-14-14-14s-15 7-15 14c0 8 7 15 15 15Z"/>
  <path fill="#000" d="m399 766-47 111 62 25 47-111a262 262 0 0 0 328-252h-67c0 107-88 194-196 194s-196-87-196-194h-66c0 98 54 183 135 227Z"/>
  <path fill="#00641E" d="M635 148c-52 0-97 28-120 70 18 17 31 38 38 62 60-14 105-66 106-130l-24-2Z"/>
  <path fill="#00961E" d="M423 182c-11 0-21 1-30 4a136 136 0 0 0 160 94c-16-57-68-98-130-98Z"/>
  <path fill="#955F3D" d="M723 540a198 198 0 0 1-275 183 199 199 0 0 1-123-183h398Z"/>
  <path fill="#DD7217" d="m410 544-3-3h-30c-24 0-30 0-34-2h-14v-5l1-23a600 600 0 0 1 11-85l3-11c2-3 3-7 3-10l3-9 3-9 5-11 5-10c2-8 9-23 12-27s5-9 6-13 2-5 11-9c3-2 8-4 9-6l4-2v3c0 7-4 16-8 23l-5 9-4 8c-3 3-4 6-4 7l-3 5-3 10a70 70 0 0 1-14 31c0 1-1 4-3 5-2 3-2 4-2 9 1 3 0 7-1 12l-3 11c-1 7-2 14-4 18l-1 10-1 8-2 25 2 30c0 1 10 2 30 2 34 1 35 1 35 8l-1 4-3-3Zm-144-4c-2-2-1-25 1-36 3-21 8-34 8-20l-1 10-2 18-2 19v6c3 1 2 3 0 3h-4Zm415-2c0-2 1-2 12-2h11l1-13a239 239 0 0 0-8-76l-2-14c-2-3-3-8-3-10l-3-12-3-13c0-5-1-8-6-15-3-2-5-6-5-8a316 316 0 0 0-26-53l-3-9v-4l4 3 10 5 8 5c3 3 6 10 9 21 4 11 5 13 8 17 4 6 7 10 7 13l8 16 3 7 6 21 2 10c0 7 2 11 4 19 4 9 4 10 4 20l1 13 3 11c3 9 3 11 0 27l-2 16-1 7h-19c-19 0-20 0-20-2Zm46 0a689 689 0 0 0 44-4h9v-6a847 847 0 0 1-1-54l2 9c5 18 7 36 7 49v8h-31c-28 0-30 0-30-2Z"/>
  <path fill="#DD7217" d="M412 525c-2-1-2-3-3-6l-2-9c-2-6-3-15-2-18s2-3 6-3l7 1 4 6c2 5 2 9 3 18v12h-5l-8-1Zm11-145c-2-2-4-7-4-15 0-4 1-7 5-14a177 177 0 0 0 11-28l3-5 7-11c6-8 9-13 8-16-1-2 0-3 4-4l11-2 11-3 29-2c23 0 23 0 23 2 0 1-1 2-6 2l-19 1c-13 0-25 2-27 4l-4 5-6 10c-2 2-6 8-7 12l-7 13c-3 4-4 7-6 18l-5 16-4 8c-2 8-6 11-11 11l-6-2Zm173 8-2-7-3-9-4-6c-7-8-8-11-8-17l-2-9-1-7-2-5-3-4c1-2-2-4-2-5 0-2 0 1-2-3l-3-4-2-4-7-12c-2-4-5-9-7-10l-2-5c0-2 11-2 20 1l10 3c7 1 8 4 2 4h-4l4 7c2 3 5 8 5 11l9 20 4 11 5 13c5 9 7 19 7 28l1 8-13 1Z"/>
  <path fill="#FCBE57" d="m464 566-11-2c-3-2-7-16-8-25l-1-6 3 1c2 0 3 1 4 7l3 11 3 7h8l13 2c5 1 5 1 7-4l4-4 1 5-2 7c-3 2-6 2-24 1Zm133-5 2-1c1 0 2-2 5-18l2-8 20-6a130 130 0 0 0 14-3v3c-1 3-1 3-15 8l-13 4-2 7c-5 14-5 14-9 15l-4-1Zm-34-10-2-4h-21a579 579 0 0 1-46 1c0 1-1 2-3 2s-2 0-2-3l2-5c2-1 73-2 74-1l2 5c3 9 3 9 0 9-2 0-3-1-4-4Zm-58-42-1-4 2-8 2-8c1-4 7-12 8-12 2 0 8-6 8-7l3-3c2-1 2-1 5 2l5 5c8 3 13 7 15 11s3 10 2 16c-2 9-4 8-10-4-6-10-12-20-15-22-1-1-1-1-2 1l-6 9-10 20 2 2 2 2c0 2-1 2-4 2l-6-2Zm107-23-8-5c-3-3-7-4-12-6-8-2-8-2-8-5-1-2 0-3 1-3l3 1 18 3c19 2 19 2 30 0l18-2c9 0 10 0 10 2l-2 2-8 4c-6 3-8 4-13 4-4 0-8 1-11 3-5 3-14 3-18 2Zm-180-5-7-2-9-2-9-2-7-2-4-1c0-1 7-2 35-2l36-1c1-1 1-2-2-7-5-7-6-10-8-19l-1-9-9-11-9-10-2-5c-2-3-3-5-3-8v-3l4 3 5 4 7 4 11 8 8 7c2 3 3 4 4 28l2 16c1 5-1 6-11 7-8 0-10 1-16 3-8 5-9 5-15 4Zm-43-9c-2-1-3-4-2-8l2-16c0-9 1-12 2-14l3-10c2-8 5-12 12-15l10-4 4-3v3c0 7-1 10-7 16-5 5-7 7-9 14l-3 12-2 7c-4 5-6 11-6 15s0 4-4 3Zm200-18c0-2 0-6-2-11l-2-11c2-4 6-10 8-10l1-1 3-2 18-12c3-5 4 6 1 12l-9 12-10 18c-3 6-5 8-6 8-2 0-2 0-2-3Zm70-1-3-5a589 589 0 0 1-18-45l4 2c5 0 14 4 15 7l5 4 4 5a71 71 0 0 1-1 33c0 4-3 4-6-1Z"/>
  <path fill="#FCE259" d="M426 566a82 82 0 0 1-20-29c-3-4-6-16-5-18l7 2c5 3 13 5 31 10l8 4 1 2c1 2 0 2-8 2h-8l-3 3c-3 5-2 6 2 12 5 6 5 10 2 15l-2 3-5-6Zm202-2c-2-4-2-10 1-15l5-4 4-4c2-2 2-2-1-6l-3-4c0-3 11-10 20-12 3-2 3 1 0 9a99 99 0 0 1-25 39l-1-3ZM396 450l2-6 3-12c2-7 4-9 9-14l7-10c0-5 9-15 12-15s5 2 12 16c1 2 5 8 9 11 8 8 11 13 10 16v5c3 9 3 9 0 9-2 0-3-2-11-15l-12-21c-3-4-3-4-13-1l-7 1c-3 0-3 0-3 5 0 4-2 8-4 13l-5 10-2 7c-1 4-2 4-5 4s-3 0-2-3Zm217-36 2-4c0-4 10-17 13-17 2 0 6 4 11 13l2 3h-5c-4-1-13 1-16 5-3 1-8 2-7 0Z"/>
  <path fill="#FDEA77" d="M454 589c-9-5-17-12-22-16-3-4-3-4 0-10l-5-7-5-6 2-5c1-5 4-9 5-10l10 1h9v4c1 3 1 5-1 7l-3 7-2 4c-1 1 6 10 8 10l2-2 4-1c3 0 3 0 3 4l-1 6c-3 4-2 8 2 11 3 1 3 3 3 5v3l-9-5Zm149-4 1-5 2-6v-6l-5-2-9-2-4-1c0-2 3-3 9-3 4 0 6-2 8-9 1-5 3-7 5-5 3 6 4 5 5-4v-6l11-4 11-4 3 5c3 3 4 5 3 7-1 4-3 7-6 8-2 0-7 7-7 10l1 2 1 3c0 4-16 18-27 24-1 1-2 0-2-2Zm-86-74c-10-1-10-2-10-4 0-3 0-3 6-3l11 1c5 2 6 2 12-1l6-3-1-7c-3-6-4-14-1-12l5 8 6 11c4 7 3 9-7 11-8 1-18 1-27-1Zm-127-39c-2-2-1-6 1-12s5-10 6-10l2-2 2-3 1 3 2 11c0 7 0 7 4 9l3 3c0 2-1 2-10 2l-11-1Zm255-2 1-2c2-1 7-19 7-28l1-3c1 0 4 4 4 6l3 6 4 6 2 6c2 5 3 9 1 11h-12c-11 0-11 0-11-2Zm-236-47c3-8 6-12 11-13l16-3 4 4c3 4 3 5 2 5h-10c-2-1-2-1-4 1l-4 5c-1 4-5 6-11 6l-6 1 2-6Zm235 4-8-1-11-1c-4-2-8-2-11-1-2 2-7 3-7 1l3-5 3-5c0-3 15-11 21-11 2 0 9 6 9 8l4 8 4 8h-3l-4-1Z"/>
  <path fill="#FDF28F" d="M487 604c-14-4-24-9-29-15-5-4-6-8-4-14 3-8 3-8 1-6l-5 2c-3 1-4 1-9-5l-5-6 2-3 4-8 3-6c2-2 2-2-1-5l-3-2h3c3 0 4 1 4 2l3 12c3 11 4 12 13 13 6 0 7 0 9 4l6 7 4 5 4 4c4 1 7 6 7 14l-1 8c-1 1-3 0-6-1Zm86-5 2-3c4-3 3-15-2-15-1 0-2-1-2-4l1-5 1-6c-1-5-1-5 1-4h8c9-2 17-1 22 1 4 2 4 2 5 6v9c1 2 1 3-1 5l-1 2c0 3-19 12-31 16-2 1-3 1-3-2Zm36-47-3-6 1-5c1-3 2-4 7-5 7-2 11-3 7-1-3 1-4 4-3 8 1 5-1 10-4 12-2 1-3 0-5-3Zm-102-45c-1-1 0-4 3-11 6-12 18-30 19-28l10 13-4 1c-4 0-13 3-13 5l-2 4c-2 3-4 9-2 10l1 4c0 3 0 3-5 3l-7-1Zm108-32-17-2c-12 0-15-1-15-5 0-3 16-32 21-39s9-10 16-9l6 1c3 2 8 3 13 2s6 0 9 2 8 13 8 17l-4 22c-2 7-3 8-16 10-10 2-14 2-21 1Zm18-8 6-6 5-6c1-1 0-8-2-12l-5-7c-3-3-4-4-6-3h-13c-3-1-4-1-7 1l-5 7c-3 5-6 19-5 22 0 2 1 2 10 2l13 1c5 2 7 2 9 1Zm-219 6-10-2c-3-2-4-4-3-10l-1-6c-1-4-1-6 1-11 2-8 6-16 8-18l4-1c3 0 8-4 8-6s6-8 8-8l4 1 6 1c2 0 3 1 6 6l3 6-4 1c-4 0-5 1-9 5-4 5-6 6-8 6-3 0-7 2-12 6-2 1-2 2-1 4l1 8c0 4 1 5 2 7 6 5 26 7 32 3 3-2 11-12 11-14l2-1 1 1 5 8c5 8 5 10 3 12s-5 2-18 2a469 469 0 0 0-39 0Z"/>
  <path fill="#FDFAA4" d="m549 608-1-3-6-17h-29l-4 10-3 9h-5l-8-1c-3-1-3-1-3-7 1-5 0-6-1-9l-5-4-4-4-4-5-7-8-5-6h9c9 1 10 1 11-1 1-1 3-4 3-7 1-7 5-13 8-12l18 1h42c7-1 9-1 9 1l4 7 4 7 2 4c2 2 3 11 1 12-1 1-1 3 1 3s3 1 4 4l2 5c1 1 1 6-1 6l-1 3c0 2-4 5-10 7-8 4-19 6-21 5Zm-27-99c-7-2-9-5-8-12 0-4 1-7 3-9l2-4c0-2 9-5 14-5 6 0 6 1 11 13 4 11 4 11-4 15-9 3-11 3-18 2Zm101-39-16-2c-9 0-10 0-10-7 0-6 3-19 6-23 2-4 9-10 11-10l6 2c4 1 5 1 10-1l5-1 4 4c5 5 8 9 9 17 1 5 0 8-1 9l-5 6-7 7c-4 1-3 1-12-1Zm-201-2c-7-1-10-5-11-11l-1-10c0-5 0-6 2-7 5-4 9-6 12-6 2 0 4-1 8-6l6-6 5 1c4 0 5 1 8 6a330 330 0 0 0 12 24c0 3-7 13-11 15s-22 2-30 0Z"/>
  <path fill="#8C3C00" d="M685 450c8 0 15-7 15-15s-7-14-15-14-14 6-14 14 6 15 14 15Zm-107 51c8 0 14-7 14-15s-6-14-14-14-15 6-15 14 7 15 15 15Z"/>
</svg>
