<?xml version="1.0" encoding="UTF-8"?>
<svg width="50px" height="48px" viewBox="0 0 50 48" version="1.1" xmlns="http://www.w3.org/2000/svg" xmlns:xlink="http://www.w3.org/1999/xlink">
    <title>Artboard</title>
    <g id="Artboard" stroke="none" stroke-width="1" fill="none" fill-rule="evenodd">
        <g id="Illustrations---Users" transform="translate(0.0014, 0.0014)" fill-rule="nonzero">
            <g id="Group" transform="translate(0, 0)">
                <g transform="translate(7.0241, 6.7751)" id="Vector">
                    <path d="M18.8135616,30.7163712 C21.0578032,27.8272925 27.3713649,31.0122793 24.843329,24.5214644 C22.3159804,18.0306495 31.0744305,17.371545 33.772193,18.6135467 C34.5699775,18.9808607 35.354021,19.5541453 36.0975205,20.2702359 C36.1827275,19.5582648 36.2273934,18.8339358 36.2273934,18.0993079 C36.2273934,17.0193363 36.1325643,15.9613362 35.9504688,14.9328572 C30.5109655,13.2432131 29.4795492,8.84917606 26.6505405,10.6212083 C23.7576266,12.4330615 19.8058096,8.72078777 20.1418274,6.07475425 C20.3974483,4.06654256 21.6240184,1.44385276 21.0200109,0.233433259 C20.0731141,0.0810151385 19.1028521,0 18.1126647,0 C15.7626015,0 13.5169859,0.447642563 11.4562141,1.26122579 C12.6422402,4.92475321 13.6097523,6.82311411 10.6474358,9.05446043 C7.0034636,11.8000464 4.11054912,9.96210249 4.11054912,14.1330037 C4.11054912,18.3039049 6.85847402,20.0374894 4.11054912,22.6388958 C3.3320048,23.3755834 2.21675554,23.8225413 1.00118187,24.0484222 C1.57151886,25.6865737 2.36999075,27.2176181 3.36017819,28.6031126 C7.33260968,25.5334667 11.9750161,30.0806072 13.2400648,32.3620729 C13.7891,33.3527907 13.6819038,34.4629715 13.2998467,35.5504953 C14.8321978,35.9713616 16.4463187,36.1972413 18.1126647,36.1972413 C18.4844145,36.1972413 18.8541045,36.1848824 19.2203571,36.1622257 C18.1559571,33.9583422 17.8336822,31.9755365 18.812188,30.715684 L18.8135616,30.7163712 Z M15.0548339,28.0909355 C12.9535201,28.5433839 12.4986265,22.7137336 11.2170862,20.1047748 C9.93554591,17.495816 8.16818809,15.5857824 9.67923749,13.9792131 C11.1902869,12.3726438 12.7226386,13.9792138 15.3015237,11.9373603 C18.0590687,9.75407375 20.500523,12.0128816 20.9574797,14.0924964 C21.4144365,16.1721113 19.6697551,18.4288615 19.2911338,19.5376689 C19.0387196,20.2768739 18.9958853,21.4868354 19.1626344,23.1675541 C19.4127581,25.6886323 17.1561478,27.6384871 15.0548339,28.0909355 L15.0548339,28.0909355 Z" fill="#78E6FF"></path>
                    <path d="M20.1425152,6.07475448 C19.8064974,8.7207881 23.7583144,12.4330619 26.6512284,10.6212087 C29.4802371,8.8491764 30.5116533,13.242527 35.9511566,14.9328578 C34.618767,7.38816069 28.6089275,1.45689777 21.0213844,0.234119974 C21.6247047,1.44453952 20.3981368,4.06722995 20.143203,6.07544172 L20.1425152,6.07475448 Z" fill="#009664"></path>
                    <path d="M19.1626348,23.1668675 C18.9958856,21.4861489 19.0387199,20.2761868 19.2911342,19.5369819 C19.6697555,18.4281744 21.4144369,16.1714256 20.9574802,14.0918108 C20.5005234,12.012196 18.0590691,9.75338599 15.301524,11.9366725 C12.7226389,13.9785259 11.1902871,12.3719561 9.67923762,13.9785254 C8.16818819,15.5850947 9.93554606,17.4951275 11.2170864,20.1040862 C12.4986267,22.7130449 12.9535203,28.5420085 15.0548342,28.0902467 C17.1561481,27.6377983 19.4134456,25.6879456 19.1626348,23.1668675 Z" fill="#009664"></path>
                    <path d="M13.2414385,32.362076 C11.9763898,30.0806102 7.33398443,25.5341564 3.36155292,28.6031159 C5.74666087,31.9412099 9.23808424,34.4341387 13.3005326,35.5504984 C13.6825897,34.4629745 13.790473,33.3527938 13.2407507,32.362076 L13.2414385,32.362076 Z" fill="#009664"></path>
                    <path d="M4.11192366,14.1336911 C4.11192366,9.96347633 7.00483756,11.8014192 10.6488097,9.05514675 C13.6104389,6.8238004 12.642929,4.92543999 11.4575901,1.26191251 C4.74754121,3.91275203 0,10.4516271 0,18.0993092 C0,20.18373 0.353884082,22.185764 1.00255646,24.0491098 C2.21744293,23.8232289 3.33337935,23.376271 4.11192366,22.6395834 C6.85984851,20.0381769 4.11192366,18.3045924 4.11192366,14.1336911 L4.11192366,14.1336911 Z" fill="#009664"></path>
                    <path d="M24.8433288,24.5207795 C27.3706774,31.0115944 21.0571162,27.826605 18.8135616,30.7156837 C17.8343686,31.9762227 18.1566435,33.9590283 19.2217306,36.1622254 C27.9849926,35.633568 35.0674786,28.8811725 36.0975209,20.2695488 C35.3540214,19.5534583 34.5706651,18.9801736 33.7721933,18.6128597 C31.0744308,17.370858 22.3159802,18.0292779 24.8433288,24.5207795 L24.8433288,24.5207795 Z" fill="#009664"></path>
                </g>
                <g transform="translate(0, 28.8132)" id="Vector">
                    <g>
                        <g opacity="0.300000012" style="mix-blend-mode: multiply;" transform="translate(0.481, 0)" fill="#000000">
                            <path d="M14.0481553,7.01809709 C14.0481553,10.8940862 10.9033686,14.0361984 7.02407766,14.0361984 C3.14478668,14.0361984 0,10.8940862 0,7.01809709 C0,3.14210793 3.14478668,0 7.02407766,0 C10.9033686,0 14.0481553,3.14210793 14.0481553,7.01809709 Z" style="mix-blend-mode: multiply;"></path>
                        </g>
                        <path d="M14.0481553,7.49869475 C14.0481553,11.3746839 10.9033686,14.516796 7.02407766,14.516796 C3.14478668,14.516796 0,11.3746839 0,7.49869475 C0,3.62270559 3.14478668,0.48059766 7.02407766,0.48059766 C10.9033686,0.48059766 14.0481553,3.62270559 14.0481553,7.49869475 Z" fill="#FFD8B8"></path>
                    </g>
                    <path d="M7.81292946,10.9205504 C6.48534992,11.2260732 5.04164125,11.0269669 3.7985815,10.2497719 C3.67008389,10.1694434 3.63091614,9.99986392 3.71131303,9.87078911 C3.79170993,9.74240088 3.96143674,9.70326516 4.0906215,9.78359362 C6.31974567,11.1773268 9.26831949,10.498309 10.662553,8.27108212 C10.7429498,8.14269388 10.9126769,8.10356235 11.0418617,8.18389081 C11.1703593,8.26421928 11.2095263,8.43379874 11.1291294,8.56287355 C10.3512722,9.80487527 9.140509,10.6157141 7.81292946,10.9205504 L7.81292946,10.9205504 Z" fill="#000000"></path>
                    <g transform="translate(1.1582, 2.9323)">
                        <path d="M5.10717244,3.31616476 C5.10717244,4.48959047 4.15611607,5.44084163 2.98292838,5.44084163 C1.80974069,5.44084163 0.858684051,4.48959047 0.858684051,3.31616476 C0.858684051,2.14273905 1.80974069,1.19148999 2.98292838,1.19148999 C4.15611607,1.19148999 5.10717244,2.14273905 5.10717244,3.31616476 Z" fill="#FF8C14" transform="translate(2.9829, 3.3162) rotate(-51.8663) translate(-2.9829, -3.3162)"></path>
                        <path d="M3.1247919,1.7692873 C3.1247919,1.83374809 3.0724918,1.88600262 3.00797609,1.88600262 C2.94346039,1.88600262 2.89116003,1.83374809 2.89116003,1.7692873 C2.89116003,1.70482651 2.94346039,1.65256988 3.00797609,1.65256988 C3.0724918,1.65256988 3.1247919,1.70482651 3.1247919,1.7692873 Z" fill="#8C3C00"></path>
                        <path d="M3.86829112,1.98006224 C3.86829112,2.04452303 3.81599102,2.09677966 3.75147533,2.09677966 C3.68695963,2.09677966 3.63465901,2.04452303 3.63465901,1.98006224 C3.63465901,1.91560145 3.68695963,1.86334692 3.75147533,1.86334692 C3.81599102,1.86334692 3.86829112,1.91560145 3.86829112,1.98006224 Z" fill="#8C3C00"></path>
                        <path d="M3.35086534,2.38376459 C3.35086534,2.44822537 3.29856498,2.500482 3.23404927,2.500482 C3.16953357,2.500482 3.11723347,2.44822537 3.11723347,2.38376459 C3.11723347,2.3193038 3.16953357,2.26704927 3.23404927,2.26704927 C3.29856498,2.26704927 3.35086534,2.3193038 3.35086534,2.38376459 Z" fill="#8C3C00"></path>
                        <path d="M2.33250437,0.073463292 C1.95938032,0.260896391 1.73949138,0.632329571 1.72643547,1.0216137 C1.91471539,1.07653915 2.08925227,1.18089758 2.22599572,1.32850974 C2.61148854,1.01268841 2.74410909,0.465493202 2.51941007,0 C2.45619199,0.0185373401 2.39297395,0.0425677273 2.33181734,0.073463292 L2.33250437,0.073463292 Z" fill="#00641E"></path>
                        <path d="M0.923840868,1.09507708 C0.849628342,1.13215176 0.782287431,1.17677752 0.721130816,1.226897 C1.04615418,1.57704673 1.5759492,1.68689788 2.02397294,1.46101697 C2.09818547,1.4239423 2.16552625,1.37931654 2.22668286,1.32919707 C1.9016595,0.979047339 1.37186461,0.869196178 0.923840868,1.09507708 Z" fill="#00961E"></path>
                    </g>
                    <g transform="translate(6.2192, 1.884)">
                        <path d="M5.00076373,3.23466729 C5.00076373,4.40769729 4.04938576,5.35862767 2.87580234,5.35862767 C1.70221891,5.35862767 0.750841998,4.40769729 0.750841998,3.23466729 C0.750841998,2.06163729 1.70221891,1.11070901 2.87580234,1.11070901 C4.04938576,1.11070901 5.00076373,2.06163729 5.00076373,3.23466729 Z" fill="#FF8C14" transform="translate(2.8758, 3.2347) rotate(-28.1597) translate(-2.8758, -3.2347)"></path>
                        <path d="M3.64071363,1.82553408 C3.64071363,1.88999487 3.58841353,1.9422515 3.52389783,1.9422515 C3.45938213,1.9422515 3.40708203,1.88999487 3.40708203,1.82553408 C3.40708203,1.76107329 3.45938213,1.70881666 3.52389783,1.70881666 C3.58841353,1.70881666 3.64071363,1.76107329 3.64071363,1.82553408 Z" fill="#8C3C00"></path>
                        <path d="M4.23647504,2.31711699 C4.23647504,2.38157777 4.18417494,2.43383231 4.11965924,2.43383231 C4.05514354,2.43383231 4.00284344,2.38157777 4.00284344,2.31711699 C4.00284344,2.2526562 4.05514354,2.20039957 4.11965924,2.20039957 C4.18417494,2.20039957 4.23647504,2.2526562 4.23647504,2.31711699 Z" fill="#8C3C00"></path>
                        <path d="M3.60017188,2.47846102 C3.60017188,2.54292181 3.54787178,2.59517634 3.48335608,2.59517634 C3.41884038,2.59517634 3.36654028,2.54292181 3.36654028,2.47846102 C3.36654028,2.41400023 3.41884038,2.3617436 3.48335608,2.3617436 C3.54787178,2.3617436 3.60017188,2.41400023 3.60017188,2.47846102 Z" fill="#8C3C00"></path>
                        <path d="M3.58780353,0.00132151349 C3.17070167,0.0232916915 2.82025335,0.274576029 2.65121372,0.626098877 C2.80170022,0.751740838 2.91920341,0.917203055 2.9851701,1.10806898 C3.46480286,0.973501632 3.80700519,0.525859189 3.78845206,0.00955999569 C3.72317253,0.00132117894 3.655831,-0.00211132695 3.5871157,0.00132151349 L3.58780353,0.00132151349 Z" fill="#00641E"></path>
                        <path d="M1.88709936,0.370695929 C1.804641,0.374815337 1.72493155,0.388547201 1.64797042,0.409830812 C1.80464129,0.860906053 2.24510619,1.17398109 2.74672786,1.14789151 C2.82918622,1.1437721 2.90889567,1.13004023 2.9858568,1.10875662 C2.82918593,0.657681383 2.38872103,0.344606342 1.88709936,0.370695929 Z" fill="#00961E"></path>
                    </g>
                </g>
                <g transform="translate(35.4701, 9.89)" id="Vector">
                    <g transform="translate(0, -0)">
                        <g opacity="0.300000012" style="mix-blend-mode: multiply;" transform="translate(0, 0.4806)" fill="#000000">
                            <path d="M14.0481553,7.01809814 C14.0481553,10.8940873 10.9033665,14.0361984 7.02407557,14.0361984 C3.14478459,14.0361984 0,10.8940873 0,7.01809814 C0,3.14210898 3.14478459,0 7.02407557,0 C10.9033665,0 14.0481553,3.14210898 14.0481553,7.01809814 Z" style="mix-blend-mode: multiply;"></path>
                        </g>
                        <path d="M14.5291624,7.01809814 C14.5291624,10.8940873 11.3843736,14.0361984 7.50508265,14.0361984 C3.62579167,14.0361984 0.481007082,10.8940873 0.481007082,7.01809814 C0.481007082,3.14210898 3.62579167,0 7.50508265,0 C11.3843736,0 14.5291624,3.14210898 14.5291624,7.01809814 Z" fill="#FFC51C"></path>
                    </g>
                    <path d="M7.50508405,10.5292066 C6.14314685,10.5292066 4.78052325,10.0108488 3.74360938,8.9748175 C3.63641352,8.86771288 3.63641352,8.69332431 3.74360938,8.58621968 C3.85080524,8.47911506 4.02534027,8.47911506 4.13253614,8.58621968 C5.99197209,10.444073 9.01750832,10.444073 10.8769443,8.58621968 C10.9841401,8.47911506 11.1586752,8.47911506 11.265871,8.58621968 C11.3730669,8.69332431 11.3730669,8.86771288 11.265871,8.9748175 C10.2289572,10.0108488 8.8670206,10.5292066 7.50439623,10.5292066 L7.50508405,10.5292066 Z" fill="#000000"></path>
                </g>
                <g transform="translate(7.1182, 0)" id="Vector">
                    <g>
                        <g opacity="0.300000012" style="mix-blend-mode: multiply;" transform="translate(0.481, 0.4806)" fill="#000000">
                            <path d="M14.0509033,7.019473 C14.0509033,10.8962206 10.905502,14.038945 7.02545218,14.038945 C3.14540239,14.038945 0,10.8962206 0,7.019473 C0,3.14272541 3.14540239,0 7.02545218,0 C10.905502,0 14.0509033,3.14272541 14.0509033,7.019473 Z" style="mix-blend-mode: multiply;"></path>
                        </g>
                        <path d="M14.0509033,7.019473 C14.0509033,10.8962206 10.905502,14.038945 7.02545218,14.038945 C3.14540239,14.038945 0,10.8962206 0,7.019473 C0,3.14272541 3.14540239,0 7.02545218,0 C10.905502,0 14.0509033,3.14272541 14.0509033,7.019473 Z" fill="#F1B0FF"></path>
                    </g>
                    <path d="M9.92462184,9.16664426 L10.0036179,9.16664426 C10.7461846,9.16664426 11.349305,9.76965149 11.349305,10.5120775 L11.349305,11.8575096 L8.57824711,11.8575096 L8.57824711,10.5120775 C8.57824711,9.76965149 9.18136862,9.16664426 9.9239353,9.16664426 L9.92462184,9.16664426 Z" fill="#FF6478" transform="translate(9.9638, 10.5121) scale(-1, -1) rotate(-38.5462) translate(-9.9638, -10.5121)"></path>
                    <path d="M6.63377422,10.5772687 C5.62503365,10.5772687 4.63553418,10.2889104 3.76559854,9.73004392 C3.63778808,9.64765574 3.60068203,9.47807351 3.68314039,9.35037184 C3.76559875,9.22267017 3.93532545,9.18559465 4.0631359,9.26798283 C5.13578166,9.9572972 6.41182411,10.187298 7.65625817,9.91747671 C8.90069223,9.64696888 9.96578031,8.90822173 10.6549947,7.83648894 C10.7374531,7.70878727 10.9071798,7.67171228 11.0349902,7.75410045 C11.1628007,7.83648863 11.1999057,8.00607086 11.1174473,8.13377252 C10.3485232,9.32908758 9.16043623,10.1536563 7.77238719,10.4550597 C7.39376589,10.5374478 7.01170875,10.5779549 6.63308745,10.5779549 L6.63377422,10.5772687 Z" fill="#000000"></path>
                    <g transform="translate(2.836, 4.2402)" fill="#000000">
                        <path d="M0.237682998,2.34814087 C0.193705208,2.34814087 0.149040589,2.33578244 0.109185717,2.31037942 C-0.00144591477,2.2396629 -0.0330555363,2.09205078 0.0377212192,1.98219988 C0.658220346,1.01757168 1.94869376,0.737452067 2.91414371,1.35742305 C3.02477534,1.42813956 3.05638497,1.57575158 2.98560821,1.68560248 C2.91483146,1.79613995 2.76709298,1.82772214 2.65646134,1.75700563 C1.9115875,1.27846767 0.916590368,1.49473644 0.437644752,2.23897627 C0.392292653,2.30969278 0.315331661,2.34814087 0.236996222,2.34814087 L0.237682998,2.34814087 Z"></path>
                        <path d="M4.95911191,1.32240808 C4.91513412,1.32240808 4.87046845,1.31004964 4.83061358,1.28464662 C4.71998195,1.21393011 4.68837338,1.06631812 4.75915013,0.956467223 C5.06012314,0.488914357 5.52463808,0.166227371 6.06748894,0.0481376577 C6.6103398,-0.0699520559 7.16693458,0.0309735332 7.63488575,0.331690365 C7.74551738,0.402406876 7.77712595,0.550018932 7.7063492,0.659869829 C7.63557245,0.770407292 7.48783502,0.802676052 7.37720339,0.731272973 C7.01576091,0.49921295 6.58697704,0.42163074 6.16781374,0.512944299 C5.74933756,0.603571291 5.39064356,0.852795229 5.15838585,1.21324348 C5.11303375,1.28395999 5.03607275,1.32240808 4.95773731,1.32240808 L4.95911191,1.32240808 Z"></path>
                    </g>
                    <path d="M9.97471213,10.6006105 C9.94585171,10.6006105 9.91767839,10.5882523 9.89843811,10.5642225 L9.35283847,9.88108738 C9.31916797,9.83920673 9.32603959,9.77741559 9.36795592,9.74377376 C9.40987225,9.71013192 9.47171602,9.71699768 9.50538652,9.75887834 L10.0509862,10.4420134 C10.0846567,10.4838941 10.077785,10.5456852 10.0358687,10.579327 C10.0180027,10.593745 9.99670065,10.6006105 9.97539891,10.6006105 L9.97471213,10.6006105 Z" fill="#000000"></path>
                    <path d="M10.083969,10.7372379 C10.0551086,10.7372379 10.0269353,10.7248798 10.007695,10.7008499 L9.24564265,9.74651969 C9.21197215,9.70463904 9.21884377,9.64284791 9.2607601,9.60920607 C9.30267643,9.57556423 9.3645202,9.58243 9.39819069,9.62431065 L10.1602431,10.5786409 C10.1939136,10.6205216 10.1870419,10.6823126 10.1451256,10.7159545 C10.1272596,10.7303724 10.1059576,10.7372379 10.0846558,10.7372379 L10.083969,10.7372379 Z" fill="#000000"></path>
                </g>
                <g transform="translate(30.9384, 33.4434)" id="Vector">
                    <g>
                        <g opacity="0.300000012" style="mix-blend-mode: multiply;" fill="#000000">
                            <path d="M14.0481553,7.01809709 C14.0481553,10.8940862 10.9033665,14.0361984 7.02407557,14.0361984 C3.14478459,14.0361984 0,10.8940862 0,7.01809709 C0,3.14210793 3.14478459,0 7.02407557,0 C10.9033665,0 14.0481553,3.14210793 14.0481553,7.01809709 Z" style="mix-blend-mode: multiply;"></path>
                        </g>
                        <path d="M14.5291611,7.49869349 C14.5291611,11.3746826 11.3843723,14.5167948 7.50508134,14.5167948 C3.62579036,14.5167948 0.481005775,11.3746826 0.481005775,7.49869349 C0.481005775,3.62270433 3.62579036,0.480596401 7.50508134,0.480596401 C11.3843723,0.480596401 14.5291611,3.62270433 14.5291611,7.49869349 Z" fill="#1FCFFF"></path>
                    </g>
                    <path d="M2.72937085,6.45717056 C2.15422383,9.08809945 3.82950192,11.6956839 6.46267203,12.2703414 C9.09584215,12.8449989 11.7056474,11.1711489 12.2807944,8.54021998 L2.72937085,6.45717056 L2.72937085,6.45717056 Z" fill="#FFFFFF"></path>
                    <g transform="translate(5.146, 2.772)" fill="#000000">
                        <path d="M2.46399531,1.57348851 C2.46399531,1.96891649 1.81292486,2.28947723 1.00978821,2.28947723 C0.206651555,2.28947723 -0.444418895,1.96891649 -0.444418895,1.57348851 C-0.444418895,1.17806054 0.206651555,0.857503986 1.00978821,0.857503986 C1.81292486,0.857503986 2.46399531,1.17806054 2.46399531,1.57348851 Z" transform="translate(1.0098, 1.5735) rotate(-77.6798) translate(-1.0098, -1.5735)"></path>
                        <path d="M6.35018229,2.42080525 C6.35018229,2.81623324 5.69911184,3.1367898 4.89597519,3.1367898 C4.09283853,3.1367898 3.44176809,2.81623324 3.44176809,2.42080525 C3.44176809,2.02537726 4.09283853,1.7048207 4.89597519,1.7048207 C5.69911184,1.7048207 6.35018229,2.02537726 6.35018229,2.42080525 Z" transform="translate(4.896, 2.4208) rotate(-77.6798) translate(-4.896, -2.4208)"></path>
                    </g>
                </g>
                <g transform="translate(36.1339, 11.2178)" id="Vector">
                    <path d="M8.44304761,4.25260322 C9.09446862,5.44517206 10.5958987,5.88526154 11.7894835,5.23439502 C12.9830684,4.5835285 13.4235325,3.08337718 12.7721115,1.89080834 C12.1206905,0.698239507 10.6192604,0.25814927 9.42567555,0.909015793 C8.23209074,1.55988232 7.7916266,3.06003438 8.44304761,4.25260322 L8.44304761,4.25260322 Z" fill="#FFFFFF"></path>
                    <path d="M9.07523214,4.06448332 C9.38101521,4.62403629 10.0853461,4.83069376 10.6460629,4.52517097 C11.2060926,4.21964819 11.4129272,3.51591576 11.1071441,2.95567621 C10.801361,2.39612325 10.0970302,2.18946579 9.53631334,2.49498858 C8.97628368,2.80051137 8.76944907,3.50424377 9.07523214,4.06448332 Z" fill="#000000"></path>
                    <path d="M10.406934,3.12457125 C10.5258115,3.34152677 10.7986109,3.42185566 11.0164384,3.30307937 C11.2342659,3.18430309 11.313974,2.91173484 11.1950965,2.69409275 C11.076219,2.47713723 10.8034197,2.39680939 10.5855922,2.51558567 C10.3684518,2.63436195 10.2880566,2.90692916 10.406934,3.12457125 Z" fill="#FFFFFF"></path>
                    <path d="M5.23885311,4.25260322 C4.5874321,5.44517206 3.08600199,5.88526154 1.89241718,5.23439502 C0.698832364,4.5835285 0.258368221,3.08337718 0.909789231,1.89080834 C1.56121024,0.698239507 3.06264035,0.25814927 4.25622517,0.909015793 C5.44980998,1.55988232 5.89027412,3.06003438 5.23885311,4.25260322 L5.23885311,4.25260322 Z" fill="#FFFFFF"></path>
                    <path d="M4.60667086,4.06448332 C4.3008878,4.62403629 3.596557,4.83069376 3.0358402,4.52517097 C2.47581056,4.21964819 2.26898022,3.51591576 2.57476327,2.95567621 C2.88054633,2.39612325 3.5848771,2.18946579 4.14559391,2.49498858 C4.70562354,2.80051137 4.91245391,3.50424377 4.60667086,4.06448332 Z" fill="#000000"></path>
                    <path d="M4.69806588,3.11564513 C4.57918841,3.33260065 4.30638905,3.41292953 4.08856154,3.29415325 C3.87142119,3.17537697 3.79102596,2.90280978 3.90990343,2.68516769 C4.0287809,2.46821217 4.30158027,2.38788328 4.51940778,2.50665956 C4.73723528,2.62543584 4.81694335,2.89800304 4.69806588,3.11564513 Z" fill="#FFFFFF"></path>
                    <path d="M3.07432175,6.14341124 C1.37911535,6.14341124 0,4.76546871 0,3.07170522 C0,1.37794173 1.37911535,2.4089923e-07 3.07432175,2.4089923e-07 C4.76952815,2.4089923e-07 6.14864349,1.37794173 6.14864349,3.07170522 C6.14864349,4.76546871 4.76952815,6.14341124 3.07432175,6.14341124 Z M3.07432175,0.794358979 C1.81751889,0.794358979 0.794348673,1.8159729 0.794348673,3.07239246 C0.794348673,4.32881201 1.81683185,5.35042488 3.07432175,5.35042488 C4.33181164,5.35042488 5.35429482,4.32881201 5.35429482,3.07239246 C5.35429482,1.8159729 4.33181164,0.794358979 3.07432175,0.794358979 Z" fill="#000000"></path>
                    <path d="M10.607581,6.143411 C8.91237456,6.143411 7.53325922,4.76546847 7.53325922,3.07170498 C7.53325922,1.37794149 8.91237456,0 10.607581,0 C12.3027874,0 13.6819027,1.37794149 13.6819027,3.07170498 C13.6819027,4.76546847 12.3027874,6.143411 10.607581,6.143411 Z M10.607581,0.794358739 C9.3507781,0.794358739 8.32760789,1.81597266 8.32760789,3.07239222 C8.32760789,4.32881177 9.35009107,5.35042464 10.607581,5.35042464 C11.8650709,5.35042464 12.887554,4.32881177 12.887554,3.07239222 C12.887554,1.81597266 11.8650709,0.794358739 10.607581,0.794358739 Z" fill="#000000"></path>
                    <path d="M7.58136093,3.33397457 C7.17319207,2.92615312 6.508716,2.92615312 6.10054713,3.33397457 L5.55975808,2.79364582 C5.90196026,2.45173491 6.35754016,2.26292793 6.84129585,2.26292793 C7.32505153,2.26292793 7.77994849,2.45104836 8.12283781,2.79364582 L7.58204876,3.33397457 L7.58136093,3.33397457 Z" fill="#000000"></path>
                </g>
            </g>
        </g>
    </g>
</svg>