<?xml version="1.0" encoding="UTF-8"?>
<svg width="436px" height="436px" viewBox="0 0 436 436" version="1.1" xmlns="http://www.w3.org/2000/svg" xmlns:xlink="http://www.w3.org/1999/xlink">
    <title>FR</title>
    <defs>
        <polygon id="path-1" points="0 0 435.916667 0 435.916667 435.916667 0 435.916667"></polygon>
    </defs>
    <g id="FR" stroke="none" stroke-width="1" fill="none" fill-rule="evenodd">
        <g id="1" transform="translate(0.0833, 0.0833)">
            <g id="Clipped" transform="translate(0, 0)">
                <mask id="mask-2" fill="white">
                    <use xlink:href="#path-1"></use>
                </mask>
                <g id="Path"></g>
                <path d="M217.911459,435.828125 C338.052083,435.828125 435.828125,338.052083 435.828125,217.911459 C435.828125,97.7708333 338.052083,0 217.911459,0 C97.7708333,0 0,97.7708333 0,217.911459 C0,338.052083 97.7708333,435.828125 217.911459,435.828125 Z M217.911459,16.3385413 C329.130208,16.3385413 419.489584,106.817708 419.489584,217.911459 C419.489584,329.005208 329.005208,419.489584 217.911459,419.489584 C106.817708,419.489584 16.3385413,329.130208 16.3385413,217.911459 C16.3385413,106.692708 106.692708,16.3385413 217.911459,16.3385413 Z" id="Shape" fill="#008C8C" fill-rule="nonzero" mask="url(#mask-2)"></path>
            </g>
            <g id="Group" transform="translate(32.4398, 161.5028)" fill="#008C8C" fill-rule="nonzero">
                <g transform="translate(0, 0)" id="Path">
                    <path d="M48.4110199,26.6285812 C51.2443532,14.3369146 44.5360199,6.67024789 36.3276866,4.42024789 C34.1818532,3.87858122 33.1818532,6.19108122 34.3068532,7.75358122 C36.6401866,10.2744146 40.0985199,14.3369146 38.7026866,20.3994146 C36.9943532,27.8577479 27.0360199,33.1702479 14.2860199,30.2327479 C7.0360199,28.5660812 3.7860199,23.8369146 4.7235199,19.7327479 C6.5360199,11.8785812 19.5151866,15.0244146 21.4110199,6.83691455 C22.1818532,3.46191455 20.4943532,0.920247885 17.4735199,0.211914552 C10.6193532,-1.37141878 2.99435324,6.10774789 0.640186568,16.2952479 C-2.38064676,29.4410812 5.55685324,40.3577479 18.8068532,43.4202479 C31.4943532,46.3369146 45.4110199,39.6910812 48.4110199,26.6285812 Z"></path>
                </g>
            </g>
            <g id="Group" transform="translate(43.9882, 129.6227)" fill="#008C8C" fill-rule="nonzero">
                <g transform="translate(-0, 0)" id="Path">
                    <path d="M50.3679989,6.59508743 L39.3054989,1.69925409 C29.9929989,-2.38407924 24.2429989,1.53258743 21.4929989,6.67842076 C19.9096656,9.69925409 19.5554989,12.7409208 20.4304989,15.3867541 L3.24299892,6.28258743 C1.88883226,5.55342076 0.951332256,6.19925409 0.826332256,7.86592076 L0.0138322557,19.4492541 C-0.0695010776,20.4700874 0.222165589,21.3034208 0.930498922,21.6784208 L1.11799892,21.7617541 C2.76383226,22.6575874 4.61799892,19.9075874 7.40966559,21.3867541 L34.8888323,35.9700874 C37.6179989,37.4075874 36.8888323,40.3659208 38.6179989,41.2617541 L38.8471656,41.3867541 C39.5554989,41.7617541 40.2429989,41.4492541 40.6804989,40.6367541 L47.5138323,27.7617541 C47.9513323,26.9284208 47.8471656,26.1159208 47.1388323,25.7409208 L46.9096656,25.6159208 C45.1804989,24.7200874 43.1179989,27.0325874 40.3888323,25.5950874 L27.4721656,18.7409208 C24.0346656,16.9284208 22.3888323,14.4492541 23.7638323,11.8659208 C25.2013323,9.13675409 27.9929989,9.13675409 33.5554989,11.7200874 L44.8888323,16.9700874 C47.6596656,18.3034208 47.1804989,20.9284208 48.9096656,21.8242541 L49.1388323,21.9492541 C49.8471656,22.3242541 50.5554989,22.0325874 51.0138323,21.1367541 L57.2846656,9.34508743 C57.7429989,8.44925409 57.6179989,7.69925409 56.9096656,7.32425409 L56.6804989,7.19925409 C54.9513323,6.30342076 53.2221656,7.82425409 50.3679989,6.59508743 Z"></path>
                </g>
            </g>
            <g id="Group" transform="translate(82.9903, 91.7855)" fill="#008C8C" fill-rule="nonzero">
                <g id="Shape">
                    <path d="M21.0481838,0.728031217 L20.8606838,0.540531217 C20.1106838,-0.12613545 19.2148505,-0.209468783 18.4023505,0.478031217 L11.9648505,5.79053122 C10.4440172,7.06136455 10.1523505,8.51969788 11.2356838,9.49886455 L11.5481838,9.76969788 C8.94401716,10.0405312 6.36068383,11.3113646 4.02735049,13.8946979 C-1.63931617,20.1655312 -1.57681617,30.2280312 5.81901716,36.9155312 C13.9856838,44.2905312 23.4231838,42.4363646 28.8815172,36.3946979 C31.0690172,33.9780312 32.2565172,31.0613646 32.1523505,28.3738646 L32.6106838,28.7696979 C33.3398505,29.4571979 34.3606838,29.3321979 35.0273505,28.6030312 L41.4440172,21.4780312 C42.0273505,20.8321979 42.0898505,20.0821979 41.5065172,19.5405312 L41.2981838,19.3530312 C39.9023505,18.1030312 37.4856838,19.5405312 35.1940172,17.4780312 L23.5481838,6.95719788 C20.8190172,4.49886455 22.1106838,1.68636455 21.0481838,0.728031217 Z M28.2148505,32.2280312 C24.7148505,35.8321979 13.6731838,28.8321979 9.61068383,24.9155312 C5.77735049,21.1863646 4.83985049,17.8946979 7.04818383,15.4571979 C9.11068383,13.1655312 13.5690172,13.2071979 17.3190172,16.6030312 L26.9231838,25.2696979 C29.6106838,27.6863646 29.7981838,30.5613646 28.2148505,32.2280312 Z"></path>
                </g>
            </g>
            <g id="Group" transform="translate(112.5031, 66.9061)" fill="#008C8C" fill-rule="nonzero">
                <g id="Shape">
                    <path d="M26.6758095,1.10301292 L26.5299762,0.873846251 C25.9674762,0.0405129181 25.0508095,-0.230320415 24.1549762,0.207179585 L16.5716429,3.85301292 C14.8008095,4.74884625 14.1549762,6.06134625 14.9883095,7.29051292 L15.1966429,7.62384625 C12.5508095,7.22801292 9.80080954,7.87384625 6.92580954,9.81134625 C-0.0950237897,14.5405129 -2.49085712,24.3113463 3.09247621,32.5821796 C9.23830954,41.7071796 18.8633095,42.2071796 25.5924762,37.6655129 C27.8008095,36.1655129 29.4049762,34.2071796 30.2383095,32.1030129 L34.8008095,38.8738463 C36.5299762,41.4363463 34.5508095,43.7488463 35.6341429,45.3530129 L35.7383095,45.5405129 C36.1966429,46.2071796 36.9466429,46.2488463 37.7799762,45.6863463 L49.2383095,37.9571796 C50.0091429,37.4363463 50.3216429,36.6863463 49.8633095,36.0196796 L49.7591429,35.8321796 C48.6758095,34.2280129 46.0091429,35.0613463 44.2799762,32.4988463 L27.6133095,7.74884625 C25.5508095,4.70717958 27.4674762,2.26967958 26.6758095,1.10301292 Z M25.9674762,33.4363463 C21.6966429,36.0821796 12.6758095,26.6446796 9.67580954,21.8530129 C6.84247621,17.2905129 6.73830954,13.8738463 9.46747621,12.0405129 C12.0299762,10.3113463 16.3424762,11.4571796 19.1549762,15.6446796 L26.3841429,26.3738463 C28.4049762,29.3738463 27.9258095,32.2280129 25.9674762,33.4363463 Z"></path>
                </g>
            </g>
            <g id="Group" transform="translate(142.8312, 51.0439)" fill="#008C8C" fill-rule="nonzero">
                <g id="Path">
                    <path d="M40.5789287,23.269537 L32.412262,0.894536963 C31.9955954,-0.230463037 30.9330954,-0.272129704 29.2039287,0.644536963 L20.2664287,5.33203696 C19.4539287,5.7903703 19.099762,6.62370363 19.349762,7.2903703 L19.4330954,7.56120363 C20.0164287,9.14453696 22.8289287,8.95703696 23.912262,11.9153703 L28.474762,24.4153703 C29.8705954,28.2487036 28.912262,31.3737036 26.599762,32.2278703 C23.8289287,33.2487036 21.787262,31.769537 19.9539287,26.582037 L13.3289287,7.87370363 C12.912262,6.74870363 11.662262,6.76953696 9.93309538,7.68620363 L0.995595382,12.3737036 C0.183095382,12.8528703 -0.171071285,13.6862036 0.0789287153,14.3528703 L0.162262049,14.6237036 C0.745595382,16.207037 3.53726205,15.9987036 4.62059538,18.957037 L8.45392872,29.4987036 C11.412262,37.5612036 18.4330954,39.9153703 24.787262,37.6028703 C29.0789287,36.019537 31.5164287,33.5612036 32.2455954,30.457037 C33.537262,33.0403703 35.599762,33.3528703 39.4955954,31.9362036 C43.5164287,30.457037 45.849762,29.1862036 45.224762,27.4778703 C44.287262,24.894537 42.4539287,28.3737036 40.5789287,23.269537 Z"></path>
                </g>
            </g>
            <g id="Group" transform="translate(184.9367, 46.1128)" fill="#008C8C" fill-rule="nonzero">
                <g transform="translate(0, -0)" id="Shape">
                    <g transform="translate(0, -0)">
                        <path d="M28.8411775,20.8146286 C27.8203441,22.5646286 25.4036775,24.2312953 22.0703441,24.6687953 C18.3620108,25.1271286 15.1536775,23.4396286 13.0286775,20.335462 C15.0078441,20.1687953 17.3203441,19.710462 19.6120108,19.022962 C25.7370108,17.2312953 29.6328441,12.8146286 29.0286775,8.14796198 C28.2995108,2.29379531 22.4661775,-0.872871357 14.5495108,0.210461976 C5.65367746,1.41879531 -1.11715587,8.81462864 0.15367746,18.7312953 C1.44534413,28.772962 9.29951079,34.6687953 19.1328441,33.4187953 C28.7161775,32.1896286 31.6745108,25.1271286 31.4036775,21.4396286 C31.2786775,19.960462 29.6328441,19.7521286 28.8411775,20.8146286 Z M13.6328441,3.87712864 C15.8203441,3.60629531 17.7578441,5.73129531 18.1953441,8.66879531 C18.7786775,13.2521286 17.4661775,15.5021286 14.6120108,16.397962 C13.7578441,16.647962 12.5703441,16.8771286 11.2995108,16.9812953 C10.6745108,15.4187953 10.2786775,13.7312953 10.0495108,11.9187953 C9.48701079,7.52296198 10.9036775,4.23129531 13.6328441,3.87712864 Z"></path>
                    </g>
                </g>
            </g>
            <g id="Group" transform="translate(229.2451, 46.8968)" fill="#008C8C" fill-rule="nonzero">
                <g transform="translate(-0, 0)" id="Path">
                    <path d="M13.4545682,33.3424522 C22.6629016,34.7591189 28.5379016,31.3216189 29.3920682,25.8216189 C31.2879016,13.6132855 13.5795682,15.7591189 14.9962349,6.69661886 C15.2879016,4.77995219 16.6420682,3.09245219 18.6837349,3.40495219 C23.2670682,4.11328552 19.7462349,12.7174522 26.1837349,13.7174522 C28.6420682,14.0924522 30.8920682,12.6966189 31.2462349,10.3632855 C31.9129016,6.07161886 26.9754016,1.57161886 18.5587349,0.27995219 C10.2879016,-1.01171448 3.93373489,2.25911886 3.03790155,8.17578552 C1.03790155,21.0091189 19.3920682,18.6341189 18.0379016,27.3007855 C17.6420682,29.9674522 15.8920682,30.7174522 13.8920682,30.4049522 C8.39206822,29.5507855 12.0587349,20.8424522 5.43373489,19.8007855 C2.78790155,19.4049522 0.517068219,20.3216189 0.0587348854,23.3007855 C-0.649598448,27.9466189 5.12123489,32.0507855 13.4545682,33.3424522 Z"></path>
                </g>
            </g>
            <g id="Group" transform="translate(260.8966, 55.7772)" fill="#008C8C" fill-rule="nonzero">
                <g id="Shape">
                    <path d="M12.2864805,32.7742624 C21.4114805,36.3367624 31.4948138,32.8575957 35.0573138,23.753429 C38.6406472,14.5450957 33.4531472,5.02426236 24.0781472,1.37842903 C15.1198138,-2.12157097 4.72398049,1.10759569 1.11981382,10.3367624 C-2.42185284,19.3992624 2.74481382,29.0450957 12.2864805,32.7742624 Z M14.8281472,30.2325957 C9.76564716,28.253429 12.0156472,15.0450957 13.9948138,9.98259569 C15.9739805,4.92009569 18.1198138,2.56592903 21.1198138,3.73259569 C26.0573138,5.64926236 23.7239805,19.2117624 21.8073138,24.1075957 C19.9948138,28.7742624 17.7448138,31.3575957 14.8281472,30.2325957 Z"></path>
                </g>
            </g>
            <g id="Group" transform="translate(294.8798, 68.4915)" fill="#008C8C" fill-rule="nonzero">
                <g id="Path">
                    <path d="M26.2394593,38.9530645 L39.9477926,19.4738978 C40.6352926,18.4947311 40.0519593,17.5988978 38.3227926,16.7030645 L29.3852926,12.0363978 C28.5311259,11.6197311 27.6561259,11.8072311 27.2186259,12.4113978 L27.0727926,12.6197311 C26.0936259,14.0155645 27.8436259,16.2030645 26.0311259,18.7655645 L18.3852926,29.6405645 C16.0311259,32.9738978 12.9269593,33.9947311 10.8852926,32.5780645 C8.48945925,30.8905645 8.53112592,28.3488978 11.7394593,23.8905645 L23.3436259,7.78639779 C24.0311259,6.80723112 23.2811259,5.76556445 21.5519593,4.89056445 L12.5936259,0.223897785 C11.7394593,-0.192768881 10.8852926,-0.0052688813 10.4477926,0.598897785 L10.3019593,0.807231119 C9.32279259,2.20306445 11.0519593,4.39056445 9.23945925,6.95306445 L2.80195925,16.1197311 C-2.15637408,23.1405645 -0.0730407474,30.2447311 5.44779259,34.1405645 C9.17695925,36.7655645 12.5936259,37.3697311 15.5727926,36.1822311 C14.1977926,38.7447311 15.0936259,40.6197311 18.4686259,42.9947311 C21.9894593,45.4738978 24.3644593,46.6405645 25.4061259,45.1613978 C26.9894593,42.9113978 23.1144593,43.3905645 26.2394593,38.9530645 Z"></path>
                </g>
            </g>
            <g id="Group" transform="translate(323.8307, 92.7427)" fill="#008C8C" fill-rule="nonzero">
                <g transform="translate(0, -0)" id="Path">
                    <path d="M3.16815134,32.8442383 C8.16815134,38.1775716 14.7306513,37.2400716 18.4806513,33.7192383 C19.4181513,32.8442383 18.6264847,31.3859049 17.1056513,31.5525716 C15.7306513,31.8234049 14.0431513,31.9067383 12.272318,30.0109049 C11.1056513,28.7817383 11.1889847,26.8859049 12.8556513,25.3234049 L24.584818,14.3234049 L29.2931513,19.3650716 C29.897318,19.9900716 30.8556513,20.0317383 31.4806513,19.4275716 L32.5639847,18.4275716 C33.209818,17.8234049 33.2306513,16.8650716 32.6264847,16.2400716 L27.9181513,11.1984049 L32.8556513,6.57340495 C33.647318,5.82340495 33.6056513,4.82340495 32.8764847,4.05257161 L31.8139847,2.92757161 C31.2306513,2.28173828 30.2514847,2.21923828 29.3139847,2.80257161 C25.7306513,4.96923828 21.584818,4.44840495 18.772318,1.46923828 L17.897318,0.531738281 C17.272318,-0.155761719 16.4181513,-0.176595052 15.7306513,0.469238281 L14.647318,1.46923828 C14.022318,2.07340495 13.9806513,3.01090495 14.5639847,3.65673828 L16.3139847,5.51090495 L4.73065134,16.3859049 C-1.18601533,21.9275716 -1.37351533,27.9900716 3.16815134,32.8442383 Z"></path>
                </g>
            </g>
            <g id="Group" transform="translate(334.9068, 108.1844)" fill="#008C8C" fill-rule="nonzero">
                <g id="Shape">
                    <path d="M34.1636135,11.3090781 C36.7677802,15.0590781 40.9761135,15.9132447 44.0594468,13.7674114 C47.1844468,11.6007447 47.7886135,7.41324474 45.1844468,3.66324474 C42.5594468,-0.128421932 38.4136135,-1.00342193 35.2886135,1.16324474 C32.2052802,3.30907807 31.5386135,7.5174114 34.1636135,11.3090781 Z M0.392780172,26.0590781 L8.62194684,37.8924114 C9.20528017,38.7257447 9.99694684,39.0174114 10.6427802,38.5590781 L10.8719468,38.4132447 C12.4552802,37.3090781 11.3927802,34.3507447 13.9344468,32.6007447 L33.4136135,19.0382447 C34.4761135,18.3090781 34.6844468,16.7465781 32.8302802,15.7674114 L22.9969468,10.2882447 C22.0594468,9.78824474 21.4344468,9.47574474 20.8302802,9.8924114 L20.6219468,10.0382447 C19.2886135,10.9549114 20.0802802,13.7049114 17.5386135,15.4549114 L7.08028017,22.7465781 C4.53861351,24.4965781 2.33028017,22.7674114 0.746946839,23.8715781 L0.517780172,24.0174114 C-0.128053161,24.4757447 -0.169719828,25.2465781 0.392780172,26.0590781 Z"></path>
                </g>
            </g>
            <g id="Group" transform="translate(349.4662, 138.0636)" fill="#008C8C" fill-rule="nonzero">
                <g id="Shape">
                    <path d="M16.844853,29.6157942 C14.8656863,29.1991276 12.5531863,27.4282942 11.1156863,24.3866276 C9.51151968,20.9907942 10.1156863,17.4282942 12.3865197,14.4282942 C13.1781863,16.2824609 14.3240197,18.3449609 15.6781863,20.3032942 C19.3240197,25.5532942 24.719853,27.8866276 28.969853,25.8657942 C34.3031863,23.3449609 35.5115197,16.8241276 32.0115197,9.65746091 C28.1156863,1.57412758 18.9490197,-2.57170576 9.92818634,1.71996091 C0.761519677,6.05329424 -2.38431366,15.3657942 1.86568634,24.3241276 C6.01151968,33.0532942 13.6156863,33.6574609 17.0531863,32.2407942 C18.4281863,31.6782942 18.1156863,30.0741276 16.844853,29.6157942 Z M28.1990197,9.90746091 C29.157353,11.8866276 27.7406863,14.4282942 25.094853,15.7407942 C20.907353,17.7199609 18.3656863,17.1574609 16.6156863,14.7407942 C16.1156863,14.0116276 15.532353,12.9491276 15.0531863,11.7616276 C16.3656863,10.6991276 17.844853,9.78246091 19.469853,9.01162758 C23.4906863,7.11579424 27.032353,7.40746091 28.1990197,9.90746091 Z"></path>
                </g>
            </g>
            <g id="Group" transform="translate(358.014, 167.0484)" fill="#008C8C" fill-rule="nonzero">
                <g id="Path">
                    <path d="M14.6542629,40.0301281 L25.8000962,36.7176281 C36.0500962,33.6551281 37.9459295,26.9259614 36.6959295,21.2176281 C35.7584295,16.8842948 33.2584295,14.0092948 29.7375962,12.9259614 L32.8209295,12.2592948 C34.1334295,11.9676281 35.0500962,10.8842948 33.8417629,9.4051281 L27.3000962,1.23846144 C26.6750962,0.405128105 26.1125962,-0.136538562 25.3417629,0.0301281047 L25.1334295,0.0717947714 C23.2375962,0.488461438 23.6334295,4.05096144 20.4667629,4.73846144 L7.57092953,7.55096144 C4.5500962,8.2176281 3.1125962,5.48846144 1.21676287,5.9051281 L0.966762868,5.9676281 C0.175096201,6.13429477 -0.158237132,6.82179477 0.0709295346,7.80096144 L3.15426287,21.9676281 C3.3625962,22.9467948 3.96676287,23.4259614 4.75842953,23.2592948 L5.00842953,23.1967948 C6.90426287,22.7801281 7.0500962,19.7384614 10.0709295,19.0717948 L24.3625962,15.9467948 C28.1334295,15.1342948 31.0292629,15.9467948 31.6542629,18.8426281 C32.3000962,21.7592948 30.1334295,23.5509614 23.7167629,25.3009614 L12.1334295,28.5092948 C9.15426287,29.3842948 7.82092953,26.9884614 5.9250962,27.4051281 L5.6750962,27.4676281 C4.88342953,27.6342948 4.5500962,28.3217948 4.75842953,29.3009614 L7.6125962,42.4051281 C7.82092953,43.3217948 8.4250962,43.8634614 9.21676287,43.6967948 L9.46676287,43.6342948 C11.3625962,43.2176281 11.6750962,40.9051281 14.6542629,40.0301281 Z"></path>
                </g>
            </g>
            <g id="Group" transform="translate(89.9254, 327.904)" fill="#008C8C" fill-rule="nonzero">
                <g id="Path">
                    <path d="M7.91027057,31.1987597 C15.5144372,36.3237597 22.4519372,34.282093 25.9102706,29.5737597 C26.7227706,28.344593 25.5144372,27.1362597 24.2019372,27.5529264 C21.9727706,28.3237597 18.9727706,28.6987597 15.8477706,26.594593 C10.3477706,22.8862597 10.0144372,15.6987597 14.8894372,8.49042638 C17.1602706,5.09459305 20.5977706,3.36542638 22.9936039,4.86542638 C27.1186039,7.59459305 20.9311039,15.6779264 26.3686039,19.8654264 C29.2852706,21.9904264 31.4727706,21.032093 32.5977706,19.3654264 C35.9311039,14.4279264 32.8686039,7.46959305 26.3061039,3.15709305 C18.7227706,-1.88457362 8.70193723,-1.19707362 2.8686039,7.46959305 C-2.04806277,14.7612597 -0.818896098,25.3237597 7.91027057,31.1987597 Z"></path>
                </g>
            </g>
            <g id="Group" transform="translate(120.5034, 345.0464)" fill="#008C8C" fill-rule="nonzero">
                <g id="Shape">
                    <path d="M11.7269831,32.6067542 C20.7269831,36.4817542 30.9144831,33.3567542 34.7894831,24.3775876 C38.6853165,15.2942542 33.7894831,5.60675425 24.5603165,1.62758758 C15.7269831,-2.16407909 5.24781648,0.710920914 1.33114982,9.81508758 C-2.52301685,18.7525876 2.31031648,28.5650876 11.7269831,32.6067542 Z M14.3311498,30.1484209 C9.35198315,28.0025876 12.0603165,14.8984209 14.2061498,9.89842091 C16.3519831,4.89842091 18.5811498,2.64842091 21.5394831,3.91925425 C26.3936498,6.00258758 23.6228165,19.4609209 21.5394831,24.2734209 C19.5603165,28.8984209 17.2269831,31.3984209 14.3311498,30.1484209 Z"></path>
                </g>
            </g>
            <g id="Group" transform="translate(157.0071, 357.1076)" fill="#008C8C" fill-rule="nonzero">
                <g id="Path">
                    <path d="M56.9552717,31.9272879 L57.788605,20.4689545 C58.6219383,9.59395454 53.413605,5.57312121 47.7052717,4.71895454 C43.3094383,4.05228787 39.3719383,5.48978787 37.0594383,8.67728787 C35.288605,4.73978787 31.5802717,2.28145454 26.9969383,1.59395454 C23.226105,1.03145454 19.8927717,2.13562121 17.538605,4.48978787 L17.913605,2.11478787 C18.101105,0.760621208 17.413605,-0.406045459 15.6219383,0.135621208 L4.976105,3.21895454 C3.99693834,3.53145454 3.26777167,3.86478787 3.14277167,4.63562121 L3.12193834,4.84395454 C2.83027167,6.76062121 6.26777167,7.76062121 5.80943834,10.8647879 L3.83027167,23.9272879 C3.37193834,26.9689545 0.330271669,27.4064545 0.059438336,29.2606212 L0.0177716693,29.5314545 C-0.107228331,30.3231212 0.434438336,30.8647879 1.413605,31.0106212 L15.726105,33.1772879 C16.7469383,33.3231212 17.413605,32.9689545 17.538605,32.1772879 L17.5802717,31.9064545 C17.851105,30.0522879 15.038605,28.7189545 15.4969383,25.6772879 L17.7052717,11.0939545 C18.2469383,7.51062121 20.038605,5.01062121 23.101105,5.46895454 C25.8719383,5.88562121 27.2052717,8.80228787 26.351105,14.4481212 L24.4552717,27.0314545 C23.9969383,30.0731212 21.5594383,30.5939545 21.288605,32.4481212 L21.2469383,32.7189545 C21.1219383,33.5106212 21.6427717,34.0731212 22.6427717,34.2189545 L35.8302717,36.2189545 C36.7677717,36.3439545 37.4969383,35.9897879 37.6219383,35.1981212 L37.663605,34.9272879 C37.9344383,33.0731212 35.663605,31.8439545 36.1219383,28.8022879 L37.913605,16.9897879 C38.0594383,16.0106212 38.1219383,15.1147879 38.1427717,14.1772879 C38.6844383,10.5314545 40.4552717,8.07312121 43.1844383,8.48978787 C46.038605,8.92728787 47.0594383,11.5939545 46.3719383,18.3231212 L45.2677717,30.1772879 C45.0177717,33.2397879 42.3094383,33.7397879 42.038605,35.5939545 L41.9969383,35.8647879 C41.8719383,36.6564545 42.476105,37.1981212 43.3927717,37.3439545 L56.663605,39.3439545 C57.601105,39.4897879 58.3094383,39.1356212 58.4344383,38.3439545 L58.476105,38.0731212 C58.7469383,36.2189545 56.6844383,35.0106212 56.9552717,31.9272879 Z"></path>
                </g>
            </g>
            <g id="Group" transform="translate(219.3373, 360.2573)" fill="#008C8C" fill-rule="nonzero">
                <g transform="translate(-0, 0)" id="Shape">
                    <path d="M20.9667617,0.0989780781 C17.1542617,0.515644745 14.237595,2.18231141 12.8209283,4.68231141 L12.612595,2.74481141 C12.4667617,1.41147808 11.550095,0.578144745 9.65426165,1.72397808 L1.32092832,7.01564474 C0.466761654,7.66147808 -0.0749050123,8.32814474 0.00842832104,9.11981141 L0.0500949877,9.45314474 C0.258428321,11.3906447 3.50842832,11.3698114 3.82092832,14.2448114 L6.80009499,41.5573114 C7.13342832,44.6198114 4.55009499,45.7239781 4.75842832,47.5781447 L4.77926165,47.8489781 C4.86259499,48.6614781 5.57092832,49.0573114 6.50842832,48.9531447 L20.6542617,47.4114781 C21.5917617,47.3073114 22.1959283,46.7864781 22.112595,45.9739781 L22.0917617,45.7031447 C21.8834283,43.8489781 18.800095,43.3489781 18.4667617,40.2864781 L17.5709283,32.2239781 C19.5084283,33.3073114 21.7584283,33.7448114 24.5917617,33.4323114 C32.8417617,32.5364781 39.5917617,25.0573114 38.4459283,14.5364781 C37.2584283,3.66147808 28.4667617,-0.734355255 20.9667617,0.0989780781 Z M23.1542617,30.2656447 C20.2167617,30.5989781 17.0292617,27.0989781 16.4042617,21.4114781 L15.0917617,9.36981141 C14.737595,6.22397808 16.112595,3.91147808 18.487595,3.66147808 C23.362595,3.11981141 26.5292617,14.1198114 27.300095,21.3281447 C27.9042617,26.8073114 26.550095,29.9114781 23.1542617,30.2656447 Z"></path>
                </g>
            </g>
            <g id="Group" transform="translate(256.4588, 346.6021)" fill="#008C8C" fill-rule="nonzero">
                <g id="Path">
                    <path d="M23.1341001,39.6926933 C30.1757668,37.67186 32.3216001,31.4010266 30.9049334,26.4426933 C30.5507668,25.2135266 28.9049334,25.2551933 28.3424334,26.67186 C27.9882668,28.04686 27.2799334,29.5676933 24.7591001,30.29686 C23.1341001,30.7551933 21.5091001,29.8385266 20.8841001,27.6301933 L16.4466001,12.17186 L23.0716001,10.2760266 C23.9257668,10.0260266 24.3841001,9.1926933 24.1341001,8.35935997 L23.7174334,6.9426933 C23.4882668,6.08852663 22.6757668,5.65102663 21.8216001,5.90102663 L15.1966001,7.79685997 L13.3424334,1.27602663 C13.0299334,0.234359966 12.1341001,-0.203140034 11.1132668,0.0885266328 L9.63410009,0.505193299 C8.80076676,0.734359966 8.25910009,1.58852663 8.38410009,2.6926933 C8.65493343,6.85935997 6.30076676,10.3385266 2.36326676,11.4635266 L1.13410009,11.8176933 C0.23826676,12.0676933 -0.178399907,12.79686 0.0716000932,13.7135266 L0.48826676,15.1301933 C0.73826676,15.9635266 1.55076676,16.42186 2.38410009,16.1926933 L4.82160009,15.48436 L9.19660009,30.7760266 C11.4257668,38.5676933 16.7382668,41.5051933 23.1341001,39.6926933 Z"></path>
                </g>
            </g>
            <g id="Group" transform="translate(286.2178, 342.3395)" fill="#008C8C" fill-rule="nonzero">
                <g id="Shape">
                    <path d="M29.616099,17.2822674 C29.178599,19.2614341 27.366099,21.5739341 24.3244323,22.9697674 C20.9077657,24.5531008 17.3452657,23.8864341 14.3869323,21.5739341 C16.241099,20.8031008 18.3244323,19.6781008 20.2827657,18.3447674 C25.5744323,14.7822674 27.9702657,9.3864341 26.0119323,5.11560077 C23.5327657,-0.238565895 17.0327657,-1.53023256 9.80359899,1.90726744 C1.69943232,5.71976744 -2.55056768,14.8239341 1.63693232,23.9072674 C5.88693232,33.0947674 15.1369323,36.3656008 24.1577657,32.1989341 C32.928599,28.1572674 33.616099,20.5322674 32.2619323,17.0947674 C31.6994323,15.7406008 30.0744323,16.0322674 29.616099,17.2822674 Z M10.0327657,5.6989341 C12.0327657,4.78226744 14.5327657,6.21976744 15.8244323,8.8864341 C17.7619323,13.0947674 17.178599,15.6156008 14.741099,17.3447674 C14.0119323,17.8447674 12.928599,18.4072674 11.7619323,18.8864341 C10.6994323,17.5947674 9.78276565,16.0947674 9.03276565,14.4489341 C7.17859899,10.4281008 7.53276565,6.84476744 10.0327657,5.6989341 Z"></path>
                </g>
            </g>
            <g id="Group" transform="translate(314.1753, 312.168)" fill="#008C8C" fill-rule="nonzero">
                <g id="Shape">
                    <path d="M19.9897203,28.7926864 C21.2605537,29.8551864 24.406387,27.6260197 23.7605537,26.0218531 C19.9272203,15.9593531 13.6355537,5.91768641 10.343887,1.43851974 C7.11472034,-3.10314693 -2.59361299,4.16768641 0.656387011,8.60518641 C3.73972034,12.7301864 11.8647203,21.8760197 19.9897203,28.7926864 Z M32.0730537,41.3135197 C35.156387,39.0635197 36.6355537,35.5218531 34.0730537,32.0010197 C31.4897203,28.5010197 27.656387,28.8135197 24.5730537,31.0635197 C21.468887,33.3135197 20.0730537,36.8551864 22.656387,40.3551864 C25.218887,43.8760197 28.968887,43.5635197 32.0730537,41.3135197 Z"></path>
                </g>
            </g>
            <path d="M218.286459,148.348959 C179.645833,148.348959 148.317708,179.682292 148.317708,218.317708 L288.260416,218.317708 C288.260416,179.682292 256.927083,148.348959 218.286459,148.348959 Z M242.718749,196.6875 C241.531251,198.453125 239.140625,198.932292 237.380208,197.739584 C235.614584,196.552083 235.135416,194.161459 236.328125,192.401041 C237.515625,190.640625 239.906251,190.156251 241.666667,191.348959 C243.427083,192.536459 243.911459,194.927083 242.718749,196.6875 Z M245.182292,175.276041 C243.989584,177.036459 241.598959,177.515625 239.838541,176.328125 C238.078125,175.140625 237.609375,172.75 238.786459,170.984375 C239.973959,169.223959 242.364584,168.744792 244.125,169.932292 C245.890625,171.125 246.369792,173.515625 245.182292,175.276041 Z M263.916667,192.479167 C262.729167,194.239584 260.338541,194.723959 258.572917,193.531251 C256.8125,192.343749 256.343749,189.953125 257.520833,188.192708 C258.697917,186.427083 261.104167,185.947917 262.864584,187.135416 C264.625,188.328125 265.093749,190.718749 263.916667,192.479167 Z" id="Shape" fill="#008C8C" fill-rule="nonzero"></path>
            <path d="M184.348959,279.484375 L171.916667,309.156251 L188.270833,316.005208 L200.807292,286.072917 C206.390625,287.510416 212.25,288.281251 218.276041,288.281251 C256.859375,288.281251 288.244792,256.890625 288.244792,218.307292 L270.505208,218.307292 C270.505208,247.109375 247.078125,270.536459 218.276041,270.536459 C189.473959,270.536459 166.046875,247.109375 166.046875,218.307292 L148.307292,218.307292 C148.307292,244.583333 162.864584,267.505208 184.338541,279.468749 L184.348959,279.484375 Z" id="Path" fill="#008C8C" fill-rule="nonzero"></path>
            <path d="M247.213541,113.208333 C233.453125,113.208333 221.5,120.875 215.348959,132.161459 C220.083333,136.567708 223.651041,142.208333 225.505208,148.588541 C241.520833,145 253.531251,130.848959 253.817708,113.817708 C251.677083,113.427083 249.468749,113.208333 247.213541,113.208333 Z" id="Path" fill="#008C8C" fill-rule="nonzero"></path>
            <path d="M190.661459,122.442708 C187.942708,122.442708 185.286459,122.75 182.734375,123.322917 C187.114584,138.442708 201.0625,149.505208 217.588541,149.505208 C220.3125,149.505208 222.963541,149.197917 225.515625,148.625 C221.135416,133.5 207.192708,122.442708 190.661459,122.442708 Z" id="Path" fill="#008C8C" fill-rule="nonzero"></path>
        </g>
    </g>
</svg>