<?xml version="1.0" encoding="UTF-8"?>
<svg width="454px" height="454px" viewBox="0 0 454 454" version="1.1" xmlns="http://www.w3.org/2000/svg" xmlns:xlink="http://www.w3.org/1999/xlink">
    <title>Artboard</title>
    <defs>
        <polygon id="path-1" points="0 0 454 0 454 454 0 454"></polygon>
    </defs>
    <g id="Artboard" stroke="none" stroke-width="1" fill="none" fill-rule="evenodd">
        <g id="3" transform="translate(-0.1927, -0.0521)">
            <g id="Clipped" transform="translate(0, 0)">
                <mask id="mask-2" fill="white">
                    <use xlink:href="#path-1"></use>
                </mask>
                <g id="Path"></g>
                <path d="M454.375,227.187499 C454.375,230.906249 454.286457,234.619791 454.104167,238.333333 C453.921875,242.046875 453.645833,245.755208 453.281249,249.453124 C452.916667,253.156249 452.463541,256.843749 451.916667,260.520832 C451.369791,264.197916 450.734375,267.864583 450.010416,271.510416 C449.286457,275.156249 448.468749,278.781249 447.567708,282.390624 C446.661457,285.994791 445.671875,289.578124 444.593749,293.135416 C443.515625,296.692708 442.348959,300.223957 441.093749,303.723957 C439.843749,307.223957 438.505208,310.692708 437.083333,314.125 C435.661457,317.562499 434.151041,320.958333 432.5625,324.322916 C430.973959,327.682291 429.302083,331.005208 427.552083,334.281249 C425.796875,337.562499 423.963541,340.796875 422.052083,343.984375 C420.140625,347.171875 418.151041,350.312499 416.088541,353.406249 C414.020833,356.494791 411.880208,359.536457 409.666667,362.520832 C407.453124,365.510416 405.166667,368.437499 402.807292,371.312499 C400.447916,374.187499 398.020833,377 395.520833,379.755208 C393.026041,382.510416 390.463541,385.203124 387.833333,387.833333 C385.203124,390.463541 382.510416,393.026041 379.760416,395.520832 C377.005208,398.020832 374.1875,400.447916 371.3125,402.807291 C368.442708,405.161457 365.510416,407.447916 362.526041,409.666667 C359.536457,411.880208 356.5,414.020832 353.406249,416.088541 C350.317708,418.151041 347.177083,420.140624 343.984375,422.052083 C340.796875,423.963541 337.5625,425.796875 334.281249,427.546875 C331.005208,429.302083 327.682292,430.973957 324.322916,432.562499 C320.963541,434.151041 317.5625,435.656249 314.130208,437.078124 C310.692708,438.505208 307.223959,439.838541 303.723959,441.093749 C300.223959,442.343749 296.692708,443.510416 293.135416,444.593749 C289.578124,445.671875 285.994791,446.661457 282.390625,447.567708 C278.781249,448.468749 275.156249,449.281249 271.510416,450.010416 C267.864583,450.734375 264.203124,451.369791 260.520833,451.916667 C256.843749,452.458333 253.156249,452.916667 249.458333,453.281249 C245.755208,453.645832 242.046875,453.916667 238.333333,454.098957 C234.619791,454.281249 230.906249,454.375 227.1875,454.375 C223.468749,454.375 219.755208,454.281249 216.041667,454.098957 C212.328124,453.916667 208.619791,453.645832 204.921875,453.281249 C201.218749,452.916667 197.531249,452.458333 193.854167,451.916667 C190.177083,451.369791 186.510416,450.734375 182.864583,450.010416 C179.218749,449.281249 175.593749,448.468749 171.984375,447.567708 C168.380208,446.661457 164.796875,445.671875 161.239583,444.593749 C157.682292,443.510416 154.151041,442.343749 150.651041,441.093749 C147.151041,439.838541 143.682292,438.505208 140.244791,437.078124 C136.8125,435.656249 133.411457,434.151041 130.052083,432.562499 C126.692708,430.973957 123.369791,429.302083 120.093749,427.546875 C116.8125,425.796875 113.578124,423.963541 110.390625,422.052083 C107.203124,420.140624 104.0625,418.151041 100.968749,416.088541 C97.880208,414.020832 94.8385413,411.880208 91.8541667,409.666667 C88.8645827,407.447916 85.9375,405.161457 83.0625,402.807291 C80.1875,400.447916 77.375,398.020832 74.6197907,395.520832 C71.8645827,393.026041 69.1718747,390.463541 66.5416667,387.833333 C63.9114573,385.203124 61.3489587,382.510416 58.8541667,379.755208 C56.3541667,377 53.9270827,374.187499 51.567708,371.312499 C49.2135413,368.437499 46.9218747,365.510416 44.7083333,362.520832 C42.4947907,359.536457 40.3541667,356.494791 38.2864573,353.406249 C36.2239587,350.312499 34.2343747,347.171875 32.322916,343.984375 C30.4114573,340.796875 28.578124,337.562499 26.828124,334.281249 C25.072916,331.005208 23.4010413,327.682291 21.8125,324.322916 C20.2239587,320.958333 18.7187493,317.562499 17.2916667,314.125 C15.8697907,310.692708 14.5312493,307.223957 13.2812493,303.723957 C12.0260413,300.223957 10.8645827,296.692708 9.78124933,293.135416 C8.703124,289.578124 7.71354133,285.994791 6.807292,282.390624 C5.90624933,278.781249 5.09374933,275.156249 4.36458267,271.510416 C3.64062533,267.864583 3.005208,264.197916 2.45833333,260.520832 C1.91145733,256.843749 1.45833333,253.156249 1.09374933,249.453124 C0.729166667,245.755208 0.458333333,242.046875 0.276041333,238.333333 C0.0937493333,234.619791 0,230.906249 0,227.187499 C0,223.468749 0.0937493333,219.755208 0.276041333,216.041667 C0.458333333,212.328124 0.729166667,208.619791 1.09374933,204.916667 C1.45833333,201.218749 1.91145733,197.531249 2.45833333,193.848957 C3.005208,190.171875 3.64062533,186.510416 4.36458267,182.864583 C5.09374933,179.218749 5.90624933,175.593749 6.807292,171.984375 C7.71354133,168.380208 8.703124,164.796875 9.78124933,161.239583 C10.8645827,157.677083 12.0260413,154.151041 13.2812493,150.651041 C14.5312493,147.151041 15.8697907,143.682291 17.2916667,140.244791 C18.7187493,136.812499 20.2239587,133.411457 21.8125,130.052083 C23.4010413,126.692708 25.072916,123.369791 26.828124,120.093749 C28.578124,116.812499 30.4114573,113.578124 32.322916,110.390624 C34.2343747,107.197916 36.2239587,104.057291 38.2864573,100.968749 C40.3541667,97.875 42.4947907,94.8385413 44.7083333,91.8489573 C46.9218747,88.8645827 49.2135413,85.9322907 51.567708,83.0624987 C53.9270827,80.1874987 56.3541667,77.3697907 58.8541667,74.6145827 C61.3489587,71.8593747 63.9114573,69.1718747 66.5416667,66.5416667 C69.1718747,63.9114573 71.8645827,61.3489573 74.6197907,58.8541653 C77.375,56.3541653 80.1875,53.9270827 83.0625,51.567708 C85.9375,49.2083333 88.8645827,46.9218747 91.8541667,44.7083333 C94.8385413,42.4947907 97.880208,40.3541653 100.968749,38.2864573 C104.0625,36.2239573 107.203124,34.2343747 110.390625,32.322916 C113.578124,30.4114573 116.8125,28.578124 120.093749,26.822916 C123.369791,25.072916 126.692708,23.4010413 130.052083,21.8124987 C133.411457,20.2239573 136.8125,18.7135413 140.244791,17.2916667 C143.682292,15.8697907 147.151041,14.5312493 150.651041,13.2812493 C154.151041,12.0260413 157.682292,10.8593747 161.239583,9.78124933 C164.796875,8.703124 168.380208,7.71354133 171.984375,6.80729067 C175.593749,5.90624933 179.218749,5.08854133 182.864583,4.36458267 C186.510416,3.640624 190.177083,3.005208 193.854167,2.45833333 C197.531249,1.91145733 201.218749,1.45833333 204.921875,1.09374933 C208.619791,0.729165333 212.328124,0.453124 216.041667,0.270832 C219.755208,0.0885413333 223.468749,0 227.1875,0 C230.906249,0 234.619791,0.0885413333 238.333333,0.270832 C242.046875,0.453124 245.755208,0.729165333 249.458333,1.09374933 C253.156249,1.45833333 256.843749,1.91145733 260.520833,2.45833333 C264.203124,3.005208 267.864583,3.640624 271.510416,4.36458267 C275.156249,5.08854133 278.781249,5.90624933 282.390625,6.80729067 C285.994791,7.71354133 289.578124,8.703124 293.135416,9.78124933 C296.692708,10.8593747 300.223959,12.0260413 303.723959,13.2812493 C307.223959,14.5312493 310.692708,15.8697907 314.130208,17.2916667 C317.5625,18.7135413 320.963541,20.2239573 324.322916,21.8124987 C327.682292,23.4010413 331.005208,25.072916 334.281249,26.822916 C337.5625,28.578124 340.796875,30.4114573 343.984375,32.322916 C347.177083,34.2343747 350.317708,36.2239573 353.406249,38.2864573 C356.5,40.3541653 359.536457,42.4947907 362.526041,44.7083333 C365.510416,46.9218747 368.442708,49.2083333 371.3125,51.567708 C374.1875,53.9270827 377.005208,56.3541653 379.760416,58.8541653 C382.510416,61.3489573 385.203124,63.9114573 387.833333,66.5416667 C390.463541,69.1718747 393.026041,71.8593747 395.520833,74.6145827 C398.020833,77.3697907 400.447916,80.1874987 402.807292,83.0624987 C405.166667,85.9322907 407.453124,88.8645827 409.666667,91.8489573 C411.880208,94.8385413 414.020833,97.875 416.088541,100.968749 C418.151041,104.057291 420.140625,107.197916 422.052083,110.390624 C423.963541,113.578124 425.796875,116.812499 427.546875,120.093749 C429.302083,123.369791 430.973959,126.692708 432.5625,130.052083 C434.151041,133.411457 435.661457,136.812499 437.083333,140.244791 C438.505208,143.682291 439.843749,147.151041 441.093749,150.651041 C442.348959,154.151041 443.515625,157.677083 444.593749,161.239583 C445.671875,164.796875 446.661457,168.380208 447.567708,171.984375 C448.468749,175.593749 449.286457,179.218749 450.010416,182.864583 C450.734375,186.510416 451.369791,190.171875 451.916667,193.848957 C452.463541,197.531249 452.916667,201.218749 453.281249,204.916667 C453.645833,208.619791 453.921875,212.328124 454.104167,216.041667 C454.286457,219.755208 454.375,223.468749 454.375,227.187499 Z" id="Path" fill="#FF6E78" fill-rule="nonzero" mask="url(#mask-2)"></path>
            </g>
            <path d="M227.1875,19.2083333 C284.817708,19.2083333 336.901041,42.4791653 374.583333,80.1614573 C412.260416,117.843749 435.536457,169.927083 435.536457,227.187499 C435.536457,284.812499 412.260416,336.901041 374.583333,374.583333 C336.901041,412.260416 284.817708,435.536457 227.1875,435.536457 C169.927083,435.536457 117.843749,412.260416 80.1614573,374.583333 C42.4843747,336.901041 19.2083333,284.812499 19.2083333,227.187499 C19.2083333,169.927083 42.4843747,117.843749 80.1614573,80.1614573 C117.843749,42.4791653 169.927083,19.2083333 227.1875,19.2083333 Z M370.890625,83.4843747 C334.317708,46.9166667 283.338541,24.010416 227.1875,24.010416 C171.036457,24.010416 120.427083,46.9166667 83.4895827,83.4843747 C46.9166667,120.427083 24.010416,171.036457 24.010416,227.187499 C24.010416,283.338541 46.9166667,334.317708 83.4895827,370.885416 C120.427083,407.828124 171.036457,430.364583 227.1875,430.364583 C283.338541,430.364583 334.317708,407.828124 370.890625,370.885416 C407.828124,334.317708 430.364583,283.338541 430.364583,227.187499 C430.364583,171.036457 407.828124,120.427083 370.890625,83.4843747 Z" id="Shape" fill="#FFFFFF" fill-rule="nonzero"></path>
            <g id="Group" transform="translate(42.0803, 160.5813)" fill="#FFFFFF" fill-rule="nonzero">
                <g transform="translate(0, -0)" id="Path">
                    <path d="M45.6052617,44.9768722 L55.1677617,14.1018722 C55.626095,12.6227055 55.1469283,11.9143722 53.8344283,11.2477055 L45.876095,7.22687218 C45.063595,6.81020552 43.8552617,6.93520552 43.5427617,7.95603885 L43.3552617,8.53937218 C42.1677617,12.3727055 49.7719283,15.9352055 48.3552617,20.4768722 L46.2719283,27.2060388 C45.3552617,30.1643722 42.5844283,30.2893722 40.3969283,29.6227055 L28.626095,25.9560388 L30.7094283,19.2268722 C31.751095,15.8102055 36.7302617,16.9560388 37.313595,15.1227055 L37.4594283,14.6018722 C37.7094283,13.8102055 37.2719283,13.1227055 36.376095,12.8518722 L24.8552617,9.26853885 C23.9594283,8.99770552 23.251095,9.31020552 23.001095,10.1018722 L22.8552617,10.6227055 C22.2719283,12.4560388 27.251095,14.4352055 26.2094283,17.8518722 L24.126095,24.5810388 L11.563595,20.6852055 C9.20942833,19.9352055 8.87609499,18.3518722 9.35526166,16.8102055 L11.0844283,11.1852055 C12.501095,6.62270552 20.563595,7.10187218 21.6677617,3.51853885 L21.7719283,3.18520552 C22.1052617,2.12270552 21.626095,1.16437218 20.4177617,1.01853885 L11.8552617,0.0393721817 C10.3552617,-0.127294485 9.62609499,0.206038848 9.18859499,1.60187218 L0.10526166,30.9352055 C-0.165571673,31.8310388 0.0844283268,32.5602055 0.876094993,32.8102055 L1.12609499,32.8727055 C2.91776166,33.4352055 4.45942833,31.1018722 7.50109499,32.0393722 L38.876095,41.7685388 C41.876095,42.7060388 41.8552617,45.4977055 43.6469283,46.0602055 L43.9177617,46.1435388 C44.6677617,46.3727055 45.3344283,45.8727055 45.6052617,44.9768722 Z"></path>
                </g>
            </g>
            <g id="Group" transform="translate(75.647, 125.6767)" fill="#FFFFFF" fill-rule="nonzero">
                <g id="Shape">
                    <path d="M16.6444481,0.465564067 L16.4152815,0.319730734 C15.5611148,-0.2011026 14.6444481,-0.0969359331 13.9777815,0.715564067 L8.64444812,7.1113974 C7.39444812,8.65306407 7.35278146,10.1322307 8.62361479,10.9030641 L8.95694812,11.1113974 C6.43611479,11.8405641 4.14444812,13.5697307 2.31111479,16.5280641 C-2.10555188,23.7363974 -0.230551877,33.6113974 8.26944812,38.8405641 C17.6444481,44.5905641 26.6027815,41.0488974 30.8527815,34.1322307 C32.5611148,31.3405641 33.2069481,28.2572307 32.6236148,25.6322307 L33.1444481,25.9447307 C33.9986148,26.4655641 34.9361148,26.1738974 35.4777815,25.3197307 L40.4777815,17.1530641 C40.9361148,16.4030641 40.8319481,15.6322307 40.1652815,15.2155641 L39.9361148,15.0697307 C38.3319481,14.0905641 36.2486148,15.9655641 33.6236148,14.3405641 L20.2486148,6.15306407 C17.1027815,4.21556407 17.8527815,1.21556407 16.6444481,0.465564067 Z M29.4569481,30.1322307 C26.6652815,34.2988974 14.5194481,29.4447307 9.81111479,26.3405641 C5.35278146,23.3613974 3.85278146,20.2988974 5.56111479,17.4863974 C7.18611479,14.8613974 11.5611148,14.1322307 15.8527815,16.7572307 L26.8736148,23.5280641 C29.9777815,25.4238974 30.7069481,28.2155641 29.4569481,30.1322307 Z"></path>
                </g>
            </g>
            <g id="Group" transform="translate(99.8219, 101.7979)" fill="#FFFFFF" fill-rule="nonzero">
                <g transform="translate(-0, 0)" id="Path">
                    <path d="M29.3998452,28.7366108 C35.8373452,22.1741108 35.0873452,14.9866108 31.0873452,10.7574442 C30.0248452,9.71577751 28.6290119,10.6949442 28.7956785,12.0491108 C29.1290119,14.3824442 28.9623452,17.4032775 26.3165119,20.0907775 C21.6706785,24.8199442 14.5665119,23.8407775 8.35817853,17.7366108 C5.44151187,14.8616108 4.35817853,11.1741108 6.25401187,9.09077751 C9.69151187,5.52827751 16.5456785,13.0907775 21.6290119,8.50744418 C24.2748452,6.00744418 23.7123452,3.71577751 22.2748452,2.29911084 C18.0248452,-1.86755582 10.6498452,-0.117555822 5.19151187,5.50744418 C-1.14182147,12.0907775 -2.2876548,22.0491108 5.17067853,29.3824442 C11.4415119,35.5491108 22.0248452,36.2366108 29.3998452,28.7366108 Z"></path>
                </g>
            </g>
            <g id="Group" transform="translate(112.8344, 70.7511)" fill="#FFFFFF" fill-rule="nonzero">
                <g id="Path">
                    <path d="M50.6918819,24.4791202 L43.4627153,14.7707869 C37.4210486,6.62495358 30.4627153,7.16662025 25.5460486,10.2916202 C22.6502153,12.1249536 20.8585486,14.6041202 20.3168819,17.3541202 L9.87938192,0.916620247 C9.04604859,-0.37504642 7.92104859,-0.291713087 6.98354859,1.10412025 L0.546048586,10.7499536 C-0.0372847472,11.6041202 -0.183118081,12.4999536 0.254381919,13.1666202 L0.358548586,13.3332869 C1.37938192,14.9166202 4.31688192,13.4374536 6.02521525,16.1041202 L22.7127153,42.3541202 C24.3585486,44.9582869 22.2543819,47.1666202 23.2960486,48.8124536 L23.4418819,49.0416202 C23.8793819,49.7082869 24.6502153,49.7916202 25.4418819,49.2916202 L37.7335486,41.4791202 C38.5252153,40.9582869 38.8377153,40.2082869 38.4002153,39.5416202 L38.2543819,39.3124536 C37.2127153,37.6666202 34.2543819,38.6666202 32.6085486,36.0624536 L24.7543819,23.7082869 C22.6710486,20.4374536 22.4835486,17.4791202 24.9627153,15.8957869 C27.5668819,14.2291202 29.9627153,15.6457869 33.5252153,20.6249536 L40.7752153,30.7707869 C42.5460486,33.3124536 40.8377153,35.3749536 41.8793819,37.0207869 L42.0252153,37.2499536 C42.4627153,37.9166202 43.2127153,37.9791202 44.0668819,37.4374536 L55.3377153,30.2707869 C56.1710486,29.7499536 56.4210486,29.0207869 55.9835486,28.3541202 L55.8377153,28.1249536 C54.7960486,26.4791202 52.5668819,26.9374536 50.6918819,24.4791202 Z"></path>
                </g>
            </g>
            <g id="Group" transform="translate(173.8035, 39.4723)" fill="#FFFFFF" fill-rule="nonzero">
                <g transform="translate(-0, 0)" id="Shape">
                    <path d="M35.8702725,41.8696796 L25.8911059,1.49467956 C25.4744392,-0.25532044 24.3702725,-0.38032044 22.6411059,0.661346227 L13.2452725,6.22384623 C12.3911059,6.72384623 11.9952725,7.59884623 12.1619392,8.30717956 L12.2244392,8.51551289 C12.6827725,10.3905129 16.2244392,9.91134623 16.9744392,12.9946796 L19.1202725,21.6405129 C17.0786059,20.9113462 14.7036059,20.8071796 11.9744392,21.4738462 C3.76610586,23.4946796 -1.83806081,31.8696796 0.557772524,41.5571796 C3.18277252,52.2238462 12.0577725,55.9738462 19.9536059,54.0363462 C23.1202725,53.2446796 25.6619392,51.5363462 27.1619392,49.2238462 L27.3077725,49.8071796 C27.5369392,50.7863462 28.3494392,51.2655129 29.4119392,51.0155129 L38.7036059,48.7030129 C39.6202725,48.4946796 40.0786059,47.8905129 39.8911059,47.1196796 L39.8286059,46.8488462 C39.3911059,45.0363462 36.5994392,44.8696796 35.8702725,41.8696796 Z M21.7452725,50.2030129 C16.8286059,51.2238462 11.5994392,39.2446796 10.4327725,33.7238462 C9.34943919,28.4738462 10.4119392,25.2238462 13.5994392,24.4321796 C16.5994392,23.7030129 20.4327725,26.9946796 21.4536059,31.1613462 L24.5577725,43.7238462 C25.4327725,47.2238462 23.9952725,49.7446796 21.7452725,50.2030129 Z"></path>
                </g>
            </g>
            <g id="Group" transform="translate(212.0772, 55.1925)" fill="#FFFFFF" fill-rule="nonzero">
                <g transform="translate(-0, 0)" id="Shape">
                    <g transform="translate(0, 0)">
                        <path d="M18.5834098,33.5209723 C28.3750765,33.5000931 36.4792431,26.6042598 36.4792431,16.8125931 C36.4584098,6.9375931 28.1250765,-0.0207402312 18.0625765,4.64468566e-05 C8.45840981,0.0209264355 -0.0207568536,6.8125931 3.81695336e-05,16.7292598 C3.81695336e-05,26.4584264 8.33340981,33.5417598 18.5834098,33.5209723 Z M20.0000765,30.2292845 C14.5625765,30.2500931 11.8542431,17.1250931 11.8334098,11.6875931 C11.8334098,6.2500931 12.9584098,3.29175977 16.1875765,3.27092644 C21.4792431,3.27092644 24.2709098,16.7500931 24.2709098,22.0000931 C24.2709098,27.0209264 23.1459098,30.2292845 20.0000765,30.2292845 Z"></path>
                    </g>
                </g>
            </g>
            <g id="Group" transform="translate(247.522, 58.586)" fill="#FFFFFF" fill-rule="nonzero">
                <g id="Path">
                    <path d="M36.6662173,30.8358167 L38.6245506,19.3774834 C40.4162173,8.83581668 35.2078839,4.16915002 29.5412173,2.77331668 C25.2495506,1.68998335 21.5412173,2.64831668 19.0203839,5.31498335 L19.7912173,2.27331668 C20.1037173,0.960816685 19.5412173,-0.351683315 17.7078839,0.0858166849 L7.47871726,2.31498335 C6.43705059,2.52331668 5.70788392,2.77331668 5.49955059,3.54415002 L5.45788392,3.75248335 C4.99955059,5.62748335 8.35371726,6.87748335 7.58288392,10.0024834 L4.39538392,22.8149834 C3.64538392,25.8149834 0.582883922,25.8983167 0.103717255,27.7733167 L0.041217255,28.04415 C-0.146282745,28.8358167 0.312050588,29.41915 1.29121726,29.6483167 L15.3537173,33.1483167 C16.3328839,33.3983167 17.0412173,33.10665 17.2287173,32.3149834 L17.2912173,32.04415 C17.7703839,30.16915 15.0828839,28.66915 15.8328839,25.66915 L19.3537173,11.48165 C20.2912173,7.73165002 22.2912173,5.50248335 25.1662173,6.21081668 C28.0828839,6.93998335 28.7495506,9.66915002 27.4787173,16.1899834 L25.2287173,27.98165 C24.6662173,31.04415 21.9370506,31.1899834 21.4578839,33.0649834 L21.3953839,33.3358167 C21.2078839,34.1274834 21.6662173,34.7108167 22.6453839,34.9608167 L35.6662173,38.1899834 C36.5620506,38.41915 37.3537173,38.1483167 37.5412173,37.35665 L37.6037173,37.0858167 C38.0828839,35.2108167 36.1245506,33.8774834 36.6662173,30.8358167 Z"></path>
                </g>
            </g>
            <g id="Group" transform="translate(287.7287, 73.0657)" fill="#FFFFFF" fill-rule="nonzero">
                <g id="Shape">
                    <path d="M41.133186,15.2528549 L41.258186,15.0028549 C41.7373527,14.1278549 41.5915194,13.2320215 40.7165194,12.5861882 L34.0290194,7.62785488 C32.445686,6.46118822 30.9665194,6.52368822 30.258186,7.81535488 L30.0915194,8.16952155 C29.195686,5.71118822 27.320686,3.50285488 24.258186,1.85702155 C16.7998527,-2.14297845 7.07068605,0.336188216 2.34151938,9.12785488 C-2.84598062,18.8153549 1.21651938,27.5236882 8.36235272,31.3778549 C11.258186,32.9195215 14.3623527,33.3778549 16.9665194,32.6486882 L16.6748527,33.1695215 C16.195686,34.0653549 16.5498527,35.0028549 17.4248527,35.4820215 L25.8623527,40.0028549 C26.633186,40.4195215 27.4040194,40.2945215 27.7790194,39.5861882 L27.9040194,39.3570215 C28.7998527,37.6903549 26.7998527,35.7111882 28.258186,33.0028549 L35.6748527,19.1695215 C37.4040194,15.9195215 40.4665194,16.4820215 41.133186,15.2528549 Z M12.2790194,29.7320215 C7.94568605,27.1903549 12.070686,14.7945215 14.9040194,9.91952155 C17.6123527,5.29452155 20.5915194,3.60702155 23.4873527,5.16952155 C26.195686,6.62785488 27.2165194,10.9611882 24.8415194,15.4195215 L18.7165194,26.8153549 C17.008186,30.0028549 14.258186,30.8778549 12.2790194,29.7320215 Z"></path>
                </g>
            </g>
            <g id="Group" transform="translate(320.5549, 89.4218)" fill="#FFFFFF" fill-rule="nonzero">
                <g id="Path">
                    <path d="M4.08349749,34.257835 C9.68766416,38.945335 16.1043308,37.2161683 19.4168308,33.2786683 C20.2293308,32.2995016 19.2709975,30.945335 17.7709975,31.257835 C16.4376642,31.7370016 14.7918308,32.007835 12.7918308,30.3411683 C11.5001642,29.257835 11.3334975,27.382835 12.8126642,25.6120016 L23.1459975,13.2995016 L28.4376642,17.7370016 C29.1043308,18.2786683 30.0418308,18.195335 30.6043308,17.5286683 L31.5626642,16.382835 C32.1251642,15.7161683 32.0209975,14.7786683 31.3543308,14.2370016 L26.0626642,9.79950162 L30.4168308,4.61200162 C31.1043308,3.77866829 30.9584975,2.77866829 30.1459975,2.09116829 L28.9793308,1.11200162 C28.2918308,0.54950162 27.3126642,0.591168286 26.4584975,1.29950162 C23.1668308,3.86200162 18.9793308,3.86200162 15.8334975,1.21616829 L14.8543308,0.403668286 C14.1251642,-0.20049838 13.2918308,-0.117165047 12.6876642,0.591168286 L11.7293308,1.73700162 C11.1668308,2.40366829 11.2709975,3.34116829 11.9376642,3.90366829 L13.8751642,5.52866829 L3.66683082,17.695335 C-1.54150251,23.9245016 -1.02066918,29.9870016 4.08349749,34.257835 Z"></path>
                </g>
            </g>
            <g id="Group" transform="translate(333.407, 100.7128)" fill="#FFFFFF" fill-rule="nonzero">
                <g id="Shape">
                    <path d="M32.3010476,11.8680678 C35.3218809,15.2847344 39.5927142,15.5972344 42.4052142,13.0972344 C45.2385476,10.5764011 45.3427142,6.34723444 42.3218809,2.93056777 C39.2385476,-0.52776556 35.0093809,-0.881932227 32.1760476,1.63890111 C29.3635476,4.13890111 29.2177142,8.40973444 32.3010476,11.8680678 Z M0.530214245,30.5555678 L10.1343809,41.3055678 C10.8010476,42.0764011 11.5927142,42.2639011 12.1968809,41.7222344 L12.3843809,41.5555678 C13.8427142,40.2639011 12.4468809,37.4722344 14.7385476,35.4097344 L32.4677142,19.6180678 C33.4260476,18.7639011 33.4468809,17.2014011 31.4885476,16.4097344 L21.0718809,12.1597344 C20.0927142,11.7847344 19.4468809,11.5555678 18.8843809,12.0347344 L18.6968809,12.2222344 C17.4885476,13.2847344 18.5927142,15.9097344 16.2802142,17.9514011 L6.75938091,26.4305678 C4.46771425,28.4930678 2.07188091,27.0347344 0.613547579,28.3264011 L0.426047579,28.4930678 C-0.178119088,29.0347344 -0.136452421,29.8055678 0.530214245,30.5555678 Z"></path>
                </g>
            </g>
            <g id="Group" transform="translate(350.812, 131.3264)" fill="#FFFFFF" fill-rule="nonzero">
                <g transform="translate(0, -0)" id="Shape">
                    <path d="M3.02308979,26.9527847 C8.10642312,35.3277847 18.2105898,38.7027847 26.5855898,33.6194514 C35.0230898,28.5152847 36.6689231,17.786118 31.4605898,9.18195137 C26.4814231,0.97361804 16.2730898,-2.79721529 7.79392312,2.34861804 C-0.539410212,7.39028471 -2.28941021,18.1819514 3.02308979,26.9527847 Z M6.56475645,26.4527847 C3.75225645,21.8069514 13.5855898,12.7027847 18.2314231,9.89028471 C22.8772565,7.07778471 26.0022565,6.51528471 27.6689231,9.26528471 C30.4189231,13.8069514 20.3147565,23.1194514 15.8355898,25.848618 C11.5230898,28.4527847 8.21058979,29.1402847 6.56475645,26.4527847 Z"></path>
                </g>
            </g>
            <g id="Group" transform="translate(363.4982, 163.6358)" fill="#FFFFFF" fill-rule="nonzero">
                <g id="Path">
                    <path d="M17.3645393,40.8253737 L28.218706,36.596207 C38.156206,32.658707 39.468706,25.8045404 37.7603726,20.2420404 C36.4478726,15.9920404 33.718706,13.346207 30.1353726,12.533707 L33.1353726,11.596207 C34.4270393,11.2003737 35.2603726,10.0545404 33.906206,8.72120703 L26.718706,1.09620703 C25.9895393,0.346207035 25.406206,-0.174626299 24.656206,0.054540368 L24.4478726,0.117040368 C22.593706,0.679540368 23.2603726,4.22120703 20.1770393,5.17954037 L7.5520393,9.05454037 C4.6145393,9.97120703 2.9895393,7.3878737 1.13537263,7.9503737 L0.864539296,8.03370703 C0.0937059627,8.2628737 -0.177127371,8.99204037 0.114539296,9.9503737 L4.38537263,23.8045404 C4.69787263,24.7420404 5.3020393,25.1795404 6.07287263,24.9503737 L6.34370596,24.8670404 C8.19787263,24.3045404 8.09370596,21.2420404 11.031206,20.3253737 L25.0103726,16.0128737 C28.718706,14.8878737 31.6353726,15.4295404 32.5103726,18.2628737 C33.406206,21.1378737 31.4270393,23.1170404 25.1770393,25.3878737 L13.8853726,29.5545404 C11.0103726,30.658707 9.46870596,28.408707 7.6145393,28.971207 L7.34370596,29.0545404 C6.57287263,29.283707 6.3020393,30.0128737 6.6145393,30.971207 L10.5728726,43.783707 C10.843706,44.6795404 11.468706,45.1795404 12.2395393,44.9503737 L12.5103726,44.8670404 C14.3645393,44.3045404 14.4895393,41.9295404 17.3645393,40.8253737 Z"></path>
                </g>
            </g>
            <g id="Group" transform="translate(108.6938, 345.1625)" fill="#FFFFFF" fill-rule="nonzero">
                <g transform="translate(-0, 0)" id="Path">
                    <path d="M8.72012979,31.6127082 C16.5951298,36.3210415 23.4284631,33.9252082 26.5742965,29.0293749 C27.3451298,27.7585415 26.0742965,26.6127082 24.7826298,27.0918749 C22.5951298,27.9877082 19.6367965,28.5502082 16.3867965,26.6127082 C10.6992965,23.2168749 9.99096313,16.0502082 14.4492965,8.57104152 C16.5534631,5.07104152 19.8867965,3.15437486 22.3451298,4.50854152 C26.6159631,7.02937486 20.8659631,15.4460415 26.5326298,19.3210415 C29.5742965,21.2793749 31.6784631,20.1960415 32.7201298,18.4668749 C35.7826298,13.3627082 32.3242965,6.59187486 25.5534631,2.63354152 C17.7201298,-1.99145848 7.74096313,-0.762291809 2.36596313,8.21687486 C-2.13403687,15.7585415 -0.321536874,26.2168749 8.72012979,31.6127082 Z"></path>
                </g>
            </g>
            <g id="Group" transform="translate(140.1483, 360.6054)" fill="#FFFFFF" fill-rule="nonzero">
                <g id="Shape">
                    <path d="M12.6096241,32.8606771 C21.7971241,36.2356771 31.7971241,32.5690104 35.1721241,23.3815104 C38.5887907,14.1106771 33.1929574,4.71484375 23.7346241,1.23567708 C14.7346241,-2.07682292 4.42212408,1.33984375 1.00545741,10.6523437 C-2.34870925,19.7773438 2.98462408,29.3190104 12.6096241,32.8606771 Z M15.0679574,30.2565104 C9.96379075,28.3815104 11.9846241,15.1315104 13.8596241,10.0273437 C15.7346241,4.92317708 17.8387907,2.54817708 20.8596241,3.65234375 C25.8179574,5.48567708 23.7554574,19.0690104 21.9429574,24.0065104 C20.2137907,28.7148437 18.0262907,31.3398437 15.0679574,30.2565104 Z"></path>
                </g>
            </g>
            <g id="Group" transform="translate(180.4196, 370.1198)" fill="#FFFFFF" fill-rule="nonzero">
                <g id="Path">
                    <path d="M31.3648797,28.5625 L34.9482131,5.02083333 C35.1148797,3.83333333 34.1982131,3.29166667 32.2398797,3.27083333 L22.1565464,3.08333333 C21.2190464,3.08333333 20.5107131,3.66666667 20.4065464,4.375 L20.3648797,4.64583333 C20.0940464,6.3125 22.6565464,7.5 22.1773797,10.6041667 L20.1773797,23.75 C19.5732131,27.7708333 17.2398797,30.0833333 14.7815464,29.7083333 C11.8857131,29.2708333 10.8023797,27 11.6982131,21.5625 L14.8648797,1.97916667 C15.0315464,0.791666667 13.9065464,0.208333333 11.9482131,0.1875 L1.88571308,0 C0.927379747,0 0.219046413,0.583333333 0.114879747,1.29166667 L0.0732130801,1.5625 C-0.197620253,3.22916667 2.36487975,4.41666667 1.88571308,7.52083333 L0.19821308,18.6041667 C-1.07262025,27.0833333 3.92737975,32.5416667 10.6148797,33.5416667 C15.1357131,34.2291667 18.4690464,33.2291667 20.5940464,30.875 C20.4898797,33.75 22.1357131,35.0208333 26.2398797,35.6458333 C30.4690464,36.2916667 33.1357131,36.2916667 33.4065464,34.5 C33.8232131,31.7708333 30.5523797,33.9375 31.3648797,28.5625 Z"></path>
                </g>
            </g>
            <g id="Group" transform="translate(218.6939, 372.6541)" fill="#FFFFFF" fill-rule="nonzero">
                <g transform="translate(0, 0)" id="Path">
                    <path d="M37.7958411,24.775072 L36.2958411,13.212572 C34.9000077,2.60840529 28.5666744,-0.308261374 22.7333411,0.0250719588 C18.2958411,0.254238626 15.0666744,2.25423863 13.4208411,5.56673863 L13.2541744,2.42090529 C13.1708411,1.06673863 12.2541744,0.0250719588 10.6291744,0.962571959 L1.50417439,6.10840529 C0.58750772,6.62923863 -0.0583256135,7.08757196 0.00417438653,7.87923863 L0.00417438653,8.08757196 C0.108341053,10.025072 3.69167439,10.212572 3.87917439,13.4417386 L4.60834105,26.6292386 C4.79584105,29.6917386 1.87917439,30.6709053 1.98334105,32.6084053 L2.00417439,32.8792386 C2.04584105,33.6917386 2.67084105,34.1084053 3.67084105,34.0667386 L18.1500077,33.2542386 C19.1500077,33.1917386 19.7333411,32.712572 19.6916744,31.900072 L19.6708411,31.6292386 C19.5666744,29.6917386 16.5666744,29.025072 16.3791744,25.962572 L15.5666744,11.3584053 C15.3583411,7.48340529 16.6291744,4.79590529 19.5666744,4.62923863 C22.5666744,4.46257196 23.9833411,6.85840529 24.6916744,13.462572 L26.0250077,25.4417386 C26.4208411,28.4834053 23.8375077,29.4417386 23.9416744,31.3792386 L23.9625077,31.650072 C24.0041744,32.462572 24.6291744,32.8792386 25.6291744,32.837572 L39.0250077,32.087572 C39.9625077,32.025072 40.6083411,31.525072 40.5666744,30.712572 L40.5458411,30.4417386 C40.4416744,28.5042386 38.1916744,27.8167386 37.7958411,24.775072 Z"></path>
                </g>
            </g>
            <g id="Group" transform="translate(257.0732, 360.3196)" fill="#FFFFFF" fill-rule="nonzero">
                <g id="Path">
                    <path d="M21.8011253,40.19004 C28.9261253,38.5442066 31.405292,32.37754 30.2386253,27.3567066 C29.9469587,26.1067066 28.280292,26.0858733 27.655292,27.4817066 C27.217792,28.8358733 26.467792,30.2942066 23.9261253,30.8983733 C22.280292,31.2733733 20.6761253,30.2942066 20.155292,28.06504 L16.4886253,12.3983733 L23.1969587,10.8358733 C24.0511253,10.62754 24.5511253,9.83587331 24.342792,8.98170664 L24.0094587,7.54420664 C23.8219587,6.69003998 23.0094587,6.19003998 22.155292,6.39837331 L15.4469587,7.96087331 L13.9261253,1.35670664 C13.6761253,0.294206642 12.780292,-0.184960025 11.7386253,0.0650399751 L10.2386253,0.398373308 C9.38445866,0.606706642 8.842792,1.41920664 8.88445866,2.52337331 C8.94695866,6.71087331 6.44695866,10.06504 2.44695866,11.00254 L1.19695866,11.2942066 C0.280291995,11.50254 -0.157208005,12.2108733 0.0511253284,13.12754 L0.384458662,14.56504 C0.592791995,15.4192066 1.38445866,15.9192066 2.23862533,15.7317066 L4.717792,15.1483733 L8.342792,30.62754 C10.1761253,38.5233733 15.342792,41.7108733 21.8011253,40.19004 Z"></path>
                </g>
            </g>
            <g id="Group" transform="translate(285.7499, 358.2556)" fill="#FFFFFF" fill-rule="nonzero">
                <g id="Path">
                    <path d="M22.4034357,32.8055455 C31.0701023,29.3472122 34.3826023,23.4097122 32.3201023,18.2430455 C27.736769,6.76387886 13.5909357,17.6388789 10.174269,9.09721219 C9.46593565,7.30554552 9.73676899,5.15971219 11.674269,4.38887886 C15.9659357,2.65971219 17.3201023,11.8472122 23.3826023,9.43054552 C25.674269,8.51387886 26.9034357,6.15971219 26.049269,3.97221219 C24.424269,-0.0694544756 17.8826023,-1.40278781 9.96593565,1.74304552 C2.19510232,4.86804552 -1.59656435,10.9097122 0.632602321,16.4722122 C5.46593565,28.5347122 20.049269,17.1597122 23.299269,25.3055455 C24.299269,27.8055455 23.174269,29.3055455 21.299269,30.0555455 C16.1326023,32.1388789 14.8201023,22.7638789 8.61176899,25.2430455 C6.13260232,26.2430455 4.67426899,28.2013789 5.79926899,31.0138789 C7.54926899,35.3888789 14.5701023,35.9513789 22.4034357,32.8055455 Z"></path>
                </g>
            </g>
            <g id="Group" transform="translate(315.9899, 329.0475)" fill="#FFFFFF" fill-rule="nonzero">
                <g id="Shape">
                    <path d="M18.758742,29.413588 C19.9670754,30.5594214 23.2170754,28.5177547 22.696242,26.8719214 C19.4045754,16.601088 13.6545754,6.24692135 10.6129087,1.60108802 C7.65457535,-3.10724531 -2.44959131,3.62192135 0.550408686,8.22608802 C3.42540869,12.5177547 11.008742,22.0594214 18.758742,29.413588 Z M30.1545754,42.5802547 C33.3420754,40.4969214 35.0295754,37.0594214 32.633742,33.413588 C30.258742,29.7677547 26.4045754,29.8719214 23.2170754,31.9552547 C20.008742,34.038588 18.4254087,37.476088 20.8004087,41.1219214 C23.196242,44.7677547 26.946242,44.663588 30.1545754,42.5802547 Z"></path>
                </g>
            </g>
            <path d="M227.5625,158.484375 C188.921875,158.484375 157.593749,189.817708 157.593749,228.453124 L297.536457,228.453124 C297.536457,189.817708 266.203124,158.484375 227.5625,158.484375 Z M251.994791,206.822916 C250.807292,208.588541 248.416667,209.067708 246.656249,207.875 C244.890625,206.687499 244.411457,204.296875 245.604167,202.536457 C246.791667,200.776041 249.182292,200.291667 250.942708,201.484375 C252.703124,202.671875 253.1875,205.062499 251.994791,206.822916 Z M254.458333,185.411457 C253.265625,187.171875 250.875,187.651041 249.114583,186.463541 C247.354167,185.276041 246.885416,182.885416 248.0625,181.119791 C249.25,179.359375 251.640625,178.880208 253.401041,180.067708 C255.166667,181.260416 255.645833,183.651041 254.458333,185.411457 Z M273.192708,202.614583 C272.005208,204.375 269.614583,204.859375 267.848959,203.666667 C266.088541,202.479165 265.619791,200.088541 266.796875,198.328124 C267.973959,196.562499 270.380208,196.083333 272.140625,197.276041 C273.901041,198.463541 274.369791,200.854165 273.192708,202.614583 Z" id="Shape" fill="#FFFFFF" fill-rule="nonzero"></path>
            <path d="M193.625,289.619791 L181.192708,319.291667 L197.546875,326.140624 L210.083333,296.208333 C215.666667,297.645832 221.526041,298.416667 227.552083,298.416667 C266.135416,298.416667 297.520833,267.026041 297.520833,228.442708 L279.781249,228.442708 C279.781249,257.244791 256.354167,280.671875 227.552083,280.671875 C198.75,280.671875 175.322916,257.244791 175.322916,228.442708 L157.583333,228.442708 C157.583333,254.718749 172.140625,277.640624 193.614583,289.604165 L193.625,289.619791 Z" id="Path" fill="#FFFFFF" fill-rule="nonzero"></path>
            <path d="M256.489583,123.343749 C242.729167,123.343749 230.776041,131.010416 224.625,142.296875 C229.359375,146.703124 232.927083,152.343749 234.781249,158.723957 C250.796875,155.135416 262.807292,140.984375 263.093749,123.953124 C260.953124,123.562499 258.744791,123.343749 256.489583,123.343749 Z" id="Path" fill="#FFFFFF" fill-rule="nonzero"></path>
            <path d="M199.9375,132.578124 C197.218749,132.578124 194.5625,132.885416 192.010416,133.458333 C196.390625,148.578124 210.338541,159.640624 226.864583,159.640624 C229.588541,159.640624 232.239583,159.333333 234.791667,158.760416 C230.411457,143.635416 216.468749,132.578124 199.9375,132.578124 Z" id="Path" fill="#FFFFFF" fill-rule="nonzero"></path>
        </g>
    </g>
</svg>