<?xml version="1.0" encoding="UTF-8"?>
<svg width="367px" height="370px" viewBox="0 0 367 370" version="1.1" xmlns="http://www.w3.org/2000/svg" xmlns:xlink="http://www.w3.org/1999/xlink">
    <title>Artboard</title>
    <defs>
        <polygon id="path-1" points="0 1.42108547e-14 314.958333 1.42108547e-14 314.958333 314.958333 0 314.958333"></polygon>
        <path d="M157.479167,1.42108547e-14 C70.505208,1.42108547e-14 0,70.5052093 0,157.479167 C0,244.453125 70.505208,314.958333 157.479167,314.958333 C244.453125,314.958333 314.958333,244.453125 314.958333,157.479167 C314.958333,70.5052093 244.453125,1.42108547e-14 157.479167,1.42108547e-14 Z" id="path-3"></path>
        <polygon id="path-5" points="0 0 207 0 207 180 0 180"></polygon>
    </defs>
    <g id="Artboard" stroke="none" stroke-width="1" fill="none" fill-rule="evenodd">
        <g id="3" transform="translate(2.8, 11)">
            <g id="Clipped" transform="translate(16.1685, 40.893)">
                <mask id="mask-2" fill="white">
                    <use xlink:href="#path-1"></use>
                </mask>
                <g id="Path"></g>
                <g mask="url(#mask-2)">
                    <mask id="mask-4" fill="white">
                        <use xlink:href="#path-3"></use>
                    </mask>
                    <g id="Path"></g>
                    <polygon id="Path" fill="#008C8C" fill-rule="nonzero" mask="url(#mask-4)" points="0 1.42108547e-14 314.958333 1.42108547e-14 314.958333 314.958333 0 314.958333"></polygon>
                </g>
            </g>
            <g id="Clipped" transform="translate(69.9342, 76.3982)">
                <mask id="mask-6" fill="white">
                    <use xlink:href="#path-5"></use>
                </mask>
                <g id="Path"></g>
                <path d="M103.708333,0.0624986667 C101.979167,0.0624986667 100.255208,1.21354133 100.255208,3.515624 L100.255208,13.890624 C100.255208,18.5 107.166667,18.5 107.166667,13.890624 L107.166667,3.515624 C107.166667,1.21354133 105.4375,0.0624986667 103.708333,0.0624986667 Z M48.8489573,14.8593747 C48.5260413,14.822916 48.197916,14.8437493 47.875,14.895832 C45.7708333,15.2760413 43.9687493,17.5624987 45.4062493,20.0624987 L50.5937493,29.0468747 C52.9010413,33.0468747 58.8958333,29.5885413 56.5885413,25.5937493 L51.4062493,16.6093747 C50.755208,15.4895827 49.8020827,14.953124 48.8489573,14.8593747 Z M158.572916,14.8593747 C157.619792,14.953124 156.682291,15.4895827 156.031249,16.6093747 L150.848957,25.5937493 C148.541667,29.5885413 154.541667,33.0468747 156.843749,29.0468747 L162.031249,20.0624987 C163.468749,17.5624987 161.651041,15.2760413 159.546875,14.895832 C159.218749,14.8437493 158.895833,14.822916 158.572916,14.8593747 Z M8.17187467,55.3385413 C4.89583333,54.9791653 2.68229067,59.817708 6.17708267,61.8385413 L15.1614587,67.020832 C19.1562493,69.328124 22.6145827,63.3333333 18.6145827,61.0260413 L9.630208,55.8385413 C9.130208,55.5520827 8.640624,55.390624 8.17187467,55.3385413 Z M199.244792,55.3385413 C198.776041,55.390624 198.291667,55.5520827 197.786459,55.8385413 L188.802083,61.0260413 C184.807291,63.3333333 188.265624,69.328124 192.260416,67.020832 L201.244792,61.8385413 C204.739583,59.817708 202.526041,54.9791653 199.244792,55.3385413 Z M72.5989573,58.828124 C61.9010413,58.828124 52.2864587,65.760416 46.6875,76.5468747 C44.942708,76.2239573 43.25,76.1145827 41.4843747,76.1145827 C35.2343747,76.1145827 29.2395827,78.078124 23.875,82.0364573 C13.4114587,89.765624 7.20312533,103.447916 6.91145867,118.213541 C2.880208,119.598957 0,123.395832 0,127.968749 C0,132.723957 3.15104133,136.666667 7.4375,137.911457 L13.880208,170.104165 C14.3489573,172.531249 15.3020827,174.838541 17.015624,176.692708 C18.7239573,178.546875 21.2083333,179.828124 24.1822907,179.828124 L51.8541667,179.828124 C54.8958333,179.828124 57.3125,178.510416 59.0208333,176.656249 C60.7135413,174.822916 61.6666667,172.515624 62.1562493,170.140624 L65.572916,156.473957 C65.9322907,153.989583 66.9791667,152.223957 69.119792,152.171875 L72.5989573,152.171875 C73.4062493,152.171875 74.0572907,152.437499 74.6666667,153.104165 C75.2812493,153.755208 75.8385413,154.906249 76.1458333,156.385416 L79.5833333,170.140624 C80.067708,172.515624 81.0416667,174.822916 82.7343747,176.656249 C84.572916,178.656249 87.0208333,179.828124 89.880208,179.828124 L117.536459,179.828124 C120.401041,179.828124 122.848957,178.656249 124.6875,176.656249 C126.380208,174.822916 127.348957,172.515624 127.838541,170.140624 L131.276041,156.385416 C131.583333,154.906249 132.140624,153.755208 132.755208,153.104165 C133.364583,152.437499 134.015624,152.171875 134.822916,152.171875 L138.296875,152.171875 C140.442708,152.223957 141.484375,153.989583 141.843749,156.473957 L145.265624,170.140624 C145.75,172.515624 146.708333,174.822916 148.401041,176.656249 C150.109375,178.510416 152.520833,179.828124 155.567708,179.828124 L183.239583,179.828124 C186.208333,179.828124 188.677083,178.546875 190.406249,176.692708 C192.114583,174.838541 193.072916,172.531249 193.536459,170.104165 L200.005208,137.911457 C204.270833,136.666667 207.421875,132.723957 207.421875,127.968749 C207.421875,123.395832 204.541667,119.598957 200.505208,118.213541 C200.218749,103.447916 194.005208,89.765624 183.546875,82.0364573 C178.182291,78.078124 172.166667,76.1145827 165.9375,76.1145827 C164.171875,76.1145827 162.479167,76.2239573 160.734375,76.5468747 C155.135416,65.760416 145.520833,58.828124 134.822916,58.828124 C124.130208,58.828124 114.515624,65.760416 108.895833,76.5468747 C107.166667,76.2239573 105.494792,76.1145827 103.729167,76.1145827 L103.692708,76.1145827 C101.927083,76.1145827 100.255208,76.2239573 98.5260413,76.5468747 C92.9062493,65.760416 83.2916667,58.828124 72.5989573,58.828124 Z M72.5989573,65.7447907 C79.9791667,65.7447907 87.1458333,70.3697907 91.8072907,78.6718747 C89.8437493,79.5520827 87.9218747,80.7083333 86.0989573,82.0364573 C80.0520827,86.505208 75.4791667,92.9114573 72.5989573,100.421875 C69.7135413,92.9114573 65.140624,86.505208 59.0937493,82.0364573 C57.2760413,80.7083333 55.3489573,79.5520827 53.4010413,78.6718747 C58.067708,70.3697907 65.2135413,65.7447907 72.5989573,65.7447907 Z M134.822916,65.7447907 C142.203125,65.7447907 149.354167,70.3697907 154.015624,78.6718747 C152.072916,79.5520827 150.145833,80.7083333 148.328125,82.0364573 C142.276041,86.505208 137.703125,92.9114573 134.822916,100.421875 C131.942708,92.9114573 127.369792,86.505208 121.317708,82.0364573 C119.5,80.7083333 117.572916,79.5520827 115.609375,78.6718747 C120.276041,70.3697907 127.442708,65.7447907 134.822916,65.7447907 Z M41.4843747,83.0312493 C46.1093747,83.0312493 50.7395827,84.453124 55.005208,87.6041653 C63.1822907,93.635416 68.6875,104.921875 69.140624,117.598957 C50.755208,117.598957 32.2083333,117.598957 13.8281253,117.598957 C14.2760413,104.921875 19.7864587,93.635416 27.9635413,87.6041653 C32.2291667,84.453124 36.8541667,83.0312493 41.4843747,83.0312493 Z M103.708333,83.0312493 C108.354167,83.0312493 112.963541,84.453124 117.234375,87.6041653 C125.406249,93.635416 130.916667,104.921875 131.364583,117.598957 C112.369792,117.598957 93.7187493,117.598957 76.0520827,117.598957 C76.505208,104.921875 82.015624,93.635416 90.1875,87.6041653 C94.4531253,84.453124 99.0625,83.0312493 103.708333,83.0312493 Z M165.9375,83.0312493 C170.5625,83.0312493 175.192708,84.453124 179.458333,87.6041653 C187.635416,93.635416 193.140624,104.921875 193.593749,117.598957 C175.208333,117.598957 156.661459,117.598957 138.281249,117.598957 C138.729167,104.921875 144.239583,93.635416 152.416667,87.6041653 C156.682291,84.453124 161.307291,83.0312493 165.9375,83.0312493 Z M10.3541667,124.515624 C74.4895827,124.515624 137.468749,124.515624 197.067708,124.515624 C199.031249,124.515624 200.505208,126.151041 200.505208,127.968749 C200.505208,129.786457 199.031249,131.427083 197.067708,131.427083 L176.307291,131.427083 C174.182291,131.427083 172.869792,133.140624 172.848957,134.848957 C172.833333,136.593749 174.203125,138.343749 176.307291,138.343749 L192.838541,138.343749 L186.734375,168.807291 C186.479167,170.177083 185.921875,171.307291 185.328125,171.958333 C184.718749,172.625 184.104167,172.911457 183.223957,172.911457 L155.567708,172.911457 C154.739583,172.911457 154.109375,172.640624 153.494792,171.994791 C152.593749,170.895832 152.234375,169.614583 152,168.625 L148.614583,155.088541 C147.859375,149.703124 143.989583,145.239583 138.296875,145.239583 L134.822916,145.239583 C131.656249,145.239583 129.385416,146.567708 127.677083,148.442708 C125.984375,150.281249 125.010416,152.546875 124.526041,154.927083 L121.083333,168.697916 C120.781249,170.156249 120.218749,171.328124 119.609375,171.994791 C119.192708,172.442708 118.510416,172.911457 117.536459,172.911457 L89.880208,172.911457 C88.9114587,172.911457 88.2239573,172.442708 87.8125,171.994791 C87.197916,171.328124 86.640624,170.156249 86.3333333,168.697916 L82.8958333,154.927083 C82.4114587,152.546875 81.4375,150.281249 79.744792,148.442708 C78.0364587,146.567708 75.765624,145.239583 72.5989573,145.239583 L69.119792,145.239583 C63.4322907,145.239583 59.5625,149.703124 58.8020827,155.088541 L55.4218747,168.625 C55.1875,169.614583 54.822916,170.895832 53.9270827,171.994791 C53.3125,172.640624 52.6822907,172.911457 51.8541667,172.911457 L24.197916,172.911457 C23.317708,172.911457 22.7031253,172.625 22.0937493,171.958333 C21.5,171.307291 20.9375,170.177083 20.6875,168.807291 L14.5833333,138.343749 L31.1145827,138.343749 C33.2187493,138.343749 34.5885413,136.593749 34.567708,134.848957 C34.5520827,133.140624 33.2395827,131.427083 31.1145827,131.427083 L10.3541667,131.427083 C8.390624,131.427083 6.91145867,129.786457 6.91145867,127.968749 C6.91145867,126.151041 8.390624,124.515624 10.3541667,124.515624" id="Shape" fill="#FFFFFF" fill-rule="nonzero" mask="url(#mask-6)"></path>
            </g>
            <path d="M14.9542753,102.321486 C14.9517858,99.8479896 15.0046143,97.3993749 15.1158288,94.9799149 C15.1660631,92.5458014 15.4161819,90.2073185 15.8632091,87.9601946 C16.2503998,85.754741 16.9090653,83.6839201 17.8392038,81.7477311 C18.7782722,79.824365 20.1016936,78.1156921 21.8124435,76.6259875 C23.5157904,75.1985612 25.6951505,74.0171974 28.3445728,73.0733476 C30.9265269,72.1510972 34.1198886,71.596413 37.926337,71.4208205 C38.2484885,71.4186095 38.5788073,71.3916703 38.9130182,71.3429794 C39.1831193,71.3389359 39.4822228,71.3400196 39.8188755,71.3400196 C43.1303794,71.3381961 45.9403731,71.7550031 48.2531318,72.5879111 C50.5133048,73.4637873 52.4040801,74.6476942 53.9399608,76.1422267 C55.4856863,77.6235551 56.7296366,79.3277403 57.6705137,81.262032 C58.5472802,83.2409721 59.2283588,85.3308047 59.72825,87.5341266 C60.1747927,89.7428667 60.4454904,91.9725176 60.553548,94.2329259 C60.6640474,96.5424082 60.7427213,98.77885 60.7994154,100.92905 L44.4413884,103.149825 C44.4384203,101.723838 44.3858427,100.345094 44.276406,99.012295 C44.1195735,97.6934625 43.8412376,96.5100236 43.4529213,95.4602981 C43.0603307,94.4135497 42.5118909,93.5895816 41.797375,92.9828232 C41.0828592,92.3760649 40.1231208,92.0733693 38.9138865,92.077712 L38.1697544,92.0754946 C36.6230265,92.2514054 35.4377551,92.5817935 34.6182145,93.0636808 C33.7827224,93.6137998 33.2051944,94.4158565 32.8826544,95.4655775 C32.4935618,96.510871 32.2739778,97.8633587 32.2179477,99.5144929 C32.1660397,101.226226 32.1353452,103.34208 32.1390704,105.871902 C32.1372233,108.411949 32.1627012,110.590235 32.2197784,112.403781 C32.2707506,114.272355 32.4927592,115.812367 32.8858067,117.023817 C33.2600788,118.235649 33.865988,119.114797 34.6992609,119.664238 C35.465828,120.272829 36.6205673,120.573007 38.1694306,120.573322 C39.7140205,120.576613 40.9234855,120.299193 41.7965276,119.748311 C42.6318665,119.261768 43.2361831,118.498177 43.6150487,117.447312 C44.001164,116.397744 44.2540239,115.04747 44.3591289,113.393894 C44.4133264,111.794811 44.4396681,109.891434 44.4411321,107.688039 L60.7968678,105.710043 C60.742735,109.232193 60.49406,112.566133 60.0508438,115.711865 C59.6228914,118.89774 58.6318429,121.676058 57.0862469,124.040864 C55.5410322,126.424444 53.2789347,128.298117 50.3101821,129.667456 C47.2808296,131.040914 43.1813051,131.725263 38.0030599,131.726453 C32.829088,131.724667 28.7220931,130.903655 25.6850503,129.26769 C22.6028266,127.612416 20.2925188,125.40687 18.7468763,122.649755 C17.1575788,119.94843 16.1445085,116.807728 15.6991196,113.2336 C15.1998469,109.709691 14.9525876,106.073745 14.9542753,102.321486 Z" id="Path" stroke="#008C8C" stroke-width="21.6864852" transform="translate(37.8768, 101.5332) rotate(-55.1458) translate(-37.8768, -101.5332)"></path>
            <path d="M50.7314443,57.4186419 C50.7326264,54.4477857 50.9271039,51.5840028 51.3221748,48.8262828 C51.6411412,46.0828222 52.5777098,43.6107426 54.1235727,41.4037566 C55.6660716,39.2530077 57.9839976,37.4930618 61.0617495,36.1186439 C64.1384907,34.7369298 68.4367413,33.9333349 73.9470743,33.720319 L75.7648117,33.7176364 C80.4460965,33.7198456 84.158835,34.4064822 86.9176186,35.775524 C89.6229772,37.2151727 91.6850661,39.0302137 93.1080381,41.2237886 C94.495319,43.4817952 95.3741336,46.0147255 95.7527895,48.8288623 C96.1418832,51.6378365 96.3340949,54.4480557 96.3367209,57.2585093 L96.5780213,70.8107055 C96.5770608,73.7294786 96.4159203,76.5923611 96.0914573,79.4035071 C95.7073932,82.2675252 94.7643175,84.7999949 93.2705378,87.0072017 C91.7390447,89.2642487 89.42505,91.0794202 86.335849,92.4517064 C83.2018618,93.8227604 78.8759907,94.507486 73.3623904,94.5090275 C68.2425548,94.508078 64.2475143,93.8233651 61.3845642,92.4538801 C58.465378,91.0810301 56.2657858,89.266446 54.7889308,87.0059748 C53.2972628,84.7996073 52.3257318,82.2683671 51.883766,79.3997928 C51.4394459,76.5947509 51.1390261,73.7549045 50.9762199,70.8885594 L50.7314443,57.4186419 Z M73.6255293,54.6972734 C71.6362876,54.8575612 70.1723732,55.1867527 69.2296331,55.6817047 C68.2470489,56.2379454 67.588093,57.1174422 67.2537744,58.3274896 C66.8618769,59.6050008 66.7006697,61.2595389 66.7659981,63.2879606 C66.8226876,65.3882217 66.8501093,68.0019047 66.8492729,71.136305 C66.8493805,73.0696571 66.8775374,74.7760431 66.9306012,76.2596159 C66.984453,77.8025682 67.2049794,79.099352 67.5953227,80.1458143 C67.9718625,81.2536765 68.5506567,82.07698 69.3295727,82.627174 C70.0980511,83.1825326 71.2218885,83.4581806 72.6979444,83.4581806 L73.4448388,83.4551076 C75.1536894,83.3373776 76.4488952,82.9980932 77.3356207,82.447694 C78.2095526,81.9659916 78.8430351,81.1978462 79.232925,80.1474115 C79.5673677,79.1529922 79.7633931,77.8840223 79.8168491,76.3373604 C79.8721056,74.8573732 79.9253263,73.1211246 79.9806659,71.131758 C80.0862352,68.1092627 80.1700536,65.5470946 80.2216835,63.4504202 C80.278477,61.3641833 80.1680423,59.654323 79.8986863,58.327123 C79.6157494,57.0092395 79.14796,56.0478653 78.4880236,55.44401 C77.7757814,54.8920164 76.6998734,54.6134778 75.2613092,54.6156907 L74.432136,54.6152872 C74.1644255,54.6152872 73.8966047,54.6411348 73.6255293,54.6972734 Z" id="Shape" stroke="#008C8C" stroke-width="21.6864939" transform="translate(73.6547, 64.1133) rotate(-37.1137) translate(-73.6547, -64.1133)"></path>
            <polygon id="Path" stroke="#008C8C" stroke-width="21.6864946" transform="translate(113.2664, 41.2922) rotate(-21.3599) translate(-113.2664, -41.2922)" points="95.2551109 70.2042376 95.2549349 13.2056673 113.507228 12.3802267 111.024084 58.1398179 131.277887 56.4865111 131.27625 70.2042102"></polygon>
            <polygon id="Path" stroke="#008C8C" stroke-width="21.6864728" transform="translate(151.7513, 31.3226) rotate(-7.6895) translate(-151.7513, -31.3226)" points="133.74242 60.2328583 133.738735 3.2354856 151.992476 2.41009683 149.513638 48.1721869 169.760846 46.5175364 169.763939 60.2350438"></polygon>
            <polygon id="Path" stroke="#008C8C" stroke-width="21.6864878" transform="translate(193.68, 30.971) rotate(6.7302) translate(-193.68, -30.971)" points="174.429649 59.884777 174.426401 2.88298114 212.933516 2.05716857 212.930457 18.2524625 189.375676 19.0811693 189.374552 26.182318 208.049091 24.5292444 208.049055 39.8168885 189.292371 40.6405403 189.295231 47.8198868 212.931264 46.1686986 212.929147 59.8832455"></polygon>
            <path d="M217.623685,45.2387156 C217.623685,42.7637051 217.676439,40.317209 217.78573,37.8971568 C217.837515,35.4622896 218.084599,33.1244359 218.529689,30.8767453 C218.918866,28.6703127 219.578051,26.602312 220.509954,24.665892 C221.448069,22.7438091 222.773436,21.0342321 224.481277,19.5392315 C226.187364,18.118781 228.363538,16.9317052 231.016012,15.9923403 C233.593297,15.0628512 236.788974,14.512494 240.596193,14.3385617 C240.918294,14.3352177 241.248518,14.3113251 241.582725,14.2573246 C241.850823,14.2603529 242.156516,14.2584429 242.490245,14.2557366 C245.800295,14.2575061 248.609351,14.6750411 250.922192,15.5062699 C253.18119,16.3835354 255.078262,17.5652167 256.610699,19.0581641 C258.153332,20.5353415 259.398713,22.2434993 260.339994,24.1799293 C261.213732,26.1569787 261.899179,28.2496783 262.399044,30.4511772 C262.840128,32.6611188 263.119206,34.8901752 263.224012,37.1493377 C263.33519,39.4625026 263.411163,41.694425 263.468338,43.8436719 L247.110987,46.061488 C247.107331,44.6383212 247.05461,43.2591204 246.950118,41.930735 C246.786845,40.6107923 246.513337,39.4294375 246.120673,38.3791846 C245.73008,37.3337114 245.178277,36.5056778 244.467334,35.8998643 C243.756391,35.2940508 242.790889,34.9915386 241.582455,34.9929661 L240.838375,34.9918469 C239.291433,35.1683406 238.104821,35.4952133 237.287461,35.9799529 C236.452578,36.5290477 235.874482,37.330154 235.551102,38.3784914 C235.16002,39.4277838 234.939067,40.7779913 234.885533,42.4359631 C234.83423,44.1383789 234.80443,46.2571995 234.805691,48.7882829 C234.806315,51.3309952 234.83418,53.5042952 234.88865,55.3198137 C234.939934,57.1934748 235.16358,58.7313377 235.552101,59.9423216 C235.928993,61.1526688 236.536391,62.0304031 237.366808,62.5844462 C238.133824,63.1886671 239.290802,63.4876749 240.835036,63.4883206 C242.386119,63.4916737 243.593439,63.2125907 244.467987,62.6633363 C245.301754,62.1771637 245.905975,61.4101477 246.28065,60.3622883 C246.671732,59.3129959 246.920721,57.9619921 247.027619,56.3092779 C247.082745,54.707379 247.109995,52.8053623 247.109369,50.6032295 L263.467676,48.6234035 C263.412062,52.1497797 263.164177,55.4813337 262.723382,58.6296943 C262.287526,61.8156488 261.300184,64.5934789 259.754504,66.9604774 C258.208187,69.3391047 255.94997,71.2145061 252.979855,72.5866825 C249.953666,73.9604506 245.850309,74.6430197 240.673926,74.6439491 C235.497542,74.6448759 231.390211,73.8249476 228.351932,72.1841641 C225.272555,70.5271309 222.960358,68.3219589 221.415342,65.5686462 C219.828114,62.8620078 218.814996,59.7249504 218.367069,56.1499854 C217.87215,52.6237652 217.625735,48.9898614 217.623685,45.2387156 Z" id="Path" stroke="#008C8C" stroke-width="21.6864875" transform="translate(240.546, 44.4498) rotate(23.4284) translate(-240.546, -44.4498)"></path>
            <polygon id="Path" stroke="#008C8C" stroke-width="21.6864775" transform="translate(283.5939, 70.7103) rotate(40.816) translate(-283.5939, -70.7103)" points="262.031842 62.6107609 262.031504 42.6259112 304.912554 41.7968756 305.156386 61.7847662 293.252021 62.0254161 293.49633 99.6237679 275.003447 99.6224672 275.402192 62.3702652"></polygon>
            <polygon id="Path" stroke="#008C8C" stroke-width="21.6864934" transform="translate(313.673, 105.0915) rotate(56.6748) translate(-313.673, -105.0915)" points="294.420534 134.001829 294.421594 77.0052047 332.925454 76.179288 332.921709 92.3771802 309.366163 93.2017981 309.366597 100.301815 328.042926 98.6501994 328.042025 113.933666 309.282458 114.763856 309.287721 121.941848 332.924686 120.291868 332.922443 134.00366"></polygon>
            <g id="Group" transform="translate(8.1956, 73.5066)" fill="#F5F5F5" fill-rule="nonzero">
                <g id="Path">
                    <path d="M17.2267525,47.2905495 C15.1850859,45.8738828 13.2163352,44.4311748 11.3100859,42.9572161 C9.34133519,41.5145081 7.55487786,39.9728415 5.95591919,38.3322161 C4.37258586,36.7645081 3.06008586,35.0405495 2.01841919,33.1655495 C0.966335194,31.3061748 0.310085861,29.2436748 0.0600858606,26.9780495 C-0.132622139,24.7593001 0.138211194,22.3009668 0.872585861,19.6030495 C1.59654453,16.9520081 2.97154453,14.0197161 4.99758586,10.8113828 C5.19550319,10.5353415 5.36737786,10.2384655 5.51841919,9.91554945 C5.67466853,9.69679879 5.84133519,9.45200812 6.01841919,9.18638279 C7.90904453,6.47804945 9.86216986,4.41034145 11.8725859,2.97804945 C13.8725859,1.64471612 15.9298779,0.769716121 18.0392525,0.353049454 C20.1382112,-0.0636172124 22.2475859,-0.110491879 24.3725859,0.207216121 C26.4871699,0.623882788 28.5913352,1.25930012 30.6850859,2.10304945 C32.7423779,2.99367479 34.7267525,4.04054945 36.6434192,5.24888279 C38.6121699,6.47284145 40.4975859,7.68117479 42.2892525,8.87388279 L34.7475859,23.5613828 C33.5809192,22.7593001 32.4246685,22.0145081 31.2684192,21.3322161 C30.1017525,20.7228415 28.9767525,20.2697161 27.8934192,19.9780495 C26.8100859,19.7020081 25.8257112,19.6811748 24.9350859,19.9155495 C24.0184192,20.1655495 23.2215445,20.7853415 22.5392525,21.7697161 L22.1017525,22.3947161 C21.3413352,23.7593001 20.9350859,24.9103415 20.8934192,25.8530495 C20.8517525,26.8686748 21.1746685,27.8061748 21.8517525,28.6655495 C22.4923779,29.5822161 23.4767525,30.5353415 24.8100859,31.5197161 C26.1850859,32.5353415 27.9090445,33.7645081 29.9767525,35.2072161 C32.0496685,36.6551321 33.8465445,37.8738828 35.3725859,38.8738828 C36.9455032,39.9051321 38.3309192,40.6030495 39.5392525,40.9780495 C40.7580019,41.3530495 41.8309192,41.3634655 42.7475859,40.9988828 C43.6746685,40.7228415 44.5861272,39.9520081 45.4767525,38.6863828 C46.3517525,37.4259668 46.8152939,36.2645081 46.8725859,35.2072161 C46.9559192,34.2645081 46.6694605,33.3322161 46.0184192,32.4155495 C45.3934192,31.4988828 44.4246685,30.5301321 43.1225859,29.4988828 C41.8413352,28.5405495 40.2944605,27.4311748 38.4767525,26.1655495 L46.2059192,11.6238828 C49.0809192,13.6655495 51.6746685,15.7645081 53.9975859,17.9155495 C56.3569605,20.1238828 58.0652939,22.5353415 59.1225859,25.1447161 C60.1902939,27.7593001 60.4402939,30.6811748 59.8725859,33.9155495 C59.2736272,37.1811748 57.4871699,40.9363828 54.5184192,45.1863828 C51.5600859,49.4520081 48.5444605,52.3478415 45.4767525,53.8738828 C42.3517525,55.4728415 39.2111272,56.1134655 36.0600859,55.7905495 C32.9507112,55.5717988 29.8048779,54.6134655 26.6225859,52.9155495 C23.4298779,51.3061748 20.2996685,49.4311748 17.2267525,47.2905495 Z"></path>
                </g>
            </g>
            <g id="Group" transform="translate(44.3812, 33.2651)" fill="#F5F5F5" fill-rule="nonzero">
                <g id="Shape">
                    <path d="M6.9643586,39.3581902 C5.17269193,36.9831902 3.5893586,34.5769395 2.2143586,32.1290235 C0.828941267,29.7436062 0.0893586006,27.2071488 0.00602526725,24.5248568 C-0.0773080661,21.8894408 0.703941267,19.0873568 2.3393586,16.1290235 C3.97998393,13.1706902 6.91748393,9.9415235 11.1518586,6.4415235 L12.6310253,5.33735684 C16.3549839,2.51964884 19.7299839,0.826939504 22.7560253,0.254023504 C25.7716506,-0.230351163 28.5112333,-0.0220178295 30.9851919,0.879023504 C33.4435253,1.83735684 35.6622746,3.3165235 37.6518586,5.3165235 C39.6778999,7.34777417 41.5372746,9.47798217 43.2351919,11.7123568 L51.5893586,22.3373568 C53.3497759,24.6706902 54.9487333,27.0665235 56.3810253,29.5248568 C57.8081093,32.0404822 58.5893586,34.6186062 58.7143586,37.2540235 C58.8497759,39.9936062 58.1101919,42.8373568 56.4851919,45.7956902 C54.8185253,48.7852728 51.7872746,51.9363155 47.4018586,55.2540235 C43.3185253,58.3529822 39.7143586,60.2123568 36.5893586,60.8373568 C33.4331093,61.5040235 30.5789413,61.3894408 28.0268586,60.4831902 C25.5268586,59.6238155 23.2351919,58.1915235 21.1518586,56.1915235 C19.0997759,54.2071488 17.1414426,52.1238155 15.2768586,49.9415235 L6.9643586,39.3581902 Z M23.5685253,23.3581902 C22.0841506,24.6915235 21.1206079,25.8477742 20.6726919,26.8165235 C20.2143586,27.8321488 20.2143586,28.9311075 20.6726919,30.1081902 C21.1466506,31.3477742 22.0164426,32.7644408 23.2768586,34.3581902 C24.5685253,35.9988155 26.1674839,38.0665235 28.0685253,40.5665235 C29.2351919,42.1081902 30.2872746,43.4519395 31.2351919,44.5873568 C32.2039413,45.7956902 33.1570666,46.7019395 34.0893586,47.2956902 C35.0737333,47.9519395 36.0320666,48.2644408 36.9643586,48.2331902 C37.9226919,48.2071488 38.9903999,47.7488155 40.1726919,46.8581902 L40.7768586,46.3998568 C42.0789413,45.2748568 42.9070666,44.2279822 43.2560253,43.2540235 C43.6726919,42.3373568 43.7143586,41.3477742 43.3810253,40.2748568 C43.0581093,39.2748568 42.4539413,38.1498568 41.5685253,36.8998568 C40.7039413,35.6811075 39.7039413,34.2540235 38.5685253,32.6290235 C36.8185253,30.1446488 35.3289419,28.0561075 34.1101919,26.3581902 C32.9018586,24.6654822 31.7820666,23.3738155 30.7560253,22.4831902 C29.7247759,21.5977742 28.7768586,21.1081902 27.9018586,21.0246709 C26.9956079,21.0144408 25.9747759,21.4415235 24.8185253,22.3165235 L24.1518586,22.8165235 C23.9435253,22.9831902 23.7508173,23.1654822 23.5685253,23.3581902 Z"></path>
                </g>
            </g>
            <g id="Group" transform="translate(86.2708, 14.2871)" fill="#F5F5F5" fill-rule="nonzero">
                <g id="Path">
                    <polygon points="20.75 60.4791667 0 7.39583333 16.6875 0 31.0416667 43.5208333 49.2916667 34.6041667 54.2916667 47.375"></polygon>
                </g>
            </g>
            <g id="Group" transform="translate(130.1603, 2.6393)" fill="#F5F5F5" fill-rule="nonzero">
                <g id="Path">
                    <polygon points="7.625 59.75 0 3.27083333 17.9791667 0 21.6458333 45.6666667 41.4583333 41.3333333 43.2916667 54.9166667"></polygon>
                </g>
            </g>
            <g id="Group" transform="translate(171.1556, 0.817)" fill="#F5F5F5" fill-rule="nonzero">
                <g id="Path">
                    <polygon points="0 56.6041667 6.6875 0 45.0208333 3.70833333 43.125 19.7916667 19.6666667 17.8333333 18.8333333 24.875 37.5416667 25.4375 35.75 40.625 17.0416667 39.2291667 16.2083333 46.375 39.8541667 47.5208333 38.25 61.125"></polygon>
                </g>
            </g>
            <g id="Group" transform="translate(214.43, 14.4836)" fill="#F5F5F5" fill-rule="nonzero">
                <g id="Path">
                    <path d="M4.77414728,21.5877434 C5.75852195,19.311702 6.77935528,17.0825354 7.83664728,14.9002434 C8.86268861,12.7075354 10.0241473,10.6606594 11.3158139,8.75441003 C12.5345646,6.87941003 13.9616473,5.24920203 15.5866473,3.8585767 C17.2116473,2.4731607 19.1074806,1.43149403 21.2741473,0.733576699 C23.4095646,0.0981606993 25.8783139,-0.125797967 28.6699806,0.0669100326 C31.4303966,0.249202033 34.5762313,1.01482737 38.1074806,2.3585767 C38.4095646,2.49920203 38.7324806,2.6085767 39.0658139,2.69191003 C39.3158139,2.80649403 39.5918553,2.9210767 39.8991473,3.0460767 C42.9251886,4.3689927 45.3366473,5.8585767 47.1283139,7.52524337 C48.8470633,9.24920203 50.1178979,11.0981607 50.9408139,13.06691 C51.7585219,15.0408687 52.2220633,17.1033687 52.3370377,19.25441 C52.3470633,21.4106594 52.1491473,23.5981607 51.7324806,25.81691 C51.2585219,28.0148274 50.6178979,30.1658687 49.8158139,32.2752434 C49.0085219,34.44191 48.1960219,36.5252434 47.3783139,38.5252434 L31.4824806,34.06691 C32.0501886,32.749202 32.5501886,31.4575354 32.9824806,30.19191 C33.3678979,28.931494 33.5918553,27.7335767 33.6491473,26.6085767 C33.7012313,25.5148274 33.5293553,24.5408687 33.1283139,23.69191 C32.6960219,22.8585767 31.9251886,22.202326 30.8158139,21.7127434 L30.1283139,21.4210767 C28.6387299,20.9627434 27.4251886,20.7960767 26.4824806,20.9210767 C25.5085219,21.0877434 24.6595646,21.5825354 23.9408139,22.4002434 C23.1751886,23.2231607 22.4408139,24.37941 21.7324806,25.87941 C20.9928979,27.4210767 20.1283139,29.3533687 19.1283139,31.6710767 C18.1283139,33.9939927 17.2949806,35.999202 16.6283139,37.69191 C15.9199806,39.431494 15.4928979,40.931494 15.3574806,42.19191 C15.2324806,43.4731607 15.4460219,44.5252434 16.0033139,45.3585767 C16.4460219,46.2179514 17.3783139,46.952326 18.7949806,47.56691 C20.2116473,48.1762847 21.4408139,48.4002434 22.4824806,48.2335767 C23.4251886,48.1189927 24.2793553,47.6554514 25.0449806,46.8377434 C25.8210219,46.0460767 26.5918553,44.9106594 27.3574806,43.4210767 C28.0241473,41.9939927 28.7949806,40.2648274 29.6699806,38.2335767 L45.4616473,42.9210767 C44.0293553,46.12941 42.4824806,49.0877434 40.8158139,51.7960767 C39.1491473,54.5460767 37.1335219,56.697118 34.7741473,58.25441 C32.4095646,59.822118 29.5970633,60.6502434 26.3366473,60.7335767 C23.0137299,60.7856594 18.9824806,59.7856594 14.2324806,57.7335767 C9.46685528,55.6606594 6.02414728,53.2752434 3.89914728,50.56691 C1.73248061,47.8012847 0.487688614,44.8585767 0.169980614,41.7335767 C-0.236270053,38.6398274 0.0866472803,35.3533687 1.12831395,31.87941 C2.07102195,28.452326 3.28456461,25.0200354 4.77414728,21.5877434 Z"></path>
                </g>
            </g>
            <g id="Group" transform="translate(258.1895, 35.3538)" fill="#F5F5F5" fill-rule="nonzero">
                <g id="Path">
                    <polygon points="14.375 15.1458333 27.4375 0 60.4166667 27.4166667 47.5416667 42.7083333 38.375 35.1041667 14 63.7083333 0 51.625 24.6666667 23.7083333"></polygon>
                </g>
            </g>
            <g id="Group" transform="translate(278.9247, 73.5697)" fill="#F5F5F5" fill-rule="nonzero">
                <g id="Path">
                    <polygon points="0 31.3125 47.625 0 69.4791667 31.7083333 55.9375 40.6041667 42.3333333 21.3958333 36.3958333 25.2916667 48.0208333 40 35.25 48.3958333 24.2708333 33.1666667 18.2708333 37.125 32.625 55.9583333 21.1666667 63.4791667"></polygon>
                </g>
            </g>
            <path d="M41.6203472,263.147536 L63.4782486,262.143211 C65.0789086,262.145471 66.6546936,262.21745 68.2065186,262.370759 C69.7092157,262.523271 71.1540958,262.801837 72.5420779,263.218072 C73.8899691,263.68887 75.1863383,264.306256 76.4222625,265.075608 C77.6726017,265.909243 78.804623,266.990531 79.8263894,268.332853 C80.7594418,269.527965 81.5363293,271.2611 82.1525899,273.534946 C82.7725125,275.855232 83.2402022,278.437528 83.557431,281.274683 C83.8219859,284.125338 83.9509988,287.094161 83.9543088,290.187386 C83.8898478,293.339695 83.706245,296.314482 83.4025841,299.10014 C83.0901183,301.951913 82.6216136,304.484214 82.002446,306.705965 C81.3824804,308.976846 80.6336859,310.680779 79.7489134,311.815992 C78.3616803,313.631028 76.5013294,315.135244 74.1696349,316.321493 C71.8495503,317.506826 68.9030562,318.0967 65.3328424,318.095574 L64.33065,318.097525 C64.0269552,318.098102 63.6910594,318.075529 63.3247357,318.022645 L41.5468872,316.546335 L41.6203472,263.147536 Z M62.1720164,280.419295 C61.8567116,280.420799 61.3913909,280.445817 60.7715932,280.497038 C60.1517956,280.548258 59.504258,280.573629 58.8218315,280.571378 C58.1538209,280.633411 57.5349393,280.696241 56.9687316,280.745572 C56.402523,280.794902 56.0159032,280.869788 55.8160183,280.972003 L55.8146143,305.156911 C56.1658421,305.255379 56.9404106,305.329803 58.1410079,305.384645 C59.2754902,305.430682 60.2518336,305.456482 61.0744971,305.459355 L62.0043405,305.458447 C63.6039085,305.357989 64.8180407,305.021572 65.6565732,304.455431 C66.4755497,303.937563 67.0654563,303.211123 67.4334441,302.277887 C67.7479589,301.407278 67.9281768,300.374363 67.9830178,299.173766 C68.0290557,298.039283 68.0829807,296.827075 68.1358737,295.542518 C68.2863856,293.00726 68.3821225,290.784736 68.4329235,288.881179 C68.4329235,287.014343 68.3083455,285.435366 68.0575437,284.151397 C67.7916449,282.913012 67.3003062,281.956427 66.5781516,281.272724 C65.8588031,280.65422 64.8042047,280.347207 63.4000606,280.348139 L62.8507219,280.344731 C62.6497451,280.344233 62.4229192,280.371469 62.1720164,280.419295 Z" id="Shape" stroke="#008C8C" stroke-width="20.3479103" transform="translate(62.7506, 290.1204) rotate(31.0747) translate(-62.7506, -290.1204)"></path>
            <path d="M81.9229611,281.58301 L97.3429609,280.807897 L96.9628317,314.983557 C96.9653037,316.480958 96.9910398,317.826329 97.0382918,319.014761 C97.0393028,320.197547 97.1669488,321.208076 97.4194839,322.041442 C97.683243,322.859755 98.0978362,323.480609 98.6664214,323.89735 C99.1848646,324.35959 99.9606719,324.597493 100.993508,324.594592 C101.094056,324.597488 101.221961,324.568527 101.37581,324.519269 C101.474611,324.517258 101.608092,324.519484 101.769602,324.522786 C103.058989,324.417469 104.033903,324.158758 104.704158,323.74316 C105.374411,323.327562 105.86475,322.732769 106.176921,321.963686 C106.496417,321.230697 106.681233,320.274761 106.729622,319.09097 C106.72787,317.952679 106.728079,316.587012 106.726755,314.984157 L106.653165,281.583754 L122.000645,280.806822 L122.075433,314.831551 C122.077624,317.368442 121.916653,319.819698 121.6009,322.193383 C121.301206,324.627692 120.475532,326.795952 119.125622,328.703067 C117.784114,330.618248 115.751023,332.143901 113.009882,333.280363 C110.259933,334.469718 106.45668,335.061105 101.601871,335.059437 C97.1079208,335.061939 93.5737805,334.468338 90.9847305,333.283866 C88.3494395,332.093746 86.3608748,330.546164 85.0253563,328.627813 C83.6729638,326.770757 82.8204384,324.625123 82.4677793,322.190912 C82.0554992,319.822161 81.8450581,317.414707 81.8465936,314.981523 L81.9229611,281.58301 Z" id="Path" stroke="#008C8C" stroke-width="20.3479306" transform="translate(101.961, 307.9331) rotate(19.601) translate(-101.961, -307.9331)"></path>
            <path d="M149.200239,293.980612 L168.95741,293.201542 C168.95425,293.050443 169.164559,294.058596 169.583058,296.231137 C169.996419,298.398399 170.54093,301.26542 171.206315,304.821643 C171.876062,308.440432 172.654449,312.498234 173.53634,316.98977 C174.35489,321.542954 175.231503,326.039628 176.166178,330.479792 L182.218903,293.980377 L203.132429,293.201361 L205.704365,347.454761 L189.885215,347.45382 L187.331631,313.358771 L182.900247,346.68196 L173.381523,347.230034 L164.923345,313.357033 L164.299501,347.456098 L147.797981,347.456098 L149.200239,293.980612 Z" id="Path" stroke="#008C8C" stroke-width="20.3479214" transform="translate(176.7512, 320.3214) rotate(-0.7769) translate(-176.7512, -320.3214)"></path>
            <path d="M206.270808,307.724074 C206.272638,304.937349 206.452968,302.250731 206.82188,299.666836 C207.123756,297.092456 208.000723,294.769481 209.451474,292.702952 C210.900539,290.684413 213.072756,289.031013 215.963085,287.741446 C218.849679,286.44553 222.881037,285.694063 228.050807,285.49078 L229.756192,285.491919 C234.147284,285.490208 237.633227,286.136147 240.221679,287.42096 C242.755226,288.772241 244.691948,290.474499 246.030538,292.532774 C247.326921,294.65005 248.157386,297.028502 248.506809,299.664208 C248.872665,302.298794 249.059074,304.940642 249.058569,307.577052 L249.28503,320.291189 C249.28503,323.029925 249.13238,325.712998 248.829936,328.351799 C248.466426,331.039329 247.580116,333.419068 246.182395,335.48859 C244.745082,337.607031 242.571179,339.308419 239.670768,340.595371 C236.732451,341.883251 232.675525,342.525853 227.505032,342.524486 C222.699592,342.52633 218.949615,341.881853 216.265184,340.593668 C213.526416,339.30753 211.460852,337.604136 210.073533,335.484795 C208.673137,333.415869 207.76686,331.039275 207.349661,328.353705 C206.935816,325.717432 206.64727,323.054472 206.499145,320.368748 L206.270808,307.724074 Z M227.750976,305.170921 C225.88256,305.321199 224.505405,305.631188 223.625861,306.097154 C222.705416,306.61708 222.087995,307.441596 221.772288,308.575742 C221.401675,309.776357 221.251545,311.330101 221.318165,313.230625 C221.366476,315.20173 221.391575,317.656456 221.393462,320.594804 C221.390068,322.412599 221.41639,324.012113 221.464772,325.40212 C221.518935,326.852815 221.725496,328.068625 222.089497,329.050857 C222.445462,330.084812 222.986879,330.860171 223.718789,331.378242 C224.439309,331.89874 225.491863,332.155617 226.880184,332.155226 L227.58004,332.153815 C229.180311,332.041598 230.397067,331.727669 231.230309,331.212027 C232.0529,330.758191 232.644167,330.034505 233.011579,329.053668 C233.324274,328.117826 233.509092,326.928206 233.557256,325.47715 C233.611201,324.086781 233.662187,322.458894 233.710215,320.593489 C233.811016,317.757107 233.886558,315.350008 233.939266,313.383583 C233.989358,311.427242 233.888532,309.824545 233.636786,308.575493 C233.371035,307.338949 232.926732,306.43812 232.310225,305.869273 C231.641428,305.356811 230.633129,305.095271 229.282714,305.094735 L228.507046,305.098002 C228.254403,305.097038 228.000264,305.122589 227.750976,305.170921 Z" id="Shape" stroke="#008C8C" stroke-width="20.3479226" transform="translate(227.7779, 314.0076) rotate(-14.5414) translate(-227.7779, -314.0076)"></path>
            <polygon id="Path" stroke="#008C8C" stroke-width="20.3479052" transform="translate(257.5215, 303.3324) rotate(-22.9873) translate(-257.5215, -303.3324)" points="265.771584 276.205603 263.763356 330.45862 249.494641 330.459261 249.271466 276.985218"></polygon>
            <path d="M285.169651,311.019226 C286.303166,311.018518 287.281629,310.94202 288.102339,310.794185 C288.883775,310.640798 289.531859,310.175022 290.049296,309.392402 C290.566436,308.67052 290.928257,307.562003 291.128557,306.056994 C291.281478,304.559792 291.279972,302.493739 291.127543,299.873144 L284.238047,299.872493 C282.588257,299.870676 281.13689,299.843032 279.889351,299.780656 C278.653121,299.779968 277.519101,299.701176 276.48189,299.553185 C275.398902,299.450526 274.413671,299.26706 273.533353,299.001036 C272.608058,298.799106 271.630577,298.492413 270.599154,298.073801 C268.061508,297.15565 266.276502,295.579297 265.244138,293.34474 C264.154537,291.124195 263.612685,287.950571 263.615878,283.828321 C263.617129,282.842199 263.588249,281.624583 263.536392,280.17372 C263.488989,278.725559 263.590226,277.203094 263.841854,275.613479 C264.056907,274.013859 264.497252,272.374252 265.16639,270.708968 C265.832528,269.108875 266.896524,267.61613 268.342315,266.227081 C269.997278,264.623786 272.166229,263.307945 274.854572,262.270655 C277.540865,261.286948 281.212656,260.797553 285.868192,260.795315 C288.340652,260.796691 290.539551,261.028075 292.455033,261.495672 C294.310428,262.012104 295.958702,262.689198 297.40971,263.520748 C298.86232,264.389823 300.107155,265.370428 301.13801,266.452709 C302.110531,267.590977 302.938865,268.806251 303.617609,270.107437 C304.703499,272.173435 305.422762,274.321604 305.776348,276.540335 C306.092409,278.760669 306.250362,280.799797 306.248455,282.650565 C306.199434,284.819986 305.99076,286.941283 305.625135,289.010007 L290.352653,289.010332 L290.353808,282.200337 C290.355004,280.129831 290.121675,278.526232 289.653822,277.389539 C289.134137,276.257952 287.974827,275.688651 286.170489,275.690544 C285.756928,275.689414 285.315551,275.714052 284.846358,275.764458 C284.377817,275.863994 283.864599,275.966885 283.293344,276.065026 C282.010001,276.382992 281.107859,276.92613 280.58692,277.694441 C280.020352,278.477714 279.687089,279.408618 279.588882,280.494307 C279.43439,281.582402 279.407281,282.741684 279.51201,283.974856 C279.611989,285.266066 279.660432,286.501643 279.661793,287.684289 C279.663123,289.238519 280.103011,290.431348 280.988611,291.261027 C281.804271,292.145743 282.966876,292.589114 284.467522,292.585736 C285.654622,292.587076 286.788285,292.555999 287.875667,292.490753 C288.910921,292.491351 289.946173,292.491948 290.976973,292.489845 C293.297587,292.490477 295.41758,292.60089 297.3352,292.813927 C299.240113,293.06799 300.894534,293.584331 302.295757,294.367405 C303.69413,295.185299 304.779726,296.39826 305.550794,297.99913 C306.265576,299.602405 306.628216,301.79617 306.628858,304.58663 C306.628858,306.755398 306.240366,308.590875 305.470207,310.091311 C304.639309,311.591449 303.579204,312.836788 302.295294,313.818421 C300.944144,314.850642 299.445839,315.653473 297.791475,316.221516 C296.13711,316.789559 294.48619,317.201301 292.829808,317.451343 C291.127798,317.716347 289.502231,317.87543 287.948654,317.92589 C286.346599,318.026135 285.005606,318.077697 283.921222,318.077697 C281.282608,318.079075 279.014066,317.841991 277.110191,317.375343 C275.138424,316.91015 273.462037,316.319563 272.072124,315.598178 C270.675055,314.878545 269.52964,314.025265 268.649235,313.046443 C267.725755,312.108497 267.009605,311.15013 266.491878,310.165936 C265.188389,307.846089 264.616194,305.214508 264.768141,302.272945 L280.512483,303.503122 C280.511142,304.690221 280.562228,305.750737 280.665741,306.684671 C280.715669,307.616556 280.897673,308.390985 281.213504,309.015112 C281.516629,309.680267 281.98585,310.172053 282.616714,310.48777 C283.181288,310.842465 283.982553,311.017885 285.017805,311.018483 L285.169651,311.019226 Z" id="Path" stroke="#008C8C" stroke-width="20.3479109" transform="translate(285.077, 289.4365) rotate(-31.244) translate(-285.077, -289.4365)"></path>
            <g id="Group" transform="translate(30.9501, 256.115)" fill="#F5F5F5" fill-rule="nonzero">
                <g id="Shape">
                    <path d="M27.625,0 L46.875,10.4375 C48.2343747,11.2604173 49.5416667,12.1354173 50.7916667,13.0625 C52,13.9791667 53.0885413,14.9687507 54.0625,16.0208333 C54.9791667,17.119792 55.7708333,18.3125 56.4375,19.6041667 C57.0625,20.9531253 57.4687507,22.4739587 57.6666667,24.1666667 C57.8437507,25.682292 57.6145827,27.557292 56.9791667,29.7916667 C56.3125,32.1145827 55.375,34.572916 54.1666667,37.1666667 C52.927084,39.75 51.5104173,42.369792 49.9166667,45.0208333 C48.2343747,47.6875 46.5416667,50.130208 44.8333333,52.3541667 C43.1093747,54.6458333 41.4062493,56.5833333 39.7291667,58.1666667 C38.0208333,59.7604173 36.5,60.8333333 35.1666667,61.375 C33.0416667,62.192708 30.6718747,62.5208333 28.0625,62.3541667 C25.4635413,62.1458333 22.6354173,61.125 19.5833333,59.2916667 L18.7291667,58.7708333 C18.447916,58.6041667 18.1666667,58.4166667 17.875,58.2083333 L0,45.6875 L27.625,0 Z M36.3125,25.3958333 C36.0312493,25.2291667 35.6145827,25.0156253 35.0625,24.75 C34.505208,24.4739587 33.942708,24.1666667 33.375,23.8333333 C32.7604173,23.5156253 32.197916,23.2291667 31.6875,22.9791667 C31.1562493,22.7291667 30.7916667,22.6041667 30.5833333,22.6041667 L18.1041667,43.2916667 C18.3541667,43.572916 18.9791667,44.0364587 19.9791667,44.6875 C20.9218747,45.3125 21.75,45.8385413 22.4583333,46.2708333 L23.25,46.75 C24.6666667,47.5 25.875,47.8385413 26.875,47.7708333 C27.8593747,47.755208 28.7395827,47.447916 29.5208333,46.8541667 C30.2395827,46.2395827 30.9375,45.447916 31.6041667,44.4791667 C32.2135413,43.5208333 32.880208,42.5104173 33.6041667,41.4375 C35.0312493,39.3541667 36.2708333,37.5104173 37.3125,35.8958333 C38.2812493,34.302084 38.9843747,32.875 39.4166667,31.625 C39.8437507,30.447916 39.9218747,29.375 39.6458333,28.4166667 C39.3541667,27.5156253 38.6041667,26.7031253 37.3958333,25.9791667 L36.9375,25.6875 C36.755208,25.5937507 36.5468747,25.494792 36.3125,25.3958333 Z"></path>
                </g>
            </g>
            <g id="Group" transform="translate(78.5035, 276.3858)" fill="#F5F5F5" fill-rule="nonzero">
                <g id="Path">
                    <path d="M13.403294,0 L28.215794,4.4375 L16.3824607,36.5208333 C15.8824607,37.9270827 15.4501687,39.2031253 15.090794,40.3541667 C14.6845447,41.4791667 14.471002,42.4687493 14.4449607,43.3125 C14.41371,44.1875 14.6012114,44.9114587 15.0074607,45.4791667 C15.3251687,46.0937493 15.965794,46.5729173 16.9241274,46.9166667 C17.033502,46.9583333 17.1741274,46.9739587 17.340794,46.9583333 C17.4345447,47 17.5543354,47.0520827 17.6949607,47.1041667 C18.9449607,47.4531253 19.9553767,47.5364587 20.7366274,47.3541667 C21.4970434,47.1875 22.158502,46.7916667 22.715794,46.1666667 C23.2574607,45.5833333 23.7470434,44.75 24.1949607,43.6666667 C24.5699607,42.5989587 25.028294,41.3125 25.5699607,39.8125 L36.715794,8.29166667 L51.4241274,12.7083333 L40.090794,44.7916667 C39.2418354,47.182292 38.267878,49.4375 37.1741274,51.5625 C36.0595447,53.755208 34.5543354,55.5260413 32.653294,56.875 C30.7470434,58.2343747 28.3199607,58.9843747 25.3616274,59.125 C22.3720434,59.3333333 18.596002,58.614584 14.028294,56.9791667 C9.77829402,55.4635413 6.63766869,53.7135413 4.61162736,51.7291667 C2.52829402,49.7447917 1.17933536,47.619792 0.569960691,45.3541667 C-0.0862899755,43.1614587 -0.174831309,40.8541667 0.299127358,38.4375 C0.715794024,36.0625 1.32516869,33.739584 2.13246069,31.4583333 L13.403294,0 Z"></path>
                </g>
            </g>
            <g id="Group" transform="translate(148.1604, 292.8466)" fill="#F5F5F5" fill-rule="nonzero">
                <g id="Path">
                    <path d="M0.666666667,1.5 L20.4375,0.458333333 C20.4375,0.307292 20.6562507,1.3125 21.1041667,3.47916667 C21.5312507,5.63541733 22.1093747,8.494792 22.8333333,12.0625 C23.5520827,15.6614587 24.380208,19.7031253 25.3125,24.1875 C26.2135413,28.7187507 27.1562507,33.2031253 28.1458333,37.6458333 L33.6875,1.0625 L54.6041667,0 L57.8958333,54.2083333 L42.0833333,54.4375 L39.0833333,20.3541667 L35.1041667,53.75 L25.5833333,54.4166667 L16.6875,20.6666667 L16.5208333,54.7708333 L0,55 L0.666666667,1.5 Z"></path>
                </g>
            </g>
            <g id="Group" transform="translate(203.7401, 284.8451)" fill="#F5F5F5" fill-rule="nonzero">
                <g id="Shape">
                    <path d="M1.64420003,28.5008676 C0.951492034,25.7925343 0.451492034,23.1467009 0.144200034,20.5633676 C-0.199549299,17.9800343 0.071282701,15.5112849 0.956700034,13.1467009 C1.83170003,10.8289929 3.51399203,8.6831596 5.9983667,6.70920093 C8.48274163,4.72482627 12.1962827,2.99045027 17.1442,1.5008676 L18.7900334,1.0633676 C23.0400334,-0.0303817339 26.5712827,-0.280381734 29.3942,0.313367599 C32.1962827,0.980034266 34.5035747,2.14670093 36.3108667,3.8133676 C38.086908,5.53732627 39.4879494,7.6258676 40.5192,10.0842009 C41.529616,12.5581596 42.3629494,15.0633676 43.0192,17.6050343 L46.4150334,29.8342009 C47.1077414,32.5008676 47.633784,35.1414929 47.9983667,37.7508676 C48.3317,40.4592009 48.0712827,42.9800343 47.2275334,45.3133676 C46.3785747,47.7300343 44.711908,49.9331596 42.2275334,51.9175343 C39.6962827,53.9071169 35.9358667,55.5425343 30.9358667,56.8342009 C26.279616,58.0425343 22.4879494,58.3654503 19.5608667,57.7925343 C16.6025334,57.2248263 14.1754507,56.0842009 12.2900334,54.3758676 C10.4150334,52.7508676 8.9358667,50.6831596 7.85253337,48.1675343 C6.8108667,45.7404503 5.8733667,43.2300343 5.04003337,40.6467009 L1.64420003,28.5008676 Z M21.7900334,20.6258676 C20.024408,21.2404503 18.774408,21.8862849 18.0400334,22.5633676 C17.274408,23.3029516 16.8785747,24.2612849 16.8525334,25.4383676 C16.8108667,26.6623263 17.0452414,28.1987836 17.5608667,30.0425343 C18.1129494,31.9331596 18.758784,34.3029516 19.4983667,37.1467009 C19.9567,38.8967009 20.383784,40.4383676 20.7900334,41.7717009 C21.1910747,43.1623263 21.6910747,44.2925343 22.2900334,45.1675343 C22.883784,46.0581596 23.6077414,46.6623263 24.4567,46.9800343 C25.274408,47.3133676 26.3629494,47.3081596 27.7275334,46.9592009 L28.3942,46.7925343 C29.9202414,46.2664929 31.0192,45.6571169 31.6858667,44.9592009 C32.3629494,44.3081596 32.758784,43.4592009 32.8733667,42.4175343 C32.9410747,41.4487836 32.8212827,40.2508676 32.5192,38.8342009 C32.2275334,37.4592009 31.8577414,35.8706596 31.4150334,34.0633676 C30.8160747,31.2873263 30.2900334,28.9383676 29.8317,27.0217009 C29.399408,25.1050343 28.904616,23.5842009 28.3525334,22.4592009 C27.779616,21.3081596 27.1233667,20.5373263 26.3733667,20.1467009 C25.5921174,19.8289929 24.5504507,19.8342009 23.2483667,20.1675343 L22.4983667,20.3550343 C22.2483667,20.4279516 22.008784,20.5164929 21.7900334,20.6258676 Z"></path>
                </g>
            </g>
            <g id="Group" transform="translate(239.6323, 275.135)" fill="#F5F5F5" fill-rule="nonzero">
                <g id="Path">
                    <polygon points="14.8958333 0 34.2291667 50.7291667 21.1041667 56.2916667 0 7.16666667"></polygon>
                </g>
            </g>
            <g id="Group" transform="translate(258.2242, 260.8739)" fill="#F5F5F5" fill-rule="nonzero">
                <g id="Path">
                    <path d="M38.1219795,46.9583333 C39.0907288,46.375 39.8928128,45.807292 40.5178128,45.25 C41.1011461,44.7083333 41.4032301,43.9791667 41.4344795,43.0625 C41.5178128,42.1614587 41.2521875,41.0208333 40.6428128,39.6458333 C40.0021875,38.2708333 38.9344795,36.510416 37.4344795,34.3541667 L31.5386461,37.9375 C30.1219795,38.7864587 28.8719795,39.510416 27.7886461,40.1041667 C26.7313541,40.744792 25.7157288,41.2708333 24.7469795,41.6875 C23.7573955,42.1458333 22.8303128,42.5 21.9553128,42.75 C21.0542715,43.057292 20.0542715,43.2916667 18.9553128,43.4583333 C16.3042715,43.989584 13.9657288,43.5625 11.9344795,42.1875 C9.85114615,40.8541667 7.74177148,38.432292 5.60114615,34.9166667 C5.09072881,34.0729173 4.43447948,33.0416667 3.64281281,31.8333333 C2.84072881,30.625 2.13239548,29.2656253 1.51781281,27.75 C0.866771481,26.2812507 0.403230147,24.6614587 0.121979481,22.8958333 C-0.128020519,21.1770827 0.0073954806,19.3437493 0.517812814,17.3958333 C1.10114615,15.1770827 2.26781281,12.9270827 4.01781281,10.6458333 C5.82510481,8.42708267 8.71572881,6.10416667 12.6844795,3.6875 C14.7990621,2.39583333 16.7886461,1.45312533 18.6636461,0.854166667 C20.5282301,0.328125333 22.2886461,0.0416666667 23.9553128,0 C25.6480208,0 27.2105208,0.203125333 28.6428128,0.604166667 C30.0855208,1.0625 31.4240621,1.66666667 32.6636461,2.41666667 C34.6636461,3.625 36.3980208,5.08333333 37.8719795,6.79166667 C39.2730208,8.54166667 40.4605208,10.2187493 41.4344795,11.8125 C42.5178128,13.6875 43.4396875,15.5989587 44.2053128,17.5416667 L31.1428128,25.4583333 L27.6011461,19.625 C26.5282301,17.864584 25.5073955,16.614584 24.5386461,15.875 C23.4969795,15.182292 22.1948968,15.307292 20.6428128,16.25 C20.2990621,16.4583333 19.9344795,16.7083333 19.5594795,17 C19.2261461,17.3229173 18.8459381,17.6770827 18.4136461,18.0625 C17.4553128,18.994792 16.9657288,19.9270827 16.9344795,20.8541667 C16.8511461,21.8125 17.0490621,22.7864587 17.5178128,23.7708333 C17.9501048,24.7708333 18.5282301,25.7812507 19.2469795,26.7916667 C20.0126048,27.8333333 20.7001048,28.869792 21.3094795,29.8958333 C22.1115635,31.2031253 23.1063541,31.994792 24.2886461,32.2708333 C25.4657288,32.5937493 26.6948968,32.364584 27.9761461,31.5833333 C28.9865635,30.9583333 29.9396875,30.3437493 30.8303128,29.7291667 C31.7157288,29.1875 32.6063541,28.6562507 33.4969795,28.125 C35.4657288,26.9166667 37.3198968,25.9114587 39.0594795,25.1041667 C40.8355208,24.3281253 42.5230208,23.9114587 44.1219795,23.8541667 C45.7469795,23.8437493 47.2990621,24.3125 48.7886461,25.2708333 C50.2573955,26.2708333 51.7157288,27.9687493 53.1636461,30.3541667 C54.2886461,32.2031253 54.9032301,33.9739587 55.0178128,35.6666667 C55.0698968,37.375 54.7990621,38.9791667 54.2053128,40.4791667 C53.5907288,42.0625 52.7261461,43.5312507 51.6011461,44.875 C50.4761461,46.2083333 49.2782301,47.4166667 48.0178128,48.5 C46.6948968,49.614584 45.3823955,50.5833333 44.0803128,51.4166667 C42.7730208,52.3489587 41.6636461,53.0937493 40.7469795,53.6458333 C38.4813541,55.0208333 36.4032301,56 34.5178128,56.5833333 C32.6115635,57.2083333 30.8719795,57.5781253 29.2886461,57.6875 C27.7313541,57.8020827 26.3198968,57.6562507 25.0594795,57.25 C23.7782301,56.9479173 22.6636461,56.5 21.7053128,55.9166667 C19.4136461,54.5989587 17.5698968,52.6458333 16.1636461,50.0625 L30.2261461,42.9583333 C30.8511461,43.9739587 31.4448968,44.8489587 32.0178128,45.5833333 C32.5594795,46.364584 33.1219795,46.9375 33.7053128,47.3125 C34.3146875,47.7187493 34.9605208,47.8906253 35.6428128,47.8333333 C36.3198968,47.8489587 37.1063541,47.5833333 37.9969795,47.0416667 L38.1219795,46.9583333 Z"></path>
                </g>
            </g>
        </g>
    </g>
</svg>