<?xml version="1.0" encoding="UTF-8"?>
<svg width="315px" height="372px" viewBox="0 0 315 372" version="1.1" xmlns="http://www.w3.org/2000/svg" xmlns:xlink="http://www.w3.org/1999/xlink">
    <title>Artboard</title>
    <defs>
        <polygon id="path-1" points="0 1.42108547e-14 314.958333 1.42108547e-14 314.958333 314.963543 0 314.963543"></polygon>
        <path d="M157.479167,1.42108547e-14 C70.505208,1.42108547e-14 0,70.5052093 0,157.479167 C0,244.453125 70.505208,314.958333 157.479167,314.958333 C244.453125,314.958333 314.958333,244.453125 314.958333,157.479167 C314.958333,70.5052093 244.453125,1.42108547e-14 157.479167,1.42108547e-14 Z" id="path-3"></path>
        <polygon id="path-5" points="2.84217094e-14 0 207 0 207 180 2.84217094e-14 180"></polygon>
    </defs>
    <g id="Artboard" stroke="none" stroke-width="1" fill="none" fill-rule="evenodd">
        <g id="1" transform="translate(-0.4792, 11.9774)">
            <g id="Clipped" transform="translate(0, 40.8403)">
                <mask id="mask-2" fill="white">
                    <use xlink:href="#path-1"></use>
                </mask>
                <g id="Path"></g>
                <g mask="url(#mask-2)">
                    <mask id="mask-4" fill="white">
                        <use xlink:href="#path-3"></use>
                    </mask>
                    <g id="Path"></g>
                    <polygon id="Path" fill="#008C8C" fill-rule="nonzero" mask="url(#mask-4)" points="0 1.42108547e-14 314.958333 1.42108547e-14 314.958333 314.958333 0 314.958333"></polygon>
                </g>
            </g>
            <g id="Clipped" transform="translate(53.7656, 76.3455)">
                <mask id="mask-6" fill="white">
                    <use xlink:href="#path-5"></use>
                </mask>
                <g id="Path"></g>
                <path d="M103.708333,0.0624986667 C101.979167,0.0624986667 100.255208,1.21354133 100.255208,3.515624 L100.255208,13.890624 C100.255208,18.5 107.166667,18.5 107.166667,13.890624 L107.166667,3.515624 C107.166667,1.21354133 105.4375,0.0624986667 103.708333,0.0624986667 Z M48.8489573,14.8593747 C48.5260413,14.822916 48.197916,14.8437493 47.875,14.895832 C45.7708333,15.2760413 43.9687493,17.5624987 45.4062493,20.0624987 L50.5937493,29.0468747 C52.9010413,33.0468747 58.8958333,29.5885413 56.5885413,25.5937493 L51.4062493,16.6093747 C50.755208,15.4895827 49.8020827,14.953124 48.8489573,14.8593747 Z M158.572916,14.8593747 C157.619792,14.953124 156.682291,15.4895827 156.031249,16.6093747 L150.848957,25.5937493 C148.541667,29.5885413 154.541667,33.0468747 156.843749,29.0468747 L162.031249,20.0624987 C163.468749,17.5624987 161.651041,15.2760413 159.546875,14.895832 C159.218749,14.8437493 158.895833,14.822916 158.572916,14.8593747 Z M8.17187467,55.3385413 C4.89583333,54.9791653 2.68229067,59.817708 6.17708267,61.8385413 L15.1614587,67.020832 C19.1562493,69.328124 22.6145827,63.3333333 18.6145827,61.0260413 L9.630208,55.8385413 C9.130208,55.5520827 8.640624,55.390624 8.17187467,55.3385413 Z M199.244792,55.3385413 C198.776041,55.390624 198.291667,55.5520827 197.786459,55.8385413 L188.802083,61.0260413 C184.807291,63.3333333 188.265624,69.328124 192.260416,67.020832 L201.244792,61.8385413 C204.739583,59.817708 202.526041,54.9791653 199.244792,55.3385413 Z M72.5989573,58.828124 C61.9010413,58.828124 52.2864587,65.760416 46.6875,76.5468747 C44.942708,76.2239573 43.25,76.1145827 41.4843747,76.1145827 C35.2343747,76.1145827 29.2395827,78.078124 23.875,82.0364573 C13.4114587,89.765624 7.20312533,103.447916 6.91145867,118.213541 C2.880208,119.598957 2.84217094e-14,123.395832 2.84217094e-14,127.968749 C2.84217094e-14,132.723957 3.15104133,136.666667 7.4375,137.911457 L13.880208,170.104165 C14.3489573,172.531249 15.3020827,174.838541 17.015624,176.692708 C18.7239573,178.546875 21.2083333,179.828124 24.1822907,179.828124 L51.8541667,179.828124 C54.8958333,179.828124 57.3125,178.510416 59.0208333,176.656249 C60.7135413,174.822916 61.6666667,172.515624 62.1562493,170.140624 L65.572916,156.473957 C65.9322907,153.989583 66.9791667,152.223957 69.119792,152.171875 L72.5989573,152.171875 C73.4062493,152.171875 74.0572907,152.437499 74.6666667,153.104165 C75.2812493,153.755208 75.8385413,154.906249 76.1458333,156.385416 L79.5833333,170.140624 C80.067708,172.515624 81.0416667,174.822916 82.7343747,176.656249 C84.572916,178.656249 87.0208333,179.828124 89.880208,179.828124 L117.536459,179.828124 C120.401041,179.828124 122.848957,178.656249 124.6875,176.656249 C126.380208,174.822916 127.348957,172.515624 127.838541,170.140624 L131.276041,156.385416 C131.583333,154.906249 132.140624,153.755208 132.755208,153.104165 C133.364583,152.437499 134.015624,152.171875 134.822916,152.171875 L138.296875,152.171875 C140.442708,152.223957 141.484375,153.989583 141.843749,156.473957 L145.265624,170.140624 C145.75,172.515624 146.708333,174.822916 148.401041,176.656249 C150.109375,178.510416 152.520833,179.828124 155.567708,179.828124 L183.239583,179.828124 C186.208333,179.828124 188.677083,178.546875 190.406249,176.692708 C192.114583,174.838541 193.072916,172.531249 193.536459,170.104165 L200.005208,137.911457 C204.270833,136.666667 207.421875,132.723957 207.421875,127.968749 C207.421875,123.395832 204.541667,119.598957 200.505208,118.213541 C200.218749,103.447916 194.005208,89.765624 183.546875,82.0364573 C178.182291,78.078124 172.166667,76.1145827 165.9375,76.1145827 C164.171875,76.1145827 162.479167,76.2239573 160.734375,76.5468747 C155.135416,65.760416 145.520833,58.828124 134.822916,58.828124 C124.130208,58.828124 114.515624,65.760416 108.895833,76.5468747 C107.166667,76.2239573 105.494792,76.1145827 103.729167,76.1145827 L103.692708,76.1145827 C101.927083,76.1145827 100.255208,76.2239573 98.5260413,76.5468747 C92.9062493,65.760416 83.2916667,58.828124 72.5989573,58.828124 Z M72.5989573,65.7447907 C79.9791667,65.7447907 87.1458333,70.3697907 91.8072907,78.6718747 C89.8437493,79.5520827 87.9218747,80.7083333 86.0989573,82.0364573 C80.0520827,86.505208 75.4791667,92.9166667 72.5989573,100.421875 C69.7135413,92.9166667 65.140624,86.505208 59.0937493,82.0364573 C57.2760413,80.7083333 55.3489573,79.5520827 53.4010413,78.6718747 C58.067708,70.3697907 65.2135413,65.7447907 72.5989573,65.7447907 Z M134.822916,65.7447907 C142.203125,65.7447907 149.354167,70.3697907 154.015624,78.6718747 C152.072916,79.5520827 150.145833,80.7083333 148.328125,82.0364573 C142.276041,86.505208 137.703125,92.9166667 134.822916,100.421875 C131.942708,92.9166667 127.369792,86.505208 121.317708,82.0364573 C119.5,80.7083333 117.572916,79.5520827 115.609375,78.6718747 C120.276041,70.3697907 127.442708,65.7447907 134.822916,65.7447907 Z M41.4843747,83.0312493 C46.1093747,83.0312493 50.7395827,84.453124 55.005208,87.6041653 C63.1822907,93.635416 68.6875,104.921875 69.140624,117.598957 C50.755208,117.598957 32.2083333,117.598957 13.8281253,117.598957 C14.2760413,104.921875 19.7864587,93.635416 27.9635413,87.6041653 C32.2291667,84.453124 36.8541667,83.0312493 41.4843747,83.0312493 Z M103.708333,83.0312493 C108.354167,83.0312493 112.963541,84.453124 117.234375,87.6041653 C125.406249,93.635416 130.916667,104.921875 131.364583,117.598957 C112.369792,117.598957 93.7187493,117.598957 76.0520827,117.598957 C76.505208,104.921875 82.015624,93.635416 90.1875,87.6041653 C94.4531253,84.453124 99.0625,83.0312493 103.708333,83.0312493 Z M165.9375,83.0312493 C170.5625,83.0312493 175.192708,84.453124 179.458333,87.6041653 C187.635416,93.635416 193.140624,104.921875 193.593749,117.598957 C175.208333,117.598957 156.661459,117.598957 138.281249,117.598957 C138.729167,104.921875 144.239583,93.635416 152.416667,87.6041653 C156.682291,84.453124 161.307291,83.0312493 165.9375,83.0312493 Z M10.3541667,124.515624 C74.4895827,124.515624 137.468749,124.515624 197.067708,124.515624 C199.031249,124.515624 200.505208,126.151041 200.505208,127.968749 C200.505208,129.791667 199.031249,131.427083 197.067708,131.427083 L176.307291,131.427083 C174.182291,131.427083 172.869792,133.140624 172.848957,134.848957 C172.833333,136.593749 174.203125,138.343749 176.307291,138.343749 L192.838541,138.343749 L186.734375,168.807291 C186.479167,170.177083 185.921875,171.307291 185.328125,171.958333 C184.718749,172.625 184.104167,172.911457 183.223957,172.911457 L155.567708,172.911457 C154.739583,172.911457 154.109375,172.640624 153.494792,171.994791 C152.593749,170.895832 152.234375,169.614583 152,168.625 L148.614583,155.088541 C147.859375,149.703124 143.989583,145.239583 138.296875,145.239583 L134.822916,145.239583 C131.656249,145.239583 129.385416,146.567708 127.677083,148.442708 C125.984375,150.281249 125.010416,152.546875 124.526041,154.927083 L121.083333,168.697916 C120.781249,170.156249 120.218749,171.328124 119.609375,171.994791 C119.192708,172.442708 118.510416,172.911457 117.536459,172.911457 L89.880208,172.911457 C88.9114587,172.911457 88.2239573,172.442708 87.8125,171.994791 C87.197916,171.328124 86.640624,170.156249 86.3333333,168.697916 L82.8958333,154.927083 C82.4114587,152.546875 81.4375,150.281249 79.744792,148.442708 C78.0364587,146.567708 75.765624,145.239583 72.5989573,145.239583 L69.119792,145.239583 C63.4322907,145.239583 59.5625,149.703124 58.8020827,155.088541 L55.4218747,168.625 C55.1875,169.614583 54.822916,170.895832 53.9270827,171.994791 C53.3125,172.640624 52.6822907,172.911457 51.8541667,172.911457 L24.197916,172.911457 C23.317708,172.911457 22.7031253,172.625 22.0937493,171.958333 C21.5,171.307291 20.9375,170.177083 20.6875,168.807291 L14.5833333,138.343749 L31.1145827,138.343749 C33.2187493,138.343749 34.5885413,136.593749 34.567708,134.848957 C34.5520827,133.140624 33.2395827,131.427083 31.1145827,131.427083 L10.3541667,131.427083 C8.390624,131.427083 6.91145867,129.791667 6.91145867,127.968749 C6.91145867,126.151041 8.390624,124.515624 10.3541667,124.515624" id="Shape" fill="#FFFFFF" fill-rule="nonzero" mask="url(#mask-6)"></path>
            </g>
            <polygon id="Path" stroke="#008C8C" stroke-width="21.6864865" transform="translate(81.3468, 48.2421) rotate(-27.2057) translate(-81.3468, -48.2421)" points="63.3364438 77.1536654 63.3354852 20.1606394 81.5884953 19.3304979 79.1061422 65.0914229 99.35527 63.4426939 99.3580255 77.153473"></polygon>
            <polygon id="Path" stroke="#008C8C" stroke-width="21.686492" transform="translate(120.7497, 33.9055) rotate(-12.786) translate(-120.7497, -33.9055)" points="101.499134 62.8177675 101.498439 5.82095987 140.000927 4.99325719 139.999416 21.1914567 116.440428 22.0189943 116.442469 29.1173342 135.120218 27.4651277 135.117721 42.7498322 116.360064 43.5774492 116.360052 50.7554353 139.999575 49.1023331 140.000733 62.8176818"></polygon>
            <polygon id="Path" stroke="#008C8C" stroke-width="21.6865004" transform="translate(167.0785, 30.0279) rotate(3.0728) translate(-167.0785, -30.0279)" points="145.519415 21.9323063 145.515719 1.94542247 188.39743 1.11429984 188.641201 21.1039429 176.741246 21.3463561 176.980742 58.9396744 158.485489 58.9415333 158.890197 21.6891733"></polygon>
            <path d="M197.459672,23.119108 L201.169158,15.6987542 C199.904549,15.3657919 199.052929,14.8381249 198.606722,14.1283882 C198.112505,13.3984595 197.862082,12.6557982 197.863026,11.8877676 C197.862295,10.1268572 198.281119,8.77631528 199.113181,7.83235459 C199.877059,6.95916141 201.443255,6.52396815 203.810504,6.52172246 C205.749528,6.52470699 207.074826,6.99280663 207.782612,7.93233889 C208.496734,8.9186074 208.853389,9.95681503 208.856374,11.0621197 C208.852952,11.9488929 208.827949,12.5779799 208.772526,12.9569652 C208.666579,13.3486037 208.468461,13.8438633 208.190807,14.4503173 L206.798653,17.252688 C206.136,18.5300653 205.229829,20.4858865 204.075088,23.1214157 L197.459672,23.119108 Z" id="Path" stroke="#008C8C" stroke-width="21.6864974" transform="translate(203.158, 14.8216) rotate(14.06) translate(-203.158, -14.8216)"></path>
            <path d="M229.378939,69.1019615 C230.590367,69.1031536 231.63102,69.0240127 232.505601,68.8623038 C233.338313,68.6974198 234.030951,68.2012134 234.581279,67.3689817 C235.132664,66.5996731 235.517631,65.419301 235.73171,63.8184549 C235.894509,62.218903 235.89242,60.01728 235.734618,57.2207624 L228.389016,57.2213735 C226.630093,57.2207624 225.081466,57.1894568 223.752542,57.1229882 C222.436321,57.119678 221.221836,57.0392135 220.120733,56.8818319 C218.967408,56.7723175 217.918291,56.5787111 216.975851,56.2940721 C215.992363,56.0808246 214.95301,55.7499628 213.848382,55.3059537 C211.144794,54.3240753 209.245109,52.6432244 208.142388,50.2609318 C206.985681,47.8985156 206.406356,44.5180373 206.404414,40.1194969 C206.407015,39.0688477 206.379628,37.772973 206.324721,36.2249325 C206.27205,34.6815968 206.379336,33.0622844 206.651282,31.3647604 C206.879122,29.6593556 207.347721,27.9145535 208.061545,26.1397622 C208.773957,24.4348344 209.903428,22.8431744 211.447722,21.3600774 C213.208549,19.6530462 215.522394,18.2484079 218.389257,17.1461634 C221.252709,16.0974332 225.165626,15.570807 230.12554,15.573215 C232.760454,15.573215 235.099094,15.8228652 237.146165,16.3208703 C239.119961,16.8709778 240.880638,17.591506 242.430666,18.4755154 C243.972813,19.4036295 245.298313,20.4461799 246.402461,21.6054013 C247.43804,22.8144894 248.318131,24.1089648 249.044969,25.4935296 C250.202501,27.6998712 250.966964,29.9891264 251.345535,32.3521208 C251.679764,34.7188778 251.847807,36.893569 251.847428,38.8714896 C251.796119,41.1791992 251.573328,43.4415079 251.183997,45.6445366 L234.906292,45.6439738 L234.906268,38.3845825 C234.90665,36.1760208 234.656858,34.4726099 234.161836,33.2604697 C233.610828,32.0518578 232.372004,31.4467163 230.445364,31.4450452 C230.007368,31.4455095 229.536205,31.4732605 229.036578,31.5260634 C228.540479,31.6348498 227.986162,31.7424596 227.38527,31.8491281 C226.010942,32.1847822 225.051083,32.7617851 224.496286,33.5846081 C223.894679,34.4181332 223.536765,35.4126749 223.429486,36.5707041 C223.268692,37.7253219 223.239037,38.9618007 223.347461,40.2826114 C223.454943,41.649997 223.509851,42.9673954 223.512187,44.2348076 C223.51146,45.8842307 223.984254,47.1588233 224.923863,48.0444709 C225.797137,48.984691 227.031611,49.4592805 228.634459,49.4590661 C229.897166,49.4589649 231.1093,49.4252257 232.263921,49.3553776 C233.36585,49.3566856 234.467778,49.3579937 235.574411,49.3570669 C238.046311,49.3534521 240.303799,49.4689793 242.349345,49.6967062 C244.38007,49.9660695 246.141808,50.5188797 247.632323,51.3504319 C249.126602,52.226325 250.281676,53.5170397 251.099779,55.2272798 C251.869072,56.9318746 252.248113,59.2715812 252.25325,62.244401 C252.25075,64.5577568 251.840838,66.5110897 251.021046,68.1113402 C250.133625,69.7148826 249.002629,71.0362644 247.632527,72.084896 C246.196088,73.1881001 244.594641,74.0410182 242.830418,74.6483562 C241.0709,75.2534594 239.312442,75.6908436 237.548107,75.9580406 C235.73449,76.2428794 233.997795,76.4104579 232.34496,76.4632453 C230.637434,76.5708405 229.203597,76.6234215 228.050389,76.6234215 C225.238348,76.6271077 222.818201,76.3754992 220.789713,75.8801995 C218.689128,75.378782 216.903281,74.7509346 215.420762,73.9847756 C213.931304,73.2161466 212.710244,72.3085009 211.773929,71.2598401 C210.787629,70.2637514 210.025501,69.2419085 209.471198,68.1963097 C208.088439,65.7221573 207.476527,62.9164599 207.6377,59.7839215 L224.417717,61.096949 C224.41782,62.3596564 224.469555,63.4882846 224.579864,64.4853027 C224.631955,65.4811432 224.827301,66.305152 225.163434,66.9642667 C225.484512,67.6766614 225.986484,68.1993453 226.655234,68.5390247 C227.260356,68.9146926 228.116232,69.1020627 229.218161,69.1033707 L229.378939,69.1019615 Z" id="Path" stroke="#008C8C" stroke-width="21.6864982" transform="translate(229.2825, 46.0983) rotate(25.407) translate(-229.2825, -46.0983)"></path>
            <g id="Group" transform="translate(52.4977, 22.4241)" fill="#F5F5F5" fill-rule="nonzero">
                <g id="Path">
                    <polygon points="26.0625 59.7708333 0 9.08333333 15.8541667 0 34.5625 41.8333333 51.7916667 31.125 58.0625 43.3125"></polygon>
                </g>
            </g>
            <g id="Group" transform="translate(95.76, 1.4791)" fill="#F5F5F5" fill-rule="nonzero">
                <g id="Path">
                    <polygon points="12.6041667 64.8958333 0 9.3125 37.3541667 0 40.9375 15.7916667 18.1458333 21.7916667 19.7291667 28.7083333 37.5625 22.9583333 40.9583333 37.875 22.8541667 42.8333333 24.4375 49.8333333 47.1041667 43 50.1458333 56.375"></polygon>
                </g>
            </g>
            <g id="Group" transform="translate(145.9717, 0.8215)" fill="#F5F5F5" fill-rule="nonzero">
                <g id="Path">
                    <polygon points="0 19.9791667 1.08333333 0 43.9375 1.5 43.1041667 21.4583333 31.2291667 21.0833333 29.4583333 58.6041667 10.9791667 57.625 13.3958333 20.4583333"></polygon>
                </g>
            </g>
            <g id="Group" transform="translate(195.617, 6.5337)" fill="#F5F5F5" fill-rule="nonzero">
                <g id="Path">
                    <path d="M0,14.9443189 L5.39583333,8.6734856 C4.255208,8.0484856 3.5625,7.32973627 3.3125,6.50681894 C2.98958267,5.70473627 2.927084,4.9182776 3.125,4.15265227 C3.552084,2.44431894 4.28124933,1.24640294 5.3125,0.548485604 C6.27083333,-0.128597063 7.89583333,-0.180681063 10.1875,0.40265227 C12.0468747,0.860985604 13.2187507,1.64223494 13.7083333,2.7359856 C14.1510413,3.8609856 14.2343747,4.96515227 13.9583333,6.0484856 C13.75,6.89744427 13.572916,7.50161094 13.4375,7.8609856 C13.255208,8.19431894 12.947916,8.63181894 12.5208333,9.1734856 L10.4583333,11.5484856 C9.52604133,12.6214029 8.17187467,14.2880696 6.39583333,16.5484856 L0,14.9443189 Z"></path>
                </g>
            </g>
            <g id="Group" transform="translate(201.8683, 15.2056)" fill="#F5F5F5" fill-rule="nonzero">
                <g id="Path">
                    <path d="M17.6337113,51.7273812 C18.727462,52.2377985 19.7066273,52.6127985 20.5712113,52.8523812 C21.373294,53.0607145 22.2066273,52.9044652 23.0712113,52.3940478 C23.8889193,51.9357145 24.743086,51.0294652 25.6337113,49.6857145 C26.4514193,48.3107145 27.4045447,46.3211318 28.487878,43.7065478 L21.8420447,40.5398812 C20.243086,39.7898812 18.852462,39.1023812 17.675378,38.4773812 C16.477462,37.9096732 15.425378,37.3211318 14.5087113,36.7065478 C13.5087113,36.1232145 12.6441287,35.4982145 11.925378,34.8315478 C11.1337113,34.2065478 10.3264193,33.4669638 9.50871132,32.6023812 C7.49308599,30.5346732 6.49829399,28.1961318 6.52954466,25.5815478 C6.49829399,22.9565478 7.43058599,19.6596732 9.32121132,15.6857145 C9.77954466,14.7273812 10.3107953,13.5398812 10.925378,12.1232145 C11.5347527,10.7065478 12.3316273,9.28988116 13.3212113,7.87321449 C14.237878,6.41488116 15.3941287,5.05550649 16.800378,3.78988116 C18.175378,2.55550649 19.868086,1.59196382 21.8837113,0.894047824 C24.2170447,0.118006491 26.925378,-0.152826842 30.0087113,0.0815478244 C33.0347527,0.362798491 36.7899607,1.56071449 41.2795447,3.68571449 C43.6545447,4.82633982 45.6545447,6.06071449 47.2795447,7.39404782 C48.8316273,8.72738116 50.118086,10.1232145 51.1337113,11.5815478 C52.118086,13.0815478 52.862878,14.5971732 53.362878,16.1232145 C53.7899607,17.6648812 54.0399607,19.2169638 54.112878,20.7690478 C54.2066273,23.2430065 53.9149607,25.6336305 53.237878,27.9357145 C52.5139193,30.2169638 51.727462,32.2482145 50.8837113,34.0398812 C49.8264193,36.1127985 48.6649607,38.0555065 47.4045447,39.8732145 L32.6962113,32.8940478 L35.800378,26.3315478 C36.743086,24.3471732 37.248294,22.7013398 37.3212113,21.3940478 C37.3472527,20.0502972 36.487878,18.9669638 34.737878,18.1440478 C34.3472527,17.9513398 33.925378,17.7794652 33.4670447,17.6232145 C32.9514193,17.4982145 32.4045447,17.3627985 31.8212113,17.2065478 C30.430586,16.9148812 29.3107953,17.0190478 28.4670447,17.5190478 C27.550378,18.0190478 26.800378,18.7690478 26.2170447,19.7690478 C25.5764193,20.7430065 25.0139193,21.8471732 24.5295447,23.0815478 C24.0295447,24.3888398 23.5087113,25.6127985 22.9670447,26.7482145 C22.2587113,28.2377985 22.1441287,29.5763398 22.6337113,30.7690478 C23.0191287,32.0086305 23.9357953,32.9669638 25.3837113,33.6440478 C26.5191287,34.1857145 27.6337113,34.6805065 28.7170447,35.1232145 C29.7014193,35.5971732 30.6857953,36.0711318 31.675378,36.5398812 C33.925378,37.6127985 35.9149607,38.6857145 37.6545447,39.7690478 C39.3889193,40.8836305 40.743086,42.1336305 41.7170447,43.5190478 C42.6857953,44.9357145 43.180586,46.5971729 43.1962113,48.4982145 C43.1649607,50.3732145 42.5139193,52.6492558 41.237878,55.3315478 C40.237878,57.4252972 39.0295447,59.0190478 37.612878,60.1023812 C36.112878,61.1700892 34.5139193,61.8836305 32.8212113,62.2482145 C31.055586,62.6075892 29.248294,62.6909225 27.4045447,62.4982145 C25.555586,62.2898812 23.7691287,61.9357145 22.050378,61.4357145 C20.3107953,60.8940478 18.680586,60.2898812 17.1545447,59.6232145 C15.5712113,58.9982145 14.248294,58.4357145 13.1962113,57.9357145 C10.6649607,56.7377985 8.59204466,55.4825892 6.96704466,54.1648812 C5.28475266,52.8002972 3.93579532,51.4565478 2.92537799,50.1232145 C1.90975266,48.7898812 1.20141932,47.4461318 0.80037799,46.1023812 C0.342044656,44.7846732 0.081627323,43.5398812 0.0295446563,42.3732145 C-0.152747344,39.5294652 0.508711323,36.7221732 2.00871132,33.9565478 L16.5712113,42.3732145 C16.0295447,43.5138398 15.5972527,44.5502972 15.2795447,45.4773812 C14.9045447,46.4096732 14.727462,47.2325892 14.7587113,47.9565478 C14.7170447,48.7482145 14.930586,49.4357145 15.4045447,50.0190478 C15.805586,50.6284225 16.498294,51.1700892 17.487878,51.6440478 L17.6337113,51.7273812 Z"></path>
                </g>
            </g>
            <path d="M23.1931086,290.464478 C23.1897182,288.142888 23.2445092,285.846553 23.3460442,283.576496 C23.3946922,281.290056 23.6292923,279.097123 24.0443845,276.988825 C24.4117037,274.922151 25.0260479,272.978675 25.8973113,271.16454 C26.7784697,269.356547 28.0236812,267.752628 29.6285089,266.355515 C31.2268496,265.017428 33.2707895,263.906627 35.7558935,263.025837 C38.1785556,262.152891 41.1751009,261.636217 44.7455304,261.475815 C45.0492075,261.472429 45.3580037,261.447547 45.6736278,261.394003 C45.9264629,261.397437 46.206937,261.396097 46.5249452,261.396124 C49.6255145,261.396391 52.2650766,261.790375 54.4337365,262.57193 C56.5518944,263.390674 58.3356422,264.500782 59.7706488,265.89884 C61.2189624,267.288711 62.3891729,268.892497 63.2741143,270.708489 C64.0897867,272.560985 64.7351859,274.52436 65.2004171,276.59247 C65.6165153,278.660235 65.8783834,280.755625 65.9788575,282.876933 C66.0789865,285.047375 66.1559196,287.14036 66.2052216,289.158617 L50.857783,291.238674 C50.858922,289.898745 50.806146,288.610333 50.7100319,287.360817 C50.5542059,286.123577 50.2997588,285.014284 49.9323616,284.029522 C49.5649635,283.04476 49.0453682,282.269828 48.3780109,281.701998 C47.7106547,281.134169 46.8088623,280.851228 45.6726348,280.853178 L44.9731555,280.849364 C43.5216369,281.014726 42.4102914,281.325472 41.6435541,281.778873 C40.8614577,282.296761 40.3195525,283.046011 40.0134034,284.02935 C39.6465182,285.013367 39.4427071,286.282307 39.3876391,287.832758 C39.3393901,289.43405 39.3160171,291.42364 39.3147891,293.797092 C39.3118551,296.17771 39.3399991,298.221216 39.3920571,299.925903 C39.4437701,301.679724 39.6483712,303.125446 40.0147334,304.257611 C40.3650575,305.393526 40.9361708,306.222374 41.7181781,306.738008 C42.4391054,307.303454 43.5213969,307.591528 44.9756315,307.589606 C46.4254301,307.590413 47.5623626,307.331192 48.3792629,306.810236 C49.1603293,306.360248 49.7257755,305.63932 50.0810597,304.656327 C50.4479438,303.672311 50.6821229,302.403032 50.781889,300.855655 C50.833883,299.349903 50.856897,297.56845 50.858782,295.494238 L66.2052216,293.641086 C66.1554166,296.949449 65.9214185,300.077636 65.5059133,303.030085 C65.1006401,306.019046 64.1730087,308.626147 62.7247251,310.844225 C61.2730275,313.076633 59.1532826,314.839479 56.3644674,316.121164 C53.5248121,317.409667 49.6765965,318.052857 44.8225514,318.055169 C39.9657763,318.053045 36.1098347,317.282261 33.2618925,315.744527 C30.3682282,314.192116 28.2030913,312.124201 26.7521507,309.537367 C25.258895,307.001029 24.3095626,304.056651 23.8898225,300.70082 C23.4277683,297.395485 23.1922862,293.981323 23.1931086,290.464478 Z" id="Path" stroke="#008C8C" stroke-width="20.3479317" transform="translate(44.6992, 289.7246) rotate(31.6025) translate(-44.6992, -289.7246)"></path>
            <path d="M63.4341893,302.483004 C63.4292372,299.692461 63.6157671,297.005031 63.9774129,294.421055 C64.2815958,291.846505 65.1577543,289.52699 66.6090446,287.455852 C68.0631068,285.439021 70.2330757,283.786264 73.1189522,282.497583 C76.0079848,281.202247 80.0416497,280.449911 85.211885,280.24898 L86.9135392,280.245053 C91.3037789,280.245053 94.7914941,280.892475 97.3780938,282.176595 C99.9166555,283.527604 101.851362,285.23212 103.187116,287.288393 C104.489552,289.406309 105.314662,291.782858 105.669102,294.421201 C106.033352,297.056045 106.216469,299.694638 106.216705,302.332075 L106.442053,315.046769 C106.444308,317.783006 106.290712,320.469754 105.987892,323.11017 C105.623387,325.794695 104.740188,328.172015 103.338297,330.24213 C101.904495,332.362327 99.7306436,334.066232 96.8332061,335.353505 C93.8912756,336.640051 89.8356007,337.284116 84.6644323,337.280806 C79.8541218,337.281531 76.1078457,336.637535 73.4206981,335.350555 C70.6841495,334.064597 68.6226165,332.36106 67.2360993,330.239943 C65.835886,328.173472 64.9266934,325.79372 64.5102707,323.105593 C64.0917139,320.473521 63.810864,317.808945 63.6596571,315.120269 L63.4341893,302.483004 Z M84.9108332,299.924831 C83.0409262,300.07721 81.6652709,300.390683 80.7852753,300.853691 C79.8635568,301.370278 79.2464641,302.198501 78.9273423,303.335205 C78.5633404,304.532143 78.4142505,306.083758 78.4734165,307.986895 C78.5241345,309.959397 78.5518045,312.410113 78.5501125,315.352354 C78.5497705,317.166117 78.5747734,318.771788 78.6265294,320.157803 C78.6778994,321.604779 78.8860073,322.824469 79.2540091,323.810216 C79.6048179,324.840798 80.1481126,325.620289 80.8786483,326.133973 C81.5993719,326.651154 82.6492214,326.912768 84.0362596,326.910412 L84.7397613,326.91397 C86.3402285,326.796823 87.5610298,326.48326 88.3888544,325.966969 C89.211387,325.513388 89.8059957,324.792709 90.1677735,323.806681 C90.4829233,322.875981 90.6657912,321.682793 90.7181272,320.232022 C90.7700772,318.842213 90.8204122,317.215214 90.8691311,315.351028 C90.9685111,312.512197 91.04557,310.107086 91.09715,308.142351 C91.145573,306.184271 91.044891,304.583463 90.7933572,303.33502 C90.5288533,302.09673 90.0868775,301.198178 89.4688379,300.627802 C88.8024202,300.107849 87.7921587,299.848635 86.4429594,299.848635 L85.6637798,299.849939 C85.4150309,299.850146 85.1585601,299.875224 84.9108332,299.924831 Z" id="Shape" stroke="#008C8C" stroke-width="20.3479126" transform="translate(84.9381, 308.7629) rotate(19.6209) translate(-84.9381, -308.7629)"></path>
            <polygon id="Path" stroke="#008C8C" stroke-width="20.3479209" transform="translate(122.9887, 317.9712) rotate(9.1531) translate(-122.9887, -317.9712)" points="106.089511 345.097907 106.087865 291.620358 123.21377 290.844544 120.889339 333.781857 139.889502 332.229258 139.889415 345.096234"></polygon>
            <polygon id="Path" stroke="#008C8C" stroke-width="20.3479109" transform="translate(156.8156, 320.6997) rotate(0.0697) translate(-156.8156, -320.6997)" points="139.91841 347.824423 139.91584 294.35046 157.039899 293.574414 154.711935 336.509545 173.715261 334.960379 173.71529 347.824964"></polygon>
            <polygon id="Path" stroke="#008C8C" stroke-width="20.3479221" transform="translate(192.4861, 317.7521) rotate(-9.5116) translate(-192.4861, -317.7521)" points="174.425145 344.879807 174.42323 291.404729 210.548883 290.624108 210.547787 305.822458 188.449146 306.598029 188.447694 313.257047 205.970371 311.709484 205.970011 326.052445 188.370938 326.826753 188.371987 333.565403 210.548361 332.010715 210.546701 344.880078"></polygon>
            <path d="M211.567149,308.287007 C211.566175,305.966298 211.61698,303.670628 211.714703,301.398164 C211.766717,299.114077 212.001527,296.920982 212.416092,294.812169 C212.781241,292.745985 213.40048,290.803162 214.273809,288.983702 C215.158097,287.179492 216.398811,285.58164 217.999618,284.180394 C219.599763,282.840108 221.647751,281.729425 224.132001,280.849554 C226.551626,279.978769 229.551269,279.459623 233.117512,279.2982 C233.424137,279.296644 233.728345,279.27192 234.048425,279.21969 C234.298967,279.21969 234.582425,279.21969 234.898801,279.222364 C238.004052,279.221463 240.639572,279.611502 242.810235,280.394313 C244.928443,281.213044 246.709288,282.32225 248.146066,283.724972 C249.59505,285.110027 250.762211,286.711846 251.647551,288.530429 C252.463974,290.384306 253.111444,292.347151 253.575336,294.413462 C253.992895,296.484609 254.25133,298.579388 254.350642,300.697801 C254.452955,302.867422 254.528515,304.960211 254.580364,306.982876 L239.230876,309.06258 C239.232061,307.72758 239.178957,306.433373 239.081313,305.183628 C238.928794,303.946635 238.672532,302.837563 238.302776,301.852748 C237.937895,300.869765 237.423482,300.092082 236.752829,299.522739 C236.085218,298.960104 235.17962,298.675231 234.045787,298.671787 L233.343537,298.674821 C231.896835,298.837516 230.784059,299.148028 230.018622,299.600275 C229.23423,300.11773 228.689808,300.870089 228.387189,301.852479 C228.021778,302.83908 227.814006,304.101967 227.763249,305.657594 C227.712451,307.257723 227.688131,309.246182 227.687246,311.616267 C227.685737,314.002809 227.713795,316.04435 227.762878,317.748806 C227.814963,319.504472 228.023991,320.946337 228.38813,322.079278 C228.738852,323.218303 229.307476,324.044192 230.092168,324.561821 C230.809154,325.126328 231.897626,325.413191 233.344794,325.412038 C234.796836,325.412717 235.933948,325.15587 236.753091,324.634789 C237.534985,324.183168 238.101325,323.461307 238.453319,322.48079 C238.823605,321.49602 239.056377,320.225842 239.154676,318.676963 C239.208437,317.172542 239.233184,315.390124 239.232583,313.319956 L254.580364,311.467627 C254.52895,314.77034 254.29331,317.897935 253.877996,320.852248 C253.476058,323.844977 252.548392,326.445273 251.096207,328.664719 C249.643399,330.900624 247.524733,332.658018 244.736546,333.946655 C241.898982,335.233418 238.050679,335.878605 233.193469,335.877343 C228.336258,335.876077 224.485553,335.107014 221.631602,333.566485 C218.741693,332.018 216.577049,329.946521 215.122424,327.363007 C213.633008,324.82762 212.681615,321.882457 212.263368,318.525685 C211.798749,315.218248 211.567149,311.809217 211.567149,308.287007 Z" id="Path" stroke="#008C8C" stroke-width="20.3479285" transform="translate(233.0738, 307.5485) rotate(-20.6069) translate(-233.0738, -307.5485)"></path>
            <polygon id="Path" stroke="#008C8C" stroke-width="20.3479174" transform="translate(271.4617, 287.6138) rotate(-32.1604) translate(-271.4617, -287.6138)" points="251.231997 280.015799 251.234122 261.264819 291.466593 260.488076 291.691372 279.240221 280.524307 279.46619 280.752439 314.739461 263.403197 314.738919 263.777618 279.789142"></polygon>
            <g id="Group" transform="translate(19.0295, 261.7689)" fill="#F5F5F5" fill-rule="nonzero">
                <g id="Path">
                    <path d="M6.95073164,17.3269177 C8.16948231,15.3269177 9.42989831,13.3998351 10.721565,11.5352511 C11.9298983,9.6185844 13.2736476,7.8685844 14.7632316,6.28525107 C16.1382316,4.71754307 17.6851063,3.38941773 19.409065,2.3060844 C21.086149,1.22275107 22.971565,0.509209734 25.0548983,0.160251067 C27.1226063,-0.141831599 29.4507316,-0.0168315994 32.034065,0.535251067 C34.5601063,1.06650173 37.3778156,2.19150173 40.4923983,3.91025107 C40.7528156,4.07691773 41.034065,4.22275107 41.3257316,4.34775107 C41.5444823,4.4883764 41.789273,4.63420973 42.0548983,4.78525107 C44.6903143,6.41025107 46.731981,8.1185844 48.1798983,9.91025107 C49.5548983,11.7331684 50.4923983,13.6133764 50.9923983,15.5560844 C51.476773,17.5144177 51.6278156,19.4883764 51.4507316,21.4727511 C51.1694823,23.4883764 50.6903143,25.5040004 50.0132316,27.5144177 C49.2736476,29.4883764 48.3934396,31.4102511 47.3673983,33.2852511 C46.3257316,35.1758764 45.3048983,36.9883764 44.3048983,38.7227511 L30.1173983,32.4727511 C30.8257316,31.3217097 31.4559396,30.1967097 32.0132316,29.0977511 C32.539273,27.9727511 32.909065,26.8894177 33.1173983,25.8477511 C33.3101063,24.8217097 33.2736476,23.8894177 33.0132316,23.0560844 C32.731981,22.2227511 32.106981,21.5092097 31.1382316,20.9102511 L30.5548983,20.5352511 C29.221565,19.9102511 28.1173983,19.5977511 27.2423983,19.5977511 C26.2944823,19.6290004 25.4351063,19.9831684 24.659065,20.6602511 C23.836149,21.3165017 23.0028156,22.2800431 22.159065,23.5560844 C21.2528156,24.9050431 20.1798983,26.5925431 18.9298983,28.6185844 C17.6903143,30.6342097 16.6486476,32.3842097 15.8048983,33.8685844 C14.9298983,35.3998351 14.346565,36.7383764 14.0548983,37.8894177 C13.7632316,39.0404591 13.8101063,40.0404591 14.2007316,40.8894177 C14.5028156,41.7487924 15.284065,42.5612924 16.534065,43.3269177 C17.7528156,44.0873337 18.856981,44.4623337 19.846565,44.4519177 C20.7476063,44.4519177 21.606981,44.1290004 22.4298983,43.4935844 C23.2476063,42.8373337 24.106981,41.8894177 25.0132316,40.6394177 C25.846565,39.3737924 26.8048983,37.8633761 27.8882316,36.0977511 L41.9298983,42.5560844 C40.1486476,45.3477511 38.3153143,47.8894177 36.4298983,50.1810844 C34.4976063,52.5144177 32.336149,54.2540004 29.9507316,55.4102511 C27.5444823,56.5352511 24.8153143,56.9102511 21.7632316,56.5352511 C18.664273,56.1602511 15.0444823,54.6915017 10.909065,52.1394177 C6.78406498,49.5977511 3.91427298,46.9206671 2.30489831,44.1185844 C0.648647642,41.2852511 -0.111768358,38.3894177 0.0132316419,35.4310844 C0.0548983086,32.5040004 0.784064975,29.4935844 2.20073164,26.4102511 C3.51843964,23.3425431 5.10177298,20.3165017 6.95073164,17.3269177 Z"></path>
                </g>
            </g>
            <g id="Group" transform="translate(60.5284, 279.9976)" fill="#F5F5F5" fill-rule="nonzero">
                <g id="Shape">
                    <path d="M6.26157823,15.6506848 C7.1886609,13.0152688 8.25116223,10.5413102 9.44907823,8.23401816 C10.6261622,5.90068483 12.2459529,4.0048515 14.3032449,2.54651816 C16.3449116,1.1298515 18.9386609,0.296518163 22.0949116,0.046518163 C25.2615782,-0.187856504 29.3084529,0.46318483 34.2407449,2.0048515 L35.8449116,2.58818483 C39.9803276,4.0621435 43.0532449,5.83297683 45.0532449,7.90068483 C46.9699116,10.0256848 48.2199116,12.2913102 48.8032449,14.6923515 C49.3032449,17.1090182 49.2824116,19.6246435 48.7407449,22.2340182 C48.1990782,24.8486022 47.4803276,27.3902688 46.5949116,29.8590182 L42.5532449,41.9006848 C41.6365782,44.4840182 40.5844956,46.9631848 39.4074116,49.3381848 C38.1678289,51.7548515 36.5428289,53.6923515 34.5324116,55.1506848 C32.4490782,56.6611008 29.8344956,57.5465182 26.6990782,57.7965182 C23.4907449,58.0308928 19.4490782,57.2808928 14.5740782,55.5465182 C10.0584529,53.9319355 6.7459529,52.0673515 4.63657823,49.9423515 C2.48032756,47.8017262 1.1157449,45.4996435 0.532411565,43.0256848 C-0.108213769,40.6246435 -0.170713769,38.0829768 0.344911565,35.4006848 C0.844911565,32.8069355 1.47511956,30.2079768 2.2407449,27.6090182 L6.26157823,15.6506848 Z M27.3449116,20.4423515 C25.5376196,19.9579768 24.1417862,19.7913102 23.1574116,19.9423515 C22.1001196,20.1090182 21.2303276,20.6819355 20.5532449,21.6506848 C19.8136609,22.6402688 19.1574116,24.0413102 18.5740782,25.8590182 C17.9751196,27.7340182 17.1782449,30.0621435 16.1782449,32.8381848 C15.5792862,34.5361008 15.0636609,36.0465182 14.6365782,37.3798515 C14.1886609,38.7548515 13.9751196,39.9736022 13.9907449,41.0256848 C13.9751196,42.1090182 14.2251196,43.0204768 14.7407449,43.7548515 C15.2407449,44.4944342 16.1469942,45.0986022 17.4699116,45.5673515 L18.1157449,45.7965182 C19.6834529,46.2236022 20.9334529,46.3381848 21.8657449,46.1298515 C22.8240782,45.9631848 23.6261622,45.4840182 24.2824116,44.6923515 C24.8917862,43.9163102 25.4594956,42.8590182 25.9907449,41.5256848 C26.5011622,40.2236022 27.0949116,38.7027675 27.7615782,36.9631848 C28.8292862,34.3381848 29.7199116,32.1038102 30.4282449,30.2548515 C31.1209529,28.4215182 31.5584529,26.8798515 31.7407449,25.6298515 C31.9074116,24.3694342 31.7928289,23.3694342 31.4074116,22.6298515 C30.9490782,21.9111008 30.0844956,21.3277675 28.8240782,20.8798515 L28.0949116,20.6090182 C27.8449116,20.5256848 27.5949116,20.4736022 27.3449116,20.4423515 Z"></path>
                </g>
            </g>
            <g id="Group" transform="translate(101.9952, 289.2748)" fill="#F5F5F5" fill-rule="nonzero">
                <g id="Path">
                    <polygon points="0 52.7916667 8.5 0 25.5208333 1.95833333 16.3958333 43.9791667 35.3958333 45.4583333 33.3541667 58.1666667"></polygon>
                </g>
            </g>
            <g id="Group" transform="translate(139.878, 293.5757)" fill="#F5F5F5" fill-rule="nonzero">
                <g id="Path">
                    <polygon points="0 54.2291667 0.0625 0.75 17.1875 0 14.8333333 42.9375 33.8125 41.3958333 33.7916667 54.2708333"></polygon>
                </g>
            </g>
            <g id="Group" transform="translate(170.3129, 288.0189)" fill="#F5F5F5" fill-rule="nonzero">
                <g id="Path">
                    <polygon points="8.83333333 59.4791667 0 6.72916667 35.5 0 38 14.9791667 16.3541667 19.375 17.4583333 25.9583333 34.4583333 21.5625 36.8333333 35.6875 19.625 39.3541667 20.7291667 46 42.3333333 40.7916667 44.4583333 53.5"></polygon>
                </g>
            </g>
            <g id="Group" transform="translate(208.8669, 278.7151)" fill="#F5F5F5" fill-rule="nonzero">
                <g id="Path">
                    <path d="M4.34568248,37.125 C3.52797448,34.9479173 2.76234914,32.7708333 2.05401581,30.6041667 C1.30401581,28.4531253 0.75193181,26.307292 0.387349143,24.1666667 C0.0019318096,22.125 -0.0970255237,20.0937493 0.0956824763,18.0625 C0.277974476,16.0625 0.87693181,14.1406253 1.88734914,12.2916667 C2.90297448,10.4583333 4.41859848,8.69791733 6.42901581,7 C8.40297448,5.33333333 11.0227658,3.80208267 14.2831825,2.39583333 C14.5852651,2.28645867 14.8769318,2.15625067 15.1581825,2 C15.3925571,1.90625067 15.6581825,1.80208267 15.9498491,1.6875 C18.8508905,0.604166667 21.4498491,0.0416666667 23.7415158,0 C26.0175571,0.0312506667 28.0748491,0.4375 29.9081825,1.22916667 C31.7675571,2.03645867 33.4342238,3.125 34.9081825,4.5 C36.3248491,5.95833333 37.6165158,7.57291733 38.7831825,9.33333333 C39.8925571,11.125 40.8665158,12.994792 41.6998491,14.9375 C42.5592238,16.9270827 43.3665158,18.8541667 44.1165158,20.7291667 L30.5123491,28.0833333 C30.0383905,26.8333333 29.5331825,25.6458333 28.9915158,24.5208333 C28.4185985,23.4114587 27.7883905,22.4687493 27.0956825,21.6875 C26.4133905,20.885416 25.6581825,20.3333333 24.8248491,20.0416667 C23.9915158,19.739584 23.0435985,19.7864587 21.9915158,20.1875 L21.3456825,20.4166667 C20.0227665,21.0989587 19.0956825,21.7864587 18.5540158,22.4791667 C18.0123491,23.2291667 17.7675571,24.125 17.8248491,25.1666667 C17.8352651,26.2083333 18.0852651,27.4687493 18.5748491,28.9375 C19.0852651,30.4531253 19.7623491,32.3281253 20.5956825,34.5625 C21.4290158,36.7864587 22.1790158,38.6875 22.8456825,40.2708333 C23.5123491,41.885416 24.2102651,43.1562507 24.9498491,44.0833333 C25.6842238,45.0312507 26.5019318,45.614584 27.4081825,45.8333333 C28.2675571,46.0989587 29.3873491,45.9739587 30.7623491,45.4583333 C32.1060998,44.9583333 33.0748491,44.3281253 33.6581825,43.5625 C34.2258905,42.8437493 34.5019318,41.9531253 34.4915158,40.8958333 C34.4758905,39.869792 34.2519318,38.6041667 33.8248491,37.1041667 C33.3352651,35.6875 32.7310998,34.010416 32.0123491,32.0625 L45.6998491,24.9375 C46.8248491,28.0520827 47.7102651,31.057292 48.3665158,33.9583333 C49.0435985,36.9062507 49.0956825,39.6770827 48.5123491,42.2708333 C47.9290158,44.8541667 46.5592238,47.244792 44.4081825,49.4375 C42.2102651,51.6458333 38.8352651,53.6041667 34.2831825,55.3125 C29.7519318,57.0208333 25.8769318,57.6458333 22.6581825,57.1875 C19.4081825,56.760416 16.6477665,55.5937493 14.3873491,53.6875 C12.1060998,51.8541667 10.1790158,49.4375 8.59568248,46.4375 C7.00193181,43.5208333 5.58526514,40.4166667 4.34568248,37.125 Z"></path>
                </g>
            </g>
            <g id="Group" transform="translate(240.3168, 254.0254)" fill="#F5F5F5" fill-rule="nonzero">
                <g id="Path">
                    <polygon points="9.97916667 37.9375 0 22.0625 33.625 0 43.8125 15.7291667 34.5 21.875 53.4583333 51.6041667 38.75 60.8541667 20.4791667 31.0416667"></polygon>
                </g>
            </g>
        </g>
    </g>
</svg>